<?xml version="1.0" encoding="utf-8"?>
<!-- Generator: Adobe Illustrator 17.1.0, SVG Export Plug-In . SVG Version: 6.00 Build 0)  -->
<!DOCTYPE svg PUBLIC "-//W3C//DTD SVG 1.1//EN" "http://www.w3.org/Graphics/SVG/1.1/DTD/svg11.dtd">
<svg version="1.1" id="Layer_1" xmlns="http://www.w3.org/2000/svg" xmlns:xlink="http://www.w3.org/1999/xlink" x="0px" y="0px"
	 viewBox="0 0 28 22" width="28px" height="22px" style="enable-background:new 0 0 28 22;" xml:space="preserve">
<path style="fill:#333333;" d="M3.793,21.001c-0.169,0-0.327-0.066-0.446-0.185l-2.162-2.162c-0.246-0.246-0.246-0.646,0-0.892
	l4.988-4.987c0.119-0.119,0.278-0.185,0.446-0.185c0.169,0,0.327,0.066,0.446,0.185l0.311,0.311l0.662-0.662l-0.079-0.112
	c-2.02-2.859-1.688-6.732,0.79-9.21c1.355-1.356,3.158-2.102,5.075-2.102s3.719,0.747,5.075,2.102c2.798,2.798,2.798,7.352,0,10.15
	c-1.355,1.355-3.156,2.101-5.072,2.101h0c-1.493,0-2.924-0.453-4.137-1.311l-0.112-0.079l-0.662,0.662l0.311,0.311
	c0.246,0.246,0.246,0.647,0,0.893l-4.987,4.988C4.12,20.935,3.962,21.001,3.793,21.001L3.793,21.001z M13.824,2.867
	c-1.418,0-2.752,0.552-3.754,1.555C9.067,5.425,8.515,6.758,8.515,8.176c0,1.418,0.552,2.752,1.555,3.754
	c1.003,1.003,2.336,1.555,3.754,1.555c1.418,0,2.752-0.552,3.754-1.555c2.07-2.07,2.07-5.439,0-7.509
	C16.576,3.419,15.243,2.867,13.824,2.867L13.824,2.867z"/>
</svg>
