<?xml version="1.0" encoding="utf-8"?>
<!-- Generator: Adobe Illustrator 17.1.0, SVG Export Plug-In . SVG Version: 6.00 Build 0)  -->
<!DOCTYPE svg PUBLIC "-//W3C//DTD SVG 1.1//EN" "http://www.w3.org/Graphics/SVG/1.1/DTD/svg11.dtd">
<svg version="1.1" id="Layer_1" xmlns="http://www.w3.org/2000/svg" xmlns:xlink="http://www.w3.org/1999/xlink" x="0px" y="0px"
	 viewBox="0 0 32 32" width="32px" height="32px" style="enable-background:new 0 0 32 32;" xml:space="preserve">
<g>
	<path style="fill:#333333;" d="M17.302,11.317c0.934-0.078,1.851,0.237,2.497,0.883c0.647,0.647,0.97,1.558,0.886,2.5
		c-0.093,1.045,0.679,1.968,1.724,2.06c0.057,0.005,0.114,0.007,0.171,0.007c0.973,0,1.802-0.743,1.89-1.731
		c0.183-2.065-0.539-4.078-1.984-5.522c-1.445-1.445-3.465-2.167-5.522-1.981c-1.045,0.094-1.817,1.017-1.723,2.062
		C15.334,10.639,16.269,11.4,17.302,11.317z"/>
	<path style="fill:#333333;" d="M27.071,4.928C24.563,2.419,21.225,1.023,17.671,1c-0.004,0-0.009,0-0.012,0
		c-1.044,0-1.892,0.842-1.9,1.887c-0.007,1.049,0.837,1.905,1.887,1.912c2.546,0.017,4.94,1.017,6.738,2.815
		c1.798,1.798,2.799,4.191,2.817,6.74c0.007,1.045,0.857,1.886,1.9,1.886c0.004,0,0.009,0,0.014,0
		c1.049-0.007,1.894-0.865,1.886-1.913C30.975,10.773,29.58,7.435,27.071,4.928z"/>
	<path style="fill:#333333;" d="M28.922,24.694c-2.058-1.346-4.05-2.805-5.96-4.344c-0.628-0.51-1.442-0.49-2.065,0.018
		c-0.733,0.597-1.165,1.577-1.881,2.336c-0.578,0.611-2.754,0.668-6.613-3.109c-3.777-3.859-3.72-6.036-3.107-6.612
		c0.757-0.717,1.738-1.148,2.335-1.882c0.507-0.623,0.527-1.437,0.016-2.065c-1.537-1.91-2.996-3.901-4.342-5.959
		C6.857,2.4,6.06,2.055,5.275,2.286C4.51,2.513,2.621,3.708,1.99,4.389c-2.218,2.399-1.117,9.621,7.442,18.179
		c8.557,8.557,15.779,9.658,18.178,7.44c0.681-0.629,1.877-2.519,2.101-3.286C29.943,25.938,29.599,25.142,28.922,24.694z"/>
</g>
</svg>
