<?xml version="1.0" encoding="utf-8"?>
<!-- Generator: Adobe Illustrator 17.1.0, SVG Export Plug-In . SVG Version: 6.00 Build 0)  -->
<!DOCTYPE svg PUBLIC "-//W3C//DTD SVG 1.1//EN" "http://www.w3.org/Graphics/SVG/1.1/DTD/svg11.dtd">
<svg version="1.1" id="Layer_1" xmlns="http://www.w3.org/2000/svg" xmlns:xlink="http://www.w3.org/1999/xlink" x="0px" y="0px"
	 viewBox="0 0 232 90" width="232px" height="90px" style="enable-background:new 0 0 232 90;" xml:space="preserve">
<path d="M66.5,78.71h2.83c2.61,0,4.13-1.09,4.13-3.31c0-2.06-0.95-3.32-3.95-3.32H66.5V78.71z M64.85,70.8h5.49
	c3.07,0,4.77,1.61,4.77,4.24c0,2.04-0.88,3.86-3.33,4.29v0.05c2.3,0.19,3.07,1.39,3.15,4l0.05,1.85c0.03,0.92,0.13,1.82,0.78,2.49
	h-1.94c-0.39-0.6-0.46-1.47-0.49-2.37l-0.05-1.42c-0.1-2.99-0.7-3.94-3.66-3.94H66.5v7.73h-1.65V70.8z"/>
<polygon points="80.32,70.8 89.45,70.8 89.45,72.08 81.97,72.08 81.97,78.24 88.96,78.24 88.96,79.52 81.97,79.52 81.97,86.44 
	89.68,86.44 89.68,87.72 80.32,87.72 "/>
<polygon points="94.35,70.8 96.57,70.8 103.61,85.54 103.66,85.54 103.66,70.8 105.31,70.8 105.31,87.72 103.1,87.72 96.05,72.98 
	96,72.98 96,87.72 94.35,87.72 "/>
<path d="M116.51,86.72c2.63,0,4.23-1.99,4.23-7.46s-1.6-7.46-4.23-7.46c-2.63,0-4.23,1.99-4.23,7.46S113.88,86.72,116.51,86.72z
	 M116.51,70.52c3.76,0,5.88,2.67,5.88,8.74c0,6.06-2.12,8.74-5.88,8.74c-3.77,0-5.88-2.68-5.88-8.74
	C110.63,73.19,112.74,70.52,116.51,70.52z"/>
<polygon points="126.34,70.8 128.09,70.8 132.19,86.1 132.24,86.1 136.34,70.8 138.1,70.8 133.25,87.72 131.18,87.72 "/>
<path d="M149.11,81.51l-2.83-9.52h-0.06l-2.83,9.52C143.39,81.51,149.11,81.51,149.11,81.51z M145.22,70.8h2.06l5.44,16.92h-1.75
	l-1.5-4.93h-6.44l-1.5,4.93h-1.75L145.22,70.8z"/>
<polygon points="158.76,72.08 154.02,72.08 154.02,70.8 165.16,70.8 165.16,72.08 160.41,72.08 160.41,87.72 158.76,87.72 "/>
<rect x="169.44" y="70.8" width="1.65" height="16.92"/>
<path d="M182.39,86.72c2.63,0,4.23-1.99,4.23-7.46s-1.6-7.46-4.23-7.46s-4.23,1.99-4.23,7.46S179.76,86.72,182.39,86.72z
	 M182.39,70.52c3.76,0,5.88,2.67,5.88,8.74c0,6.06-2.12,8.74-5.88,8.74c-3.77,0-5.88-2.68-5.88-8.74
	C176.51,73.19,178.62,70.52,182.39,70.52z"/>
<polygon points="193.58,70.8 195.8,70.8 202.84,85.54 202.89,85.54 202.89,70.8 204.54,70.8 204.54,87.72 202.33,87.72 
	195.28,72.98 195.23,72.98 195.23,87.72 193.58,87.72 "/>
<path d="M218.08,75.14c0-2.09-1.05-3.34-3.3-3.34c-2.24,0-3.48,1.35-3.48,3.03c0,5.04,8.93,2.27,8.93,8.22
	c0,3.27-2.22,4.95-5.58,4.95c-3.45,0-5.36-1.71-5.36-5.02v-0.5h1.65v0.64c0,2.16,1.24,3.6,3.66,3.6c2.32,0,3.97-1.07,3.97-3.43
	c0-5.03-8.92-2.16-8.92-8.3c0-2.65,1.88-4.47,5.08-4.47c3.43,0,5.01,1.61,5.01,4.62H218.08z"/>
<path style="fill:#E43238;" d="M23.31,2.01c-1.39,0-2.53,1.13-2.53,2.52v13.23c0,1.38-1.13,2.52-2.53,2.52H4.14
	c-1.39,0-2.53,1.14-2.53,2.53v1.22c0,1.39,1.14,2.52,2.53,2.52l20.56-0.01c1.39,0,2.53-1.13,2.53-2.52L27.22,4.53
	c0-1.39-1.14-2.53-2.54-2.53L23.31,2.01z"/>
<path style="fill:#0078BB;" d="M37.56,2c1.4,0,2.54,1.13,2.54,2.52v13.23c0,1.38,1.14,2.52,2.54,2.52l14.11-0.01
	c1.39,0,2.53,1.14,2.53,2.52v1.23c0,1.38-1.14,2.52-2.53,2.52L36.2,26.54c-1.39,0-2.53-1.14-2.53-2.52l-0.01-19.5
	C33.66,3.14,34.8,2,36.19,2H37.56z"/>
<path style="fill:#F08F00;" d="M23.33,57.08c-1.39,0-2.53-1.13-2.53-2.52L20.79,41.2c0-1.39-1.14-2.52-2.53-2.52L4.15,38.69
	c-1.39,0-2.53-1.14-2.53-2.52l-0.01-1.1c0-1.38,1.14-2.52,2.54-2.52l20.55-0.01c1.39,0,2.53,1.14,2.53,2.53l0.01,19.49
	c0,1.38-1.14,2.52-2.53,2.52C24.71,57.08,23.33,57.08,23.33,57.08z"/>
<path style="fill:#53AB40;" d="M35.34,60.31c-0.99-0.97-0.98-2.55,0.03-3.51l9.91-9.45c1.01-0.96,1.01-2.53,0-3.49l-9.92-9.44
	c-1.01-0.96-1.01-2.53,0-3.49l0.82-0.78c1-0.96,2.65-0.96,3.66-0.01l14.54,13.72c1.01,0.96,1.01,2.52,0,3.48L39.85,61.2
	c-1.01,0.96-2.64,0.95-3.63-0.03L35.34,60.31z"/>
<path style="fill:#19161B;" d="M68.12,34.24v7.72c0,1.04,0.85,1.98,1.89,2.09l0.97,0.01c2.46,0,4.25-0.39,5.37-1.17
	c1.12-0.79,1.68-2.18,1.68-4.19c0-1.65-0.6-2.84-1.8-3.57c-1.21-0.73-3.1-1.09-5.7-1.09C70.12,34.04,69.32,34.11,68.12,34.24z
	 M82.36,60.19c-1.04,0-2.35-0.72-2.91-1.6l-5.98-9.5c-0.56-0.88-1.87-1.62-2.91-1.65c0,0-0.46-0.02-2.44-0.15V58.3
	c0,1.04-0.86,1.89-1.9,1.89h-0.3c-1.04,0-1.9-0.85-1.9-1.89V32.5c0-1.04,0.55-1.92,1.22-1.95l1.97-0.1c1.97-0.1,3.41-0.15,4.31-0.15
	c7.2,0,10.81,2.83,10.81,8.48c0,1.86-0.59,3.54-1.74,5.02c-1.16,1.49-2.54,2.42-4.14,2.78l7.68,12.02c0.56,0.88,0.17,1.59-0.88,1.59
	H82.36z"/>
<path style="fill:#19161B;" d="M94.21,34.24c-1.04,0-1.89,0.85-1.89,1.89v4.44c0,1.04,0.85,1.89,1.89,1.89h6.11
	c1.05,0,1.9,0.77,1.9,1.72c0,0.94-0.85,1.71-1.9,1.71h-6.11c-1.04,0-1.89,0.86-1.89,1.9v6.88c0,1.04,0.85,1.89,1.89,1.89h9.8
	c1.04,0,1.9,0.82,1.9,1.82s-0.86,1.81-1.9,1.81H90.12c-1.04,0-1.9-0.85-1.9-1.89V32.5c0-1.04,0.86-1.9,1.9-1.9h14.11
	c1.05,0,1.9,0.82,1.9,1.82c0,1-0.85,1.82-1.9,1.82H94.21z"/>
<path style="fill:#19161B;" d="M116.67,34.24c-1.04,0-1.9,0.85-1.9,1.89v4.44c0,1.04,0.86,1.89,1.9,1.89h6.75
	c1.04,0,1.89,0.77,1.89,1.72c0,0.94-0.85,1.71-1.89,1.71h-6.75c-1.04,0-1.9,0.86-1.9,1.9V58.3c0,1.04-0.85,1.89-1.9,1.89h-0.29
	c-1.05,0-1.9-0.85-1.9-1.89V32.5c0-1.04,0.85-1.9,1.9-1.9h14.73c1.04,0,1.89,0.82,1.89,1.82c0,1-0.85,1.82-1.89,1.82H116.67z"/>
<path style="fill:#19161B;" d="M136.98,34.24v7.72c0,1.04,0.85,1.98,1.89,2.09l0.98,0.01c2.45,0,4.24-0.39,5.36-1.17
	c1.12-0.79,1.68-2.18,1.68-4.19c0-1.65-0.6-2.84-1.8-3.57s-3.1-1.09-5.69-1.09C138.99,34.04,138.18,34.11,136.98,34.24z
	 M151.23,60.19c-1.05,0-2.36-0.72-2.91-1.6l-5.99-9.5c-0.55-0.88-1.86-1.62-2.91-1.65c0,0-0.46-0.02-2.44-0.15V58.3
	c0,1.04-0.85,1.89-1.9,1.89h-0.29c-1.05,0-1.9-0.85-1.9-1.89V32.5c0-1.04,0.54-1.92,1.21-1.95l1.97-0.1
	c1.97-0.1,3.41-0.15,4.31-0.15c7.21,0,10.81,2.83,10.81,8.48c0,1.86-0.58,3.54-1.74,5.02c-1.16,1.49-2.54,2.42-4.14,2.78l7.68,12.02
	c0.57,0.88,0.17,1.59-0.87,1.59H151.23z"/>
<path style="fill:#19161B;" d="M163.08,34.24c-1.04,0-1.9,0.85-1.9,1.89v4.44c0,1.04,0.86,1.89,1.9,1.89h6.11
	c1.04,0,1.9,0.77,1.9,1.72c0,0.94-0.86,1.71-1.9,1.71h-6.11c-1.04,0-1.9,0.86-1.9,1.9v6.88c0,1.04,0.86,1.89,1.9,1.89h9.79
	c1.05,0,1.9,0.82,1.9,1.82s-0.85,1.81-1.9,1.81h-13.89c-1.04,0-1.89-0.85-1.89-1.89V32.5c0-1.04,0.85-1.9,1.89-1.9h14.12
	c1.04,0,1.9,0.82,1.9,1.82c0,1-0.86,1.82-1.9,1.82H163.08z"/>
<path style="fill:#19161B;" d="M178.19,58.84l0.79-1.96c0.39-0.97,1.44-1.32,2.34-0.79c0,0,0.08,0.05,1.22,0.42s2.16,0.55,3.06,0.55
	c1.6,0,2.88-0.43,3.85-1.29s1.46-1.96,1.46-3.29c0-1-0.28-1.92-0.81-2.78c-0.54-0.85-1.9-1.79-4.07-2.8l-0.69-0.31
	c-0.95-0.44-2.46-1.23-3.35-1.76c0,0-1.85-1.1-2.66-2.39s-1.22-2.85-1.22-4.67c0-2.2,0.79-4.04,2.37-5.49
	c1.59-1.45,3.62-2.18,6.1-2.18c3.32,0,5.63,0.53,6.93,1.6l-0.6,1.72c-0.34,0.98-1.23,1.44-1.99,1.02l-1.12-0.36
	c-1.12-0.37-2.16-0.55-3.11-0.55c-1.39,0-2.49,0.39-3.29,1.17c-0.8,0.79-1.2,1.79-1.2,3.01c0,0.76,0.15,1.45,0.43,2.06
	c0.29,0.62,0.69,1.14,1.2,1.56c0.51,0.42,1.56,1,3.14,1.76l0.74,0.34c0.95,0.45,2.45,1.25,3.35,1.79c0,0,1.85,1.12,2.68,2.44
	c0.83,1.33,1.24,3.02,1.24,5.06c0,2.22-0.91,4.11-2.71,5.66c-1.81,1.55-4.23,2.32-7.26,2.32C182.35,60.7,180.08,60.08,178.19,58.84z
	"/>
<path style="fill:#19161B;" d="M218.8,60.19c-1.04,0-1.9-0.85-1.9-1.89V47.79c0-1.04-0.85-1.9-1.9-1.9h-9.3
	c-1.04,0-1.9,0.86-1.9,1.9V58.3c0,1.04-0.85,1.89-1.9,1.89h-0.29c-1.05,0-1.9-0.85-1.9-1.89V32.5c0-1.04,0.85-1.9,1.9-1.9h0.29
	c1.05,0,1.9,0.86,1.9,1.9v8.07c0,1.04,0.86,1.89,1.9,1.89h9.3c1.05,0,1.9-0.85,1.9-1.89V32.5c0-1.04,0.86-1.9,1.9-1.9h0.3
	c1.04,0,1.9,0.86,1.9,1.9v25.8c0,1.04-0.86,1.89-1.9,1.89H218.8z"/>
<path style="fill:#19161B;" d="M226.53,33.66h0.43c0.45,0,0.87-0.14,0.87-0.52c0-0.33-0.22-0.57-0.81-0.57
	c-0.25,0-0.39,0.02-0.49,0.04L226.53,33.66L226.53,33.66z M226.53,35.57h-0.63v-3.38c0.35-0.06,0.71-0.11,1.18-0.11
	c0.57,0,0.85,0.11,1.06,0.27c0.2,0.14,0.34,0.4,0.34,0.73c0,0.4-0.3,0.66-0.65,0.79v0.04c0.29,0.12,0.45,0.38,0.55,0.83
	c0.1,0.5,0.18,0.7,0.26,0.83h-0.65c-0.1-0.13-0.18-0.43-0.28-0.87c-0.08-0.39-0.3-0.55-0.77-0.55h-0.41L226.53,35.57L226.53,35.57z
	 M227.1,31.13c-1.46,0-2.58,1.2-2.58,2.65c0,1.5,1.12,2.68,2.62,2.68c1.44,0.02,2.54-1.18,2.54-2.65c0-1.48-1.1-2.68-2.56-2.68
	C227.12,31.13,227.1,31.13,227.1,31.13z M227.14,30.57c1.83,0,3.25,1.41,3.25,3.21c0,1.85-1.42,3.26-3.27,3.26s-3.31-1.41-3.31-3.26
	c0-1.8,1.46-3.21,3.31-3.21H227.14z"/>
<g>
	<path style="fill:#FF0000;" d="M12.937,82.063c0-0.666,0.45-1.134,1.08-1.134s1.063,0.468,1.063,1.134
		c0,0.648-0.414,1.135-1.081,1.135C13.368,83.198,12.937,82.712,12.937,82.063z"/>
	<path style="fill:#FF0000;" d="M23.252,82.676c-0.414,0.216-1.333,0.504-2.503,0.504c-2.629,0-4.339-1.782-4.339-4.447
		c0-2.683,1.836-4.627,4.682-4.627c0.936,0,1.764,0.234,2.197,0.45l-0.36,1.225c-0.378-0.217-0.972-0.415-1.836-0.415
		c-1.999,0-3.079,1.477-3.079,3.296c0,2.017,1.296,3.259,3.025,3.259c0.9,0,1.495-0.234,1.945-0.433L23.252,82.676z"/>
	<path style="fill:#FF0000;" d="M32.882,78.57c0,3.224-2.232,4.628-4.339,4.628c-2.358,0-4.177-1.729-4.177-4.483
		c0-2.917,1.909-4.628,4.321-4.628C31.19,74.087,32.882,75.906,32.882,78.57z M25.968,78.661c0,1.908,1.098,3.349,2.647,3.349
		c1.512,0,2.646-1.423,2.646-3.385c0-1.477-0.738-3.35-2.61-3.35C26.778,75.275,25.968,77.004,25.968,78.661z"/>
	<path style="fill:#FF0000;" d="M34.878,76.645c0-0.9-0.018-1.639-0.072-2.359h1.387l0.072,1.404h0.054
		c0.486-0.828,1.296-1.603,2.737-1.603c1.188,0,2.088,0.721,2.467,1.747h0.036c0.271-0.486,0.612-0.864,0.973-1.135
		c0.522-0.396,1.098-0.612,1.926-0.612c1.152,0,2.863,0.757,2.863,3.781V83h-1.548v-4.934c0-1.675-0.612-2.683-1.891-2.683
		c-0.9,0-1.602,0.666-1.873,1.44c-0.072,0.216-0.126,0.504-0.126,0.792V83h-1.548v-5.222c0-1.387-0.612-2.395-1.818-2.395
		c-0.991,0-1.71,0.792-1.963,1.584c-0.09,0.234-0.126,0.505-0.126,0.774V83h-1.548V76.645z"/>
</g>
</svg>
