<?xml version="1.0" encoding="utf-8"?>
<!-- Generator: Adobe Illustrator 17.1.0, SVG Export Plug-In . SVG Version: 6.00 Build 0)  -->
<!DOCTYPE svg PUBLIC "-//W3C//DTD SVG 1.1//EN" "http://www.w3.org/Graphics/SVG/1.1/DTD/svg11.dtd">
<svg version="1.1" id="Layer_1" xmlns="http://www.w3.org/2000/svg" xmlns:xlink="http://www.w3.org/1999/xlink" x="0px" y="0px"
	 viewBox="0 0 32 32" width="32px" height="32px" style="enable-background:new 0 0 32 32;" xml:space="preserve">
<path style="fill:#333333;" d="M5.192,31c-0.253,0-0.491-0.098-0.669-0.277L1.279,27.48c-0.369-0.369-0.369-0.969,0-1.339
	l7.481-7.48c0.179-0.179,0.416-0.278,0.669-0.278c0.253,0,0.491,0.099,0.669,0.277l0.467,0.466l0.993-0.993l-0.118-0.167
	C8.41,13.679,8.909,7.869,12.626,4.153C14.659,2.12,17.362,1,20.238,1s5.579,1.12,7.612,3.153c4.197,4.197,4.197,11.027,0,15.224
	c-2.032,2.032-4.734,3.151-7.607,3.151h0c-2.24,0-4.386-0.68-6.205-1.966l-0.167-0.118l-0.993,0.993l0.466,0.466
	c0.369,0.369,0.369,0.97,0,1.339l-7.48,7.481C5.683,30.902,5.445,31,5.192,31L5.192,31z M20.238,3.801
	c-2.127,0-4.127,0.828-5.631,2.333c-1.504,1.504-2.333,3.504-2.333,5.631c0,2.127,0.828,4.127,2.333,5.631
	c1.504,1.504,3.504,2.333,5.631,2.333c2.127,0,4.127-0.828,5.631-2.333c3.105-3.105,3.105-8.158,0-11.262
	C24.365,4.629,22.365,3.801,20.238,3.801L20.238,3.801z"/>
</svg>
