<?xml version="1.0" encoding="utf-8"?>
<!-- Generator: Adobe Illustrator 18.1.1, SVG Export Plug-In . SVG Version: 6.00 Build 0)  -->
<svg version="1.1" id="Layer_1" xmlns="http://www.w3.org/2000/svg" xmlns:xlink="http://www.w3.org/1999/xlink" x="0px" y="0px"
	 viewBox="90 91 792 612" width="792px" height="612px" style="enable-background:new 90 91 792 612;" xml:space="preserve">
<path d="M327.5,246.71h2.83c2.61,0,4.13-1.09,4.13-3.31c0-2.06-0.95-3.32-3.95-3.32h-3.01V246.71L327.5,246.71z M325.85,238.8h5.49
	c3.07,0,4.77,1.61,4.77,4.24c0,2.04-0.88,3.86-3.33,4.29v0.05c2.3,0.19,3.07,1.39,3.15,4l0.05,1.85c0.03,0.92,0.13,1.82,0.78,2.49
	h-1.94c-0.39-0.6-0.46-1.47-0.49-2.37l-0.05-1.42c-0.1-2.99-0.7-3.94-3.66-3.94h-3.12v7.73h-1.65V238.8z"/>
<polygon points="341.32,238.8 350.45,238.8 350.45,240.08 342.97,240.08 342.97,246.24 349.96,246.24 349.96,247.52 342.97,247.52 
	342.97,254.44 350.68,254.44 350.68,255.72 341.32,255.72 "/>
<polygon points="355.35,238.8 357.57,238.8 364.61,253.54 364.66,253.54 364.66,238.8 366.31,238.8 366.31,255.72 364.1,255.72 
	357.05,240.98 357,240.98 357,255.72 355.35,255.72 "/>
<path d="M377.51,254.72c2.63,0,4.23-1.99,4.23-7.46s-1.6-7.46-4.23-7.46s-4.23,1.99-4.23,7.46S374.88,254.72,377.51,254.72z
	 M377.51,238.52c3.76,0,5.88,2.67,5.88,8.74c0,6.06-2.12,8.74-5.88,8.74c-3.77,0-5.88-2.68-5.88-8.74
	C371.63,241.19,373.74,238.52,377.51,238.52z"/>
<polygon points="387.34,238.8 389.09,238.8 393.19,254.1 393.24,254.1 397.34,238.8 399.1,238.8 394.25,255.72 392.18,255.72 "/>
<path d="M410.11,249.51l-2.83-9.52h-0.06l-2.83,9.52H410.11z M406.22,238.8h2.06l5.44,16.92h-1.75l-1.5-4.93h-6.44l-1.5,4.93h-1.75
	L406.22,238.8z"/>
<polygon points="419.76,240.08 415.02,240.08 415.02,238.8 426.16,238.8 426.16,240.08 421.41,240.08 421.41,255.72 419.76,255.72 
	"/>
<rect x="430.44" y="238.8" width="1.65" height="16.92"/>
<path d="M443.39,254.72c2.63,0,4.23-1.99,4.23-7.46s-1.6-7.46-4.23-7.46s-4.23,1.99-4.23,7.46S440.76,254.72,443.39,254.72z
	 M443.39,238.52c3.76,0,5.88,2.67,5.88,8.74c0,6.06-2.12,8.74-5.88,8.74c-3.77,0-5.88-2.68-5.88-8.74
	C437.51,241.19,439.62,238.52,443.39,238.52z"/>
<polygon points="454.58,238.8 456.8,238.8 463.84,253.54 463.89,253.54 463.89,238.8 465.54,238.8 465.54,255.72 463.33,255.72 
	456.28,240.98 456.23,240.98 456.23,255.72 454.58,255.72 "/>
<path d="M479.08,243.14c0-2.09-1.05-3.34-3.3-3.34c-2.24,0-3.48,1.35-3.48,3.03c0,5.04,8.93,2.27,8.93,8.22
	c0,3.27-2.22,4.95-5.58,4.95c-3.45,0-5.36-1.71-5.36-5.02v-0.5h1.65v0.64c0,2.16,1.24,3.6,3.66,3.6c2.32,0,3.97-1.07,3.97-3.43
	c0-5.03-8.92-2.16-8.92-8.3c0-2.65,1.88-4.47,5.08-4.47c3.43,0,5.01,1.61,5.01,4.62H479.08z"/>
<path style="fill:#E43238;" d="M284.31,170.01c-1.39,0-2.53,1.13-2.53,2.52v13.23c0,1.38-1.13,2.52-2.53,2.52h-14.11
	c-1.39,0-2.53,1.14-2.53,2.53v1.22c0,1.39,1.14,2.52,2.53,2.52l20.56-0.01c1.39,0,2.53-1.13,2.53-2.52l-0.01-19.49
	c0-1.39-1.14-2.53-2.54-2.53L284.31,170.01z"/>
<path style="fill:#0078BB;" d="M298.56,170c1.4,0,2.54,1.13,2.54,2.52v13.23c0,1.38,1.14,2.52,2.54,2.52l14.11-0.01
	c1.39,0,2.53,1.14,2.53,2.52v1.23c0,1.38-1.14,2.52-2.53,2.52l-20.55,0.01c-1.39,0-2.53-1.14-2.53-2.52l-0.01-19.5
	c0-1.38,1.14-2.52,2.53-2.52H298.56z"/>
<path style="fill:#F08F00;" d="M284.33,225.08c-1.39,0-2.53-1.13-2.53-2.52l-0.01-13.36c0-1.39-1.14-2.52-2.53-2.52l-14.11,0.01
	c-1.39,0-2.53-1.14-2.53-2.52l-0.01-1.1c0-1.38,1.14-2.52,2.54-2.52l20.55-0.01c1.39,0,2.53,1.14,2.53,2.53l0.01,19.49
	c0,1.38-1.14,2.52-2.53,2.52C285.71,225.08,284.33,225.08,284.33,225.08z"/>
<path style="fill:#53AB40;" d="M296.34,228.31c-0.99-0.97-0.98-2.55,0.03-3.51l9.91-9.45c1.01-0.96,1.01-2.53,0-3.49l-9.92-9.44
	c-1.01-0.96-1.01-2.53,0-3.49l0.82-0.78c1-0.96,2.65-0.96,3.66-0.01l14.54,13.72c1.01,0.96,1.01,2.52,0,3.48l-14.53,13.86
	c-1.01,0.96-2.64,0.95-3.63-0.03L296.34,228.31z"/>
<path style="fill:#19161B;" d="M329.12,202.24v7.72c0,1.04,0.85,1.98,1.89,2.09l0.97,0.01c2.46,0,4.25-0.39,5.37-1.17
	c1.12-0.79,1.68-2.18,1.68-4.19c0-1.65-0.6-2.84-1.8-3.57c-1.21-0.73-3.1-1.09-5.7-1.09C331.12,202.04,330.32,202.11,329.12,202.24z
	 M343.36,228.19c-1.04,0-2.35-0.72-2.91-1.6l-5.98-9.5c-0.56-0.88-1.87-1.62-2.91-1.65c0,0-0.46-0.02-2.44-0.15v11.01
	c0,1.04-0.86,1.89-1.9,1.89h-0.3c-1.04,0-1.9-0.85-1.9-1.89v-25.8c0-1.04,0.55-1.92,1.22-1.95l1.97-0.1
	c1.97-0.1,3.41-0.15,4.31-0.15c7.2,0,10.81,2.83,10.81,8.48c0,1.86-0.59,3.54-1.74,5.02c-1.16,1.49-2.54,2.42-4.14,2.78l7.68,12.02
	c0.56,0.88,0.17,1.59-0.88,1.59L343.36,228.19L343.36,228.19z"/>
<path style="fill:#19161B;" d="M355.21,202.24c-1.04,0-1.89,0.85-1.89,1.89v4.44c0,1.04,0.85,1.89,1.89,1.89h6.11
	c1.05,0,1.9,0.77,1.9,1.72c0,0.94-0.85,1.71-1.9,1.71h-6.11c-1.04,0-1.89,0.86-1.89,1.9v6.88c0,1.04,0.85,1.89,1.89,1.89h9.8
	c1.04,0,1.9,0.82,1.9,1.82s-0.86,1.81-1.9,1.81h-13.89c-1.04,0-1.9-0.85-1.9-1.89v-25.8c0-1.04,0.86-1.9,1.9-1.9h14.11
	c1.05,0,1.9,0.82,1.9,1.82s-0.85,1.82-1.9,1.82H355.21z"/>
<path style="fill:#19161B;" d="M377.67,202.24c-1.04,0-1.9,0.85-1.9,1.89v4.44c0,1.04,0.86,1.89,1.9,1.89h6.75
	c1.04,0,1.89,0.77,1.89,1.72c0,0.94-0.85,1.71-1.89,1.71h-6.75c-1.04,0-1.9,0.86-1.9,1.9v10.51c0,1.04-0.85,1.89-1.9,1.89h-0.29
	c-1.05,0-1.9-0.85-1.9-1.89v-25.8c0-1.04,0.85-1.9,1.9-1.9h14.73c1.04,0,1.89,0.82,1.89,1.82s-0.85,1.82-1.89,1.82H377.67z"/>
<path style="fill:#19161B;" d="M397.98,202.24v7.72c0,1.04,0.85,1.98,1.89,2.09l0.98,0.01c2.45,0,4.24-0.39,5.36-1.17
	c1.12-0.79,1.68-2.18,1.68-4.19c0-1.65-0.6-2.84-1.8-3.57c-1.2-0.73-3.1-1.09-5.69-1.09C399.99,202.04,399.18,202.11,397.98,202.24z
	 M412.23,228.19c-1.05,0-2.36-0.72-2.91-1.6l-5.99-9.5c-0.55-0.88-1.86-1.62-2.91-1.65c0,0-0.46-0.02-2.44-0.15v11.01
	c0,1.04-0.85,1.89-1.9,1.89h-0.29c-1.05,0-1.9-0.85-1.9-1.89v-25.8c0-1.04,0.54-1.92,1.21-1.95l1.97-0.1
	c1.97-0.1,3.41-0.15,4.31-0.15c7.21,0,10.81,2.83,10.81,8.48c0,1.86-0.58,3.54-1.74,5.02c-1.16,1.49-2.54,2.42-4.14,2.78l7.68,12.02
	c0.57,0.88,0.17,1.59-0.87,1.59L412.23,228.19L412.23,228.19z"/>
<path style="fill:#19161B;" d="M424.08,202.24c-1.04,0-1.9,0.85-1.9,1.89v4.44c0,1.04,0.86,1.89,1.9,1.89h6.11
	c1.04,0,1.9,0.77,1.9,1.72c0,0.94-0.86,1.71-1.9,1.71h-6.11c-1.04,0-1.9,0.86-1.9,1.9v6.88c0,1.04,0.86,1.89,1.9,1.89h9.79
	c1.05,0,1.9,0.82,1.9,1.82s-0.85,1.81-1.9,1.81h-13.89c-1.04,0-1.89-0.85-1.89-1.89v-25.8c0-1.04,0.85-1.9,1.89-1.9h14.12
	c1.04,0,1.9,0.82,1.9,1.82s-0.86,1.82-1.9,1.82H424.08z"/>
<path style="fill:#19161B;" d="M439.19,226.84l0.79-1.96c0.39-0.97,1.44-1.32,2.34-0.79c0,0,0.08,0.05,1.22,0.42
	s2.16,0.55,3.06,0.55c1.6,0,2.88-0.43,3.85-1.29s1.46-1.96,1.46-3.29c0-1-0.28-1.92-0.81-2.78c-0.54-0.85-1.9-1.79-4.07-2.8
	l-0.69-0.31c-0.95-0.44-2.46-1.23-3.35-1.76c0,0-1.85-1.1-2.66-2.39c-0.81-1.29-1.22-2.85-1.22-4.67c0-2.2,0.79-4.04,2.37-5.49
	c1.59-1.45,3.62-2.18,6.1-2.18c3.32,0,5.63,0.53,6.93,1.6l-0.6,1.72c-0.34,0.98-1.23,1.44-1.99,1.02l-1.12-0.36
	c-1.12-0.37-2.16-0.55-3.11-0.55c-1.39,0-2.49,0.39-3.29,1.17c-0.8,0.79-1.2,1.79-1.2,3.01c0,0.76,0.15,1.45,0.43,2.06
	c0.29,0.62,0.69,1.14,1.2,1.56s1.56,1,3.14,1.76l0.74,0.34c0.95,0.45,2.45,1.25,3.35,1.79c0,0,1.85,1.12,2.68,2.44
	c0.83,1.33,1.24,3.02,1.24,5.06c0,2.22-0.91,4.11-2.71,5.66c-1.81,1.55-4.23,2.32-7.26,2.32
	C443.35,228.7,441.08,228.08,439.19,226.84z"/>
<path style="fill:#19161B;" d="M479.8,228.19c-1.04,0-1.9-0.85-1.9-1.89v-10.51c0-1.04-0.85-1.9-1.9-1.9h-9.3
	c-1.04,0-1.9,0.86-1.9,1.9v10.51c0,1.04-0.85,1.89-1.9,1.89h-0.29c-1.05,0-1.9-0.85-1.9-1.89v-25.8c0-1.04,0.85-1.9,1.9-1.9h0.29
	c1.05,0,1.9,0.86,1.9,1.9v8.07c0,1.04,0.86,1.89,1.9,1.89h9.3c1.05,0,1.9-0.85,1.9-1.89v-8.07c0-1.04,0.86-1.9,1.9-1.9h0.3
	c1.04,0,1.9,0.86,1.9,1.9v25.8c0,1.04-0.86,1.89-1.9,1.89H479.8z"/>
<path style="fill:#19161B;" d="M487.53,201.66h0.43c0.45,0,0.87-0.14,0.87-0.52c0-0.33-0.22-0.57-0.81-0.57
	c-0.25,0-0.39,0.02-0.49,0.04V201.66L487.53,201.66z M487.53,203.57h-0.63v-3.38c0.35-0.06,0.71-0.11,1.18-0.11
	c0.57,0,0.85,0.11,1.06,0.27c0.2,0.14,0.34,0.4,0.34,0.73c0,0.4-0.3,0.66-0.65,0.79v0.04c0.29,0.12,0.45,0.38,0.55,0.83
	c0.1,0.5,0.18,0.7,0.26,0.83h-0.65c-0.1-0.13-0.18-0.43-0.28-0.87c-0.08-0.39-0.3-0.55-0.77-0.55h-0.41V203.57L487.53,203.57z
	 M488.1,199.13c-1.46,0-2.58,1.2-2.58,2.65c0,1.5,1.12,2.68,2.62,2.68c1.44,0.02,2.54-1.18,2.54-2.65c0-1.48-1.1-2.68-2.56-2.68
	C488.12,199.13,488.1,199.13,488.1,199.13z M488.14,198.57c1.83,0,3.25,1.41,3.25,3.21c0,1.85-1.42,3.26-3.27,3.26
	s-3.31-1.41-3.31-3.26c0-1.8,1.46-3.21,3.31-3.21H488.14z"/>
<g>
	<rect x="101" y="272" style="fill:#FFFFFF;" width="237" height="51"/>
	<g>
		<g>
			<path d="M215.238,296.891h4.294c2.399,0,3.729,1.264,3.729,3.328c0,1.599-0.686,3.03-2.601,3.365v0.037
				c1.794,0.149,2.399,1.097,2.459,3.142l0.04,1.45c0.02,0.725,0.101,1.432,0.605,1.953h-1.512
				c-0.302-0.465-0.363-1.152-0.383-1.859l-0.041-1.115c-0.081-2.343-0.545-3.087-2.863-3.087h-2.439v6.061h-1.29v-13.275
				L215.238,296.891L215.238,296.891z M216.528,303.101h2.217c2.036,0,3.226-0.855,3.226-2.603c0-1.618-0.746-2.603-3.084-2.603
				h-2.359C216.528,297.895,216.528,303.101,216.528,303.101z"/>
			<path d="M227.333,296.891h7.136v1.005h-5.846v4.834h5.463v1.003h-5.463v5.43h6.027v1.004h-7.317V296.891L227.333,296.891z"/>
			<path d="M238.3,296.891h1.734l5.503,11.565h0.04v-11.565h1.29v13.275h-1.734l-5.503-11.565h-0.041v11.565h-1.29v-13.275H238.3z"
				/>
			<path d="M255.617,296.668c2.943,0,4.596,2.101,4.596,6.86c0,4.76-1.653,6.86-4.596,6.86s-4.597-2.101-4.597-6.86
				C251.02,298.769,252.673,296.668,255.617,296.668z M255.617,309.386c2.057,0,3.306-1.561,3.306-5.857
				c0-4.295-1.249-5.856-3.306-5.856s-3.306,1.561-3.306,5.856C252.31,307.824,253.56,309.386,255.617,309.386z"/>
			<path d="M263.297,296.891h1.371l3.205,12.011h0.04l3.205-12.011h1.37l-3.79,13.275h-1.613L263.297,296.891z"/>
			<path d="M278.056,296.891h1.613l4.254,13.275h-1.372l-1.169-3.867h-5.039l-1.17,3.867h-1.37L278.056,296.891z M281.1,305.295
				l-2.217-7.473h-0.04l-2.217,7.473H281.1z"/>
			<path d="M288.642,297.895h-3.709v-1.005h8.708v1.005h-3.709v12.271h-1.29V297.895z"/>
			<path d="M296.987,296.891h1.29v13.275h-1.29V296.891z"/>
			<path d="M307.107,296.668c2.943,0,4.596,2.101,4.596,6.86c0,4.76-1.653,6.86-4.596,6.86s-4.596-2.101-4.596-6.86
				C302.511,298.769,304.164,296.668,307.107,296.668z M307.107,309.386c2.056,0,3.306-1.561,3.306-5.857
				c0-4.295-1.25-5.856-3.306-5.856c-2.057,0-3.306,1.561-3.306,5.856C303.801,307.824,305.051,309.386,307.107,309.386z"/>
			<path d="M315.856,296.891h1.733l5.504,11.565h0.04v-11.565h1.29v13.275h-1.733l-5.504-11.565h-0.04v11.565h-1.29V296.891z"/>
			<path d="M335.007,300.293c0-1.636-0.826-2.621-2.581-2.621c-1.754,0-2.721,1.06-2.721,2.38c0,3.96,6.975,1.784,6.975,6.452
				c0,2.566-1.733,3.886-4.354,3.886c-2.701,0-4.193-1.338-4.193-3.941v-0.391h1.29v0.502c0,1.693,0.968,2.827,2.863,2.827
				c1.814,0,3.104-0.837,3.104-2.696c0-3.941-6.975-1.692-6.975-6.507c0-2.082,1.471-3.514,3.972-3.514
				c2.68,0,3.91,1.264,3.91,3.626h-1.29V300.293L335.007,300.293z"/>
		</g>
		<g>
			<path style="fill:#E23338;" d="M118.281,284.07c-0.622,0.001-1.131,0.51-1.13,1.132l0.002,5.931
				c0.001,0.622-0.508,1.131-1.13,1.132l-6.301,0.002c-0.622,0-1.13,0.509-1.13,1.131v0.549c0,0.622,0.509,1.131,1.132,1.13
				l9.178-0.004c0.622-0.001,1.13-0.51,1.13-1.131l-0.003-8.741c-0.001-0.622-0.51-1.13-1.132-1.13h-0.616
				C118.281,284.071,118.281,284.07,118.281,284.07z"/>
		</g>
		<g>
			<path style="fill:#0078BA;" d="M124.647,284.068c0.622,0,1.132,0.508,1.132,1.13l0.002,5.93c0,0.622,0.509,1.13,1.131,1.13
				l6.302-0.002c0.622,0,1.131,0.508,1.131,1.13l0.001,0.549c0,0.622-0.508,1.132-1.13,1.132l-9.178,0.004
				c-0.622,0-1.131-0.508-1.132-1.13l-0.003-8.741c-0.001-0.622,0.508-1.131,1.13-1.131L124.647,284.068z"/>
		</g>
		<g>
			<path style="fill:#ED8800;" d="M118.292,308.767c-0.622,0-1.131-0.508-1.131-1.131l-0.002-5.99c0-0.622-0.509-1.13-1.131-1.13
				l-6.303,0.003c-0.622,0.001-1.131-0.508-1.131-1.13l-0.001-0.489c0-0.622,0.508-1.131,1.13-1.131l9.179-0.004
				c0.622,0,1.131,0.508,1.131,1.13l0.003,8.74c0.001,0.622-0.508,1.131-1.13,1.132L118.292,308.767L118.292,308.767z"/>
		</g>
		<g>
			<path style="fill:#4FAA47;" d="M123.655,310.216c-0.443-0.436-0.438-1.146,0.011-1.575l4.428-4.239
				c0.449-0.431,0.449-1.134-0.001-1.564l-4.43-4.235c-0.45-0.43-0.45-1.133-0.001-1.563l0.365-0.349
				c0.45-0.43,1.187-0.432,1.638-0.004l6.489,6.154c0.452,0.428,0.453,1.13,0.004,1.56l-6.49,6.212
				c-0.449,0.43-1.179,0.425-1.622-0.011L123.655,310.216z"/>
		</g>
		<g>
			<path style="fill:#1D1D1B;" d="M144.652,310.163c-0.466,0-1.051-0.323-1.299-0.718l-2.672-4.26
				c-0.248-0.395-0.832-0.73-1.298-0.742c0,0-0.207-0.006-1.09-0.066v4.939c0,0.466-0.382,0.848-0.848,0.848h-0.135
				c-0.467,0-0.848-0.382-0.848-0.848v-11.573c0-0.467,0.244-0.858,0.541-0.87c0,0,0,0,0.881-0.045s1.522-0.068,1.924-0.068
				c3.218,0,4.828,1.268,4.828,3.804c0,0.834-0.259,1.584-0.777,2.251c-0.518,0.667-1.133,1.082-1.846,1.245l3.429,5.389
				c0.251,0.394,0.074,0.715-0.393,0.715L144.652,310.163L144.652,310.163z M138.291,298.525v3.463c0,0.467,0.38,0.889,0.843,0.936
				c0,0,0.022,0.002,0.436,0.002c1.097,0,1.896-0.175,2.395-0.525c0.499-0.35,0.75-0.975,0.75-1.875
				c0-0.742-0.268-1.277-0.804-1.603c-0.537-0.326-1.384-0.489-2.542-0.489C139.187,298.434,138.827,298.464,138.291,298.525z"/>
			<path style="fill:#1D1D1B;" d="M149.944,298.525c-0.467,0-0.848,0.382-0.848,0.849v1.989c0,0.467,0.381,0.849,0.848,0.849h2.728
				c0.467,0,0.848,0.346,0.848,0.77c0,0.423-0.382,0.77-0.848,0.77h-2.728c-0.467,0-0.848,0.381-0.848,0.848v3.086
				c0,0.467,0.381,0.849,0.848,0.849h4.374c0.467,0,0.849,0.366,0.849,0.815c0,0.448-0.382,0.815-0.849,0.815h-6.202
				c-0.467,0-0.848-0.382-0.848-0.848v-11.573c0-0.467,0.381-0.848,0.848-0.848h6.303c0.467,0,0.849,0.367,0.849,0.815
				c0,0.449-0.382,0.815-0.849,0.815L149.944,298.525L149.944,298.525z"/>
			<path style="fill:#1D1D1B;" d="M159.973,298.525c-0.467,0-0.849,0.382-0.849,0.849v1.989c0,0.467,0.382,0.849,0.849,0.849h3.012
				c0.466,0,0.848,0.346,0.848,0.77c0,0.423-0.382,0.77-0.848,0.77h-3.012c-0.467,0-0.849,0.381-0.849,0.848v4.716
				c0,0.466-0.381,0.848-0.848,0.848h-0.132c-0.467,0-0.848-0.382-0.848-0.848v-11.573c0-0.467,0.382-0.848,0.848-0.848h6.577
				c0.466,0,0.848,0.367,0.848,0.815c0,0.449-0.382,0.815-0.848,0.815L159.973,298.525L159.973,298.525z"/>
			<path style="fill:#1D1D1B;" d="M175.404,310.163c-0.467,0-1.051-0.323-1.299-0.718l-2.672-4.26
				c-0.248-0.395-0.832-0.73-1.299-0.742c0,0-0.207-0.006-1.09-0.066v4.939c0,0.466-0.382,0.848-0.848,0.848h-0.132
				c-0.466,0-0.848-0.382-0.848-0.848v-11.573c0-0.467,0.243-0.858,0.541-0.87c0,0,0,0,0.881-0.045
				c0.881-0.045,1.522-0.068,1.925-0.068c3.217,0,4.826,1.268,4.826,3.804c0,0.834-0.259,1.584-0.777,2.251
				c-0.518,0.667-1.134,1.082-1.847,1.245l3.429,5.389c0.251,0.394,0.074,0.715-0.393,0.715L175.404,310.163L175.404,310.163z
				 M169.043,298.525v3.463c0,0.467,0.38,0.889,0.844,0.936c0,0,0.022,0.002,0.436,0.002c1.097,0,1.895-0.175,2.394-0.525
				c0.499-0.35,0.75-0.975,0.75-1.875c0-0.742-0.268-1.277-0.804-1.603s-1.384-0.489-2.542-0.489
				C169.939,298.434,169.579,298.464,169.043,298.525z"/>
			<path style="fill:#1D1D1B;" d="M180.696,298.525c-0.466,0-0.848,0.382-0.848,0.849v1.989c0,0.467,0.382,0.849,0.848,0.849h2.728
				c0.467,0,0.849,0.346,0.849,0.77c0,0.423-0.382,0.77-0.849,0.77h-2.728c-0.466,0-0.848,0.381-0.848,0.848v3.086
				c0,0.467,0.382,0.849,0.848,0.849h4.374c0.467,0,0.849,0.366,0.849,0.815c0,0.448-0.382,0.815-0.849,0.815h-6.202
				c-0.466,0-0.848-0.382-0.848-0.848v-11.573c0-0.467,0.382-0.848,0.848-0.848h6.303c0.467,0,0.849,0.367,0.849,0.815
				c0,0.449-0.382,0.815-0.849,0.815L180.696,298.525L180.696,298.525z"/>
			<path style="fill:#1D1D1B;" d="M187.445,309.556l0.352-0.879c0.173-0.433,0.644-0.593,1.045-0.355c0,0,0.037,0.022,0.545,0.188
				c0.509,0.166,0.965,0.249,1.367,0.249c0.713,0,1.286-0.193,1.719-0.58c0.432-0.386,0.649-0.878,0.649-1.476
				c0-0.447-0.121-0.862-0.361-1.245c-0.241-0.383-0.846-0.802-1.815-1.254l-0.308-0.143c-0.423-0.196-1.098-0.551-1.499-0.789
				c0,0-0.823-0.49-1.187-1.07c-0.362-0.58-0.544-1.277-0.544-2.092c0-0.99,0.354-1.811,1.06-2.463
				c0.707-0.652,1.615-0.978,2.724-0.978c1.481,0,2.51,0.238,3.09,0.716l-0.265,0.773c-0.151,0.441-0.552,0.647-0.89,0.459
				c0,0,0,0-0.499-0.163s-0.963-0.245-1.389-0.245c-0.622,0-1.111,0.175-1.467,0.525c-0.357,0.35-0.534,0.8-0.534,1.349
				c0,0.339,0.064,0.646,0.192,0.924c0.128,0.277,0.306,0.51,0.534,0.698c0.229,0.187,0.696,0.45,1.404,0.788l0.329,0.155
				c0.423,0.199,1.094,0.559,1.493,0.8c0,0,0.83,0.502,1.199,1.097c0.369,0.595,0.553,1.351,0.553,2.269
				c0,0.996-0.404,1.842-1.211,2.536c-0.808,0.695-1.888,1.042-3.241,1.042C189.301,310.389,188.286,310.112,187.445,309.556z"/>
			<path style="fill:#1D1D1B;" d="M205.58,310.163c-0.466,0-0.848-0.382-0.848-0.848v-4.716c0-0.467-0.382-0.848-0.849-0.848h-4.154
				c-0.467,0-0.849,0.381-0.849,0.848v4.716c0,0.466-0.382,0.848-0.848,0.848H197.9c-0.467,0-0.849-0.382-0.849-0.848v-11.573
				c0-0.467,0.382-0.848,0.849-0.848h0.132c0.466,0,0.848,0.382,0.848,0.848v3.62c0,0.467,0.382,0.849,0.849,0.849h4.154
				c0.467,0,0.849-0.382,0.849-0.849v-3.62c0-0.467,0.382-0.848,0.848-0.848h0.132c0.467,0,0.849,0.382,0.849,0.848v11.572
				c0,0.466-0.382,0.848-0.849,0.848L205.58,310.163L205.58,310.163z"/>
		</g>
		<g>
			<path style="fill:#1D1D1B;" d="M209.303,296.877c0.817,0,1.451,0.635,1.451,1.443c0,0.826-0.635,1.461-1.461,1.461
				s-1.479-0.635-1.479-1.461c0-0.808,0.653-1.443,1.479-1.443C209.294,296.877,209.303,296.877,209.303,296.877z M209.285,297.132
				c-0.653,0-1.152,0.536-1.152,1.188c0,0.671,0.499,1.198,1.171,1.198c0.644,0.009,1.134-0.527,1.134-1.188
				c0-0.663-0.49-1.198-1.144-1.198H209.285z M209.031,299.12h-0.282v-1.515c0.154-0.027,0.317-0.045,0.526-0.045
				c0.255,0,0.381,0.045,0.472,0.118c0.091,0.063,0.154,0.181,0.154,0.327c0,0.181-0.137,0.299-0.29,0.354v0.018
				c0.127,0.054,0.199,0.172,0.245,0.372c0.045,0.227,0.082,0.318,0.118,0.372h-0.291c-0.045-0.055-0.082-0.19-0.128-0.391
				c-0.036-0.173-0.135-0.245-0.345-0.245h-0.181L209.031,299.12L209.031,299.12z M209.031,298.266h0.19
				c0.2,0,0.391-0.063,0.391-0.236c0-0.145-0.1-0.254-0.363-0.254c-0.109,0-0.173,0.009-0.218,0.018V298.266L209.031,298.266z"/>
		</g>
	</g>
</g>
<path d="M526.627,200.709h1.319c1.216,0,1.925-0.508,1.925-1.542c0-0.96-0.443-1.547-1.841-1.547h-1.403L526.627,200.709
	L526.627,200.709z M525.858,197.023h2.558c1.431,0,2.223,0.75,2.223,1.976c0,0.951-0.41,1.799-1.552,1.999v0.023
	c1.072,0.089,1.431,0.648,1.468,1.864l0.023,0.862c0.014,0.429,0.061,0.848,0.363,1.16h-0.904c-0.182-0.28-0.214-0.685-0.228-1.104
	l-0.023-0.662c-0.047-1.393-0.326-1.836-1.706-1.836h-1.454v3.602h-0.769v-7.884H525.858z"/>
<polygon points="533.067,197.023 537.322,197.023 537.322,197.619 533.836,197.619 533.836,200.49 537.094,200.49 537.094,201.086 
	533.836,201.086 533.836,204.311 537.429,204.311 537.429,204.908 533.067,204.908 "/>
<polygon points="539.605,197.023 540.64,197.023 543.921,203.892 543.944,203.892 543.944,197.023 544.713,197.023 544.713,204.908 
	543.683,204.908 540.398,198.039 540.374,198.039 540.374,204.908 539.605,204.908 "/>
<path d="M549.932,204.442c1.226,0,1.971-0.927,1.971-3.476c0-2.549-0.746-3.476-1.971-3.476s-1.971,0.927-1.971,3.476
	C547.961,203.514,548.706,204.442,549.932,204.442z M549.932,196.892c1.752,0,2.74,1.244,2.74,4.073c0,2.824-0.988,4.073-2.74,4.073
	c-1.757,0-2.74-1.249-2.74-4.073C547.192,198.137,548.175,196.892,549.932,196.892z"/>
<polygon points="554.513,197.023 555.328,197.023 557.239,204.153 557.262,204.153 559.173,197.023 559.993,197.023 
	557.733,204.908 556.768,204.908 "/>
<path d="M565.124,202.014l-1.319-4.436h-0.028l-1.319,4.436H565.124z M563.311,197.023h0.96l2.535,7.885h-0.816l-0.699-2.297h-3.001
	l-0.699,2.297h-0.816L563.311,197.023z"/>
<polygon points="569.62,197.619 567.412,197.619 567.412,197.023 572.603,197.023 572.603,197.619 570.389,197.619 570.389,204.908 
	569.62,204.908 "/>
<rect x="574.597" y="197.023" width="0.769" height="7.885"/>
<path d="M580.632,204.442c1.226,0,1.971-0.927,1.971-3.476c0-2.549-0.746-3.476-1.971-3.476c-1.225,0-1.971,0.927-1.971,3.476
	C578.661,203.514,579.406,204.442,580.632,204.442z M580.632,196.892c1.752,0,2.74,1.244,2.74,4.073c0,2.824-0.988,4.073-2.74,4.073
	c-1.757,0-2.74-1.249-2.74-4.073C577.892,198.137,578.875,196.892,580.632,196.892z"/>
<polygon points="585.847,197.023 586.881,197.023 590.162,203.892 590.185,203.892 590.185,197.023 590.954,197.023 
	590.954,204.908 589.924,204.908 586.639,198.039 586.615,198.039 586.615,204.908 585.847,204.908 "/>
<path d="M597.264,199.045c0-0.974-0.489-1.556-1.538-1.556c-1.044,0-1.622,0.629-1.622,1.412c0,2.349,4.161,1.058,4.161,3.831
	c0,1.524-1.035,2.307-2.6,2.307c-1.608,0-2.498-0.797-2.498-2.339v-0.233h0.769v0.298c0,1.007,0.578,1.678,1.706,1.678
	c1.081,0,1.85-0.499,1.85-1.598c0-2.344-4.157-1.007-4.157-3.868c0-1.235,0.876-2.083,2.367-2.083c1.598,0,2.335,0.75,2.335,2.153
	h-0.773V199.045z"/>
<path style="fill:#E43238;" d="M506.501,164.967c-0.648,0-1.179,0.527-1.179,1.174v6.165c0,0.643-0.527,1.174-1.179,1.174h-6.575
	c-0.648,0-1.179,0.531-1.179,1.179v0.569c0,0.648,0.531,1.174,1.179,1.174l9.581-0.005c0.648,0,1.179-0.527,1.179-1.174
	l-0.005-9.082c0-0.648-0.531-1.179-1.184-1.179L506.501,164.967z"/>
<path style="fill:#0078BB;" d="M513.141,164.962c0.652,0,1.184,0.527,1.184,1.174v6.165c0,0.643,0.531,1.174,1.184,1.174
	l6.575-0.005c0.648,0,1.179,0.531,1.179,1.174v0.573c0,0.643-0.531,1.174-1.179,1.174l-9.576,0.005
	c-0.648,0-1.179-0.531-1.179-1.174l-0.005-9.087c0-0.643,0.531-1.174,1.179-1.174h0.638V164.962z"/>
<path style="fill:#F08F00;" d="M506.51,190.629c-0.648,0-1.179-0.527-1.179-1.174l-0.005-6.226c0-0.648-0.531-1.174-1.179-1.174
	l-6.575,0.005c-0.648,0-1.179-0.531-1.179-1.174l-0.005-0.513c0-0.643,0.531-1.174,1.184-1.174l9.576-0.005
	c0.648,0,1.179,0.531,1.179,1.179l0.005,9.082c0,0.643-0.531,1.174-1.179,1.174C507.153,190.629,506.51,190.629,506.51,190.629z"/>
<path style="fill:#53AB40;" d="M512.107,192.134c-0.461-0.452-0.457-1.188,0.014-1.636l4.618-4.404c0.471-0.447,0.471-1.179,0-1.626
	l-4.623-4.399c-0.471-0.447-0.471-1.179,0-1.626l0.382-0.363c0.466-0.447,1.235-0.447,1.706-0.005l6.776,6.394
	c0.471,0.447,0.471,1.174,0,1.622l-6.771,6.459c-0.471,0.447-1.23,0.443-1.692-0.014L512.107,192.134z"/>
<path style="fill:#19161B;" d="M527.382,179.986v3.598c0,0.485,0.396,0.923,0.881,0.974l0.452,0.005c1.146,0,1.98-0.182,2.502-0.545
	c0.522-0.368,0.783-1.016,0.783-1.953c0-0.769-0.28-1.323-0.839-1.664c-0.564-0.34-1.445-0.508-2.656-0.508
	C528.314,179.893,527.941,179.925,527.382,179.986z M534.018,192.079c-0.485,0-1.095-0.336-1.356-0.746l-2.787-4.427
	c-0.261-0.41-0.871-0.755-1.356-0.769c0,0-0.214-0.009-1.137-0.07v5.131c0,0.485-0.401,0.881-0.885,0.881h-0.14
	c-0.485,0-0.885-0.396-0.885-0.881v-12.023c0-0.485,0.256-0.895,0.569-0.909l0.918-0.047c0.918-0.047,1.589-0.07,2.008-0.07
	c3.355,0,5.037,1.319,5.037,3.952c0,0.867-0.275,1.65-0.811,2.339c-0.541,0.694-1.184,1.128-1.929,1.295l3.579,5.601
	c0.261,0.41,0.079,0.741-0.41,0.741L534.018,192.079L534.018,192.079z"/>
<path style="fill:#19161B;" d="M539.54,179.986c-0.485,0-0.881,0.396-0.881,0.881v2.069c0,0.485,0.396,0.881,0.881,0.881h2.847
	c0.489,0,0.885,0.359,0.885,0.802c0,0.438-0.396,0.797-0.885,0.797h-2.847c-0.485,0-0.881,0.401-0.881,0.885v3.206
	c0,0.485,0.396,0.881,0.881,0.881h4.567c0.485,0,0.885,0.382,0.885,0.848s-0.401,0.843-0.885,0.843h-6.473
	c-0.485,0-0.885-0.396-0.885-0.881v-12.023c0-0.485,0.401-0.885,0.885-0.885h6.575c0.489,0,0.885,0.382,0.885,0.848
	s-0.396,0.848-0.885,0.848H539.54z"/>
<path style="fill:#19161B;" d="M550.006,179.986c-0.485,0-0.885,0.396-0.885,0.881v2.069c0,0.485,0.401,0.881,0.885,0.881h3.146
	c0.485,0,0.881,0.359,0.881,0.802c0,0.438-0.396,0.797-0.881,0.797h-3.146c-0.485,0-0.885,0.401-0.885,0.885v4.898
	c0,0.485-0.396,0.881-0.885,0.881h-0.135c-0.489,0-0.885-0.396-0.885-0.881v-12.024c0-0.485,0.396-0.885,0.885-0.885h6.864
	c0.485,0,0.881,0.382,0.881,0.848s-0.396,0.848-0.881,0.848H550.006z"/>
<path style="fill:#19161B;" d="M559.471,179.986v3.598c0,0.485,0.396,0.923,0.881,0.974l0.457,0.005
	c1.142,0,1.976-0.182,2.498-0.545c0.522-0.368,0.783-1.016,0.783-1.953c0-0.769-0.28-1.323-0.839-1.664
	c-0.559-0.34-1.445-0.508-2.652-0.508C560.408,179.893,560.03,179.925,559.471,179.986z M566.111,192.079
	c-0.489,0-1.1-0.336-1.356-0.746l-2.791-4.427c-0.256-0.41-0.867-0.755-1.356-0.769c0,0-0.214-0.009-1.137-0.07v5.131
	c0,0.485-0.396,0.881-0.885,0.881h-0.135c-0.489,0-0.885-0.396-0.885-0.881v-12.023c0-0.485,0.252-0.895,0.564-0.909l0.918-0.047
	c0.918-0.047,1.589-0.07,2.008-0.07c3.36,0,5.037,1.319,5.037,3.952c0,0.867-0.27,1.65-0.811,2.339
	c-0.541,0.694-1.184,1.128-1.929,1.295l3.579,5.601c0.266,0.41,0.079,0.741-0.405,0.741L566.111,192.079L566.111,192.079z"/>
<path style="fill:#19161B;" d="M571.634,179.986c-0.485,0-0.885,0.396-0.885,0.881v2.069c0,0.485,0.401,0.881,0.885,0.881h2.847
	c0.485,0,0.885,0.359,0.885,0.802c0,0.438-0.401,0.797-0.885,0.797h-2.847c-0.485,0-0.885,0.401-0.885,0.885v3.206
	c0,0.485,0.401,0.881,0.885,0.881h4.562c0.489,0,0.885,0.382,0.885,0.848s-0.396,0.843-0.885,0.843h-6.473
	c-0.485,0-0.881-0.396-0.881-0.881v-12.023c0-0.485,0.396-0.885,0.881-0.885h6.58c0.485,0,0.885,0.382,0.885,0.848
	s-0.401,0.848-0.885,0.848H571.634z"/>
<path style="fill:#19161B;" d="M578.675,191.449l0.368-0.913c0.182-0.452,0.671-0.615,1.09-0.368c0,0,0.037,0.023,0.569,0.196
	c0.531,0.172,1.007,0.256,1.426,0.256c0.746,0,1.342-0.2,1.794-0.601s0.68-0.913,0.68-1.533c0-0.466-0.13-0.895-0.377-1.295
	c-0.252-0.396-0.885-0.834-1.897-1.305l-0.322-0.144c-0.443-0.205-1.146-0.573-1.561-0.82c0,0-0.862-0.513-1.24-1.114
	c-0.377-0.601-0.569-1.328-0.569-2.176c0-1.025,0.368-1.883,1.104-2.558c0.741-0.676,1.687-1.016,2.843-1.016
	c1.547,0,2.624,0.247,3.229,0.746l-0.28,0.802c-0.158,0.457-0.573,0.671-0.927,0.475l-0.522-0.168
	c-0.522-0.172-1.007-0.256-1.449-0.256c-0.648,0-1.16,0.182-1.533,0.545c-0.373,0.368-0.559,0.834-0.559,1.403
	c0,0.354,0.07,0.676,0.2,0.96c0.135,0.289,0.322,0.531,0.559,0.727c0.238,0.196,0.727,0.466,1.463,0.82l0.345,0.158
	c0.443,0.21,1.142,0.583,1.561,0.834c0,0,0.862,0.522,1.249,1.137c0.387,0.62,0.578,1.407,0.578,2.358
	c0,1.035-0.424,1.915-1.263,2.638c-0.843,0.722-1.971,1.081-3.383,1.081C580.613,192.316,579.556,192.027,578.675,191.449z"/>
<path style="fill:#19161B;" d="M597.599,192.079c-0.485,0-0.885-0.396-0.885-0.881V186.3c0-0.485-0.396-0.885-0.885-0.885h-4.334
	c-0.485,0-0.885,0.401-0.885,0.885v4.898c0,0.485-0.396,0.881-0.885,0.881h-0.135c-0.489,0-0.885-0.396-0.885-0.881v-12.023
	c0-0.485,0.396-0.885,0.885-0.885h0.135c0.489,0,0.885,0.401,0.885,0.885v3.761c0,0.485,0.401,0.881,0.885,0.881h4.334
	c0.489,0,0.885-0.396,0.885-0.881v-3.761c0-0.485,0.401-0.885,0.885-0.885h0.14c0.485,0,0.885,0.401,0.885,0.885v12.023
	c0,0.485-0.401,0.881-0.885,0.881H597.599z"/>
<path style="fill:#19161B;" d="M601.201,179.716h0.2c0.21,0,0.405-0.065,0.405-0.242c0-0.154-0.103-0.266-0.377-0.266
	c-0.116,0-0.182,0.009-0.228,0.019V179.716L601.201,179.716z M601.201,180.606h-0.294v-1.575c0.163-0.028,0.331-0.051,0.55-0.051
	c0.266,0,0.396,0.051,0.494,0.126c0.093,0.065,0.158,0.186,0.158,0.34c0,0.186-0.14,0.308-0.303,0.368v0.019
	c0.135,0.056,0.21,0.177,0.256,0.387c0.047,0.233,0.084,0.326,0.121,0.387h-0.303c-0.047-0.061-0.084-0.2-0.13-0.405
	c-0.037-0.182-0.14-0.256-0.359-0.256H601.2v0.66H601.201z M601.467,178.537c-0.68,0-1.202,0.559-1.202,1.235
	c0,0.699,0.522,1.249,1.221,1.249c0.671,0.009,1.184-0.55,1.184-1.235c0-0.69-0.513-1.249-1.193-1.249
	C601.476,178.537,601.467,178.537,601.467,178.537z M601.486,178.276c0.853,0,1.514,0.657,1.514,1.496
	c0,0.862-0.662,1.519-1.524,1.519s-1.542-0.657-1.542-1.519c0-0.839,0.68-1.496,1.542-1.496H601.486z"/>
</svg>
