<?xml version="1.0" encoding="utf-8"?>
<!-- Generator: Adobe Illustrator 22.0.1, SVG Export Plug-In . SVG Version: 6.00 Build 0)  -->
<svg version="1.1" id="Layer_1" xmlns="http://www.w3.org/2000/svg" xmlns:xlink="http://www.w3.org/1999/xlink" x="0px" y="0px"
	 viewBox="0 0 50 50" style="enable-background:new 0 0 50 50;" xml:space="preserve">
<style type="text/css">
	.st0{fill:#136232;}
</style>
<g>
	<g>
		<path class="st0" d="M49,9H25H6C4.8,9,3.4,8,3,6.8L2.9,6.5C2.7,6.1,2.8,5.7,3,5.4C3.1,5.2,3.3,5.1,3.6,5C3.8,5,3.9,5,4,5h21h21v2
			l1.3,2l0.7,1V4c0-0.6-0.4-1-1-1H25H4C1.8,3,0,4.8,0,7v10.3c0,0.7,0.1,1.3,0.4,1.9C0.2,19.4,0,19.7,0,20c0,0,0,10.2,0,10.3
			c0,0.8,0.2,1.5,0.5,2.2C0.2,32.6,0,32.9,0,33.3V43c0,2.2,1.8,4,4,4h7h38c0.6,0,1-0.4,1-1V10C50,9.4,49.6,9,49,9z M48,45H11H4
			c-1.1,0-2-0.9-2-2v-8.7C2.6,34.7,3.3,35,4.1,35H6c0.6,0,1-0.4,1-1s-0.4-1-1-1H4.1C3,33,2,31.7,2,30.3c0-0.1,0-9,0-9
			C2.6,21.7,3.3,22,4.1,22H6c0.6,0,1-0.4,1-1s-0.4-1-1-1H4.1C3,20,2,18.7,2,17.3V9c1,1.2,2.5,2,4,2h5h14h23V45z"/>
	</g>
	<g>
		<g>
			<g>
				<path class="st0" d="M26,37c-0.1,0-0.3,0-0.4-0.1c-2.9-1.2-8.7-5.5-9.5-10.1c-0.4-2,0.3-3.9,1.8-5.4c1-1,2.3-1.5,3.7-1.5
					c1.4,0,2.8,0.5,3.8,1.5L26,22l0.6-0.6c1-1,2.4-1.5,3.8-1.5s2.7,0.5,3.7,1.5c1.6,1.5,2.2,3.4,1.8,5.4c-0.8,4.6-6.6,8.8-9.5,10.1
					C26.3,37,26.1,37,26,37z M21.6,22c-0.9,0-1.7,0.3-2.3,0.9c-1.1,1-1.5,2.2-1.2,3.6c0.6,3.5,5.2,7.1,7.9,8.4
					c2.7-1.3,7.3-5,7.9-8.4c0.2-1.4-0.2-2.5-1.2-3.6c-1.2-1.2-3.5-1.2-4.7,0l-1.3,1.2c-0.4,0.4-1,0.4-1.4,0L24,22.9
					C23.4,22.3,22.6,22,21.6,22z"/>
			</g>
		</g>
	</g>
</g>
</svg>
