<?xml version="1.0" encoding="utf-8"?>
<!-- Generator: Adobe Illustrator 22.0.1, SVG Export Plug-In . SVG Version: 6.00 Build 0)  -->
<svg version="1.1" id="Layer_1" xmlns="http://www.w3.org/2000/svg" xmlns:xlink="http://www.w3.org/1999/xlink" x="0px" y="0px"
	 viewBox="0 0 50 50" style="enable-background:new 0 0 50 50;" xml:space="preserve">
<style type="text/css">
	.st0{fill:none;stroke:#136232;stroke-width:2;stroke-miterlimit:10;}
</style>
<g>
	<path class="st0" d="M21,35.4c0-2.3,1.9-4.1,4.2-4.1s4.2,1.8,4.2,4.1s-1.9,4.1-4.2,4.1S21,37.7,21,35.4z"/>
	<path class="st0" d="M32.3,50v-2.9c0-2.7-4.7-4.1-7.3-4.1s-7.3,1.4-7.3,4.1V50"/>
	<path class="st0" d="M33.5,35.4c0-2.3,1.9-4.1,4.2-4.1s4.2,1.8,4.2,4.1s-1.9,4.1-4.2,4.1S33.5,37.7,33.5,35.4z"/>
	<path class="st0" d="M44.9,50v-2.9c0-2.7-4.7-4.1-7.3-4.1c-0.9,0-2,0.2-3.1,0.5"/>
	<path class="st0" d="M16.7,35.4c0-2.3-1.9-4.1-4.2-4.1s-4.2,1.8-4.2,4.1s1.9,4.1,4.2,4.1S16.7,37.7,16.7,35.4z"/>
	<path class="st0" d="M5.2,50v-2.9c0-2.7,4.8-4.1,7.3-4.1c0.9,0,2,0.2,3.1,0.5"/>
	<path class="st0" d="M25,2h18.8C46.1,2,48,3.9,48,6.2v10.4c0,2.3-1.9,4.2-4.2,4.2h-4.2V26c0,1-1.3,1.4-1.9,0.6l-4.4-5.8h-5.2
		L26,27.2c-0.3,1-1.7,1-2,0l-2.1-6.4h-5.2l-4.4,5.8c-0.6,0.8-1.9,0.4-1.9-0.6v-5.2H7.3c-2.3,0-4.2-1.9-4.2-4.2V6.2
		C3.1,3.9,5,2,7.3,2H25z"/>
</g>
</svg>
