<?xml version="1.0" encoding="utf-8"?>
<!-- Generator: Adobe Illustrator 22.0.1, SVG Export Plug-In . SVG Version: 6.00 Build 0)  -->
<svg version="1.1" id="Layer_1" xmlns="http://www.w3.org/2000/svg" xmlns:xlink="http://www.w3.org/1999/xlink" x="0px" y="0px"
	 viewBox="0 0 50 50" style="enable-background:new 0 0 50 50;" xml:space="preserve">
<style type="text/css">
	.st0{fill:none;stroke:#136232;stroke-width:2;stroke-miterlimit:10;}
</style>
<g>
	<path class="st0" d="M28.2,6.2c0.1-0.3,0.2-0.7,0.2-1C28.4,3.4,27,2,25.3,2s-3.1,1.4-3.1,3.1c0,0.4,0.1,0.7,0.2,1h-7.5v5.2h20.9
		V6.2H28.2z"/>
	<polyline class="st0" points="35.7,8.3 42,8.3 42,49 8.6,49 8.6,8.3 14.8,8.3 	"/>
	<polyline class="st0" points="22.2,25 22.2,27.1 13.8,27.1 13.8,18.7 19,18.7 	"/>
	<polyline class="st0" points="16.9,21.8 19,23.9 24.8,18.2 	"/>
	<polyline class="st0" points="22.2,39.6 22.2,41.7 13.8,41.7 13.8,33.3 19,33.3 	"/>
	<polyline class="st0" points="16.9,36.5 19,38.6 24.8,32.8 	"/>
	<line class="st0" x1="27.4" y1="20.8" x2="37.8" y2="20.8"/>
	<line class="st0" x1="27.4" y1="25" x2="33.6" y2="25"/>
	<line class="st0" x1="27.4" y1="35.4" x2="37.8" y2="35.4"/>
	<line class="st0" x1="27.4" y1="39.6" x2="33.6" y2="39.6"/>
</g>
</svg>
