<?xml version="1.0" encoding="utf-8"?>
<!-- Generator: Adobe Illustrator 22.0.1, SVG Export Plug-In . SVG Version: 6.00 Build 0)  -->
<svg version="1.1" id="Layer_1" xmlns="http://www.w3.org/2000/svg" xmlns:xlink="http://www.w3.org/1999/xlink" x="0px" y="0px"
	 viewBox="0 0 50 50" style="enable-background:new 0 0 50 50;" xml:space="preserve">
<style type="text/css">
	.st0{fill:#136232;}
</style>
<g>
	<g>
		<path class="st0" d="M47,5H3C1.3,5,0,6.3,0,8v34c0,1.7,1.3,3,3,3h44c1.7,0,3-1.3,3-3V8C50,6.3,48.7,5,47,5z M48,42
			c0,0.6-0.4,1-1,1H3c-0.6,0-1-0.4-1-1V8c0-0.6,0.4-1,1-1h44c0.6,0,1,0.4,1,1V42z"/>
	</g>
	<g>
		<path class="st0" d="M35.7,19.3c-0.4-0.4-1-0.4-1.4,0l-11,10l-4.7-4c-0.4-0.3-1-0.3-1.3,0l-13,12c-0.4,0.4-0.4,1-0.1,1.4
			C4.5,38.9,4.7,39,5,39c0.2,0,0.5-0.1,0.7-0.3L18,27.3l9.8,8.4c0.4,0.4,1.1,0.3,1.4-0.1c0.4-0.4,0.3-1.1-0.1-1.4l-4.3-3.7L35,21.4
			l9.3,9.3c0.2,0.2,0.5,0.3,0.7,0.3c0.3,0,0.5-0.1,0.7-0.3c0.4-0.4,0.4-1,0-1.4L35.7,19.3z"/>
	</g>
	<g>
		<path class="st0" d="M12.5,22c3,0,5.5-2.5,5.5-5.5S15.5,11,12.5,11S7,13.5,7,16.5S9.5,22,12.5,22z M12.5,13c1.9,0,3.5,1.6,3.5,3.5
			S14.4,20,12.5,20S9,18.4,9,16.5S10.6,13,12.5,13z"/>
	</g>
</g>
</svg>
