<?xml version="1.0" encoding="utf-8"?>
<!-- Generator: Adobe Illustrator 22.0.1, SVG Export Plug-In . SVG Version: 6.00 Build 0)  -->
<svg version="1.1" id="Layer_1" xmlns="http://www.w3.org/2000/svg" xmlns:xlink="http://www.w3.org/1999/xlink" x="0px" y="0px"
	 viewBox="0 0 50 50" style="enable-background:new 0 0 50 50;" xml:space="preserve">
<style type="text/css">
	.st0{fill:none;stroke:#136232;stroke-width:2;stroke-miterlimit:10;}
</style>
<g>
	<path class="st0" d="M44.5,8L25.4,27.2l-1.6,5.9l5.9-1.6l19.1-19.1c0.4-0.4,0.3-1.2-0.3-1.8l-2.1-2.1C45.7,7.8,44.9,7.6,44.5,8z"/>
	<line class="st0" x1="46.5" y1="14.5" x2="42.3" y2="10.3"/>
	<path class="st0" d="M37,12.4v-2.1C37,7.4,34.6,5,31.7,5H6.2c-2.9,0-5.3,2.4-5.3,5.3v22.3c0,2.9,2.4,5.3,5.3,5.3h3.2v6.4
		c0,1,1.3,1.5,1.9,0.6l7.6-7h12.7c2.9,0,5.3-2.4,5.3-5.3v-4.2"/>
	<line class="st0" x1="9.4" y1="14.5" x2="28.5" y2="14.5"/>
	<line class="st0" x1="9.4" y1="18.8" x2="28.5" y2="18.8"/>
	<line class="st0" x1="9.4" y1="23" x2="20" y2="23"/>
</g>
</svg>
