<?xml version="1.0" encoding="utf-8"?>
<!-- Generator: Adobe Illustrator 22.0.1, SVG Export Plug-In . SVG Version: 6.00 Build 0)  -->
<svg version="1.1" id="Layer_1" xmlns="http://www.w3.org/2000/svg" xmlns:xlink="http://www.w3.org/1999/xlink" x="0px" y="0px"
	 viewBox="0 0 50 50" style="enable-background:new 0 0 50 50;" xml:space="preserve">
<style type="text/css">
	.st0{fill:none;stroke:#136232;stroke-width:2;stroke-miterlimit:10;}
</style>
<g>
	<path class="st0" d="M45.9,25.8v14.5H4.3V15.4c0-1.1,0.9-2.1,2.1-2.1h9.4"/>
	<path class="st0" d="M49,40.3H1.2v1.8c0,2.4,2,4.4,4.4,4.4h39c2.4,0,4.4-2,4.4-4.4V40.3z"/>
	<line class="st0" x1="23" y1="43.4" x2="28.2" y2="43.4"/>
	<path class="st0" d="M17.8,17.5V8.1c0-1.7,1.4-3.1,3.1-3.1h24.9C47.6,5,49,6.4,49,8.1v12.5c0,1.7-1.4,3.1-3.1,3.1h-8.3L30,31.3
		c-0.7,0.7-1.8,0.2-1.8-0.7v-6.8H24"/>
	<path class="st0" d="M26.1,38.3v-1.7c0-2.9-6-4.6-8.3-4.6s-8.3,1.7-8.3,4.6v1.7"/>
	<path class="st0" d="M17.8,19.5c-2.3,0-4.2,1.9-4.2,4.1v1.1c0,2.3,1.9,4.1,4.2,4.1s4.2-1.9,4.2-4.1v-1.1
		C22,21.4,20.1,19.5,17.8,19.5z"/>
	<line class="st0" x1="25.1" y1="12.3" x2="41.7" y2="12.3"/>
	<line class="st0" x1="25.1" y1="16.4" x2="34.5" y2="16.4"/>
</g>
</svg>
