<?xml version="1.0" encoding="utf-8"?>
<!-- Generator: Adobe Illustrator 22.1.0, SVG Export Plug-In . SVG Version: 6.00 Build 0)  -->
<svg version="1.1" id="Layer_1" xmlns="http://www.w3.org/2000/svg" xmlns:xlink="http://www.w3.org/1999/xlink" x="0px" y="0px"
	 width="607px" height="30.2px" viewBox="0 0 607 30.2" style="enable-background:new 0 0 607 30.2;" xml:space="preserve">
<style type="text/css">
	.st0{fill:#54AB42;}
	.st1{fill:#0079BB;}
	.st2{fill:#F08F00;}
	.st3{fill:#297FCA;}
	.st4{fill:#E43439;}
	.st5{fill:#EC1C24;}
</style>
<title>services-icons</title>
<g id="Outline-4">
	<path d="M19.6,17.6L15,13l-4.6,4.6L9,16.2l6-6l6,6L19.6,17.6z"/>
</g>
<path d="M14.9,27.2C8.3,27.2,3,21.7,3,15.1c0-6.6,5.5-12,12.1-11.9c6.6,0,12,5.5,11.9,12.1S21.5,27.2,14.9,27.2 M14.9,30.2
	c8.3,0,15-6.7,15.1-14.9c0-8.2-6.6-15-14.9-15.1S0,6.8,0,15.1S6.6,30.2,14.9,30.2z"/>
<g id="Outline-5">
	<path class="st0" d="M170,26.6h11.7c1.1,0,2-0.6,2.4-1.6l3.9-9.2c0.1-0.3,0.2-0.7,0.2-1v-2.5c0-1.4-1.2-2.6-2.6-2.6h-8.2l1.2-5.9
		V3.3c0-0.5-0.2-1-0.5-1.3l-1.4-1.4l-8.5,8.5c-0.5,0.5-0.8,1.1-0.8,1.8v13C167.5,25.4,168.6,26.6,170,26.6z M170,11l5.6-5.6l-1.7,7
		h11.7V15l-3.9,9H170V11z"/>
	<rect x="159.6" y="11" class="st0" width="5.2" height="15.6"/>
</g>
<path class="st1" d="M559.1,0.2c-6.6,0-12,5.4-12,12s5.4,12,12,12s12-5.4,12-12S565.7,0.2,559.1,0.2z M555.5,18.1V6.4l10.1,5.9
	L555.5,18.1z"/>
<path class="st2" d="M63.8,3.1h-5.6c-0.6-1.5-2-2.7-3.8-2.7s-3.2,1.1-3.8,2.7H45c-1.5,0-2.7,1.2-2.7,2.7v18.6c0,1.5,1.2,2.7,2.7,2.7
	h18.6c1.5,0,2.7-1.2,2.7-2.7V5.8C66.5,4.3,65.3,3.1,63.8,3.1z M54.5,3.1c0.7,0,1.3,0.6,1.3,1.3s-0.6,1.3-1.3,1.3s-1.3-0.6-1.3-1.3
	S53.8,3.1,54.5,3.1z M57.2,21.7h-9.3V19h9.3V21.7z M61.2,16.4H47.9v-2.7h13.3V16.4z M61.2,11.1H47.9V8.4h13.3V11.1z"/>
<path class="st3" d="M109.3,9.8c0,1.4-1.1,2.5-2.5,2.5c-0.2,0-0.4,0-0.6-0.1l-4.4,4.4c0.1,0.2,0.1,0.4,0.1,0.6
	c0,1.4-1.1,2.5-2.5,2.5s-2.5-1.1-2.5-2.5c0-0.2,0-0.4,0.1-0.6l-3-3.2c-0.2,0.1-0.4,0.1-0.6,0.1s-0.4,0-0.6-0.1L87.2,19
	c0.1,0.2,0.1,0.4,0.1,0.6c0,1.4-1.1,2.5-2.5,2.5s-2.5-1.1-2.5-2.5s1.1-2.5,2.5-2.5c0.2,0,0.4,0,0.6,0.1l5.6-5.6
	c-0.1-0.2-0.1-0.4-0.1-0.6c0-1.3,1.1-2.5,2.5-2.5c1.3,0,2.5,1.1,2.5,2.5c0,0.2,0,0.4-0.1,0.6l3.1,3.1c0.2-0.1,0.4-0.1,0.6-0.1
	s0.4,0,0.6,0.1l4.4-4.4c-0.1-0.2-0.1-0.4-0.1-0.6c0-1.3,1.1-2.5,2.5-2.5C108.2,7.3,109.3,8.4,109.3,9.8z"/>
<g>
	<path class="st0" d="M130.3,20.4l4.5-4.4c-0.6-0.1-1-0.1-1.5-0.1c-4,0-12,2-12,6v3h13.5L130.3,20.4z M133.3,12.9c3.3,0,6-2.7,6-6
		s-2.7-6-6-6s-6,2.7-6,6S130,12.9,133.3,12.9"/>
	<path class="st0" d="M140,25.6l-5.2-5.3l2.1-2.1l3.1,3.1l7.7-7.8l2.1,2.1L140,25.6z"/>
</g>
<g>
	<g>
		<path class="st4" d="M245.5,0.9c-0.6,0-1.1,0.5-1.1,1.2v6c0,0.6-0.5,1.2-1.1,1.2h-6.4c-0.6,0-1.1,0.5-1.1,1.2v0.6
			c0,0.6,0.5,1.1,1.2,1.1h9.3c0.6,0,1.1-0.5,1.1-1.2V2.1c0-0.6-0.5-1.1-1.2-1.1L245.5,0.9z"/>
	</g>
	<g>
		<path class="st1" d="M252,0.9c0.6,0,1.2,0.5,1.2,1.1v6c0,0.6,0.5,1.1,1.2,1.1h6.4c0.6,0,1.2,0.5,1.2,1.1v0.6
			c0,0.6-0.5,1.2-1.1,1.2h-9.3c-0.6,0-1.2-0.5-1.2-1.1V2c0-0.6,0.5-1.2,1.1-1.2L252,0.9z"/>
	</g>
	<g>
		<path class="st2" d="M245.6,26c-0.6,0-1.2-0.5-1.2-1.1v-6.1c0-0.6-0.5-1.1-1.2-1.1h-6.4c-0.6,0-1.2-0.5-1.2-1.1v-0.5
			c0-0.6,0.5-1.2,1.1-1.2h9.3c0.6,0,1.2,0.5,1.2,1.1v8.9c0,0.6-0.5,1.2-1.1,1.2L245.6,26z"/>
	</g>
	<g>
		<path class="st0" d="M251,27.4c-0.5-0.4-0.4-1.2,0-1.6l4.5-4.3c0.5-0.4,0.5-1.2,0-1.6l-4.5-4.3c-0.5-0.4-0.5-1.2,0-1.6l0.4-0.4
			c0.5-0.4,1.2-0.4,1.7,0l6.6,6.2c0.5,0.4,0.5,1.1,0,1.6l-6.6,6.3c-0.5,0.4-1.2,0.4-1.6,0L251,27.4z"/>
	</g>
</g>
<path class="st5" d="M279.2,2.6l-1.4-1.4l-5.6,5.6l-5.6-5.6l-1.4,1.4l5.6,5.6l-5.6,5.6l1.4,1.4l5.6-5.6l5.6,5.6l1.4-1.4l-5.6-5.6
	L279.2,2.6z"/>
<path class="st0" d="M290,12.4l-4.2-4.2l-1.4,1.4l5.6,5.6l12-12l-1.4-1.4L290,12.4z"/>
<g>
	<g>
		<path class="st2" d="M320.9,0.9c-0.6,0-1.1,0.5-1.1,1.2v6c0,0.6-0.5,1.1-1.1,1.2h-6.4c-0.6,0-1.1,0.5-1.1,1.2v0.6
			c0,0.6,0.5,1.1,1.2,1.1h9.3c0.6,0,1.1-0.5,1.1-1.2V2.1c0-0.6-0.5-1.1-1.2-1.1L320.9,0.9z"/>
	</g>
	<g>
		<path class="st2" d="M327.3,0.9c0.6,0,1.1,0.5,1.2,1.1v6c0,0.6,0.5,1.1,1.2,1.1h6.4c0.6,0,1.1,0.5,1.2,1.1v0.6
			c0,0.6-0.5,1.1-1.1,1.2h-9.3c-0.6,0-1.1-0.5-1.2-1.1V2c0-0.6,0.5-1.1,1.1-1.2L327.3,0.9z"/>
	</g>
	<g>
		<path class="st2" d="M320.9,26c-0.6,0-1.1-0.5-1.2-1.1v-6.1c0-0.6-0.5-1.1-1.2-1.1h-6.4c-0.6,0-1.1-0.5-1.2-1.1v-0.5
			c0-0.6,0.5-1.1,1.1-1.2h9.3c0.6,0,1.1,0.5,1.2,1.1v8.9c0,0.6-0.5,1.1-1.1,1.2L320.9,26z"/>
	</g>
	<g>
		<path class="st2" d="M326.4,27.4c-0.5-0.4-0.4-1.2,0-1.6l4.5-4.3c0.5-0.4,0.5-1.2,0-1.6l-4.5-4.3c-0.5-0.4-0.5-1.1,0-1.6l0.4-0.4
			c0.5-0.4,1.2-0.4,1.7,0l6.6,6.2c0.5,0.4,0.5,1.1,0,1.6l-6.6,6.3c-0.5,0.4-1.2,0.4-1.6,0L326.4,27.4z"/>
	</g>
</g>
<path class="st2" d="M371.2,9.8c-0.8-4.1-4.4-7.1-8.7-7.1c-3.4,0-6.4,1.9-7.8,4.8c-3.5,0.4-6.3,3.4-6.3,7c0,3.9,3.2,7.1,7.1,7.1
	h15.3c3.3,0,5.9-2.6,5.9-5.9C376.6,12.5,374.2,10,371.2,9.8z M370.7,19.2h-15.3c-2.6,0-4.7-2.1-4.7-4.7s2.1-4.7,4.7-4.7h0.8
	c0.8-2.7,3.3-4.7,6.2-4.7c3.6,0,6.5,2.9,6.5,6.5v0.6h1.8c2,0,3.5,1.6,3.5,3.5S372.7,19.2,370.7,19.2z"/>
<path class="st3" d="M411.8,10.8c2.4,0,4.2-1.9,4.2-4.3s-1.9-4.3-4.2-4.3s-4.3,1.9-4.3,4.3S409.4,10.8,411.8,10.8z M400.4,10.8
	c2.4,0,4.2-1.9,4.2-4.3s-1.9-4.3-4.2-4.3c-2.4,0-4.3,1.9-4.3,4.3S398.1,10.8,400.4,10.8z M400.4,13.6c-3.3,0-9.9,1.7-9.9,5v3.5h19.8
	v-3.5C410.3,15.3,403.7,13.6,400.4,13.6z M411.8,13.6c-0.4,0-0.9,0-1.4,0.1c1.6,1.2,2.8,2.8,2.8,4.9v3.5h8.5v-3.5
	C421.7,15.3,415.1,13.6,411.8,13.6z"/>
<path class="st0" d="M446.6,2C440.2,2,435,7.2,435,13.6s5.2,11.6,11.6,11.6s11.6-5.2,11.6-11.6S453,2,446.6,2z M454.6,9h-3.4
	c-0.4-1.5-0.9-2.8-1.6-4.1C451.7,5.5,453.5,7,454.6,9z M446.6,4.3c1,1.4,1.7,2.9,2.2,4.6h-4.4C444.8,7.3,445.6,5.7,446.6,4.3z
	 M437.6,15.9c-0.2-0.7-0.3-1.5-0.3-2.3s0.1-1.6,0.3-2.3h3.9c-0.1,0.8-0.2,1.5-0.2,2.3s0.1,1.6,0.2,2.3H437.6z M438.5,18.2h3.4
	c0.4,1.5,0.9,2.8,1.6,4.1C441.4,21.7,439.6,20.2,438.5,18.2z M442,9h-3.4c1.1-1.9,2.9-3.4,5-4.1C442.9,6.1,442.3,7.5,442,9z
	 M446.6,22.9c-1-1.4-1.7-2.9-2.2-4.6h4.4C448.3,19.9,447.5,21.5,446.6,22.9z M449.3,15.9h-5.4c-0.1-0.8-0.2-1.5-0.2-2.3
	s0.1-1.6,0.2-2.3h5.4c0.1,0.8,0.2,1.5,0.2,2.3S449.4,15.2,449.3,15.9z M449.6,22.4c0.7-1.3,1.2-2.7,1.6-4.1h3.4
	C453.5,20.2,451.7,21.7,449.6,22.4z M451.6,15.9c0.1-0.8,0.2-1.5,0.2-2.3s-0.1-1.6-0.2-2.3h3.9c0.2,0.7,0.3,1.5,0.3,2.3
	s-0.1,1.6-0.3,2.3H451.6z"/>
<path class="st0" d="M495.9,8.5c0,1.4-1.1,2.5-2.5,2.5c-0.2,0-0.4,0-0.6-0.1l-4.4,4.4c0.1,0.2,0.1,0.4,0.1,0.6
	c0,1.4-1.1,2.5-2.5,2.5s-2.5-1.1-2.5-2.5c0-0.2,0-0.4,0.1-0.6l-3.1-3.1c-0.2,0.1-0.4,0.1-0.6,0.1s-0.4,0-0.6-0.1l-5.6,5.6
	c0.1,0.2,0.1,0.4,0.1,0.6c0,1.4-1.1,2.5-2.5,2.5c-1.3,0-2.5-1.1-2.5-2.5s1.1-2.5,2.5-2.5c0.2,0,0.4,0,0.6,0.1l5.6-5.6
	c-0.1-0.2-0.1-0.4-0.1-0.6c0-1.3,1.1-2.5,2.5-2.5s2.5,1.1,2.5,2.5c0,0.2,0,0.4-0.1,0.6l3.1,3.1c0.2-0.1,0.4-0.1,0.6-0.1
	s0.4,0,0.6,0.1l4.4-4.4c0-0.2,0-0.4,0-0.6c0-1.4,1.1-2.5,2.5-2.5C494.8,6,495.9,7.1,495.9,8.5z"/>
<path class="st2" d="M211.4,2.6c-6.2,0-11.1,5-11.1,11.2s5,11.2,11.1,11.2c6.2,0,11.2-5,11.2-11.2S217.6,2.6,211.4,2.6z M216.1,20.4
	l-4.7-2.8l-4.7,2.8l1.2-5.4l-4.2-3.6l5.5-0.5l2.1-5.1l2.1,5.1l5.5,0.5l-4.2,3.6L216.1,20.4z"/>
<g>
	<path class="st3" d="M515.7,20.3l4.5-4.4c-0.6-0.1-1-0.1-1.5-0.1c-4,0-12,2-12,6v3h13.5L515.7,20.3z M518.7,12.8c3.3,0,6-2.7,6-6
		s-2.7-6-6-6s-6,2.7-6,6S515.4,12.8,518.7,12.8"/>
	<path class="st3" d="M525.4,25.6l-5.2-5.3l2.1-2.1l3.1,3.1l7.7-7.8l2.1,2.1L525.4,25.6z"/>
</g>
</svg>
