<?xml version="1.0" encoding="utf-8"?>
<!-- Generator: Adobe Illustrator 22.1.0, SVG Export Plug-In . SVG Version: 6.00 Build 0)  -->
<svg version="1.1" id="Layer_1" xmlns="http://www.w3.org/2000/svg" xmlns:xlink="http://www.w3.org/1999/xlink" x="0px" y="0px"
	 width="219.6px" height="30.2px" viewBox="0 0 219.6 30.2" style="enable-background:new 0 0 219.6 30.2;" xml:space="preserve">
<style type="text/css">
	.st0{fill:#F08F00;}
	.st1{fill:#2388C0;}
	.st2{fill:#54AB42;}
	.st3{fill:#0079BB;}
</style>
<title>services-icons</title>
<g id="Outline">
	<path class="st0" d="M55.8,24.4c-6.6,0-12-5.4-12-12s5.4-12,12-12c6.6,0,12,4.9,12,10.8c0,4-3.2,7.2-7.2,7.2h-2.1
		c-0.3,0-0.6,0.3-0.6,0.6c0,0.1,0.1,0.3,0.2,0.4c0.5,0.6,0.8,1.3,0.8,2C58.8,23.1,57.4,24.4,55.8,24.4z M55.8,2.8
		c-5.3,0-9.6,4.3-9.6,9.6c0,5.3,4.3,9.6,9.6,9.6c0.3,0,0.6-0.3,0.6-0.6c0-0.1,0-0.3-0.1-0.4c-1.1-1.2-1-3.1,0.2-4.2
		c0.6-0.5,1.3-0.8,2-0.8h2.1c2.7,0,4.8-2.1,4.8-4.8v0C65.4,6.6,61.1,2.8,55.8,2.8z"/>
	<circle class="st0" cx="49.2" cy="11.8" r="1.8"/>
	<circle class="st0" cx="52.8" cy="7" r="1.8"/>
	<circle class="st0" cx="58.8" cy="7" r="1.8"/>
	<circle class="st0" cx="62.4" cy="11.8" r="1.8"/>
</g>
<g id="Outline-2">
	<path class="st1" d="M99.3,3.8l3.8,3.8l-3.8,3.8l-3.8-3.8L99.3,3.8 M88.9,4.5v5.4h-5.4V4.5H88.9 M102.4,17.9v5.4H97v-5.4H102.4
		 M88.9,17.9v5.4h-5.4v-5.4H88.9 M99.3,0l-7.6,7.6l7.6,7.6l7.6-7.6L99.3,0z M91.6,1.8H80.8v10.8h10.8V1.8L91.6,1.8z M105.1,15.3
		H94.3V26h10.8L105.1,15.3L105.1,15.3z M91.6,15.3H80.8V26h10.8L91.6,15.3L91.6,15.3z"/>
</g>
<g id="Outline-3">
	<polygon class="st2" points="131.3,9 129.6,9 129.6,16.1 135.2,19.5 136.1,18 131.3,15.2 	"/>
	
		<rect x="137.9" y="1.2" transform="matrix(0.6406 -0.7678 0.7678 0.6406 46.2821 108.5207)" class="st2" width="2.4" height="7.1"/>
	<rect x="118.9" y="3.6" transform="matrix(0.7678 -0.6406 0.6406 0.7678 25.3424 79.5471)" class="st2" width="7.1" height="2.4"/>
	<path class="st2" d="M130.8,4.2C124.8,4.2,120,9,120,14.9s4.8,10.7,10.7,10.7c5.9,0,10.7-4.8,10.7-10.7c0,0,0,0,0,0
		C141.4,9,136.7,4.2,130.8,4.2z M130.8,23.2c-4.6,0-8.3-3.7-8.3-8.3s3.7-8.3,8.3-8.3c4.6,0,8.3,3.7,8.3,8.3
		C139.1,19.5,135.4,23.2,130.8,23.2L130.8,23.2L130.8,23.2z"/>
</g>
<g id="Outline-4">
	<path d="M10.4,12.8l4.6,4.6l4.6-4.6l1.4,1.4l-6,6l-6-6L10.4,12.8z"/>
</g>
<path d="M15,3.2c6.6,0,12,5.4,12,12s-5.4,12-12,12s-12-5.4-12-12S8.4,3.2,15,3.2 M15,0.2C6.7,0.2,0,7,0,15.2s6.7,15,15,15
	s15-6.7,15-15S23.3,0.2,15,0.2z"/>
<g id="Outline-5">
	<path class="st2" d="M166,26.6h11.7c1.1,0,2-0.6,2.4-1.6l3.9-9.2c0.1-0.3,0.2-0.7,0.2-1v-2.5c0-1.4-1.2-2.6-2.6-2.6h-8.2l1.2-5.9
		V3.3c0-0.5-0.2-1-0.5-1.3l-1.4-1.4l-8.5,8.5c-0.5,0.5-0.8,1.1-0.8,1.8v13C163.5,25.4,164.6,26.6,166,26.6z M166,11l5.6-5.6l-1.7,7
		h11.7V15l-3.9,9H166V11z"/>
	<rect x="155.6" y="11" class="st2" width="5.2" height="15.6"/>
</g>
<path class="st3" d="M207.6,1.2c-6.6,0-12,5.4-12,12s5.4,12,12,12s12-5.4,12-12S214.2,1.2,207.6,1.2z M204,19.1V7.4l10.1,5.9
	L204,19.1z"/>
</svg>
