<?xml version="1.0" encoding="utf-8"?>
<!-- Generator: Adobe Illustrator 22.1.0, SVG Export Plug-In . SVG Version: 6.00 Build 0)  -->
<svg version="1.1" id="Layer_1" xmlns="http://www.w3.org/2000/svg" xmlns:xlink="http://www.w3.org/1999/xlink" x="0px" y="0px"
	 width="792px" height="612px" viewBox="0 0 792 612" style="enable-background:new 0 0 792 612;" xml:space="preserve">
<style type="text/css">
	.st0{fill:none;}
	.st1{display:none;fill:none;}
	.st2{fill:#FFFFFF;}
	.st3{fill:#3E8BC3;}
	.st4{fill:#666666;}
	.st5{fill:#333333;}
	.st6{fill:#0684C5;}
	.st7{fill:#E43238;}
	.st8{fill:#0078BB;}
	.st9{fill:#F08F00;}
	.st10{fill:#53AB40;}
	.st11{fill:#19161B;}
	.st12{fill:#E23338;}
	.st13{fill:#0078BA;}
	.st14{fill:#ED8800;}
	.st15{fill:#4FAA47;}
	.st16{fill:#1D1D1B;}
	.st17{fill:#FFFFFF;stroke:#FFFFFF;stroke-width:0.85;stroke-miterlimit:10;}
	.st18{fill:none;stroke:#676767;stroke-width:0.8075;stroke-miterlimit:10;}
	.st19{display:none;}
	.st20{clip-path:url(#SVGID_2_);}
	.st21{fill:#0437A0;}
	.st22{fill:#F90805;}
	.st23{display:none;fill:#F90805;stroke:#FFFFFF;stroke-width:1.0001;stroke-miterlimit:2.4142;}
	.st24{clip-path:url(#SVGID_5_);fill:#EE3329;stroke:#FFFFFF;stroke-width:0.3715;stroke-miterlimit:2.4142;}
	.st25{clip-path:url(#SVGID_7_);}
	.st26{fill:#043CB2;}
	.st27{fill:url(#SVGID_8_);}
	.st28{fill:#FBF9F9;}
	.st29{clip-path:url(#SVGID_10_);}
	.st30{fill:#FBF9F8;}
	.st31{clip-path:url(#SVGID_12_);}
	.st32{fill:#F3F3F4;}
	.st33{fill:none;stroke:#505659;stroke-width:2;stroke-miterlimit:10;}
	.st34{fill:#1A1A1A;}
	.st35{clip-path:url(#SVGID_13_);}
	.st36{fill:#047BC1;}
</style>
<symbol  id="ic_x5F_arrow_x5F_drop_x5F_down" viewBox="-12 -12 24 24">
	<g>
		<polygon points="-5,2 0,-3 5,2 		"/>
	</g>
	<rect x="-12" y="-12" class="st0" width="24" height="24"/>
	<rect x="-12" y="-12" class="st1" width="24" height="24"/>
</symbol>
<g>
	<path class="st2" d="M557,423.4c0-6.3,5.2-11.5,11.5-11.5s11.5,5.2,11.5,11.5s-5.2,11.5-11.5,11.5C562.1,434.9,557,429.7,557,423.4
		z M584.5,434.9h-8.4c3.7-2.5,6.2-6.7,6.2-11.5c0-7.6-6.2-13.8-13.8-13.8s-13.8,6.2-13.8,13.8c0,7.6,6.2,13.8,13.8,13.8h16.1
		c0.6,0,1.2-0.5,1.2-1.2C585.7,435.4,585.2,434.9,584.5,434.9z"/>
	<path class="st2" d="M568.5,415c-4.6,0-8.3,3.7-8.3,8.3c0,4.6,3.7,8.3,8.3,8.3s8.4-3.7,8.4-8.3C576.8,418.8,573.1,415,568.5,415z
		 M568.5,434c-5.9,0-10.6-4.8-10.6-10.6c0-5.9,4.8-10.6,10.6-10.6s10.7,4.8,10.7,10.6C579.1,429.2,574.3,434,568.5,434z"/>
	<path class="st2" d="M568.5,418.2c-2.9,0-5.2,2.3-5.2,5.2c0,2.8,2.3,5.2,5.2,5.2s5.2-2.3,5.2-5.2
		C573.6,420.5,571.3,418.2,568.5,418.2z M568.5,430.9c-4.1,0-7.5-3.4-7.5-7.5s3.4-7.5,7.5-7.5s7.5,3.4,7.5,7.5
		C575.9,427.5,572.6,430.9,568.5,430.9z"/>
	<path class="st2" d="M606.6,433.7l-4.9-13.5c-0.1,0.4-0.3,0.7-0.5,1.1l-3,4.7l3.5,9.5c0.4,1.1,1.4,1.7,2.5,1.7c0.3,0,0.6,0,0.9-0.2
		C606.4,436.5,607.1,435,606.6,433.7z"/>
	<path class="st2" d="M595.9,396.1c0-2.9-2.4-5.2-5.2-5.2s-5.2,2.3-5.2,5.2s2.3,5.2,5.2,5.2C593.5,401.4,595.9,399.1,595.9,396.1z"
		/>
	<path class="st2" d="M595.1,426.9l6.4-10l-4.4-12.3c-0.5-1.4-2.6-2.1-5.4-1.5c-2.3,0.5-3.4,1.9-3.7,3.3c-0.1,0.2,0,6.9,0,6.9h-4.1
		c-1.2,0-2.1,0.9-2.1,2.1s1,2.1,2.1,2.1h7.9l1.1,2.9l-3.7,5.9l3.4,9.1c0.4,1.1,1.4,1.7,2.5,1.7c0.3,0,0.6,0,0.9-0.2
		c1.3-0.5,2-2,1.5-3.3L595.1,426.9z"/>
</g>
<g>
	<path class="st2" d="M145,5v62h62V5H145z M176,66.5c-16.8,0-30.5-13.7-30.5-30.5S159.2,5.5,176,5.5s30.5,13.7,30.5,30.5
		S192.8,66.5,176,66.5z"/>
</g>
<path class="st2" d="M173.8,20.8v-0.1c0.3-1.3,0.9-1.9,1.5-2.1c1-2.3,3.2-3.8,5.5-3.4c0.6,0.1,1,0.6,1,1.3c-0.1,0.6-0.6,1-1.3,1
	c-1-0.1-2.1,0.4-2.8,1.4c0.5,0.3,0.8,0.9,1,1.8v0.1c0,0,0,0.1-0.1,0.1L173.8,20.8C173.9,20.9,173.8,20.9,173.8,20.8z M183.3,20.8
	v-0.1c0.4-1.9,1.4-2.2,2.5-2.2s2.1,0.4,2.5,2.2v0.1c0,0,0,0.1-0.1,0.1L183.3,20.8C183.4,20.9,183.3,20.9,183.3,20.8z M163.9,20.8
	v-0.1c0.4-1.9,1.4-2.2,2.5-2.2s2.1,0.4,2.5,2.2v0.1c0,0,0,0.1-0.1,0.1L163.9,20.8C163.9,20.9,163.9,20.9,163.9,20.8z M190.7,56.4
	c0,0.6-0.5,1.1-1.1,1.1h-27.1c-0.6,0-1.1-0.5-1.1-1.1s0.5-1.1,1.1-1.1h6.6c1.4-4.5,2.1-9.3,2.1-14.3c0-1,0-2-0.1-3
	c1.8,0.4,3.6,0.6,5.4,0.6c1.5,0,3-0.2,4.4-0.4c-0.1,1-0.1,1.9-0.1,2.9c0,4.9,0.7,9.7,2.1,14.3h6.6C190.2,55.3,190.7,55.8,190.7,56.4
	z M197.8,22.6c-0.1-0.2-0.3-0.3-0.5-0.3h-41.5c-0.2,0-0.4,0.1-0.5,0.3s-0.1,0.4-0.1,0.6c3.5,8.3,11.9,13.7,21.4,13.7
	s17.9-5.4,21.4-13.7C198,23,197.9,22.8,197.8,22.6z"/>
<g>
	<path class="st2" d="M5,5v62h62V5H5z M36,66.5C19.2,66.5,5.5,52.8,5.5,36S19.2,5.5,36,5.5S66.5,19.2,66.5,36S52.8,66.5,36,66.5z"/>
</g>
<g>
	<path class="st2" d="M75,5v62h62V5H75z M106,66.5c-16.8,0-30.5-13.7-30.5-30.5S89.2,5.5,106,5.5s30.5,13.7,30.5,30.5
		S122.8,66.5,106,66.5z"/>
</g>
<g>
	<path class="st2" d="M213,5v62h62V5H213z M244,66.5c-16.8,0-30.5-13.7-30.5-30.5S227.2,5.5,244,5.5s30.5,13.7,30.5,30.5
		S260.8,66.5,244,66.5z"/>
</g>
<g>
	<path class="st2" d="M283,5v62h62V5H283z M314,66.5c-16.8,0-30.5-13.7-30.5-30.5S297.2,5.5,314,5.5s30.5,13.7,30.5,30.5
		S330.8,66.5,314,66.5z"/>
</g>
<g>
	<path class="st2" d="M353,5v62h62V5H353z M384,66.5c-16.8,0-30.5-13.7-30.5-30.5S367.2,5.5,384,5.5s30.5,13.7,30.5,30.5
		S400.8,66.5,384,66.5z"/>
</g>
<g>
	<path class="st2" d="M423,5v62h62V5H423z M454,66.5c-16.8,0-30.5-13.7-30.5-30.5S437.2,5.5,454,5.5s30.5,13.7,30.5,30.5
		S470.8,66.5,454,66.5z"/>
</g>
<g>
	<path class="st2" d="M493,5v62h62V5H493z M524,66.5c-16.8,0-30.5-13.7-30.5-30.5S507.2,5.5,524,5.5s30.5,13.7,30.5,30.5
		S540.8,66.5,524,66.5z"/>
</g>
<g>
	<path class="st2" d="M563,5v62h62V5H563z M594,66.5c-16.8,0-30.5-13.7-30.5-30.5S577.2,5.5,594,5.5s30.5,13.7,30.5,30.5
		S610.8,66.5,594,66.5z"/>
</g>
<g>
	<path class="st2" d="M633,5v62h62V5H633z M664,66.5c-16.8,0-30.5-13.7-30.5-30.5S647.2,5.5,664,5.5s30.5,13.7,30.5,30.5
		S680.8,66.5,664,66.5z"/>
</g>
<polygon class="st2" points="52.9,27.1 52.9,18.7 46.1,18.7 46.1,20.7 "/>
<path class="st2" d="M53.9,49.3h-4.2v-1.2h4.2V49.3z M47.2,49.3H43v-1.2h4.2V49.3z M41.9,35.1h-4.8v-5.2h4.8V35.1z M41.9,42.1h-4.8
	v-5.2h4.8V42.1z M40.4,49.3h-4.2v-1.2h4.2V49.3z M35.3,35.1h-4.8v-5.2h4.8V35.1z M35.3,42.1h-4.8v-5.2h4.8V42.1z M33.6,49.3h-4.2
	v-1.2h4.2V49.3z M26.8,49.3h-4.2v-1.2h4.2V49.3z M20,49.3h-4.2v-1.2H20V49.3z M56.5,49.3v-1.2h0.2v-9.4l1.2,1.1l2.9-3L36.2,13.5
	L11.7,36.8l2.9,3l1.1-1.1v16.8h41v-6.2H56.5z"/>
<path class="st2" d="M120.2,47.9c0,3.9-3.1,7-7,7s-7-3.1-7-7s3.2-7,7-7S120.2,44,120.2,47.9z M102.4,39.9c1.4,1.4,3.7,1.4,5.1,0
	c0.5-0.5,0.8-1.1,0.9-1.7h-7C101.6,38.8,101.9,39.4,102.4,39.9z M107.5,34.9c-1.4-1.4-3.7-1.4-5.1,0c-0.5,0.5-0.8,1.1-0.9,1.7h7
	C108.3,36,108,35.4,107.5,34.9z M98.3,29.8c-0.3-0.3-0.7-0.3-1,0c-3.6,3.6-4.2,9.5-1.3,13.9c0.1,0.2,0.4,0.3,0.6,0.3
	c0.1,0,0.3,0,0.4-0.1c0.3-0.2,0.4-0.7,0.2-1c-2.5-3.9-2.1-9,1.1-12.1C98.5,30.6,98.5,30.1,98.3,29.8z M124.1,27.2
	c-1.1-1.1-2.9-1.1-4.1,0l-5.4,5.4l-4.9-4.9l5.4-5.4c1.1-1.1,1.1-3,0-4.1s-2.9-1.1-4.1,0l-5.4,5.4l-1.8-1.8c-1.3-1.3-3.6-1.3-4.8,0
	l-5.1,5.1c-2.9,2.9-4.4,6.7-4.4,10.8s1.6,7.9,4.4,10.8c2.9,2.9,6.7,4.5,10.8,4.5c0.4,0,0.7-0.3,0.7-0.7s-0.3-0.7-0.7-0.7
	c-3.7,0-7.2-1.4-9.8-4s-4-6.1-4-9.8s1.4-7.2,4-9.8l5.1-5.1c0.8-0.8,2.1-0.8,2.9,0l16.7,16.7c0.6,0.6,0.8,1.6,0.3,2.4
	c-0.2,0.3-0.1,0.8,0.3,1c0.3,0.2,0.8,0,0.9-0.3c0.7-1.3,0.4-3-0.6-4l-1.8-1.8l5.4-5.4C125.3,30.1,125.3,28.3,124.1,27.2z M95.1,50.8
	c0.3,0.3,0.3,0.7,0,1l-0.7,0.7c-0.3,0.3-0.7,0.5-1.1,0.5s-0.8-0.2-1.1-0.5l-2.6-2.6c-0.6-0.6-0.6-1.7,0-2.3l0.8-0.8
	c0.3-0.3,0.7-0.3,1,0s0.3,0.7,0,1l-0.8,0.8c-0.1,0.1-0.1,0.2,0,0.3l2.6,2.6c0.1,0.1,0.2,0.1,0.3,0l0.7-0.7
	C94.4,50.5,94.8,50.5,95.1,50.8z"/>
<path class="st2" d="M320.3,35.4l-2.9-2.5l11.4-13.6l2.9,2.5L320.3,35.4z M336,17.1l-3.3-2.8c-0.2-0.2-0.5-0.3-0.8-0.3
	c-0.4,0-0.8,0.2-1,0.5L316.1,32l-2.1,7.3c-0.1,0.3,0,0.5,0.2,0.5c0.1,0,0.2,0,0.3-0.1l6.9-3.3l14.7-17.5
	C336.6,18.4,336.5,17.5,336,17.1z M324.6,46.3c-0.4-1.2-1.1-2.3-1.6-2.9c0.7-0.1,2.1-0.4,3.5-1L324.6,46.3z M327.9,30.9l-1.2,1.4
	l1.5,4.2c0.4,1.1,0.4,2-0.1,2.8c-1.1,1.8-4.5,2.5-5.6,2.6c-0.6,0-1,0.3-1.2,0.8s-0.1,1,0.3,1.4c0.6,0.8,2.2,3.2,1.8,4.7
	c-0.2,0.6-0.6,1-1.5,1.4L298,58.9c-0.1,0-0.2,0-0.3-0.1l-10.2-28.1c0-0.1,0-0.1,0-0.2c0,0,0-0.1,0.1-0.1l33.7-12.3
	c0.1,0,0.2,0,0.2,0.1l1.3,3.6l1.2-1.4l-1-2.7c-0.3-0.9-1.4-1.5-2.4-1.1L287,28.8c-0.5,0.2-0.8,0.5-1,1c-0.2,0.4-0.2,1-0.1,1.4
	l10.2,28.1c0.3,0.7,1,1.2,1.7,1.2c0.2,0,0.4,0,0.6-0.1l23.8-8.7c1-0.4,1.6-0.9,2-1.4c0.2-0.2,5.1-10.3,5.1-10.3
	c0.7-1.2,0.8-2.6,0.2-4.1L327.9,30.9z M297.1,35l4.2-1.5c0.1,2.2-0.9,4.4-2.7,5.7L297.1,35z M302.5,33.1l12.3-4.5l-0.4-1.1
	l-12.1,4.4c-0.1-0.3-0.1-0.5-0.2-0.8l-0.2-0.5l-1.1,0.4l0.2,0.5c0.1,0.3,0.2,0.5,0.2,0.8l-4.4,1.6l-0.6-1.5l-1.1,0.4l0.6,1.5
	l-1.8,0.6l0.4,1.1l1.8-0.6l1.6,4.4c-0.3,0.1-0.5,0.2-0.8,0.3l-0.5,0.2l0.4,1.1l0.5-0.2c0.3-0.1,0.5-0.2,0.8-0.3l4.1,11.2l1.1-0.4
	l-4.2-11.4C301.4,38.7,302.7,35.9,302.5,33.1z"/>
<path class="st2" d="M359.2,34.3l8.3-1.5l3.2,18.4l-8.3,1.5L359.2,34.3z M365.6,22.3l1.5,8.3l-8.2,1.5
	C358.5,27.6,361.4,23.5,365.6,22.3z M372.9,50.8l-3.2-18.4l6.7-1.2l0.4-2.4l-7.5,1.3l-1.5-8.3c0.2,0,0.3,0,0.5,0
	c3.9,0,7.2,2.3,8.7,5.7l0.6-3.4c-2.2-2.8-5.5-4.6-9.3-4.6c-0.7,0-1.4,0.1-2,0.2c-6.4,1.1-10.7,7.2-9.5,13.6l3.6,20.7
	c0,0.3,0.2,0.6,0.5,0.7c0.2,0.1,0.4,0.2,0.6,0.2c0.1,0,0.1,0,0.2,0l10.8-1.9L372.9,50.8z M406.9,17.4L381.8,13h-0.1
	c-0.3,0-0.5,0.2-0.5,0.5l-7.3,41.3c0,0.3,0.1,0.6,0.5,0.7l25.1,4.4h0.1c0.3,0,0.5-0.2,0.6-0.5l7.3-41.3
	C407.4,17.7,407.2,17.4,406.9,17.4z"/>
<g>
	<g>
		<polygon class="st2" points="456.1,34.3 460.8,34.3 461.5,30.6 456.9,30.6 		"/>
		<g>
			<polygon class="st2" points="459.2,19.4 458.5,22.9 460,22.9 			"/>
		</g>
		<polygon class="st2" points="454.4,42.1 454.1,43.5 454.6,45.8 458.3,45.8 459.1,42.1 		"/>
	</g>
	<path class="st2" d="M445.6,41.3h-5l2.5-11.9l-2.2-10.5c-0.1,0-0.1-0.1-0.2-0.1L432.5,57h4.7l2.4-11.2h7L445.6,41.3z"/>
	<path class="st2" d="M462.4,17.5l1.5,7h-15.5l-1.5-7H462.4z M466.3,36h-15.5l-1.5-7h15.5L466.3,36z M467.3,40.5l1.5,7h-15.5l-1.5-7
		H467.3z M442.2,17.5l8.4,39.5h4.7l-1.1-5h15.5l1.1,5h4.7l-8.4-39.5c1.1-0.2,2-1.1,2-2.2c0-1.3-1-2.3-2.3-2.3h-24.6
		c-1.3,0-2.3,1-2.3,2.3C439.9,16.5,440.9,17.5,442.2,17.5z"/>
</g>
<path class="st2" d="M517.9,38.1c-0.9,0-1.7-0.2-2.3-0.6v15c0,0.8,0.7,1.4,1.4,1.4h2.3c0.8,0,1.4-0.7,1.4-1.4V37.1
	C520.2,37.7,519.1,38.1,517.9,38.1z M511.2,58.2c0,0.5,0.4,0.8,0.8,0.8h25.8c0.5,0,0.8-0.4,0.8-0.8v-1.4c0-0.5-0.4-0.8-0.8-0.8H512
	c-0.4,0-0.8,0.4-0.8,0.8V58.2L511.2,58.2z M524,50.8c0-0.3,0.3-0.6,0.6-0.6h13.5c0.3,0,0.6,0.3,0.6,0.6v1.8c0,0.3-0.3,0.6-0.6,0.6
	h-13.5c-0.3,0-0.6-0.3-0.6-0.6V50.8z M535.9,35c1.4,0.1,2.7,0.6,3.7,1.2c0.3,0,0.6-0.3,0.6-0.5l-0.6-7.2c-0.2-1.6-1.6-3-4.3-3.2
	c-0.2,0-0.4,0-0.5,0c-2.3,0-4.4,1.3-4.5,3.1v7.4c0,0.3,0.3,0.5,0.6,0.5c1.3-0.8,3-1.3,4.5-1.3C535.5,35,535.7,35,535.9,35z
	 M539.2,24.3l-0.5-6.2c-0.2-1.5-1.5-2.7-3.9-2.9c-2.2-0.2-4.5,1-4.7,2.8v6.4c0,0.3,0.2,0.5,0.5,0.5c1.3-0.9,3.2-1.3,4.7-1.2
	c1.2,0.1,2.5,0.5,3.4,1.1C539,24.8,539.3,24.6,539.2,24.3z M528.7,35.7v-7.4c-0.1-1.8-2.3-3.1-4.5-3.1c-0.2,0-0.4,0-0.5,0
	c-2.7,0.3-4.1,1.6-4.2,3.2l-0.6,7.3c0,0.3,0.2,0.5,0.5,0.5c1.1-0.7,2.4-1.1,3.8-1.2c0.2,0,0.4,0,0.6,0c1.5,0,3.2,0.5,4.5,1.3
	C528.5,36.3,528.7,36,528.7,35.7z M520.2,24.8c1-0.6,2.2-1,3.4-1.1c1.5-0.1,3.3,0.3,4.7,1.2c0.3,0,0.5-0.2,0.5-0.5V18
	c-0.1-1.8-2.4-3-4.6-2.8c-2.4,0.2-3.7,1.4-3.9,2.9l-0.5,6.2C519.7,24.6,519.9,24.8,520.2,24.8z M513.8,25.2c-0.2,0-0.3,0-0.4,0
	c-2.7,0.2-4.1,1.5-4.4,3.1l-1.2,7.3c0,0.3,0.2,0.5,0.5,0.6c1.1-0.7,2.4-1.1,3.7-1.2c0.1,0,0.3,0,0.5,0c1.5,0,3,0.5,4.3,1.4
	c0.3,0,0.6-0.2,0.6-0.5l0.6-7.5C517.9,26.6,516,25.2,513.8,25.2z M509.6,24.3l1.1-6.2c0.3-1.5,1.6-2.7,4-2.9
	c2.2-0.2,4.2,1.1,4.2,2.9l-0.5,6.4c0,0.3-0.3,0.5-0.5,0.5c-1.2-0.9-2.8-1.4-4.3-1.3c-1.2,0.1-2.4,0.5-3.4,1.1
	C509.7,24.8,509.5,24.5,509.6,24.3z"/>
<g>
	<path class="st2" d="M569,42c0-6.4,5.3-11.7,11.7-11.7s11.7,5.2,11.7,11.7s-5.3,11.7-11.7,11.7S569,48.4,569,42z M597.1,53.7h-8.6
		c3.8-2.5,6.3-6.8,6.3-11.7c0-7.7-6.3-14-14-14s-14,6.3-14,14s6.3,14,14,14h16.3c0.7,0,1.2-0.5,1.2-1.2
		C598.2,54.2,597.7,53.7,597.1,53.7z"/>
	<path class="st2" d="M580.7,33.5c-4.7,0-8.5,3.8-8.5,8.5s3.8,8.5,8.5,8.5s8.5-3.8,8.5-8.5S585.4,33.5,580.7,33.5z M580.7,52.8
		c-6,0-10.8-4.8-10.8-10.8s4.8-10.8,10.8-10.8S591.5,36,591.5,42C591.6,47.9,586.7,52.8,580.7,52.8z"/>
	<path class="st2" d="M580.7,36.7c-2.9,0-5.3,2.4-5.3,5.3c0,2.9,2.4,5.3,5.3,5.3c2.9,0,5.3-2.4,5.3-5.3
		C586,39.1,583.7,36.7,580.7,36.7z M580.7,49.6c-4.2,0-7.6-3.4-7.6-7.6s3.4-7.6,7.6-7.6c4.2,0,7.6,3.4,7.6,7.6
		C588.4,46.2,584.9,49.6,580.7,49.6z"/>
	<path class="st2" d="M619.5,52.4l-5-13.7c-0.1,0.4-0.3,0.7-0.5,1.1l-3,4.8l3.5,9.7c0.4,1.1,1.4,1.7,2.5,1.7c0.3,0,0.6,0,0.9-0.2
		C619.3,55.3,620,53.8,619.5,52.4z"/>
	<path class="st2" d="M608.6,14.3c0-2.9-2.4-5.3-5.3-5.3s-5.3,2.4-5.3,5.3s2.4,5.3,5.3,5.3S608.6,17.3,608.6,14.3z"/>
	<path class="st2" d="M607.8,45.6l6.5-10.2l-4.4-12.5c-0.5-1.4-2.7-2.1-5.5-1.6c-2.3,0.5-3.4,1.9-3.7,3.4c-0.1,0.2,0,7,0,7h-4.1
		c-1.2,0-2.2,1-2.2,2.2s1,2.2,2.2,2.2h8l1.2,2.9l-3.8,6l3.4,9.3c0.4,1.1,1.4,1.7,2.5,1.7c0.3,0,0.6,0,0.9-0.2c1.4-0.5,2.1-2,1.6-3.4
		L607.8,45.6z"/>
</g>
<path class="st2" d="M680.4,19.1c-6.5,8.5-7.6,15.6-7.6,15.7c0,0.2-0.2,0.3-0.4,0.3h-6.1c-0.1-0.4-0.4-1-0.8-1.6
	c0-0.1-0.3-0.3-0.6-0.8c1.5-3,5.5-9.3,15.1-14.3c0.1,0,0.1,0,0.2,0c0.1,0,0.2,0,0.3,0.1C680.5,18.7,680.5,18.9,680.4,19.1z
	 M660.7,28.8c0.3-2.7,0.6-6,0.5-9.1c0-0.2,0.1-0.4,0.3-0.4h0.1c0.1,0,0.3,0.1,0.3,0.2c1.6,2.4,3.2,5.7,4.4,8.7
	c-1.1,1.5-1.8,2.7-2.4,3.8C663.2,31,662.1,29.9,660.7,28.8z M664.8,34.9c-0.1,0.1-0.2,0.2-0.3,0.2h-9.6c-0.1,0-0.2,0-0.3-0.2
	c-0.1-0.1-5.7-7.5-10.8-10.6c-0.2-0.1-0.2-0.3-0.2-0.5s0.2-0.3,0.4-0.3c13.8,0.8,20.7,10.8,20.8,10.9
	C664.8,34.6,664.8,34.8,664.8,34.9z M681.7,39.2c0,0.5-0.4,1-1,1h-34.5c-0.5,0-1-0.4-1-1v-1.4c0-0.5,0.4-1,1-1h34.5c0.5,0,1,0.4,1,1
	V39.2L681.7,39.2z M648.2,45.5c-0.1-0.5,0.2-1,0.7-1.2c0.5-0.1,1,0.2,1.2,0.7c1,4.1,3.1,6.1,6.5,8.7
	C652.7,52.7,649.1,49.4,648.2,45.5z M681.1,41.9h-35.2c-0.4,0-0.8,0.3-0.8,0.8c0,8.8,7.4,14.7,18.4,14.7s18.4-5.9,18.4-14.7
	C681.9,42.2,681.5,41.9,681.1,41.9z"/>
<g>
	<path class="st2" d="M5,73v62h62V73H5z M36,134.5c-16.8,0-30.5-13.7-30.5-30.5S19.2,73.5,36,73.5S66.5,87.2,66.5,104
		S52.8,134.5,36,134.5z"/>
</g>
<g>
	<path class="st2" d="M75,73v62h62V73H75z M106,134.5c-16.8,0-30.5-13.7-30.5-30.5S89.2,73.5,106,73.5s30.5,13.7,30.5,30.5
		S122.8,134.5,106,134.5z"/>
</g>
<g>
	<path class="st2" d="M23.8,116.7V91.3c0-2,0.8-3.5,2-4.3c1.3-0.8,3-0.6,4.7,0.3L52.2,100c1.7,1,2.6,2.4,2.6,4s-1,3-2.6,4
		l-21.6,12.7c-1.7,1-3.4,1.1-4.7,0.3C24.6,120.2,23.8,118.7,23.8,116.7z"/>
</g>
<g>
	<path class="st2" d="M112.3,122.4l5.3,3.6l5.6-6.9c1.8-2.3-1.8-5.1-3.6-2.8l-2.9,3.8l-1.7-1.3C112.8,117,110,120.7,112.3,122.4z"/>
	<path class="st2" d="M101.4,98.7c-2.9,0-2.9,4.6,0,4.6h11.9c2.9,0,2.9-4.6,0-4.6H101.4z"/>
	<path class="st2" d="M113.3,106.8h-11.9c-2.9,0-2.9,4.6,0,4.6h11.9C116.2,111.3,116.2,106.8,113.3,106.8z"/>
	<path class="st2" d="M112.9,86.6l6.5,6.2v18.6h4.5V90.7l-9.6-8.7h-22C91,82,90,83,90,84.3v39.1c0,1.2,1,2.3,2.3,2.3h15.5v-4.6H94.5
		V86.6H112.9z"/>
</g>
<g>
	<path class="st2" d="M269.9,35.2l-0.8-1.3c-0.3-0.4-0.8-0.6-1.3-0.5c-0.1,0-0.2,0-0.3,0.1l-7.5,4.3c-0.3,0.2-0.5,0.6-0.3,1
		c0.1,0.2,0.4,0.4,0.6,0.4c0.1,0,0.3,0,0.4-0.1l6.5-3.8l0.6,1.1c0.2,0.4,0.6,0.6,1,0.6c0.2,0,0.4,0,0.6-0.2
		C270,36.5,270.2,35.8,269.9,35.2z"/>
	<path class="st2" d="M253.5,29.8c-4.1-7.2-13.3-9.6-20.5-5.5s-9.6,13.3-5.5,20.5c0.9,1.5,1.9,2.7,3.1,3.8c0,0,2.8,2.6,4.2,3.8
		c2.1,1.8,5.1,1.8,7.7,0.4l16.3-9.4c1-0.6,1.4-1.9,0.8-2.9L253.5,29.8z M243.6,42.6c-0.9,0.5-1.9,0.8-2.9,0.8c-2.1,0-4-1.1-5-2.9
		c-0.8-1.3-1-2.9-0.6-4.4s1.4-2.8,2.7-3.5c0.9-0.5,1.9-0.8,2.9-0.8c2.1,0,4,1.1,5,2.9C247.3,37.4,246.4,41,243.6,42.6z"/>
</g>
<g>
	<rect x="5" y="141" class="st3" width="6" height="6"/>
	<rect x="5" y="148" class="st3" width="6" height="6"/>
	<rect x="5" y="155" class="st3" width="6" height="6"/>
	<rect x="12" y="141" class="st3" width="6" height="6"/>
	<rect x="12" y="148" class="st3" width="6" height="6"/>
	<rect x="12" y="155" class="st3" width="6" height="6"/>
	<rect x="19" y="141" class="st3" width="6" height="6"/>
	<rect x="19" y="148" class="st3" width="6" height="6"/>
	<rect x="19" y="155" class="st3" width="6" height="6"/>
</g>
<g>
	<rect x="67" y="141" class="st4" width="6" height="6"/>
	<rect x="67" y="148" class="st4" width="6" height="6"/>
	<rect x="67" y="155" class="st4" width="6" height="6"/>
	<rect x="74" y="141" class="st4" width="6" height="6"/>
	<rect x="74" y="148" class="st4" width="6" height="6"/>
	<rect x="74" y="155" class="st4" width="6" height="6"/>
	<rect x="81" y="141" class="st4" width="6" height="6"/>
	<rect x="81" y="148" class="st4" width="6" height="6"/>
	<rect x="81" y="155" class="st4" width="6" height="6"/>
</g>
<g>
	<rect x="98" y="141" class="st4" width="19" height="6"/>
	<rect x="98" y="148" class="st4" width="19" height="6"/>
	<rect x="98" y="155" class="st4" width="19" height="6"/>
</g>
<g>
	<path class="st5" d="M133.6,148.4c0.5,0,0.9,0.1,1.2,0.4c0.3,0.3,0.5,0.8,0.4,1.2c0,0.5,0.3,1,0.9,1h0.1c0.5,0,0.9-0.4,0.9-0.9
		c0.1-1-0.3-2-1-2.8c-0.7-0.7-1.7-1.1-2.8-1c-0.5,0-0.9,0.5-0.9,1C132.7,148.1,133.1,148.4,133.6,148.4z"/>
	<path class="st5" d="M138.5,145.2c-1.2-1.2-2.9-1.9-4.7-2l0,0c-0.5,0-0.9,0.4-0.9,0.9s0.4,0.9,0.9,1c1.3,0,2.5,0.5,3.4,1.4
		s1.4,2.1,1.4,3.4c0,0.5,0.4,0.9,0.9,0.9l0,0c0.5,0,0.9-0.4,0.9-1C140.5,148.1,139.8,146.5,138.5,145.2z"/>
	<path class="st5" d="M139.4,155c-1-0.7-2-1.4-3-2.2c-0.3-0.3-0.7-0.2-1,0c-0.4,0.3-0.6,0.8-0.9,1.2c-0.3,0.3-1.4,0.3-3.3-1.5
		c-1.9-1.9-1.9-3-1.5-3.3c0.4-0.4,0.9-0.6,1.2-0.9c0.3-0.3,0.3-0.7,0-1c-0.8-1-1.5-1.9-2.2-3c-0.2-0.3-0.6-0.5-1-0.4
		c-0.4,0.1-1.3,0.7-1.6,1c-1.1,1.2-0.6,4.8,3.7,9.1s7.9,4.8,9.1,3.7c0.3-0.3,0.9-1.3,1-1.6C139.9,155.7,139.8,155.3,139.4,155z"/>
</g>
<g>
	<path class="st6" d="M154.2,148.5c0.5,0,0.9,0.1,1.2,0.4c0.3,0.3,0.5,0.8,0.4,1.2c0,0.5,0.3,1,0.9,1h0.1c0.5,0,0.9-0.4,0.9-0.9
		c0.1-1-0.3-2-1-2.8c-0.7-0.7-1.7-1.1-2.8-1c-0.5,0-0.9,0.5-0.9,1C153.2,148.2,153.7,148.6,154.2,148.5z"/>
	<path class="st6" d="M159.1,145.3c-1.2-1.2-2.9-1.9-4.7-2l0,0c-0.5,0-0.9,0.4-0.9,0.9s0.4,0.9,0.9,1c1.3,0,2.5,0.5,3.4,1.4
		s1.4,2.1,1.4,3.4c0,0.5,0.4,0.9,0.9,0.9l0,0c0.5,0,0.9-0.4,0.9-1C161,148.3,160.3,146.6,159.1,145.3z"/>
	<path class="st6" d="M160,155.2c-1-0.7-2-1.4-3-2.2c-0.3-0.3-0.7-0.2-1,0c-0.4,0.3-0.6,0.8-0.9,1.2c-0.3,0.3-1.4,0.3-3.3-1.5
		c-1.9-1.9-1.9-3-1.5-3.3c0.4-0.4,0.9-0.6,1.2-0.9c0.3-0.3,0.3-0.7,0-1c-0.8-1-1.5-1.9-2.2-3c-0.2-0.3-0.6-0.5-1-0.4s-1.3,0.7-1.6,1
		c-1.1,1.2-0.6,4.8,3.7,9.1s7.9,4.8,9.1,3.7c0.3-0.3,0.9-1.3,1-1.6C160.5,155.8,160.3,155.4,160,155.2z"/>
</g>
<g>
	<rect x="40" y="141" class="st3" width="19" height="6"/>
	<rect x="40" y="148" class="st3" width="19" height="6"/>
	<rect x="40" y="155" class="st3" width="19" height="6"/>
</g>
<path d="M237.5,155.7h2.8c2.6,0,4.1-1.1,4.1-3.3c0-2.1-0.9-3.3-3.9-3.3h-3L237.5,155.7L237.5,155.7z M235.9,147.8h5.5
	c3.1,0,4.8,1.6,4.8,4.2c0,2-0.9,3.9-3.3,4.3v0.1c2.3,0.2,3.1,1.4,3.1,4l0.1,1.9c0,0.9,0.1,1.8,0.8,2.5H245c-0.4-0.6-0.5-1.5-0.5-2.4
	l-0.1-1.4c-0.1-3-0.7-3.9-3.7-3.9h-3.1v7.7H236v-17L235.9,147.8L235.9,147.8z"/>
<polygon points="251.3,147.8 260.5,147.8 260.5,149.1 253,149.1 253,155.2 260,155.2 260,156.5 253,156.5 253,163.4 260.7,163.4 
	260.7,164.7 251.3,164.7 "/>
<polygon points="265.4,147.8 267.6,147.8 274.6,162.5 274.7,162.5 274.7,147.8 276.3,147.8 276.3,164.7 274.1,164.7 267,150 
	267,150 267,164.7 265.4,164.7 "/>
<path d="M287.5,163.7c2.6,0,4.2-2,4.2-7.5s-1.6-7.5-4.2-7.5s-4.2,2-4.2,7.5S284.9,163.7,287.5,163.7z M287.5,147.5
	c3.8,0,5.9,2.7,5.9,8.7c0,6.1-2.1,8.7-5.9,8.7s-5.9-2.7-5.9-8.7S283.7,147.5,287.5,147.5z"/>
<polygon points="297.3,147.8 299.1,147.8 303.2,163.1 303.2,163.1 307.3,147.8 309.1,147.8 304.3,164.7 302.2,164.7 "/>
<path d="M320.1,158.5l-2.8-9.5h-0.1l-2.8,9.5H320.1z M316.2,147.8h2.1l5.4,16.9H322l-1.5-4.9H314l-1.5,4.9h-1.8L316.2,147.8z"/>
<polygon points="329.8,149.1 325,149.1 325,147.8 336.2,147.8 336.2,149.1 331.4,149.1 331.4,164.7 329.8,164.7 "/>
<rect x="340.4" y="147.8" width="1.6" height="16.9"/>
<path d="M353.4,163.7c2.6,0,4.2-2,4.2-7.5s-1.6-7.5-4.2-7.5s-4.2,2-4.2,7.5S350.8,163.7,353.4,163.7z M353.4,147.5
	c3.8,0,5.9,2.7,5.9,8.7c0,6.1-2.1,8.7-5.9,8.7s-5.9-2.7-5.9-8.7S349.6,147.5,353.4,147.5z"/>
<polygon points="364.6,147.8 366.8,147.8 373.8,162.5 373.9,162.5 373.9,147.8 375.5,147.8 375.5,164.7 373.3,164.7 366.3,150 
	366.2,150 366.2,164.7 364.6,164.7 "/>
<path d="M389.1,152.1c0-2.1-1-3.3-3.3-3.3c-2.2,0-3.5,1.4-3.5,3c0,5,8.9,2.3,8.9,8.2c0,3.3-2.2,4.9-5.6,4.9c-3.5,0-5.4-1.7-5.4-5
	v-0.5h1.6v0.6c0,2.2,1.2,3.6,3.7,3.6c2.3,0,4-1.1,4-3.4c0-5-8.9-2.2-8.9-8.3c0-2.6,1.9-4.5,5.1-4.5c3.4,0,5,1.6,5,4.6L389.1,152.1
	L389.1,152.1z"/>
<path class="st7" d="M194.3,106c-1.4,0-2.5,1.1-2.5,2.5v13.2c0,1.4-1.1,2.5-2.5,2.5h-14.1c-1.4,0-2.5,1.1-2.5,2.5v1.2
	c0,1.4,1.1,2.5,2.5,2.5h20.6c1.4,0,2.5-1.1,2.5-2.5v-19.5c0-1.4-1.1-2.5-2.5-2.5L194.3,106z"/>
<path class="st8" d="M208.6,106c1.4,0,2.5,1.1,2.5,2.5v13.2c0,1.4,1.1,2.5,2.5,2.5h14.1c1.4,0,2.5,1.1,2.5,2.5v1.2
	c0,1.4-1.1,2.5-2.5,2.5h-20.6c-1.4,0-2.5-1.1-2.5-2.5v-19.5c0-1.4,1.1-2.5,2.5-2.5h1.5V106z"/>
<path class="st9" d="M194.3,159.1c-1.4,0-2.5-1.1-2.5-2.5v-13.4c0-1.4-1.1-2.5-2.5-2.5h-14.1c-1.4,0-2.5-1.1-2.5-2.5v-1.1
	c0-1.4,1.1-2.5,2.5-2.5h20.6c1.4,0,2.5,1.1,2.5,4.5v19.5c0-0.6-1.1,0.5-2.5,0.5C195.7,159.1,194.3,159.1,194.3,159.1z"/>
<path class="st10" d="M206.3,164.3c-1-1-1-2.6,0-3.5l9.9-9.4c1-1,1-2.5,0-3.5l-9.9-9.4c-1-1-1-2.5,0-3.5l0.8-0.8c1-1,2.6-1,3.7,0
	l14.5,13.7c1,1,1,2.5,0,3.5l-14.5,13.9c-1,1-2.6,0.9-3.6,0L206.3,164.3z"/>
<path class="st11" d="M239.1,111.2v7.7c0,1,0.9,2,1.9,2.1h1c2.5,0,4.3-0.4,5.4-1.2c1.1-0.8,1.7-2.2,1.7-4.2c0-1.7-0.6-2.8-1.8-3.6
	c-1.2-0.7-3.1-1.1-5.7-1.1C241.1,111,240.3,111.1,239.1,111.2z M253.4,137.2c-1,0-2.4-0.7-2.9-1.6l-6-9.5c-0.6-0.9-1.9-1.6-2.9-1.7
	c0,0-0.5,0-2.4-0.2v11c0,1-0.9,1.9-1.9,1.9H237c-1,0-1.9-0.9-1.9-1.9v-25.8c0-1,0.6-1.9,1.2-1.9l2-0.1c2-0.1,3.4-0.2,4.3-0.2
	c7.2,0,10.8,2.8,10.8,8.5c0,1.9-0.6,3.5-1.7,5c-1.2,1.5-2.5,2.4-4.1,2.8l7.7,12c0.6,0.9,0.2,1.6-0.9,1.6L253.4,137.2L253.4,137.2z"
	/>
<path class="st11" d="M265.2,111.2c-1,0-1.9,0.8-1.9,1.9v4.4c0,1,0.9,1.9,1.9,1.9h6.1c1,0,1.9,0.8,1.9,1.7c0,0.9-0.9,1.7-1.9,1.7
	h-6.1c-1,0-1.9,0.9-1.9,1.9v6.9c0,1,0.9,1.9,1.9,1.9h9.8c1,0,1.9,0.8,1.9,1.8s-0.9,1.8-1.9,1.8h-13.9c-1,0-1.9-0.9-1.9-1.9v-25.8
	c0-1,0.9-1.9,1.9-1.9h14.1c1,0,1.9,0.8,1.9,1.8s-0.9,1.8-1.9,1.8L265.2,111.2L265.2,111.2z"/>
<path class="st11" d="M287.7,111.2c-1,0-1.9,0.8-1.9,1.9v4.4c0,1,0.9,1.9,1.9,1.9h6.8c1,0,1.9,0.8,1.9,1.7c0,0.9-0.9,1.7-1.9,1.7
	h-6.8c-1,0-1.9,0.9-1.9,1.9v10.5c0,1-0.9,1.9-1.9,1.9h-0.3c-1,0-1.9-0.9-1.9-1.9v-25.8c0-1,0.9-1.9,1.9-1.9h14.7
	c1,0,1.9,0.8,1.9,1.8s-0.9,1.8-1.9,1.8L287.7,111.2L287.7,111.2z"/>
<path class="st11" d="M308,111.2v7.7c0,1,0.9,2,1.9,2.1h1c2.5,0,4.2-0.4,5.4-1.2c1.1-0.8,1.7-2.2,1.7-4.2c0-1.7-0.6-2.8-1.8-3.6
	c-1.2-0.7-3.1-1.1-5.7-1.1C310,111,309.2,111.1,308,111.2z M322.2,137.2c-1,0-2.4-0.7-2.9-1.6l-6-9.5c-0.5-0.9-1.9-1.6-2.9-1.7
	c0,0-0.5,0-2.4-0.2v11c0,1-0.9,1.9-1.9,1.9h-0.3c-1,0-1.9-0.9-1.9-1.9v-25.8c0-1,0.5-1.9,1.2-1.9l2-0.1c2-0.1,3.4-0.2,4.3-0.2
	c7.2,0,10.8,2.8,10.8,8.5c0,1.9-0.6,3.5-1.7,5c-1.2,1.5-2.5,2.4-4.1,2.8l7.7,12c0.6,0.9,0.2,1.6-0.9,1.6L322.2,137.2L322.2,137.2z"
	/>
<path class="st11" d="M334.1,111.2c-1,0-1.9,0.8-1.9,1.9v4.4c0,1,0.9,1.9,1.9,1.9h6.1c1,0,1.9,0.8,1.9,1.7c0,0.9-0.9,1.7-1.9,1.7
	h-6.1c-1,0-1.9,0.9-1.9,1.9v6.9c0,1,0.9,1.9,1.9,1.9h9.8c1,0,1.9,0.8,1.9,1.8s-0.9,1.8-1.9,1.8H330c-1,0-1.9-0.9-1.9-1.9v-25.8
	c0-1,0.9-1.9,1.9-1.9h14.1c1,0,1.9,0.8,1.9,1.8s-0.9,1.8-1.9,1.8L334.1,111.2L334.1,111.2z"/>
<path class="st11" d="M349.2,135.8l0.8-2c0.4-1,1.4-1.3,2.3-0.8c0,0,0.1,0.1,1.2,0.4s2.2,0.6,3.1,0.6c1.6,0,2.9-0.4,3.9-1.3
	s1.5-2,1.5-3.3c0-1-0.3-1.9-0.8-2.8c-0.5-0.8-1.9-1.8-4.1-2.8l-0.7-0.3c-1-0.4-2.5-1.2-3.4-1.8c0,0-1.9-1.1-2.7-2.4
	s-1.2-2.8-1.2-4.7c0-2.2,0.8-4,2.4-5.5c1.6-1.4,3.6-2.2,6.1-2.2c3.3,0,5.6,0.5,6.9,1.6l-0.6,1.7c-0.3,1-1.2,1.4-2,1l-1.1-0.4
	c-1.1-0.4-2.2-0.6-3.1-0.6c-1.4,0-2.5,0.4-3.3,1.2c-0.8,0.8-1.2,1.8-1.2,3c0,0.8,0.1,1.4,0.4,2.1c0.3,0.6,0.7,1.1,1.2,1.6
	s1.6,1,3.1,1.8l0.7,0.3c1,0.4,2.5,1.3,3.4,1.8c0,0,1.9,1.1,2.7,2.4c0.8,1.3,1.2,3,1.2,5.1c0,2.2-0.9,4.1-2.7,5.7
	c-1.8,1.6-4.2,2.3-7.3,2.3C353.4,137.7,351.1,137.1,349.2,135.8z"/>
<path class="st11" d="M389.8,137.2c-1,0-1.9-0.9-1.9-1.9v-10.5c0-1-0.9-1.9-1.9-1.9h-9.3c-1,0-1.9,0.9-1.9,1.9v10.5
	c0,1-0.9,1.9-1.9,1.9h-0.3c-1,0-1.9-0.9-1.9-1.9v-25.8c0-1,0.9-1.9,1.9-1.9h0.3c1,0,1.9,0.9,1.9,1.9v8.1c0,1,0.9,1.9,1.9,1.9h9.3
	c1,0,1.9-0.8,1.9-1.9v-8.1c0-1,0.9-1.9,1.9-1.9h0.3c1,0,1.9,0.9,1.9,1.9v25.8c0,1-0.9,1.9-1.9,1.9H389.8z"/>
<path class="st11" d="M397.5,110.7h0.4c0.5,0,0.9-0.1,0.9-0.5c0-0.3-0.2-0.6-0.8-0.6c-0.3,0-0.4,0-0.5,0V110.7L397.5,110.7z
	 M397.5,112.6h-0.6v-3.4c0.4-0.1,0.7-0.1,1.2-0.1c0.6,0,0.9,0.1,1.1,0.3c0.2,0.1,0.3,0.4,0.3,0.7c0,0.4-0.3,0.7-0.6,0.8l0,0
	c0.3,0.1,0.5,0.4,0.5,0.8c0.1,0.5,0.2,0.7,0.3,0.8H399c-0.1-0.1-0.2-0.4-0.3-0.9c-0.1-0.4-0.3-0.6-0.8-0.6h-0.4L397.5,112.6
	L397.5,112.6z M398.1,108.1c-1.5,0-2.6,1.2-2.6,2.7s1.1,2.7,2.6,2.7c1.4,0,2.5-1.2,2.5-2.7C400.7,109.3,399.6,108.1,398.1,108.1
	L398.1,108.1z M398.1,107.6c1.8,0,3.3,1.4,3.3,3.2c0,1.8-1.4,3.3-3.3,3.3s-3.3-1.4-3.3-3.3C394.8,109,396.3,107.6,398.1,107.6
	L398.1,107.6z"/>
<g>
	<rect x="11" y="181" class="st2" width="237" height="51"/>
	<g>
		<g>
			<path d="M125.2,205.9h4.3c2.4,0,3.7,1.3,3.7,3.3c0,1.6-0.7,3-2.6,3.4l0,0c1.8,0.1,2.4,1.1,2.5,3.1v1.4c0,0.7,0.1,1.4,0.6,2h-1.5
				c-0.3-0.5-0.4-1.2-0.4-1.9v-1.1c-0.1-2.3-0.5-3.1-2.9-3.1h-2.4v6.1h-1.3L125.2,205.9L125.2,205.9L125.2,205.9z M126.5,212.1h2.2
				c2,0,3.2-0.9,3.2-2.6c0-1.6-0.7-2.6-3.1-2.6h-2.4C126.5,206.9,126.5,212.1,126.5,212.1z"/>
			<path d="M137.3,205.9h7.1v1h-5.8v4.8h5.5v1h-5.5v5.4h6v1h-7.3V205.9L137.3,205.9z"/>
			<path d="M148.3,205.9h1.7l5.5,11.6l0,0v-11.6h1.3v13.3h-1.7l-5.5-11.6l0,0v11.6h-1.3V205.9L148.3,205.9z"/>
			<path d="M165.6,205.7c2.9,0,4.6,2.1,4.6,6.9c0,4.8-1.7,6.9-4.6,6.9s-4.6-2.1-4.6-6.9S162.7,205.7,165.6,205.7z M165.6,218.4
				c2.1,0,3.3-1.6,3.3-5.9c0-4.3-1.2-5.9-3.3-5.9s-3.3,1.6-3.3,5.9C162.3,216.8,163.6,218.4,165.6,218.4z"/>
			<path d="M173.3,205.9h1.4l3.2,12l0,0l3.2-12h1.4l-3.8,13.3h-1.6L173.3,205.9z"/>
			<path d="M188.1,205.9h1.6l4.3,13.3h-1.4l-1.2-3.9h-5l-1.2,3.9h-1.4L188.1,205.9z M191.1,214.3l-2.2-7.5l0,0l-2.2,7.5H191.1z"/>
			<path d="M198.6,206.9h-3.7v-1h8.7v1h-3.7v12.3h-1.3V206.9z"/>
			<path d="M207,205.9h1.3v13.3H207V205.9z"/>
			<path d="M217.1,205.7c2.9,0,4.6,2.1,4.6,6.9c0,4.8-1.7,6.9-4.6,6.9s-4.6-2.1-4.6-6.9S214.2,205.7,217.1,205.7z M217.1,218.4
				c2.1,0,3.3-1.6,3.3-5.9c0-4.3-1.3-5.9-3.3-5.9c-2.1,0-3.3,1.6-3.3,5.9S215.1,218.4,217.1,218.4z"/>
			<path d="M225.9,205.9h1.7l5.5,11.6l0,0v-11.6h1.3v13.3h-1.7l-5.5-11.6l0,0v11.6h-1.3V205.9z"/>
			<path d="M245,209.3c0-1.6-0.8-2.6-2.6-2.6s-2.7,1.1-2.7,2.4c0,4,7,1.8,7,6.5c0,2.6-1.7,3.9-4.4,3.9s-4.2-1.3-4.2-3.9v-0.4h1.3
				v0.5c0,1.7,1,2.8,2.9,2.8c1.8,0,3.1-0.8,3.1-2.7c0-3.9-7-1.7-7-6.5c0-2.1,1.5-3.5,4-3.5c2.7,0,3.9,1.3,3.9,3.6L245,209.3
				L245,209.3L245,209.3z"/>
		</g>
		<g>
			<path class="st12" d="M28.3,193.1c-0.6,0-1.1,0.5-1.1,1.1v5.9c0,0.6-0.5,1.1-1.1,1.1h-6.3c-0.6,0-1.1,0.5-1.1,1.1v0.5
				c0,0.6,0.5,1.1,1.1,1.1H29c0.6,0,1.1-0.5,1.1-1.1v-8.7c0-0.6-0.5-1.1-1.1-1.1L28.3,193.1L28.3,193.1z"/>
		</g>
		<g>
			<path class="st13" d="M34.6,193.1c0.6,0,1.1,0.5,1.1,1.1v5.9c0,0.6,0.5,1.1,1.1,1.1h6.3c0.6,0,1.1,0.5,1.1,1.1v0.5
				c0,0.6-0.5,1.1-1.1,1.1h-9.2c-0.6,0-1.1-0.5-1.1-1.1v-8.7c0-0.6,0.5-1.1,1.1-1.1L34.6,193.1z"/>
		</g>
		<g>
			<path class="st14" d="M28.3,217.8c-0.6,0-1.1-0.5-1.1-1.1v-6c0-0.6-0.5-1.1-1.1-1.1h-6.3c-0.6,0-1.1-0.5-1.1-1.1V208
				c0-0.6,0.5-1.1,1.1-1.1H29c0.6,0,1.1,0.5,1.1,1.1v8.7c0,0.6-0.5,1.1-1.1,1.1H28.3L28.3,217.8z"/>
		</g>
		<g>
			<path class="st15" d="M33.7,219.2c-0.4-0.4-0.4-1.1,0-1.6l4.4-4.2c0.4-0.4,0.4-1.1,0-1.6l-4.4-4.2c-0.5-0.4-0.5-1.1,0-1.6
				l0.4-0.3c0.5-0.4,1.2-0.4,1.6,0l6.5,6.2c0.5,0.4,0.5,1.1,0,1.6l-6.5,6.2c-0.4,0.4-1.2,0.4-1.6,0L33.7,219.2z"/>
		</g>
		<g>
			<path class="st16" d="M54.7,219.2c-0.5,0-1.1-0.3-1.3-0.7l-2.7-4.3c-0.2-0.4-0.8-0.7-1.3-0.7c0,0-0.2,0-1.1-0.1v4.9
				c0,0.5-0.4,0.8-0.8,0.8h-0.1c-0.5,0-0.8-0.4-0.8-0.8v-11.6c0-0.5,0.2-0.9,0.5-0.9c0,0,0,0,0.9,0s1.5-0.1,1.9-0.1
				c3.2,0,4.8,1.3,4.8,3.8c0,0.8-0.3,1.6-0.8,2.3s-1.1,1.1-1.8,1.2l3.4,5.4c0.3,0.4,0.1,0.7-0.4,0.7L54.7,219.2L54.7,219.2z
				 M48.3,207.5v3.5c0,0.5,0.4,0.9,0.8,0.9c0,0,0,0,0.4,0c1.1,0,1.9-0.2,2.4-0.5c0.5-0.4,0.8-1,0.8-1.9c0-0.7-0.3-1.3-0.8-1.6
				s-1.4-0.5-2.5-0.5C49.2,207.4,48.8,207.5,48.3,207.5z"/>
			<path class="st16" d="M59.9,207.5c-0.5,0-0.8,0.4-0.8,0.8v2c0,0.5,0.4,0.8,0.8,0.8h2.7c0.5,0,0.8,0.3,0.8,0.8
				c0,0.4-0.4,0.8-0.8,0.8h-2.7c-0.5,0-0.8,0.4-0.8,0.8v3.1c0,0.5,0.4,0.8,0.8,0.8h4.4c0.5,0,0.8,0.4,0.8,0.8c0,0.4-0.4,0.8-0.8,0.8
				h-6.2c-0.5,0-0.8-0.4-0.8-0.8v-11.6c0-0.5,0.4-0.8,0.8-0.8h6.3c0.5,0,0.8,0.4,0.8,0.8c0,0.4-0.4,0.8-0.8,0.8L59.9,207.5
				L59.9,207.5z"/>
			<path class="st16" d="M70,207.5c-0.5,0-0.8,0.4-0.8,0.8v2c0,0.5,0.4,0.8,0.8,0.8h3c0.5,0,0.8,0.3,0.8,0.8c0,0.4-0.4,0.8-0.8,0.8
				h-3c-0.5,0-0.8,0.4-0.8,0.8v4.7c0,0.5-0.4,0.8-0.8,0.8h-0.1c-0.5,0-0.8-0.4-0.8-0.8v-11.6c0-0.5,0.4-0.8,0.8-0.8h6.6
				c0.5,0,0.8,0.4,0.8,0.8c0,0.4-0.4,0.8-0.8,0.8L70,207.5L70,207.5z"/>
			<path class="st16" d="M85.4,219.2c-0.5,0-1.1-0.3-1.3-0.7l-2.7-4.3c-0.2-0.4-0.8-0.7-1.3-0.7c0,0-0.2,0-1.1-0.1v4.9
				c0,0.5-0.4,0.8-0.8,0.8h-0.1c-0.5,0-0.8-0.4-0.8-0.8v-11.6c0-0.5,0.2-0.9,0.5-0.9c0,0,0,0,0.9,0s1.5-0.1,1.9-0.1
				c3.2,0,4.8,1.3,4.8,3.8c0,0.8-0.3,1.6-0.8,2.3s-1.1,1.1-1.8,1.2l3.4,5.4c0.3,0.4,0.1,0.7-0.4,0.7L85.4,219.2L85.4,219.2z
				 M79,207.5v3.5c0,0.5,0.4,0.9,0.8,0.9c0,0,0,0,0.4,0c1.1,0,1.9-0.2,2.4-0.5c0.5-0.4,0.8-1,0.8-1.9c0-0.7-0.3-1.3-0.8-1.6
				s-1.4-0.5-2.5-0.5C79.9,207.4,79.6,207.5,79,207.5z"/>
			<path class="st16" d="M90.7,207.5c-0.5,0-0.8,0.4-0.8,0.8v2c0,0.5,0.4,0.8,0.8,0.8h2.7c0.5,0,0.8,0.3,0.8,0.8
				c0,0.4-0.4,0.8-0.8,0.8h-2.7c-0.5,0-0.8,0.4-0.8,0.8v3.1c0,0.5,0.4,0.8,0.8,0.8h4.4c0.5,0,0.8,0.4,0.8,0.8c0,0.4-0.4,0.8-0.8,0.8
				h-6.2c-0.5,0-0.8-0.4-0.8-0.8v-11.6c0-0.5,0.4-0.8,0.8-0.8h6.3c0.5,0,0.8,0.4,0.8,0.8c0,0.4-0.4,0.8-0.8,0.8L90.7,207.5
				L90.7,207.5z"/>
			<path class="st16" d="M97.4,218.6l0.4-0.9c0.2-0.4,0.6-0.6,1-0.4c0,0,0,0,0.5,0.2s1,0.2,1.4,0.2c0.7,0,1.3-0.2,1.7-0.6
				c0.4-0.4,0.6-0.9,0.6-1.5c0-0.4-0.1-0.9-0.4-1.2c-0.2-0.4-0.8-0.8-1.8-1.3l-0.3-0.1c-0.4-0.2-1.1-0.6-1.5-0.8
				c0,0-0.8-0.5-1.2-1.1c-0.4-0.6-0.5-1.3-0.5-2.1c0-1,0.4-1.8,1.1-2.5s1.6-1,2.7-1c1.5,0,2.5,0.2,3.1,0.7l-0.3,0.8
				c-0.2,0.4-0.6,0.6-0.9,0.5c0,0,0,0-0.5-0.2s-1-0.2-1.4-0.2c-0.6,0-1.1,0.2-1.5,0.5c-0.4,0.4-0.5,0.8-0.5,1.3
				c0,0.3,0.1,0.6,0.2,0.9c0.1,0.3,0.3,0.5,0.5,0.7s0.7,0.4,1.4,0.8l0.3,0.2c0.4,0.2,1.1,0.6,1.5,0.8c0,0,0.8,0.5,1.2,1.1
				c0.4,0.6,0.6,1.4,0.6,2.3c0,1-0.4,1.8-1.2,2.5c-0.8,0.7-1.9,1-3.2,1C99.3,219.4,98.3,219.1,97.4,218.6z"/>
			<path class="st16" d="M115.6,219.2c-0.5,0-0.8-0.4-0.8-0.8v-4.7c0-0.5-0.4-0.8-0.8-0.8h-4.2c-0.5,0-0.8,0.4-0.8,0.8v4.7
				c0,0.5-0.4,0.8-0.8,0.8h-0.1c-0.5,0-0.8-0.4-0.8-0.8v-11.6c0-0.5,0.4-0.8,0.8-0.8h0.1c0.5,0,0.8,0.4,0.8,0.8v3.6
				c0,0.5,0.4,0.8,0.8,0.8h4.2c0.5,0,0.8-0.4,0.8-0.8v-3.6c0-0.5,0.4-0.8,0.8-0.8h0.1c0.5,0,0.8,0.4,0.8,0.8v11.6
				C116.5,218.9,116.1,219.2,115.6,219.2L115.6,219.2L115.6,219.2z"/>
		</g>
		<g>
			<path class="st16" d="M119.3,205.9c0.8,0,1.5,0.6,1.5,1.4c0,0.8-0.6,1.5-1.5,1.5s-1.5-0.6-1.5-1.5
				C117.8,206.5,118.5,205.9,119.3,205.9L119.3,205.9z M119.3,206.1c-0.7,0-1.2,0.5-1.2,1.2s0.5,1.2,1.2,1.2c0.6,0,1.1-0.5,1.1-1.2
				C120.4,206.7,119.9,206.1,119.3,206.1L119.3,206.1z M119,208.1h-0.3v-1.5c0.2,0,0.3,0,0.5,0c0.3,0,0.4,0,0.5,0.1s0.2,0.2,0.2,0.3
				c0,0.2-0.1,0.3-0.3,0.4l0,0c0.1,0.1,0.2,0.2,0.2,0.4s0.1,0.3,0.1,0.4h-0.3c0-0.1-0.1-0.2-0.1-0.4s-0.1-0.2-0.3-0.2H119V208.1
				L119,208.1z M119,207.3h0.2c0.2,0,0.4-0.1,0.4-0.2c0-0.1-0.1-0.3-0.4-0.3c-0.1,0-0.2,0-0.2,0V207.3L119,207.3z"/>
		</g>
	</g>
</g>
<g>
	<path class="st5" d="M144,243v61h61v-61H144L144,243z M174.5,303.5c-16.6,0-30-13.4-30-30s13.4-30,30-30s30,13.4,30,30
		S191.1,303.5,174.5,303.5z"/>
</g>
<path class="st5" d="M172.4,258.6v-0.1c0.3-1.3,0.8-1.8,1.5-2c1-2.3,3.1-3.7,5.4-3.4c0.6,0.1,1,0.6,0.9,1.2c-0.1,0.6-0.6,1-1.2,0.9
	c-1-0.1-2,0.4-2.7,1.4c0.5,0.3,0.8,0.9,1,1.8v0.1c0,0,0,0.1-0.1,0.1H172.4L172.4,258.6z M181.7,258.6v-0.1c0.4-1.8,1.4-2.2,2.4-2.2
	c1.1,0,2,0.4,2.5,2.2v0.1c0,0,0,0.1-0.1,0.1L181.7,258.6C181.8,258.6,181.7,258.6,181.7,258.6z M162.6,258.6v-0.1
	c0.4-1.8,1.4-2.2,2.4-2.2s2,0.4,2.5,2.2v0.1c0,0,0,0.1-0.1,0.1L162.6,258.6L162.6,258.6z M189,293.6c0,0.6-0.5,1.1-1.1,1.1h-26.7
	c-0.6,0-1.1-0.5-1.1-1.1s0.5-1.1,1.1-1.1h6.5c1.4-4.5,2-9.2,2-14c0-1,0-2-0.1-3c1.7,0.4,3.5,0.6,5.3,0.6c1.5,0,3-0.1,4.4-0.4
	c0,0.9-0.1,1.9-0.1,2.8c0,4.9,0.7,9.6,2,14h6.5C188.5,292.5,189,293,189,293.6z M196,260.3c-0.1-0.2-0.3-0.3-0.5-0.3h-40.8
	c-0.2,0-0.4,0.1-0.5,0.3c-0.1,0.2-0.1,0.4-0.1,0.6c3.4,8.2,11.7,13.5,21,13.5s17.6-5.3,21-13.5C196.1,260.7,196.1,260.5,196,260.3z"
	/>
<g>
	<path class="st5" d="M74,243v61h61v-61H74L74,243z M104.5,303.5c-16.6,0-30-13.4-30-30s13.4-30,30-30s30,13.4,30,30
		S121.1,303.5,104.5,303.5z"/>
</g>
<g>
	<path class="st5" d="M209,243v61h61v-61H209L209,243z M239.5,303.5c-16.6,0-30-13.4-30-30s13.4-30,30-30s30,13.4,30,30
		S256.1,303.5,239.5,303.5z"/>
</g>
<g>
	<path class="st5" d="M279,243v61h61v-61H279L279,243z M309.5,303.5c-16.6,0-30-13.4-30-30s13.4-30,30-30s30,13.4,30,30
		S326.1,303.5,309.5,303.5z"/>
</g>
<g>
	<path class="st5" d="M344,243v61h61v-61H344L344,243z M374.5,303.5c-16.6,0-30-13.4-30-30s13.4-30,30-30s30,13.4,30,30
		S391.1,303.5,374.5,303.5z"/>
</g>
<g>
	<path class="st5" d="M414,243v61h61v-61H414L414,243z M444.5,303.5c-16.6,0-30-13.4-30-30s13.4-30,30-30s30,13.4,30,30
		S461.1,303.5,444.5,303.5z"/>
</g>
<g>
	<path class="st5" d="M479,243v61h61v-61H479L479,243z M509.5,303.5c-16.6,0-30-13.4-30-30s13.4-30,30-30c16.6,0,30,13.4,30,30
		S526.1,303.5,509.5,303.5z"/>
</g>
<g>
	<path class="st5" d="M549,243v61h61v-61H549L549,243z M579.5,303.5c-16.6,0-30-13.4-30-30s13.4-30,30-30s30,13.4,30,30
		S596.1,303.5,579.5,303.5z"/>
</g>
<g>
	<path class="st5" d="M621,243v61h61v-61H621L621,243z M651.5,303.5c-16.6,0-30-13.4-30-30s13.4-30,30-30s30,13.4,30,30
		S668.1,303.5,651.5,303.5z"/>
</g>
<path class="st5" d="M118.5,285.2c0,3.8-3.1,6.9-6.9,6.9s-6.9-3.1-6.9-6.9s3.1-6.9,6.9-6.9C115.4,278.3,118.5,281.4,118.5,285.2z
	 M101,277.4c1.4,1.4,3.6,1.4,5,0c0.5-0.5,0.8-1.1,0.9-1.7H100C100.2,276.3,100.5,276.9,101,277.4z M105.9,272.4
	c-1.4-1.4-3.6-1.4-5,0c-0.5,0.5-0.8,1.1-0.9,1.7h6.9C106.7,273.5,106.4,272.9,105.9,272.4z M96.9,267.4c-0.3-0.3-0.7-0.3-1,0
	c-3.6,3.6-4.1,9.3-1.2,13.7c0.1,0.2,0.4,0.3,0.6,0.3c0.1,0,0.3,0,0.4-0.1c0.3-0.2,0.4-0.6,0.2-1c-2.5-3.8-2-8.8,1.1-11.9
	C97.1,268.1,97.1,267.7,96.9,267.4z M122.3,264.8c-1.1-1.1-2.9-1.1-4,0l-5.3,5.3l-4.8-4.8l5.3-5.3c1.1-1.1,1.1-2.9,0-4s-2.9-1.1-4,0
	l-5.3,5.3l-1.8-1.8c-1.3-1.3-3.5-1.3-4.8,0l-5,5c-2.8,2.8-4.4,6.6-4.4,10.6s1.6,7.8,4.4,10.6c2.8,2.8,6.6,4.4,10.6,4.4
	c0.4,0,0.7-0.3,0.7-0.7c0-0.4-0.3-0.7-0.7-0.7c-3.6,0-7-1.4-9.6-4s-4-6-4-9.6s1.4-7.1,4-9.6l5-5c0.8-0.8,2-0.8,2.8,0l16.4,16.4
	c0.6,0.6,0.8,1.6,0.3,2.4c-0.2,0.3,0,0.7,0.3,0.9c0.3,0.2,0.8,0,0.9-0.3c0.7-1.3,0.4-2.9-0.6-4l-1.8-1.8l5.3-5.3
	C123.5,267.7,123.5,265.9,122.3,264.8z M93.8,288c0.3,0.3,0.3,0.7,0,1l-0.7,0.7c-0.3,0.3-0.7,0.5-1.1,0.5s-0.8-0.2-1.1-0.5l-2.5-2.5
	c-0.6-0.6-0.6-1.6,0-2.2l0.8-0.8c0.3-0.3,0.7-0.3,1,0s0.3,0.7,0,1l-0.8,0.8c-0.1,0.1-0.1,0.2,0,0.3l2.5,2.5c0.1,0.1,0.2,0.1,0.3,0
	l0.7-0.7C93.1,287.8,93.5,287.8,93.8,288z"/>
<path class="st5" d="M315.7,272.9l-2.9-2.4l11.2-13.4l2.9,2.4L315.7,272.9z M331.1,254.9l-3.3-2.7c-0.2-0.2-0.5-0.3-0.8-0.3
	c-0.4,0-0.7,0.2-1,0.5l-14.5,17.3l-2,7.2c-0.1,0.3,0,0.5,0.2,0.5c0.1,0,0.2,0,0.3-0.1l6.7-3.2l14.5-17.3
	C331.7,256.2,331.7,255.3,331.1,254.9z M319.9,283.6c-0.4-1.2-1.1-2.2-1.5-2.8c0.7-0.1,2.1-0.4,3.4-1L319.9,283.6z M323.1,268.5
	l-1.2,1.4l1.5,4.1c0.4,1.1,0.4,2-0.1,2.8c-1.1,1.8-4.4,2.5-5.6,2.6c-0.6,0-1,0.3-1.2,0.8c-0.2,0.4-0.1,1,0.3,1.4
	c0.6,0.8,2.2,3.1,1.8,4.7c-0.2,0.6-0.6,1-1.5,1.3l-23.4,8.5c-0.1,0-0.2,0-0.3-0.1l-10.1-27.7c0-0.1,0-0.1,0-0.2c0,0,0-0.1,0.1-0.1
	l33.2-12.1c0.1,0,0.2,0,0.2,0.1l1.3,3.6l1.2-1.4l-1-2.7c-0.3-0.9-1.4-1.4-2.3-1.1l-33,12c-0.5,0.2-0.8,0.5-1,0.9s-0.2,0.9-0.1,1.4
	l10.1,27.7c0.3,0.7,0.9,1.2,1.7,1.2c0.2,0,0.4,0,0.6-0.1l23.5-8.5c1-0.4,1.6-0.9,2-1.4c0.2-0.2,5-10.1,5-10.1c0.7-1.2,0.7-2.5,0.2-4
	L323.1,268.5z M292.9,272.5l4.1-1.5c0.1,2.2-0.9,4.3-2.6,5.6L292.9,272.5z M298.1,270.6l12.1-4.4l-0.4-1.1l-11.9,4.3
	c-0.1-0.3-0.1-0.5-0.2-0.8l-0.2-0.5l-1.1,0.4l0.2,0.5c0.1,0.3,0.2,0.5,0.2,0.8l-4.4,1.6L292,270l-1.1,0.4l0.5,1.5l-1.7,0.6l0.4,1.1
	l1.7-0.6l1.6,4.3c-0.2,0.1-0.5,0.2-0.7,0.3l-0.5,0.2l0.4,1.1l0.5-0.2c0.3-0.1,0.5-0.2,0.7-0.3l4,11.1l1.1-0.4l-4.1-11.3
	C297.1,276.2,298.4,273.4,298.1,270.6z"/>
<path class="st5" d="M350.1,271.8l8.2-1.4l3.2,18.1l-8.2,1.4L350.1,271.8z M356.4,260l1.4,8.2l-8.1,1.4
	C349.4,265.3,352.2,261.3,356.4,260z M363.6,288l-3.2-18.1l6.6-1.2l0.4-2.3l-7.4,1.3l-1.4-8.1c0.2,0,0.3,0,0.5,0
	c3.8,0,7.1,2.3,8.5,5.6l0.6-3.3c-2.1-2.8-5.5-4.5-9.1-4.5c-0.7,0-1.3,0.1-2,0.2c-6.3,1.1-10.5,7.1-9.4,13.4l3.6,20.4
	c0,0.3,0.2,0.6,0.5,0.7c0.2,0.1,0.4,0.2,0.6,0.2c0.1,0,0.1,0,0.2,0l10.6-1.9L363.6,288z M397,255.2l-24.7-4.4h-0.1
	c-0.3,0-0.5,0.2-0.5,0.5l-7.2,40.6c0,0.3,0.1,0.6,0.5,0.6l24.7,4.4h0.1c0.3,0,0.5-0.2,0.6-0.5l7.2-40.6
	C397.5,255.5,397.3,255.2,397,255.2z"/>
<g>
	<g>
		<polygon class="st5" points="446.5,271.9 451.1,271.9 451.9,268.2 447.3,268.2 		"/>
		<g>
			<polygon class="st5" points="449.6,257.2 448.9,260.6 450.4,260.6 			"/>
		</g>
		<polygon class="st5" points="444.9,279.5 444.6,280.9 445.1,283.2 448.7,283.2 449.5,279.5 		"/>
	</g>
	<path class="st5" d="M436.2,278.7h-5l2.5-11.7l-2.2-10.4c-0.1,0-0.1-0.1-0.2-0.1l-8,37.6h4.6l2.4-11h6.8L436.2,278.7z"/>
	<path class="st5" d="M452.8,255.3l1.5,6.9H439l-1.5-6.9L452.8,255.3L452.8,255.3z M456.6,273.5h-15.3l-1.5-6.9h15.3L456.6,273.5z
		 M457.6,277.9l1.5,6.9h-15.3l-1.5-6.9H457.6z M432.9,255.3l8.3,38.9h4.6l-1.1-5H460l1.1,5h4.6l-8.3-38.9c1.1-0.2,1.9-1.1,1.9-2.2
		c0-1.2-1-2.2-2.3-2.2h-24.2c-1.2,0-2.3,1-2.3,2.2C430.6,254.3,431.6,255.3,432.9,255.3z"/>
</g>
<path class="st5" d="M503.5,275.6c-0.9,0-1.6-0.2-2.2-0.6v14.8c0,0.8,0.6,1.4,1.4,1.4h2.2c0.8,0,1.4-0.6,1.4-1.4v-15.2
	C505.7,275.2,504.7,275.6,503.5,275.6z M496.9,295.3c0,0.4,0.4,0.8,0.8,0.8h25.4c0.4,0,0.8-0.4,0.8-0.8V294c0-0.4-0.4-0.8-0.8-0.8
	h-25.4c-0.4,0-0.8,0.4-0.8,0.8V295.3L496.9,295.3z M509.5,288c0-0.3,0.3-0.6,0.6-0.6h13.2c0.3,0,0.6,0.3,0.6,0.6v1.8
	c0,0.3-0.3,0.6-0.6,0.6h-13.2c-0.3,0-0.6-0.3-0.6-0.6L509.5,288L509.5,288z M521.2,272.5c1.3,0.1,2.7,0.6,3.7,1.2
	c0.3,0,0.6-0.2,0.6-0.5l-0.6-7.1c-0.2-1.6-1.6-2.9-4.2-3.2c-0.2,0-0.4,0-0.5,0c-2.2,0-4.3,1.3-4.5,3v7.3c0,0.3,0.2,0.5,0.6,0.5
	c1.2-0.8,2.9-1.3,4.4-1.3C520.8,272.5,521,272.5,521.2,272.5z M524.5,262l-0.5-6.1c-0.2-1.5-1.4-2.7-3.8-2.9c-2.2-0.2-4.4,1-4.6,2.8
	v6.3c0,0.3,0.2,0.5,0.5,0.5c1.3-0.8,3.1-1.3,4.6-1.1c1.2,0.1,2.4,0.5,3.3,1.1C524.3,262.5,524.5,262.3,524.5,262z M514.2,273.2v-7.3
	c-0.1-1.8-2.2-3-4.5-3c-0.2,0-0.4,0-0.5,0c-2.6,0.2-4,1.6-4.2,3.1l-0.6,7.2c0,0.3,0.2,0.5,0.5,0.5c1.1-0.6,2.4-1.1,3.7-1.2
	c0.2,0,0.4,0,0.6,0c1.5,0,3.2,0.5,4.4,1.3C513.9,273.8,514.2,273.5,514.2,273.2z M505.7,262.5c1-0.6,2.2-1,3.4-1.1
	c1.5-0.1,3.3,0.3,4.6,1.1c0.3,0,0.5-0.2,0.5-0.5v-6.3c-0.1-1.7-2.4-3-4.6-2.8c-2.4,0.2-3.7,1.4-3.8,2.9l-0.5,6.1
	C505.3,262.3,505.5,262.5,505.7,262.5z M499.4,262.9c-0.1,0-0.3,0-0.4,0c-2.6,0.2-4,1.5-4.3,3.1l-1.2,7.2c0,0.3,0.2,0.5,0.5,0.6
	c1.1-0.6,2.3-1.1,3.7-1.2c0.1,0,0.3,0,0.5,0c1.5,0,3,0.5,4.2,1.4c0.3,0,0.6-0.2,0.6-0.5l0.6-7.4
	C503.5,264.2,501.7,262.9,499.4,262.9z M495.3,261.9l1.1-6.1c0.3-1.5,1.5-2.6,3.9-2.8c2.2-0.2,4.1,1.1,4.1,2.8l-0.5,6.3
	c0,0.3-0.3,0.5-0.5,0.5c-1.2-0.9-2.8-1.3-4.3-1.2c-1.2,0.1-2.4,0.5-3.3,1.1C495.5,262.5,495.3,262.2,495.3,261.9z"/>
<g>
	<path class="st5" d="M555,279.4c0-6.3,5.2-11.5,11.5-11.5s11.5,5.2,11.5,11.5s-5.2,11.5-11.5,11.5C560.1,290.9,555,285.7,555,279.4
		z M582.5,290.9h-8.4c3.7-2.5,6.2-6.7,6.2-11.5c0-7.6-6.2-13.8-13.8-13.8s-13.8,6.2-13.8,13.8c0,7.6,6.2,13.8,13.8,13.8h16.1
		c0.6,0,1.2-0.5,1.2-1.2C583.7,291.4,583.2,290.9,582.5,290.9z"/>
	<path class="st5" d="M566.5,271c-4.6,0-8.3,3.7-8.3,8.3c0,4.6,3.7,8.3,8.3,8.3s8.4-3.7,8.4-8.3C574.8,274.8,571.1,271,566.5,271z
		 M566.5,290c-5.9,0-10.6-4.8-10.6-10.6c0-5.9,4.8-10.6,10.6-10.6s10.7,4.8,10.7,10.6C577.1,285.2,572.3,290,566.5,290z"/>
	<path class="st5" d="M566.5,274.2c-2.9,0-5.2,2.3-5.2,5.2c0,2.8,2.3,5.2,5.2,5.2s5.2-2.3,5.2-5.2
		C571.6,276.5,569.3,274.2,566.5,274.2z M566.5,286.9c-4.1,0-7.5-3.4-7.5-7.5s3.4-7.5,7.5-7.5s7.5,3.4,7.5,7.5
		C573.9,283.5,570.6,286.9,566.5,286.9z"/>
	<path class="st5" d="M604.6,289.7l-4.9-13.5c-0.1,0.4-0.3,0.7-0.5,1.1l-3,4.7l3.5,9.5c0.4,1.1,1.4,1.7,2.5,1.7c0.3,0,0.6,0,0.9-0.2
		C604.4,292.5,605.1,291,604.6,289.7z"/>
	<path class="st5" d="M593.9,252.1c0-2.9-2.4-5.2-5.2-5.2s-5.2,2.3-5.2,5.2s2.3,5.2,5.2,5.2C591.5,257.4,593.9,255.1,593.9,252.1z"
		/>
	<path class="st5" d="M593.1,282.9l6.4-10l-4.4-12.3c-0.5-1.4-2.6-2.1-5.4-1.5c-2.3,0.5-3.4,1.9-3.7,3.3c-0.1,0.2,0,6.9,0,6.9h-4.1
		c-1.2,0-2.1,0.9-2.1,2.1s1,2.1,2.1,2.1h7.9l1.1,2.9l-3.7,5.9l3.4,9.1c0.4,1.1,1.4,1.7,2.5,1.7c0.3,0,0.6,0,0.9-0.2
		c1.3-0.5,2-2,1.5-3.3L593.1,282.9z"/>
</g>
<path class="st5" d="M667.6,256.8c-6.4,8.4-7.5,15.4-7.5,15.5c0,0.2-0.2,0.3-0.4,0.3h-6c-0.1-0.4-0.4-1-0.8-1.5
	c0-0.1-0.2-0.3-0.6-0.8c1.5-3,5.4-9.1,14.8-14.1c0.1,0,0.1,0,0.2,0c0.1,0,0.2,0,0.3,0.1C667.7,256.5,667.7,256.7,667.6,256.8z
	 M648.2,266.4c0.3-2.7,0.6-5.9,0.5-9c0-0.2,0.1-0.3,0.3-0.4h0.1c0.1,0,0.3,0.1,0.3,0.2c1.6,2.3,3.1,5.6,4.3,8.5
	c-1.1,1.4-1.8,2.7-2.4,3.7C650.7,268.6,649.7,267.5,648.2,266.4z M652.3,272.5c-0.1,0.1-0.2,0.2-0.3,0.2h-9.4c-0.1,0-0.2,0-0.3-0.1
	s-5.6-7.4-10.6-10.5c-0.1-0.1-0.2-0.3-0.2-0.5s0.2-0.3,0.4-0.3c13.6,0.7,20.4,10.6,20.4,10.7C652.3,272.1,652.3,272.3,652.3,272.5z
	 M668.9,276.6c0,0.5-0.4,0.9-0.9,0.9h-34c-0.5,0-0.9-0.4-0.9-0.9v-1.3c0-0.5,0.4-0.9,0.9-0.9h34c0.5,0,0.9,0.4,0.9,0.9V276.6
	L668.9,276.6z M636,282.8c-0.1-0.5,0.2-1,0.7-1.1s1,0.2,1.1,0.7c1,4,3,6,6.4,8.6C640.4,289.9,636.9,286.7,636,282.8z M668.3,279.3
	h-34.7c-0.4,0-0.8,0.3-0.8,0.8c0,8.7,7.3,14.5,18.1,14.5s18.1-5.8,18.1-14.5C669.1,279.6,668.7,279.3,668.3,279.3z"/>
<g>
	<path class="st5" d="M2,308v61h61v-61H2L2,308z M32.5,368.5c-16.6,0-30-13.4-30-30s13.4-30,30-30s30,13.4,30,30
		S49.1,368.5,32.5,368.5z"/>
</g>
<g>
	<path class="st5" d="M74,308v61h61v-61H74L74,308z M104.5,368.5c-16.6,0-30-13.4-30-30s13.4-30,30-30s30,13.4,30,30
		S121.1,368.5,104.5,368.5z"/>
</g>
<g>
	<path class="st5" d="M20.5,351v-25c0-1.9,0.7-3.5,2-4.2c1.3-0.8,3-0.6,4.6,0.3l21.3,12.5c1.7,1,2.6,2.4,2.6,3.9s-0.9,2.9-2.6,3.9
		l-21.3,12.5c-1.7,1-3.3,1.1-4.6,0.3C21.3,354.5,20.5,352.9,20.5,351z"/>
</g>
<g>
	<path class="st5" d="M110.7,356.6l5.3,3.5l5.5-6.8c1.8-2.3-1.8-5-3.5-2.7l-2.8,3.7l-1.7-1.3C111.2,351.3,108.4,354.9,110.7,356.6z"
		/>
	<path class="st5" d="M100,333.3c-2.9,0-2.9,4.5,0,4.5h11.7c2.9,0,2.9-4.5,0-4.5H100z"/>
	<path class="st5" d="M111.7,341.2H100c-2.9,0-2.9,4.5,0,4.5h11.7C114.6,345.7,114.6,341.2,111.7,341.2z"/>
	<path class="st5" d="M111.3,321.3l6.4,6.1v18.3h4.5v-20.4l-9.4-8.5H91c-1.2,0-2.2,1-2.2,2.2v38.5c0,1.2,1,2.2,2.2,2.2h15.2v-4.5
		h-13v-34L111.3,321.3L111.3,321.3z"/>
</g>
<g>
	<path class="st5" d="M265,272.7l-0.8-1.3c-0.3-0.4-0.8-0.6-1.2-0.5c-0.1,0-0.2,0-0.3,0.1l-7.4,4.3c-0.3,0.2-0.5,0.6-0.3,1
		c0.1,0.2,0.4,0.4,0.6,0.4c0.1,0,0.2,0,0.4-0.1l6.4-3.7l0.6,1.1c0.2,0.4,0.6,0.5,1,0.5c0.2,0,0.4,0,0.5-0.1
		C265.1,273.9,265.3,273.3,265,272.7z"/>
	<path class="st5" d="M248.8,267.4c-4.1-7.1-13.1-9.5-20.1-5.4s-9.5,13.1-5.4,20.1c0.8,1.5,1.9,2.7,3.1,3.7c0,0,2.7,2.6,4.2,3.8
		c2.1,1.8,5,1.8,7.6,0.4l16-9.2c1-0.6,1.4-1.9,0.8-2.8L248.8,267.4z M239.1,280c-0.9,0.5-1.9,0.8-2.9,0.8c-2,0-3.9-1.1-5-2.9
		c-0.8-1.3-1-2.9-0.6-4.3c0.4-1.5,1.3-2.7,2.7-3.5c0.9-0.5,1.9-0.8,2.9-0.8c2,0,3.9,1.1,5,2.9C242.8,274.9,241.8,278.4,239.1,280z"
		/>
</g>
<g>
	<path class="st5" d="M2,243v61h61v-61H2L2,243z M32.5,303.5c-16.6,0-30-13.4-30-30s13.4-30,30-30s30,13.4,30,30
		S49.1,303.5,32.5,303.5z"/>
</g>
<polygon class="st5" points="49.1,264.8 49.1,256.5 42.5,256.5 42.5,258.5 "/>
<path class="st5" d="M50.1,286.6H46v-1.2h4.2v1.2H50.1z M43.5,286.6h-4.2v-1.2h4.2V286.6z M38.4,272.6h-4.8v-5.1h4.8V272.6
	L38.4,272.6z M38.4,279.5h-4.8v-5.1h4.8V279.5L38.4,279.5z M36.8,286.6h-4.2v-1.2h4.2V286.6z M31.9,272.6h-4.8v-5.1h4.8
	C31.9,267.5,31.9,272.6,31.9,272.6z M31.9,279.5h-4.8v-5.1h4.8C31.9,274.4,31.9,279.5,31.9,279.5z M30.1,286.6H26v-1.2h4.2v1.2H30.1
	z M23.4,286.6h-4.2v-1.2h4.2C23.4,285.4,23.4,286.6,23.4,286.6z M16.8,286.6h-4.2v-1.2h4.2V286.6z M52.7,286.6v-1.2h0.2v-9.3
	l1.1,1.1l2.8-3l-24.1-22.9L8.6,274.2l2.8,3l1.1-1.1v16.5h40.3v-6.1L52.7,286.6L52.7,286.6z"/>
<g>
	<path class="st5" d="M146,387v61h61v-61H146L146,387z M176.5,447.5c-16.6,0-30-13.4-30-30s13.4-30,30-30s30,13.4,30,30
		S193.1,447.5,176.5,447.5z"/>
</g>
<path class="st2" d="M174.4,402.6v-0.1c0.3-1.3,0.8-1.8,1.5-2c1-2.3,3.1-3.7,5.4-3.4c0.6,0.1,1,0.6,0.9,1.2s-0.6,1-1.2,0.9
	c-1-0.1-2,0.4-2.7,1.4c0.5,0.3,0.8,0.9,1,1.8v0.1c0,0,0,0.1-0.1,0.1H174.4L174.4,402.6z M183.7,402.6v-0.1c0.4-1.8,1.4-2.2,2.4-2.2
	c1.1,0,2,0.4,2.5,2.2v0.1c0,0,0,0.1-0.1,0.1L183.7,402.6C183.8,402.6,183.7,402.6,183.7,402.6z M164.6,402.6v-0.1
	c0.4-1.8,1.4-2.2,2.4-2.2s2,0.4,2.5,2.2v0.1c0,0,0,0.1-0.1,0.1L164.6,402.6L164.6,402.6z M191,437.6c0,0.6-0.5,1.1-1.1,1.1h-26.7
	c-0.6,0-1.1-0.5-1.1-1.1s0.5-1.1,1.1-1.1h6.5c1.4-4.5,2-9.2,2-14c0-1,0-2-0.1-3c1.7,0.4,3.5,0.6,5.3,0.6c1.5,0,3-0.1,4.4-0.4
	c0,0.9-0.1,1.9-0.1,2.8c0,4.9,0.7,9.6,2,14h6.5C190.5,436.5,191,437,191,437.6z M198,404.3c-0.1-0.2-0.3-0.3-0.5-0.3h-40.8
	c-0.2,0-0.4,0.1-0.5,0.3c-0.1,0.2-0.1,0.4-0.1,0.6c3.4,8.2,11.7,13.5,21,13.5s17.6-5.3,21-13.5C198.1,404.7,198.1,404.5,198,404.3z"
	/>
<g>
	<path class="st5" d="M76,387v61h61v-61H76L76,387z M106.5,447.5c-16.6,0-30-13.4-30-30s13.4-30,30-30s30,13.4,30,30
		S123.1,447.5,106.5,447.5z"/>
</g>
<g>
	<path class="st5" d="M211,387v61h61v-61H211L211,387z M241.5,447.5c-16.6,0-30-13.4-30-30s13.4-30,30-30s30,13.4,30,30
		S258.1,447.5,241.5,447.5z"/>
</g>
<g>
	<path class="st5" d="M281,387v61h61v-61H281L281,387z M311.5,447.5c-16.6,0-30-13.4-30-30s13.4-30,30-30s30,13.4,30,30
		S328.1,447.5,311.5,447.5z"/>
</g>
<g>
	<path class="st5" d="M346,387v61h61v-61H346L346,387z M376.5,447.5c-16.6,0-30-13.4-30-30s13.4-30,30-30s30,13.4,30,30
		S393.1,447.5,376.5,447.5z"/>
</g>
<g>
	<path class="st5" d="M416,387v61h61v-61H416L416,387z M446.5,447.5c-16.6,0-30-13.4-30-30s13.4-30,30-30s30,13.4,30,30
		S463.1,447.5,446.5,447.5z"/>
</g>
<g>
	<path class="st5" d="M481,387v61h61v-61H481L481,387z M511.5,447.5c-16.6,0-30-13.4-30-30s13.4-30,30-30c16.6,0,30,13.4,30,30
		S528.1,447.5,511.5,447.5z"/>
</g>
<g>
	<path class="st5" d="M551,387v61h61v-61H551L551,387z M581.5,447.5c-16.6,0-30-13.4-30-30s13.4-30,30-30s30,13.4,30,30
		S598.1,447.5,581.5,447.5z"/>
</g>
<g>
	<path class="st5" d="M623,387v61h61v-61H623L623,387z M653.5,447.5c-16.6,0-30-13.4-30-30s13.4-30,30-30s30,13.4,30,30
		S670.1,447.5,653.5,447.5z"/>
</g>
<path class="st2" d="M120.5,429.2c0,3.8-3.1,6.9-6.9,6.9s-6.9-3.1-6.9-6.9s3.1-6.9,6.9-6.9C117.4,422.3,120.5,425.4,120.5,429.2z
	 M103,421.4c1.4,1.4,3.6,1.4,5,0c0.5-0.5,0.8-1.1,0.9-1.7H102C102.2,420.3,102.5,420.9,103,421.4z M107.9,416.4
	c-1.4-1.4-3.6-1.4-5,0c-0.5,0.5-0.8,1.1-0.9,1.7h6.9C108.7,417.5,108.4,416.9,107.9,416.4z M98.9,411.4c-0.3-0.3-0.7-0.3-1,0
	c-3.6,3.6-4.1,9.3-1.2,13.7c0.1,0.2,0.4,0.3,0.6,0.3c0.1,0,0.3,0,0.4-0.1c0.3-0.2,0.4-0.6,0.2-1c-2.5-3.8-2-8.8,1.1-11.9
	C99.1,412.1,99.1,411.7,98.9,411.4z M124.3,408.8c-1.1-1.1-2.9-1.1-4,0l-5.3,5.3l-4.8-4.8l5.3-5.3c1.1-1.1,1.1-2.9,0-4s-2.9-1.1-4,0
	l-5.3,5.3l-1.8-1.8c-1.3-1.3-3.5-1.3-4.8,0l-5,5c-2.8,2.8-4.4,6.6-4.4,10.6s1.6,7.8,4.4,10.6c2.8,2.8,6.6,4.4,10.6,4.4
	c0.4,0,0.7-0.3,0.7-0.7c0-0.4-0.3-0.7-0.7-0.7c-3.6,0-7-1.4-9.6-4s-4-6-4-9.6s1.4-7.1,4-9.6l5-5c0.8-0.8,2-0.8,2.8,0l16.4,16.4
	c0.6,0.6,0.8,1.6,0.3,2.4c-0.2,0.3,0,0.7,0.3,0.9c0.3,0.2,0.8,0,0.9-0.3c0.7-1.3,0.4-2.9-0.6-4l-1.8-1.8l5.3-5.3
	C125.5,411.7,125.5,409.9,124.3,408.8z M95.8,432c0.3,0.3,0.3,0.7,0,1l-0.7,0.7c-0.3,0.3-0.7,0.5-1.1,0.5s-0.8-0.2-1.1-0.5l-2.5-2.5
	c-0.6-0.6-0.6-1.6,0-2.2l0.8-0.8c0.3-0.3,0.7-0.3,1,0s0.3,0.7,0,1l-0.8,0.8c-0.1,0.1-0.1,0.2,0,0.3l2.5,2.5c0.1,0.1,0.2,0.1,0.3,0
	l0.7-0.7C95.1,431.8,95.5,431.8,95.8,432z"/>
<path class="st2" d="M317.7,416.9l-2.9-2.4l11.2-13.4l2.9,2.4L317.7,416.9z M333.1,398.9l-3.3-2.7c-0.2-0.2-0.5-0.3-0.8-0.3
	c-0.4,0-0.7,0.2-1,0.5l-14.5,17.3l-2,7.2c-0.1,0.3,0,0.5,0.2,0.5c0.1,0,0.2,0,0.3-0.1l6.7-3.2l14.5-17.3
	C333.7,400.2,333.7,399.3,333.1,398.9z M321.9,427.6c-0.4-1.2-1.1-2.2-1.5-2.8c0.7-0.1,2.1-0.4,3.4-1L321.9,427.6z M325.1,412.5
	l-1.2,1.4l1.5,4.1c0.4,1.1,0.4,2-0.1,2.8c-1.1,1.8-4.4,2.5-5.6,2.6c-0.6,0-1,0.3-1.2,0.8c-0.2,0.4-0.1,1,0.3,1.4
	c0.6,0.8,2.2,3.1,1.8,4.7c-0.2,0.6-0.6,1-1.5,1.3l-23.4,8.5c-0.1,0-0.2,0-0.3-0.1l-10.1-27.7c0-0.1,0-0.1,0-0.2c0,0,0-0.1,0.1-0.1
	l33.2-12.1c0.1,0,0.2,0,0.2,0.1l1.3,3.6l1.2-1.4l-1-2.7c-0.3-0.9-1.4-1.4-2.3-1.1l-33,12c-0.5,0.2-0.8,0.5-1,0.9s-0.2,0.9-0.1,1.4
	l10.1,27.7c0.3,0.7,0.9,1.2,1.7,1.2c0.2,0,0.4,0,0.6-0.1l23.5-8.5c1-0.4,1.6-0.9,2-1.4c0.2-0.2,5-10.1,5-10.1c0.7-1.2,0.7-2.5,0.2-4
	L325.1,412.5z M294.9,416.5l4.1-1.5c0.1,2.2-0.9,4.3-2.6,5.6L294.9,416.5z M300.1,414.6l12.1-4.4l-0.4-1.1l-11.9,4.3
	c-0.1-0.3-0.1-0.5-0.2-0.8l-0.2-0.5l-1.1,0.4l0.2,0.5c0.1,0.3,0.2,0.5,0.2,0.8l-4.4,1.6L294,414l-1.1,0.4l0.5,1.5l-1.7,0.6l0.4,1.1
	l1.7-0.6l1.6,4.3c-0.2,0.1-0.5,0.2-0.7,0.3l-0.5,0.2l0.4,1.1l0.5-0.2c0.3-0.1,0.5-0.2,0.7-0.3l4,11.1l1.1-0.4l-4.1-11.3
	C299.1,420.2,300.4,417.4,300.1,414.6z"/>
<path class="st2" d="M352.1,415.8l8.2-1.4l3.2,18.1l-8.2,1.4L352.1,415.8z M358.4,404l1.4,8.2l-8.1,1.4
	C351.4,409.3,354.2,405.3,358.4,404z M365.6,432l-3.2-18.1l6.6-1.2l0.4-2.3l-7.4,1.3l-1.4-8.1c0.2,0,0.3,0,0.5,0
	c3.8,0,7.1,2.3,8.5,5.6l0.6-3.3c-2.1-2.8-5.5-4.5-9.1-4.5c-0.7,0-1.3,0.1-2,0.2c-6.3,1.1-10.5,7.1-9.4,13.4l3.6,20.4
	c0,0.3,0.2,0.6,0.5,0.7c0.2,0.1,0.4,0.2,0.6,0.2c0.1,0,0.1,0,0.2,0l10.6-1.9L365.6,432z M399,399.2l-24.7-4.4h-0.1
	c-0.3,0-0.5,0.2-0.5,0.5l-7.2,40.6c0,0.3,0.1,0.6,0.5,0.6l24.7,4.4h0.1c0.3,0,0.5-0.2,0.6-0.5l7.2-40.6
	C399.5,399.5,399.3,399.2,399,399.2z"/>
<g>
	<g>
		<polygon class="st2" points="448.5,415.9 453.1,415.9 453.9,412.2 449.3,412.2 		"/>
		<g>
			<polygon class="st2" points="451.6,401.2 450.9,404.6 452.4,404.6 			"/>
		</g>
		<polygon class="st2" points="446.9,423.5 446.6,424.9 447.1,427.2 450.7,427.2 451.5,423.5 		"/>
	</g>
	<path class="st2" d="M438.2,422.7h-5l2.5-11.7l-2.2-10.4c-0.1,0-0.1-0.1-0.2-0.1l-8,37.6h4.6l2.4-11h6.8L438.2,422.7z"/>
	<path class="st2" d="M454.8,399.3l1.5,6.9H441l-1.5-6.9H454.8z M458.6,417.5h-15.3l-1.5-6.9h15.3L458.6,417.5z M459.6,421.9
		l1.5,6.9h-15.3l-1.5-6.9H459.6z M434.9,399.3l8.3,38.9h4.6l-1.1-5H462l1.1,5h4.6l-8.3-38.9c1.1-0.2,1.9-1.1,1.9-2.2
		c0-1.2-1-2.2-2.3-2.2h-24.2c-1.2,0-2.3,1-2.3,2.2C432.6,398.3,433.6,399.3,434.9,399.3z"/>
</g>
<path class="st2" d="M505.5,419.6c-0.9,0-1.6-0.2-2.2-0.6v14.8c0,0.8,0.6,1.4,1.4,1.4h2.2c0.8,0,1.4-0.6,1.4-1.4v-15.2
	C507.7,419.2,506.7,419.6,505.5,419.6z M498.9,439.3c0,0.4,0.4,0.8,0.8,0.8h25.4c0.4,0,0.8-0.4,0.8-0.8V438c0-0.4-0.4-0.8-0.8-0.8
	h-25.4c-0.4,0-0.8,0.4-0.8,0.8V439.3L498.9,439.3z M511.5,432c0-0.3,0.3-0.6,0.6-0.6h13.2c0.3,0,0.6,0.3,0.6,0.6v1.8
	c0,0.3-0.3,0.6-0.6,0.6h-13.2c-0.3,0-0.6-0.3-0.6-0.6L511.5,432L511.5,432z M523.2,416.5c1.3,0.1,2.7,0.6,3.7,1.2
	c0.3,0,0.6-0.2,0.6-0.5l-0.6-7.1c-0.2-1.6-1.6-2.9-4.2-3.2c-0.2,0-0.4,0-0.5,0c-2.2,0-4.3,1.3-4.5,3v7.3c0,0.3,0.2,0.5,0.6,0.5
	c1.2-0.8,2.9-1.3,4.4-1.3C522.8,416.5,523,416.5,523.2,416.5z M526.5,406l-0.5-6.1c-0.2-1.5-1.4-2.7-3.8-2.9c-2.2-0.2-4.4,1-4.6,2.8
	v6.3c0,0.3,0.2,0.5,0.5,0.5c1.3-0.8,3.1-1.3,4.6-1.1c1.2,0.1,2.4,0.5,3.3,1.1C526.3,406.5,526.5,406.3,526.5,406z M516.2,417.2v-7.3
	c-0.1-1.8-2.2-3-4.5-3c-0.2,0-0.4,0-0.5,0c-2.6,0.2-4,1.6-4.2,3.1l-0.6,7.2c0,0.3,0.2,0.5,0.5,0.5c1.1-0.6,2.4-1.1,3.7-1.2
	c0.2,0,0.4,0,0.6,0c1.5,0,3.2,0.5,4.4,1.3C515.9,417.8,516.2,417.5,516.2,417.2z M507.7,406.5c1-0.6,2.2-1,3.4-1.1
	c1.5-0.1,3.3,0.3,4.6,1.1c0.3,0,0.5-0.2,0.5-0.5v-6.3c-0.1-1.7-2.4-3-4.6-2.8c-2.4,0.2-3.7,1.4-3.8,2.9l-0.5,6.1
	C507.3,406.3,507.5,406.5,507.7,406.5z M501.4,406.9c-0.1,0-0.3,0-0.4,0c-2.6,0.2-4,1.5-4.3,3.1l-1.2,7.2c0,0.3,0.2,0.5,0.5,0.6
	c1.1-0.6,2.3-1.1,3.7-1.2c0.1,0,0.3,0,0.5,0c1.5,0,3,0.5,4.2,1.4c0.3,0,0.6-0.2,0.6-0.5l0.6-7.4
	C505.5,408.2,503.7,406.9,501.4,406.9z M497.3,405.9l1.1-6.1c0.3-1.5,1.5-2.6,3.9-2.8c2.2-0.2,4.1,1.1,4.1,2.8l-0.5,6.3
	c0,0.3-0.3,0.5-0.5,0.5c-1.2-0.9-2.8-1.3-4.3-1.2c-1.2,0.1-2.4,0.5-3.3,1.1C497.5,406.5,497.3,406.2,497.3,405.9z"/>
<path class="st2" d="M669.6,400.8c-6.4,8.4-7.5,15.4-7.5,15.5c0,0.2-0.2,0.3-0.4,0.3h-6c-0.1-0.4-0.4-1-0.8-1.5
	c0-0.1-0.2-0.3-0.6-0.8c1.5-3,5.4-9.1,14.8-14.1c0.1,0,0.1,0,0.2,0c0.1,0,0.2,0,0.3,0.1C669.7,400.5,669.7,400.7,669.6,400.8z
	 M650.2,410.4c0.3-2.7,0.5-5.9,0.5-9c0-0.2,0.1-0.3,0.3-0.4h0.1c0.1,0,0.3,0.1,0.3,0.2c1.6,2.3,3.1,5.6,4.3,8.5
	c-1.1,1.4-1.8,2.7-2.4,3.7C652.7,412.6,651.7,411.5,650.2,410.4z M654.3,416.5c-0.1,0.1-0.2,0.2-0.3,0.2h-9.4c-0.1,0-0.2,0-0.3-0.1
	s-5.6-7.4-10.6-10.5c-0.1-0.1-0.2-0.3-0.2-0.5s0.2-0.3,0.4-0.3c13.6,0.7,20.4,10.6,20.4,10.7C654.3,416.1,654.3,416.3,654.3,416.5z
	 M670.9,420.6c0,0.5-0.4,0.9-0.9,0.9h-34c-0.5,0-0.9-0.4-0.9-0.9v-1.3c0-0.5,0.4-0.9,0.9-0.9h34c0.5,0,0.9,0.4,0.9,0.9V420.6
	L670.9,420.6z M638,426.8c-0.1-0.5,0.2-1,0.7-1.1s1,0.2,1.1,0.7c1,4,3,6,6.4,8.6C642.4,433.9,638.9,430.7,638,426.8z M670.3,423.3
	h-34.7c-0.4,0-0.8,0.3-0.8,0.8c0,8.7,7.3,14.5,18.1,14.5s18.1-5.8,18.1-14.5C671.1,423.6,670.7,423.3,670.3,423.3z"/>
<g>
	<path class="st5" d="M4,452v61h61v-61H4L4,452z M34.5,512.5c-16.6,0-30-13.4-30-30s13.4-30,30-30s30,13.4,30,30
		S51.1,512.5,34.5,512.5z"/>
</g>
<g>
	<path class="st5" d="M76,452v61h61v-61H76L76,452z M106.5,512.5c-16.6,0-30-13.4-30-30s13.4-30,30-30s30,13.4,30,30
		S123.1,512.5,106.5,512.5z"/>
</g>
<g>
	<path class="st2" d="M22.5,495v-25c0-1.9,0.7-3.5,2-4.2c1.3-0.8,3-0.6,4.6,0.3l21.3,12.5c1.7,1,2.6,2.4,2.6,3.9s-0.9,2.9-2.6,3.9
		l-21.3,12.5c-1.7,1-3.3,1.1-4.6,0.3C23.3,498.5,22.5,496.9,22.5,495z"/>
</g>
<g>
	<path class="st2" d="M112.7,500.6l5.3,3.5l5.5-6.8c1.8-2.3-1.8-5-3.5-2.7l-2.8,3.7l-1.7-1.3C113.2,495.3,110.4,498.9,112.7,500.6z"
		/>
	<path class="st2" d="M102,477.3c-2.9,0-2.9,4.5,0,4.5h11.7c2.9,0,2.9-4.5,0-4.5H102z"/>
	<path class="st2" d="M113.7,485.2H102c-2.9,0-2.9,4.5,0,4.5h11.7C116.6,489.7,116.6,485.2,113.7,485.2z"/>
	<path class="st2" d="M113.3,465.3l6.4,6.1v18.3h4.5v-20.4l-9.4-8.5H93c-1.2,0-2.2,1-2.2,2.2v38.5c0,1.2,1,2.2,2.2,2.2h15.2v-4.5
		h-13v-34L113.3,465.3L113.3,465.3z"/>
</g>
<g>
	<path class="st2" d="M267,416.7l-0.8-1.3c-0.3-0.4-0.8-0.6-1.2-0.5c-0.1,0-0.2,0-0.3,0.1l-7.4,4.3c-0.3,0.2-0.5,0.6-0.3,1
		c0.1,0.2,0.4,0.4,0.6,0.4c0.1,0,0.2,0,0.4-0.1l6.4-3.7l0.6,1.1c0.2,0.4,0.6,0.5,1,0.5c0.2,0,0.4,0,0.5-0.1
		C267.1,417.9,267.3,417.3,267,416.7z"/>
	<path class="st2" d="M250.8,411.4c-4.1-7.1-13.1-9.5-20.1-5.4s-9.5,13.1-5.4,20.1c0.8,1.5,1.9,2.7,3.1,3.7c0,0,2.7,2.6,4.2,3.8
		c2.1,1.8,5,1.8,7.6,0.4l16-9.2c1-0.6,1.4-1.9,0.8-2.8L250.8,411.4z M241.1,424c-0.9,0.5-1.9,0.8-2.9,0.8c-2,0-3.9-1.1-5-2.9
		c-0.8-1.3-1-2.9-0.6-4.3c0.4-1.5,1.3-2.7,2.7-3.5c0.9-0.5,1.9-0.8,2.9-0.8c2,0,3.9,1.1,5,2.9C244.8,418.9,243.8,422.4,241.1,424z"
		/>
</g>
<g>
	<path class="st5" d="M4,387v61h61v-61H4L4,387z M34.5,447.5c-16.6,0-30-13.4-30-30s13.4-30,30-30s30,13.4,30,30
		S51.1,447.5,34.5,447.5z"/>
</g>
<polygon class="st2" points="51.1,408.8 51.1,400.5 44.5,400.5 44.5,402.5 "/>
<path class="st2" d="M52.1,430.6H48v-1.2h4.2v1.2H52.1z M45.5,430.6h-4.2v-1.2h4.2V430.6z M40.4,416.6h-4.8v-5.1h4.8V416.6
	L40.4,416.6z M40.4,423.5h-4.8v-5.1h4.8V423.5L40.4,423.5z M38.8,430.6h-4.2v-1.2h4.2V430.6z M33.9,416.6h-4.8v-5.1h4.8V416.6z
	 M33.9,423.5h-4.8v-5.1h4.8V423.5z M32.1,430.6H28v-1.2h4.2v1.2H32.1z M25.4,430.6h-4.2v-1.2h4.2C25.4,429.4,25.4,430.6,25.4,430.6z
	 M18.8,430.6h-4.2v-1.2h4.2V430.6z M54.7,430.6v-1.2h0.2v-9.3l1.1,1.1l2.8-3l-24.1-22.9l-24.1,22.9l2.8,3l1.1-1.1v16.5h40.3v-6.1
	L54.7,430.6L54.7,430.6z"/>
<g>
	<rect x="261" y="181" class="st17" width="36" height="51"/>
</g>
<path class="st18" d="M281.1,214.1c-1.2,0-2.2,0.4-3,1.1l-7.7-4.6c0-0.3,0.1-0.5,0.1-0.8c0-0.4,0-0.7-0.1-1.1l7.7-4.6
	c0.8,0.7,1.9,1.1,3,1.1c2.5,0,4.5-2,4.5-4.5s-2-4.5-4.5-4.5s-4.5,2-4.5,4.5c0,0.2,0,0.5,0,0.7l-8,4.7c-0.8-0.5-1.7-0.9-2.7-0.9
	c-2.5,0-4.5,2-4.5,4.5s2,4.5,4.5,4.5c1.1,0,2.1-0.4,2.9-1l7.8,4.6c0,0.2,0,0.4,0,0.7c0,2.5,2,4.5,4.5,4.5s4.5-2,4.5-4.5
	S283.6,214.1,281.1,214.1z"/>
<path d="M436.6,109.7h1.3c1.2,0,1.9-0.5,1.9-1.5s-0.4-1.5-1.8-1.5h-1.4V109.7L436.6,109.7z M435.9,106h2.6c1.4,0,2.2,0.8,2.2,2
	c0,1-0.4,1.8-1.6,2l0,0c1.1,0.1,1.4,0.6,1.5,1.9v0.9c0,0.4,0.1,0.8,0.4,1.2h-1c-0.2-0.3-0.2-0.7-0.2-1.1v-0.7c0-1.4-0.3-1.8-1.7-1.8
	h-1.5v3.6h-0.8L435.9,106L435.9,106z"/>
<polygon points="443.1,106 447.3,106 447.3,106.6 443.8,106.6 443.8,109.5 447.1,109.5 447.1,110.1 443.8,110.1 443.8,113.3 
	447.4,113.3 447.4,113.9 443.1,113.9 "/>
<polygon points="449.6,106 450.6,106 453.9,112.9 453.9,112.9 453.9,106 454.7,106 454.7,113.9 453.7,113.9 450.4,107 450.4,107 
	450.4,113.9 449.6,113.9 "/>
<path d="M459.9,113.4c1.2,0,2-0.9,2-3.5c0-2.5-0.7-3.5-2-3.5s-2,0.9-2,3.5C458,112.5,458.7,113.4,459.9,113.4z M459.9,105.9
	c1.8,0,2.7,1.2,2.7,4.1c0,2.8-1,4.1-2.7,4.1c-1.8,0-2.7-1.2-2.7-4.1C457.2,107.1,458.2,105.9,459.9,105.9z"/>
<polygon points="464.5,106 465.3,106 467.2,113.2 467.3,113.2 469.2,106 470,106 467.7,113.9 466.8,113.9 "/>
<path d="M475.1,111l-1.3-4.4l0,0l-1.3,4.4H475.1z M473.3,106h1l2.5,7.9H476l-0.7-2.3h-3l-0.7,2.3h-0.8L473.3,106z"/>
<polygon points="479.6,106.6 477.4,106.6 477.4,106 482.6,106 482.6,106.6 480.4,106.6 480.4,113.9 479.6,113.9 "/>
<rect x="484.6" y="106" width="0.8" height="7.9"/>
<path d="M490.6,113.4c1.2,0,2-0.9,2-3.5c0-2.5-0.7-3.5-2-3.5s-2,0.9-2,3.5C488.7,112.5,489.4,113.4,490.6,113.4z M490.6,105.9
	c1.8,0,2.7,1.2,2.7,4.1c0,2.8-1,4.1-2.7,4.1c-1.8,0-2.7-1.2-2.7-4.1S488.9,105.9,490.6,105.9z"/>
<polygon points="495.8,106 496.9,106 500.2,112.9 500.2,112.9 500.2,106 501,106 501,113.9 499.9,113.9 496.6,107 496.6,107 
	496.6,113.9 495.8,113.9 "/>
<path d="M507.3,108c0-1-0.5-1.6-1.5-1.6s-1.6,0.6-1.6,1.4c0,2.3,4.2,1.1,4.2,3.8c0,1.5-1,2.3-2.6,2.3s-2.5-0.8-2.5-2.3v-0.2h0.8v0.3
	c0,1,0.6,1.7,1.7,1.7s1.9-0.5,1.9-1.6c0-2.3-4.2-1-4.2-3.9c0-1.2,0.9-2.1,2.4-2.1c1.6,0,2.3,0.8,2.3,2.2L507.3,108L507.3,108z"/>
<path class="st7" d="M416.5,74c-0.6,0-1.2,0.5-1.2,1.2v6.2c0,0.6-0.5,1.2-1.2,1.2h-6.6c-0.6,0-1.2,0.5-1.2,1.2v0.6
	c0,0.6,0.5,1.2,1.2,1.2h9.6c0.6,0,1.2-0.5,1.2-1.2v-9.1c0-0.6-0.5-1.2-1.2-1.2L416.5,74z"/>
<path class="st8" d="M423.1,74c0.7,0,1.2,0.5,1.2,1.2v6.2c0,0.6,0.5,1.2,1.2,1.2h6.6c0.6,0,1.2,0.5,1.2,1.2v0.6
	c0,0.6-0.5,1.2-1.2,1.2h-9.6c-0.6,0-1.2-0.5-1.2-1.2v-9.1c0-0.6,0.5-1.2,1.2-1.2L423.1,74L423.1,74z"/>
<path class="st9" d="M416.5,99.6c-0.6,0-1.2-0.5-1.2-1.2v-6.2c0-0.6-0.5-1.2-1.2-1.2h-6.6c-0.6,0-1.2-0.5-1.2-1.2v-0.5
	c0-0.6,0.5-1.2,1.2-1.2h9.6c0.6,0,1.2,0.5,1.2,1.2v9.1c0,0.6-0.5,1.2-1.2,1.2C417.2,99.6,416.5,99.6,416.5,99.6z"/>
<path class="st10" d="M422.1,101.1c-0.5-0.5-0.5-1.2,0-1.6l4.6-4.4c0.5-0.4,0.5-1.2,0-1.6l-4.6-4.4c-0.5-0.4-0.5-1.2,0-1.6l0.4-0.4
	c0.5-0.4,1.2-0.4,1.7,0l6.8,6.4c0.5,0.4,0.5,1.2,0,1.6l-6.8,6.5c-0.5,0.4-1.2,0.4-1.7,0L422.1,101.1z"/>
<path class="st11" d="M437.4,89v3.6c0,0.5,0.4,0.9,0.9,1h0.5c1.1,0,2-0.2,2.5-0.5c0.5-0.4,0.8-1,0.8-2c0-0.8-0.3-1.3-0.8-1.7
	c-0.6-0.3-1.4-0.5-2.7-0.5C438.3,88.9,437.9,88.9,437.4,89z M444,101.1c-0.5,0-1.1-0.3-1.4-0.7l-2.8-4.4c-0.3-0.4-0.9-0.8-1.4-0.8
	c0,0-0.2,0-1.1-0.1v5.1c0,0.5-0.4,0.9-0.9,0.9h-0.1c-0.5,0-0.9-0.4-0.9-0.9v-12c0-0.5,0.3-0.9,0.6-0.9h0.9c0.9,0,1.6-0.1,2-0.1
	c3.4,0,5,1.3,5,4c0,0.9-0.3,1.7-0.8,2.3c-0.5,0.7-1.2,1.1-1.9,1.3l3.6,5.6c0.3,0.4,0.1,0.7-0.4,0.7H444L444,101.1z"/>
<path class="st11" d="M449.5,89c-0.5,0-0.9,0.4-0.9,0.9V92c0,0.5,0.4,0.9,0.9,0.9h2.8c0.5,0,0.9,0.4,0.9,0.8s-0.4,0.8-0.9,0.8h-2.8
	c-0.5,0-0.9,0.4-0.9,0.9v3.2c0,0.5,0.4,0.9,0.9,0.9h4.6c0.5,0,0.9,0.4,0.9,0.8s-0.4,0.8-0.9,0.8h-6.5c-0.5,0-0.9-0.4-0.9-0.9v-12
	c0-0.5,0.4-0.9,0.9-0.9h6.6c0.5,0,0.9,0.4,0.9,0.8c0,0.5-0.4,0.8-0.9,0.8L449.5,89L449.5,89z"/>
<path class="st11" d="M460,89c-0.5,0-0.9,0.4-0.9,0.9V92c0,0.5,0.4,0.9,0.9,0.9h3.1c0.5,0,0.9,0.4,0.9,0.8s-0.4,0.8-0.9,0.8H460
	c-0.5,0-0.9,0.4-0.9,0.9v4.9c0,0.5-0.4,0.9-0.9,0.9h-0.1c-0.5,0-0.9-0.4-0.9-0.9v-12c0-0.5,0.4-0.9,0.9-0.9h6.9
	c0.5,0,0.9,0.4,0.9,0.8c0,0.5-0.4,0.8-0.9,0.8L460,89L460,89z"/>
<path class="st11" d="M469.5,89v3.6c0,0.5,0.4,0.9,0.9,1h0.5c1.1,0,2-0.2,2.5-0.5c0.5-0.4,0.8-1,0.8-2c0-0.8-0.3-1.3-0.8-1.7
	c-0.6-0.3-1.4-0.5-2.7-0.5C470.4,88.9,470,88.9,469.5,89z M476.1,101.1c-0.5,0-1.1-0.3-1.4-0.7l-2.8-4.4c-0.3-0.4-0.9-0.8-1.4-0.8
	c0,0-0.2,0-1.1-0.1v5.1c0,0.5-0.4,0.9-0.9,0.9h-0.1c-0.5,0-0.9-0.4-0.9-0.9v-12c0-0.5,0.3-0.9,0.6-0.9h0.9c0.9,0,1.6-0.1,2-0.1
	c3.4,0,5,1.3,5,4c0,0.9-0.3,1.7-0.8,2.3c-0.5,0.7-1.2,1.1-1.9,1.3l3.6,5.6c0.3,0.4,0.1,0.7-0.4,0.7H476.1L476.1,101.1z"/>
<path class="st11" d="M481.6,89c-0.5,0-0.9,0.4-0.9,0.9V92c0,0.5,0.4,0.9,0.9,0.9h2.8c0.5,0,0.9,0.4,0.9,0.8s-0.4,0.8-0.9,0.8h-2.8
	c-0.5,0-0.9,0.4-0.9,0.9v3.2c0,0.5,0.4,0.9,0.9,0.9h4.6c0.5,0,0.9,0.4,0.9,0.8s-0.4,0.8-0.9,0.8h-6.5c-0.5,0-0.9-0.4-0.9-0.9v-12
	c0-0.5,0.4-0.9,0.9-0.9h6.6c0.5,0,0.9,0.4,0.9,0.8c0,0.5-0.4,0.8-0.9,0.8L481.6,89L481.6,89z"/>
<path class="st11" d="M488.7,100.4l0.4-0.9c0.2-0.5,0.7-0.6,1.1-0.4c0,0,0,0,0.6,0.2c0.5,0.2,1,0.3,1.4,0.3c0.7,0,1.3-0.2,1.8-0.6
	s0.7-0.9,0.7-1.5c0-0.5-0.1-0.9-0.4-1.3s-0.9-0.8-1.9-1.3l-0.3-0.1c-0.4-0.2-1.1-0.6-1.6-0.8c0,0-0.9-0.5-1.2-1.1
	c-0.4-0.6-0.6-1.3-0.6-2.2c0-1,0.4-1.9,1.1-2.6s1.7-1,2.8-1c1.5,0,2.6,0.2,3.2,0.7l-0.3,0.8c-0.2,0.5-0.6,0.7-0.9,0.5l-0.5-0.2
	c-0.5-0.2-1-0.3-1.4-0.3c-0.6,0-1.2,0.2-1.5,0.5c-0.4,0.4-0.6,0.8-0.6,1.4c0,0.4,0.1,0.7,0.2,1s0.3,0.5,0.6,0.7
	c0.2,0.2,0.7,0.5,1.5,0.8l0.3,0.2c0.4,0.2,1.1,0.6,1.6,0.8c0,0,0.9,0.5,1.2,1.1c0.4,0.6,0.6,1.4,0.6,2.4s-0.4,1.9-1.3,2.6
	c-0.8,0.7-2,1.1-3.4,1.1C490.6,101.3,489.6,101,488.7,100.4z"/>
<path class="st11" d="M507.6,101.1c-0.5,0-0.9-0.4-0.9-0.9v-4.9c0-0.5-0.4-0.9-0.9-0.9h-4.3c-0.5,0-0.9,0.4-0.9,0.9v4.9
	c0,0.5-0.4,0.9-0.9,0.9h-0.1c-0.5,0-0.9-0.4-0.9-0.9v-12c0-0.5,0.4-0.9,0.9-0.9h0.1c0.5,0,0.9,0.4,0.9,0.9V92c0,0.5,0.4,0.9,0.9,0.9
	h4.3c0.5,0,0.9-0.4,0.9-0.9v-3.8c0-0.5,0.4-0.9,0.9-0.9h0.1c0.5,0,0.9,0.4,0.9,0.9v12c0,0.5-0.4,0.9-0.9,0.9H507.6z"/>
<path class="st11" d="M511.2,88.7h0.2c0.2,0,0.4-0.1,0.4-0.2c0-0.2-0.1-0.3-0.4-0.3c-0.1,0-0.2,0-0.2,0V88.7L511.2,88.7z
	 M511.2,89.6h-0.3V88c0.2,0,0.3-0.1,0.5-0.1c0.3,0,0.4,0.1,0.5,0.1c0.1,0.1,0.2,0.2,0.2,0.3c0,0.2-0.1,0.3-0.3,0.4l0,0
	c0.1,0.1,0.2,0.2,0.3,0.4c0,0.2,0.1,0.3,0.1,0.4h-0.3c0-0.1-0.1-0.2-0.1-0.4c0-0.2-0.1-0.3-0.4-0.3h-0.2V89.6L511.2,89.6z
	 M511.5,87.5c-0.7,0-1.2,0.6-1.2,1.2c0,0.7,0.5,1.2,1.2,1.2s1.2-0.6,1.2-1.2S512.2,87.5,511.5,87.5L511.5,87.5z M511.5,87.3
	c0.9,0,1.5,0.7,1.5,1.5c0,0.9-0.7,1.5-1.5,1.5s-1.5-0.7-1.5-1.5C509.9,87.9,510.6,87.3,511.5,87.3L511.5,87.3z"/>
<g>
	<path class="st2" d="M166.8,484.1c0.3,0,0.6-0.1,0.8-0.4c0.3-0.4,0.5-1,0.4-1.6c-0.2-1.2-1-2.1-1.8-2.1l0,0c-0.3,0-0.6,0.1-0.8,0.4
		c-0.3,0.4-0.5,1-0.4,1.6C165.1,483,166,484,166.8,484.1L166.8,484.1L166.8,484.1z"/>
	<path class="st2" d="M167.8,487.6c-0.1-0.1-0.2-0.1-0.3-0.2c-0.3-0.1-0.6-0.1-0.8-0.1l0,0c-1.3,0-2.5,0.8-2.5,1.7
		c0,1,1,1.8,2.3,1.8c1.7,0,2.5-0.6,2.5-1.7c0-0.1,0-0.2,0-0.3C168.8,488.3,168.4,488,167.8,487.6z"/>
	<path class="st2" d="M169.1,472.5c-6.9,0-12.5,5.6-12.5,12.5s5.6,12.5,12.5,12.5s12.5-5.6,12.5-12.5S176.1,472.5,169.1,472.5z
		 M168,491.8c-0.5,0.1-1,0.2-1.6,0.2s-1.2-0.1-1.8-0.2c-1.1-0.3-1.9-0.8-2.3-1.5c-0.2-0.3-0.2-0.6-0.2-0.9s0.1-0.7,0.2-1
		c0.6-1.3,2.2-2.1,3.9-2.1c0,0,0,0,0.1,0c-0.1-0.2-0.2-0.5-0.2-0.8c0-0.1,0-0.3,0.1-0.4c-1.8,0-3.2-1.4-3.2-3.2c0-1.2,1-2.5,2.4-3
		c0.4-0.1,0.9-0.2,1.3-0.2h3.9c0.1,0,0.3,0.1,0.3,0.2s0,0.3-0.1,0.3l-0.9,0.6c-0.1,0-0.1,0.1-0.2,0.1h-0.3c0.4,0.5,0.6,1.2,0.6,2
		c0,0.9-0.4,1.7-1.2,2.3c-0.6,0.5-0.6,0.6-0.6,0.9c0,0.1,0.4,0.6,0.9,1c1.1,0.8,1.5,1.5,1.5,2.8C170.6,490.2,169.6,491.4,168,491.8z
		 M176.9,485.1c0,0.2-0.1,0.3-0.3,0.3h-2.2v2.2c0,0.2-0.1,0.3-0.3,0.3h-0.6c-0.2,0-0.3-0.1-0.3-0.3v-2.2H171c-0.2,0-0.3-0.1-0.3-0.3
		v-0.6c0-0.2,0.1-0.3,0.3-0.3h2.2V482c0-0.2,0.1-0.3,0.3-0.3h0.6c0.2,0,0.3,0.1,0.3,0.3v2.2h2.2c0.2,0,0.3,0.1,0.3,0.3L176.9,485.1
		L176.9,485.1z"/>
</g>
<path class="st2" d="M203.1,472.5c-6.9,0-12.5,5.6-12.5,12.5s5.6,12.5,12.5,12.5s12.5-5.6,12.5-12.5S210.1,472.5,203.1,472.5z
	 M206.5,484.9h-2.2c0,3.5,0,7.7,0,7.7h-3.2c0,0,0-4.2,0-7.7h-1.5v-2.7h1.5v-1.8c0-1.3,0.6-3.2,3.2-3.2h2.4v2.6c0,0-1.4,0-1.7,0
	s-0.7,0.1-0.7,0.7v1.6h2.4L206.5,484.9z"/>
<path class="st2" d="M240.1,472.5c-6.9,0-12.5,5.6-12.5,12.5s5.6,12.5,12.5,12.5s12.5-5.6,12.5-12.5S247.1,472.5,240.1,472.5z
	 M246.4,482.5c0,0.1,0,0.3,0,0.4c0,4.2-3.2,9-9,9c-1.8,0-3.4-0.5-4.8-1.4c0.2,0,0.5,0,0.8,0c1.5,0,2.8-0.5,3.9-1.3
	c-1.4,0-2.5-0.9-2.9-2.2c0.2,0,0.4,0.1,0.6,0.1c0.3,0,0.6,0,0.8-0.1c-1.4-0.3-2.5-1.6-2.5-3.1l0,0c0.4,0.2,0.9,0.4,1.4,0.4
	c-0.8-0.6-1.4-1.5-1.4-2.6c0-0.6,0.2-1.1,0.4-1.6c1.6,1.9,3.9,3.2,6.5,3.3c-0.1-0.2-0.1-0.5-0.1-0.7c0-1.7,1.4-3.1,3.1-3.1
	c0.9,0,1.7,0.4,2.3,1c0.7-0.1,1.4-0.4,2-0.8c-0.2,0.7-0.7,1.4-1.4,1.7c0.6-0.1,1.2-0.2,1.8-0.5C247.6,481.5,247.1,482,246.4,482.5z"
	/>
<g>
	<path class="st2" d="M273.1,472.5c-6.9,0-12.5,5.6-12.5,12.5s5.6,12.5,12.5,12.5s12.5-5.6,12.5-12.5S280,472.5,273.1,472.5z
		 M280.1,491.1c0,0.6-0.5,1-1,1h-11.9c-0.6,0-1-0.5-1-1v-12c0-0.6,0.5-1,1-1h11.9c0.6,0,1,0.5,1,1V491.1z"/>
	<path class="st2" d="M275.6,483.3c-1.1,0-1.6,0.6-1.9,1l0,0l0,0l0,0v-0.9h-2.1c0,0.6,0,6.3,0,6.3h2.1v-3.5c0-0.2,0-0.4,0.1-0.5
		c0.2-0.4,0.5-0.8,1.1-0.8c0.8,0,1.1,0.6,1.1,1.4v3.4h2.1v-3.6C278,484.2,276.9,483.3,275.6,483.3z"/>
	<path class="st2" d="M269.3,480.4c-0.7,0-1.2,0.5-1.2,1.1s0.5,1.1,1.2,1.1l0,0c0.7,0,1.2-0.5,1.2-1.1S270.1,480.4,269.3,480.4z"/>
	<rect x="268.3" y="483.5" class="st2" width="2.1" height="6.3"/>
</g>
<g>
	<path class="st2" d="M305.1,472.5c-6.9,0-12.5,5.6-12.5,12.5c0,5.1,3.1,9.5,7.5,11.4c0-0.9,0-1.9,0.2-2.9s1.6-6.8,1.6-6.8
		s-0.4-0.8-0.4-2c0-1.9,1.1-3.2,2.4-3.2c1.1,0,1.7,0.9,1.7,1.9c0,1.1-0.7,2.9-1.1,4.4c-0.3,1.3,0.7,2.4,2,2.4c2.4,0,4-3,4-6.6
		c0-2.7-1.8-4.8-5.2-4.8c-3.8,0-6.2,2.8-6.2,6c0,1.1,0.3,1.9,0.8,2.5c0.2,0.3,0.3,0.4,0.2,0.7c-0.1,0.2-0.2,0.8-0.3,1
		c-0.1,0.3-0.3,0.4-0.6,0.3c-1.7-0.7-2.6-2.6-2.6-4.8c0-3.5,3-7.8,8.9-7.8c4.8,0,7.9,3.5,7.9,7.2c0,4.9-2.7,8.6-6.7,8.6
		c-1.4,0-2.6-0.7-3.1-1.6c0,0-0.7,2.9-0.9,3.4c-0.3,1-0.8,1.9-1.3,2.7c1.1,0.3,2.3,0.5,3.5,0.5c6.9,0,12.5-5.6,12.5-12.5
		C317.6,478.1,312,472.5,305.1,472.5z"/>
</g>
<g>
	<path class="st2" d="M173.1,150.1c0.5,0,0.9,0.1,1.2,0.4c0.3,0.3,0.5,0.8,0.4,1.2c0,0.5,0.3,1,0.9,1h0.1c0.5,0,0.9-0.4,0.9-0.9
		c0.1-1-0.3-2-1-2.8c-0.7-0.7-1.7-1.1-2.8-1c-0.5,0-0.9,0.5-0.9,1C172.1,149.8,172.6,150.2,173.1,150.1z"/>
	<path class="st2" d="M178,147c-1.2-1.2-2.9-1.9-4.7-2l0,0c-0.5,0-0.9,0.4-0.9,0.9s0.4,0.9,0.9,1c1.3,0,2.5,0.5,3.4,1.4
		s1.4,2.1,1.4,3.4c0,0.5,0.4,0.9,0.9,0.9l0,0c0.5,0,0.9-0.4,0.9-1C179.9,149.9,179.2,148.2,178,147z"/>
	<path class="st2" d="M178.9,156.8c-1-0.7-2-1.4-3-2.2c-0.3-0.3-0.7-0.2-1,0c-0.4,0.3-0.6,0.8-0.9,1.2c-0.3,0.3-1.4,0.3-3.3-1.5
		c-1.9-1.9-1.9-3-1.5-3.3c0.4-0.4,0.9-0.6,1.2-0.9c0.3-0.3,0.3-0.7,0-1c-0.8-1-1.5-1.9-2.2-3c-0.2-0.3-0.6-0.5-1-0.4s-1.3,0.7-1.6,1
		c-1.1,1.2-0.6,4.8,3.7,9.1s7.9,4.8,9.1,3.7c0.3-0.3,0.9-1.3,1-1.6C179.4,157.4,179.2,157,178.9,156.8z"/>
</g>
<g id="Rounded_1_">
	<g id="ui_x5F_spec_x5F_header_copy_5_1_" class="st19">
	</g>
	<path d="M16.6,543.8h-0.8l-0.3-0.3c1.2-1.4,1.8-3.3,1.5-5.3c-0.5-2.8-2.8-5-5.6-5.3c-4.2-0.5-7.8,3-7.3,7.3
		c0.3,2.8,2.6,5.1,5.3,5.6c2,0.3,3.9-0.3,5.3-1.5l0.3,0.3v0.8l4.2,4.3c0.4,0.4,1.1,0.4,1.5,0l0,0c0.4-0.4,0.4-1.1,0-1.5L16.6,543.8z
		 M10.6,543.8c-2.5,0-4.5-2-4.5-4.5s2-4.5,4.5-4.5s4.5,2,4.5,4.5S13.1,543.8,10.6,543.8z"/>
</g>
<rect x="-185" y="534.8" class="st0" width="279" height="22"/>
<g id="Rounded_2_">
	<g id="ui_x5F_spec_x5F_header_copy_5_2_" class="st19">
	</g>
	<path class="st2" d="M115.5,543.8h-0.8l-0.3-0.3c1.2-1.4,1.8-3.3,1.5-5.3c-0.5-2.8-2.8-5-5.6-5.3c-4.2-0.5-7.8,3-7.3,7.3
		c0.3,2.8,2.6,5.1,5.3,5.6c2,0.3,3.9-0.3,5.3-1.5l0.3,0.3v0.8l4.3,4.3c0.4,0.4,1.1,0.4,1.5,0l0,0c0.4-0.4,0.4-1.1,0-1.5L115.5,543.8
		z M109.5,543.8c-2.5,0-4.5-2-4.5-4.5s2-4.5,4.5-4.5s4.5,2,4.5,4.5S112,543.8,109.5,543.8z"/>
</g>
<g>
	<g>
		<g>
			<g>
				<defs>
					<path id="SVGID_1_" d="M18.6,564.2c8.3,0,15,6.7,15,15s-6.7,15-15,15s-15-6.7-15-15C3.6,570.9,10.3,564.2,18.6,564.2
						L18.6,564.2z"/>
				</defs>
				<clipPath id="SVGID_2_">
					<use xlink:href="#SVGID_1_"  style="overflow:visible;"/>
				</clipPath>
				<g class="st20">
					<polygon class="st21" points="-3.9,564.2 18.6,564.2 41.1,564.2 41.1,594.2 18.6,594.2 -3.9,594.2 					"/>
					<polygon class="st2" points="18.6,577.4 10.1,571.7 18.6,566.1 18.6,564.2 15.8,564.2 7.3,569.9 -1.1,564.2 -3.9,564.2 
						-3.9,566.1 4.6,571.7 -3.9,577.4 -3.9,579.2 -1.1,579.2 7.3,573.6 15.8,579.2 18.6,579.2 					"/>
					<polygon class="st22" points="18.6,578.5 8.4,571.7 18.6,564.9 18.6,564.2 17.5,564.2 7.3,571 -2.9,564.2 -3.9,564.2 
						-3.9,564.9 6.3,571.7 -3.9,578.5 -3.9,579.2 -2.9,579.2 7.3,572.4 17.5,579.2 18.6,579.2 					"/>
					<polygon class="st2" points="5.5,564.2 7.3,564.2 9.2,564.2 9.2,569.2 18.6,569.2 18.6,574.2 9.2,574.2 9.2,579.2 7.3,579.2 
						5.5,579.2 5.5,574.2 -3.9,574.2 -3.9,569.2 5.5,569.2 					"/>
					<polygon class="st22" points="8.5,564.2 8.5,570.2 18.6,570.2 18.6,573.3 8.5,573.3 8.5,579.2 7.3,579.2 6.2,579.2 6.2,573.3 
						-3.9,573.3 -3.9,570.2 6.2,570.2 6.2,564.2 7.3,564.2 					"/>
					<path class="st23" d="M30.3,584l0.3,0.9h1l-0.8,0.6l0.3,0.9l-0.8-0.6l-0.8,0.6l0.3-0.9l-0.8-0.6h1L30.3,584L30.3,584z
						 M35.2,573.9l0.3,0.9h1l-0.8,0.6l0.3,0.9l-0.8-0.6l-0.8,0.6l0.3-0.9l-0.8-0.6h1L35.2,573.9L35.2,573.9z M24.8,575.3l0.3,0.9h1
						l-0.8,0.6l0.3,0.9l-0.8-0.6l-0.8,0.6l0.3-0.9l-0.8-0.6h1L24.8,575.3L24.8,575.3z M30.4,569.8l0.3,0.9h1l-0.8,0.6l0.3,0.9
						l-0.8-0.6l-0.8,0.6l0.3-0.9l-0.8-0.6h1L30.4,569.8L30.4,569.8z"/>
				</g>
			</g>
		</g>
		<g>
			<g>
				<defs>
					<path id="SVGID_4_" d="M18.6,564.2c8.3,0,15,6.7,15,15s-6.7,15-15,15s-15-6.7-15-15C3.6,570.9,10.3,564.2,18.6,564.2
						L18.6,564.2z"/>
				</defs>
				<clipPath id="SVGID_5_">
					<use xlink:href="#SVGID_4_"  style="overflow:visible;"/>
				</clipPath>
				<path class="st24" d="M29.8,586.7l0.4,1.1h1.2l-1,0.7l0.4,1.1l-1-0.7l-1,0.7l0.4-1.1l-1-0.7h1.2L29.8,586.7L29.8,586.7z
					 M36,573.9l0.4,1.1h1.2l-1,0.7l0.4,1.1l-1-0.7l-1,0.7l0.4-1.1l-1-0.7h1.2L36,573.9L36,573.9z M22.9,575.7l0.4,1.1h1.2l-1,0.7
					l0.4,1.1l-1-0.7l-1,0.7l0.4-1.1l-1-0.7h1.2L22.9,575.7L22.9,575.7z M29.9,568.7l0.4,1.1h1.2l-1,0.7l0.4,1.1l-1-0.7l-1,0.7
					l0.4-1.1l-1-0.7h1.2L29.9,568.7L29.9,568.7z"/>
			</g>
		</g>
	</g>
</g>
<g>
	<g>
		<g>
			<g>
				<defs>
					<path id="SVGID_6_" d="M54,564.2c8.3,0,15,6.7,15,15s-6.7,15-15,15s-15-6.7-15-15S45.7,564.2,54,564.2L54,564.2z"/>
				</defs>
				<clipPath id="SVGID_7_">
					<use xlink:href="#SVGID_6_"  style="overflow:visible;"/>
				</clipPath>
				<g class="st25">
					<polygon class="st26" points="31.5,564.2 54,564.2 76.5,564.2 76.5,594.2 54,594.2 31.5,594.2 					"/>
					
						<linearGradient id="SVGID_8_" gradientUnits="userSpaceOnUse" x1="-1393.4313" y1="-445.3459" x2="-1433.0089" y2="-460.5383" gradientTransform="matrix(0.5906 0 0 -0.7874 877.3978 215.0534)">
						<stop  offset="0" style="stop-color:#FBF9F9"/>
						<stop  offset="0.45" style="stop-color:#FBF9F9"/>
						<stop  offset="0.8" style="stop-color:#FBF9F9"/>
						<stop  offset="1" style="stop-color:#FBF9F9"/>
					</linearGradient>
					<polygon class="st27" points="54,577.4 45.6,571.7 54,566.1 54,564.2 51.2,564.2 42.8,569.9 34.3,564.2 31.5,564.2 31.5,566.1 
						40,571.7 31.5,577.4 31.5,579.2 34.3,579.2 42.8,573.6 51.2,579.2 54,579.2 					"/>
					<polygon class="st22" points="54,578.5 43.8,571.7 54,564.9 54,564.2 53,564.2 42.8,571 32.6,564.2 31.5,564.2 31.5,564.9 
						41.7,571.7 31.5,578.5 31.5,579.2 32.6,579.2 42.8,572.4 53,579.2 54,579.2 					"/>
					<polygon class="st28" points="40.9,564.2 42.8,564.2 44.6,564.2 44.6,569.2 54,569.2 54,574.2 44.6,574.2 44.6,579.2 
						42.8,579.2 40.9,579.2 40.9,574.2 31.5,574.2 31.5,569.2 40.9,569.2 					"/>
					<polygon class="st22" points="43.9,564.2 43.9,570.2 54,570.2 54,573.3 43.9,573.3 43.9,579.2 42.8,579.2 41.6,579.2 
						41.6,573.3 31.5,573.3 31.5,570.2 41.6,570.2 41.6,564.2 42.8,564.2 					"/>
					<polygon class="st2" points="65.3,583.8 65.6,584.8 66.5,584.4 66,585.3 66.8,585.8 65.8,585.9 66,586.9 65.3,586.1 
						64.6,586.9 64.7,585.9 63.7,585.8 64.6,585.3 64,584.4 65,584.8 					"/>
					<polygon class="st2" points="59.7,574.9 60,575.9 60.9,575.5 60.3,576.4 61.2,576.9 60.2,577 60.4,578 59.7,577.2 59,578 
						59.1,577 58.1,576.9 59,576.4 58.4,575.5 59.3,575.9 					"/>
					<polygon class="st2" points="65.3,568.8 65.6,569.8 66.5,569.4 66,570.3 66.8,570.8 65.8,570.9 66,571.9 65.3,571.1 
						64.6,571.9 64.7,570.9 63.7,570.8 64.6,570.3 64,569.4 65,569.8 					"/>
					<polygon class="st2" points="70.3,573.4 70.6,574.4 71.5,574 71,574.9 71.8,575.4 70.8,575.5 71,576.5 70.3,575.7 69.6,576.5 
						69.7,575.5 68.7,575.4 69.6,574.9 69,574 70,574.4 					"/>
					<polygon class="st2" points="67.5,577.9 67.8,578.5 68.4,578.6 67.9,579 68.1,579.6 67.5,579.3 67,579.6 67.1,579 66.6,578.6 
						67.3,578.5 					"/>
					<polygon class="st28" points="42.8,583.1 43.4,585.2 45.4,584.4 44.2,586.2 46.1,587.3 44,587.5 44.2,589.6 42.8,588 
						41.3,589.6 41.6,587.5 39.5,587.3 41.3,586.2 40.1,584.4 42.1,585.2 					"/>
				</g>
			</g>
		</g>
	</g>
</g>
<g>
	<g>
		<g>
			<g>
				<defs>
					<path id="SVGID_9_" d="M89.3,564.2c8.3,0,15,6.7,15,15s-6.7,15-15,15s-15-6.7-15-15S81,564.2,89.3,564.2L89.3,564.2z"/>
				</defs>
				<clipPath id="SVGID_10_">
					<use xlink:href="#SVGID_9_"  style="overflow:visible;"/>
				</clipPath>
				<g class="st29">
					<polygon class="st21" points="66.8,564.2 89.3,564.2 111.8,564.2 111.8,594.2 89.3,594.2 66.8,594.2 					"/>
					<g>
						<polygon class="st30" points="111.8,590.5 94.9,579.2 111.8,567.9 111.8,564.2 106.2,564.2 89.3,575.5 72.4,564.2 66.8,564.2 
							66.8,567.9 83.7,579.2 66.8,590.5 66.8,594.2 72.4,594.2 89.3,582.9 106.2,594.2 111.8,594.2 						"/>
						<polygon class="st22" points="111.8,592.8 91.4,579.2 111.8,565.6 111.8,564.2 109.7,564.2 89.3,577.8 68.9,564.2 66.8,564.2 
							66.8,565.6 87.2,579.2 66.8,592.8 66.8,594.2 68.9,594.2 89.3,580.6 109.7,594.2 111.8,594.2 						"/>
						<polygon class="st30" points="85.6,564.2 89.3,564.2 93,564.2 93,574.3 111.8,574.3 111.8,584.2 93,584.2 93,594.2 
							89.3,594.2 85.6,594.2 85.6,584.2 66.8,584.2 66.8,574.3 85.6,574.3 						"/>
						<polygon class="st22" points="91.6,564.2 91.6,576.1 111.8,576.1 111.8,582.3 91.6,582.3 91.6,594.2 89.3,594.2 87,594.2 
							87,582.3 66.8,582.3 66.8,576.1 87,576.1 87,564.2 89.3,564.2 						"/>
					</g>
				</g>
			</g>
		</g>
	</g>
</g>
<g>
	<g>
		<g>
			<g>
				<defs>
					<path id="SVGID_11_" d="M124.6,564.2c8.3,0,15,6.7,15,15s-6.7,15-15,15s-15-6.7-15-15C109.6,570.9,116.3,564.2,124.6,564.2
						L124.6,564.2z"/>
				</defs>
				<clipPath id="SVGID_12_">
					<use xlink:href="#SVGID_11_"  style="overflow:visible;"/>
				</clipPath>
				<g class="st31">
					<polygon class="st32" points="102.1,564 147.1,564 147.1,594 102.1,594 					"/>
					<path class="st22" d="M102.1,591.7h45v2.3h-45L102.1,591.7L102.1,591.7z M102.1,564h45v2.3h-45L102.1,564L102.1,564z
						 M102.1,568.7h45v2.3h-45L102.1,568.7L102.1,568.7z M102.1,573.3h45v2.3h-45L102.1,573.3L102.1,573.3z M102.1,577.9h45v2.3h-45
						L102.1,577.9L102.1,577.9z M102.1,582.5h45v2.3h-45L102.1,582.5L102.1,582.5z M102.1,587.1h45v2.3h-45L102.1,587.1L102.1,587.1
						z"/>
					<polygon class="st21" points="102.1,564 124.9,564 124.9,580.2 102.1,580.2 					"/>
					<path class="st30" d="M123.2,568.6L123,568l-0.2,0.6h-0.7l0.5,0.4l-0.2,0.6l0.5-0.4l0.5,0.4l-0.2-0.6l0.5-0.4H123.2
						L123.2,568.6z M104.4,565.7l0.5-0.4h-0.7l-0.2-0.6l-0.2,0.6h-0.7l0.5,0.4l-0.2,0.6l0.5-0.4l0.5,0.4L104.4,565.7L104.4,565.7z
						 M108.2,565.7l0.5-0.4H108l-0.2-0.6l-0.2,0.6H107l0.5,0.4l-0.2,0.6l0.5-0.4l0.5,0.4L108.2,565.7L108.2,565.7z M112,565.7
						l0.5-0.4h-0.7l-0.2-0.6l-0.2,0.6h-0.7l0.5,0.4l-0.2,0.6l0.5-0.4l0.5,0.4L112,565.7L112,565.7z M115.7,565.7l0.5-0.4h-0.7
						l-0.2-0.6l-0.2,0.6h-0.7l0.5,0.4l-0.2,0.6l0.5-0.4l0.5,0.4L115.7,565.7L115.7,565.7z M106.4,577l0.5-0.4h-0.7L106,576l-0.2,0.6
						h-0.7l0.5,0.4l-0.2,0.6l0.5-0.4l0.5,0.4L106.4,577L106.4,577z M106.1,576.9L106.1,576.9L106.1,576.9L106.1,576.9L106.1,576.9z
						 M106.3,573.9l0.5-0.4h-0.7l-0.2-0.6l-0.2,0.6H105l0.5,0.4l-0.2,0.6l0.5-0.4l0.5,0.4V573.9L106.3,573.9z M106.3,570.7l0.5-0.4
						h-0.7l-0.2-0.6l-0.2,0.6H105l0.5,0.4l-0.2,0.6l0.5-0.4l0.5,0.4V570.7L106.3,570.7z M119.5,565.7l0.5-0.4h-0.7l-0.2-0.6
						l-0.2,0.6h-0.7l0.5,0.4l-0.2,0.6l0.5-0.4l0.5,0.4L119.5,565.7L119.5,565.7z M123.3,565.7l0.5-0.4h-0.7l-0.2-0.6l-0.2,0.6H122
						l0.5,0.4l-0.2,0.6l0.5-0.4l0.5,0.4V565.7L123.3,565.7z M110.1,570.7l0.5-0.4H110l-0.2-0.6l-0.2,0.6h-0.7l0.5,0.4l-0.2,0.6
						l0.5-0.4l0.5,0.4L110.1,570.7L110.1,570.7z M110.1,573.9l0.5-0.4H110l-0.2-0.6l-0.2,0.6h-0.7l0.5,0.4l-0.2,0.6l0.5-0.4l0.5,0.4
						L110.1,573.9L110.1,573.9z M110.2,577l0.5-0.4H110l-0.2-0.6l-0.2,0.6H109l0.5,0.4l-0.2,0.6l0.5-0.4l0.5,0.4L110.2,577
						L110.2,577z M109.8,576.9L109.8,576.9L109.8,576.9L109.8,576.9L109.8,576.9z M113.9,577l0.5-0.4h-0.7l-0.2-0.6l-0.2,0.6h-0.7
						l0.5,0.4l-0.2,0.6l0.5-0.4l0.5,0.4L113.9,577L113.9,577z M113.9,573.9l0.5-0.4h-0.7l-0.2-0.6l-0.2,0.6h-0.7l0.5,0.4l-0.2,0.6
						l0.5-0.4l0.5,0.4L113.9,573.9L113.9,573.9z M113.9,570.7l0.5-0.4h-0.7l-0.2-0.6l-0.2,0.6h-0.7l0.5,0.4l-0.2,0.6l0.5-0.4
						l0.5,0.4L113.9,570.7L113.9,570.7z M106.3,567.4l0.5-0.4h-0.7l-0.2-0.6l-0.2,0.6H105l0.5,0.4l-0.2,0.6l0.5-0.4l0.5,0.4V567.4
						L106.3,567.4z M110.1,567.4l0.5-0.4h-0.7l-0.2-0.6l-0.2,0.6h-0.7l0.5,0.4l-0.2,0.6l0.5-0.4l0.5,0.4L110.1,567.4L110.1,567.4z
						 M117.7,570.7l0.5-0.4h-0.7l-0.2-0.6l-0.2,0.6h-0.7l0.5,0.4l-0.2,0.6l0.5-0.4l0.5,0.4L117.7,570.7L117.7,570.7z M117.7,573.9
						l0.5-0.4h-0.7l-0.2-0.6l-0.2,0.6h-0.7l0.5,0.4l-0.2,0.6l0.5-0.4l0.5,0.4L117.7,573.9L117.7,573.9z M117.7,577l0.5-0.4h-0.7
						l-0.2-0.6l-0.2,0.6h-0.7l0.5,0.4l-0.2,0.6l0.5-0.4l0.5,0.4L117.7,577L117.7,577z M121.5,577l0.5-0.4h-0.7l-0.2-0.6l-0.2,0.6
						h-0.7l0.5,0.4l-0.2,0.6l0.5-0.4l0.5,0.4L121.5,577L121.5,577z M121.2,576.9L121.2,576.9L121.2,576.9L121.2,576.9L121.2,576.9z
						 M121.4,573.9l0.5-0.4h-0.7l-0.2-0.6l-0.2,0.6h-0.7l0.5,0.4l-0.2,0.6l0.5-0.4l0.5,0.4L121.4,573.9L121.4,573.9z M121.5,570.7
						l0.5-0.4h-0.7l-0.2-0.6l-0.2,0.6h-0.7l0.5,0.4l-0.2,0.6l0.5-0.4l0.5,0.4L121.5,570.7L121.5,570.7z M113.8,567.4l0.5-0.4h-0.7
						l-0.2-0.6l-0.2,0.6h-0.7l0.5,0.4v0.6l0.5-0.4l0.5,0.4L113.8,567.4L113.8,567.4z M117.6,567.4l0.5-0.4h-0.7l-0.2-0.6L117,567
						h-0.7l0.5,0.4l-0.2,0.6l0.5-0.4l0.5,0.4L117.6,567.4L117.6,567.4z M121.4,567.4l0.5-0.4h-0.7l-0.2-0.6l-0.2,0.6h-0.7l0.5,0.4
						l-0.2,0.6l0.5-0.4l0.5,0.4L121.4,567.4L121.4,567.4z M104.5,578.6l0.5-0.4h-0.7l-0.2-0.6l-0.2,0.6h-0.7l0.5,0.4l-0.2,0.6
						l0.5-0.4l0.5,0.4L104.5,578.6L104.5,578.6z M104.4,575.5l0.5-0.4h-0.7l-0.2-0.6l-0.2,0.6h-0.7l0.5,0.4l-0.2,0.6l0.5-0.4
						l0.5,0.4L104.4,575.5L104.4,575.5z M104.4,572.3l0.5-0.4h-0.7l-0.2-0.6l-0.2,0.6h-0.7l0.5,0.4l-0.2,0.6l0.5-0.4l0.5,0.4
						L104.4,572.3L104.4,572.3z M108.2,572.3l0.5-0.4H108l-0.2-0.6l-0.2,0.6H107l0.5,0.4l-0.2,0.6l0.5-0.4l0.5,0.4L108.2,572.3
						L108.2,572.3z M108.2,575.5l0.5-0.4H108l-0.2-0.6l-0.2,0.6H107l0.5,0.4l-0.2,0.6l0.5-0.4l0.5,0.4L108.2,575.5L108.2,575.5z
						 M108.3,578.6l0.5-0.4h-0.7l-0.2-0.6l-0.2,0.6H107l0.5,0.4l-0.2,0.6l0.5-0.4l0.5,0.4V578.6L108.3,578.6z M112.1,578.6l0.5-0.4
						h-0.7l-0.2-0.6l-0.2,0.6h-0.7l0.5,0.4l-0.2,0.6l0.5-0.4l0.5,0.4L112.1,578.6L112.1,578.6z M112,575.5l0.5-0.4h-0.7l-0.2-0.6
						l-0.2,0.6h-0.7l0.5,0.4l-0.2,0.6l0.5-0.4l0.5,0.4L112,575.5L112,575.5z M112,572.3l0.5-0.4h-0.7l-0.2-0.6l-0.2,0.6h-0.7
						l0.5,0.4l-0.2,0.6l0.5-0.4l0.5,0.4L112,572.3L112,572.3z M104.4,569l0.5-0.4h-0.7L104,568l-0.2,0.6h-0.7l0.5,0.4l-0.2,0.6
						l0.5-0.4l0.5,0.4L104.4,569L104.4,569z M108.2,569l0.5-0.4H108l-0.2-0.6l-0.2,0.6H107l0.5,0.4l-0.2,0.6l0.5-0.4l0.5,0.4
						L108.2,569L108.2,569z M115.8,572.3l0.5-0.4h-0.7l-0.2-0.6l-0.2,0.6h-0.7l0.5,0.4l-0.2,0.6l0.5-0.4l0.5,0.4L115.8,572.3
						L115.8,572.3z M115.8,575.5l0.5-0.4h-0.7l-0.2-0.6l-0.2,0.6h-0.7l0.5,0.4l-0.2,0.6l0.5-0.4l0.5,0.4L115.8,575.5L115.8,575.5z
						 M115.8,578.6l0.5-0.4h-0.7l-0.2-0.6l-0.2,0.6h-0.7l0.5,0.4l-0.2,0.6l0.5-0.4l0.5,0.4L115.8,578.6L115.8,578.6z M119.6,578.6
						l0.5-0.4h-0.7l-0.2-0.6l-0.2,0.6h-0.7l0.5,0.4l-0.2,0.6l0.5-0.4l0.5,0.4L119.6,578.6L119.6,578.6z M123.4,578.6l0.5-0.4h-0.7
						l-0.2-0.6l-0.2,0.6h-0.7l0.5,0.4l-0.2,0.6l0.5-0.4l0.5,0.4L123.4,578.6L123.4,578.6z M119.5,575.5l0.5-0.4h-0.7l-0.2-0.6
						l-0.2,0.6h-0.7l0.5,0.4l-0.2,0.6l0.5-0.4l0.5,0.4L119.5,575.5L119.5,575.5z M123.3,575.5l0.5-0.4h-0.7l-0.2-0.6l-0.2,0.6H122
						l0.5,0.4l-0.2,0.6l0.5-0.4l0.5,0.4V575.5L123.3,575.5z M119.6,572.3l0.5-0.4h-0.7l-0.2-0.6L119,572h-0.7l0.5,0.4l-0.2,0.6
						l0.5-0.4l0.5,0.4L119.6,572.3L119.6,572.3z M123.3,572.3l0.5-0.4h-0.7l-0.2-0.6l-0.2,0.6H122l0.5,0.4l-0.2,0.6l0.5-0.4l0.5,0.4
						V572.3L123.3,572.3z M112,569l0.5-0.4h-0.7l-0.2-0.6l-0.2,0.6h-0.7l0.5,0.4l-0.2,0.6l0.5-0.4l0.5,0.4L112,569L112,569z
						 M115.7,569l0.5-0.4h-0.7l-0.2-0.6l-0.2,0.6h-0.7l0.5,0.4l-0.2,0.6l0.5-0.4l0.5,0.4L115.7,569L115.7,569z M119.5,569l0.5-0.4
						h-0.7l-0.2-0.6l-0.2,0.6h-0.7l0.5,0.4l-0.2,0.6l0.5-0.4l0.5,0.4L119.5,569L119.5,569z"/>
				</g>
			</g>
		</g>
	</g>
</g>
<use xlink:href="#ic_x5F_arrow_x5F_drop_x5F_down"  width="24" height="24" x="-12" y="-12" transform="matrix(-1 0 0 1 163.2154 539.8333)" style="overflow:visible;"/>
<use xlink:href="#ic_x5F_arrow_x5F_drop_x5F_down"  width="24" height="24" x="-12" y="-12" transform="matrix(1 0 0 -1 181.5414 538.8333)" style="overflow:visible;enable-background:new    ;"/>
<g>
	<line class="st33" x1="132" y1="534.3" x2="148" y2="534.3"/>
	<line class="st33" x1="132" y1="540.3" x2="148" y2="540.3"/>
	<line class="st33" x1="132" y1="546.3" x2="148" y2="546.3"/>
</g>
<g id="Rounded_22_">
	<path class="st2" d="M209.4,539.8h-11.2l4.9-4.9c0.4-0.4,0.4-1,0-1.4l0,0c-0.4-0.4-1-0.4-1.4,0l-6.6,6.6c-0.4,0.4-0.4,1,0,1.4
		l6.6,6.6c0.4,0.4,1,0.4,1.4,0l0,0c0.4-0.4,0.4-1,0-1.4l-4.9-4.9h11.2c0.6,0,1-0.4,1-1l0,0C210.4,540.3,209.9,539.8,209.4,539.8z"/>
</g>
<g id="Rounded_38_">
	<path class="st2" d="M231.9,535.1L231.9,535.1c-0.4-0.4-1-0.4-1.4,0l-4.9,4.9l-4.9-4.9c-0.4-0.4-1-0.4-1.4,0l0,0
		c-0.4,0.4-0.4,1,0,1.4l4.9,4.9l-4.9,4.9c-0.4,0.4-0.4,1,0,1.4l0,0c0.4,0.4,1,0.4,1.4,0l4.9-4.9l4.9,4.9c0.4,0.4,1,0.4,1.4,0l0,0
		c0.4-0.4,0.4-1,0-1.4l-4.9-4.9l4.9-4.9C232.3,536.1,232.3,535.5,231.9,535.1z"/>
</g>
<g>
	<path class="st34" d="M26.1,546l0.6-1.2c0.8,0.8,2.3,1.3,3.7,1.3c1.9,0,2.8-0.8,2.8-1.7c0-2.7-6.8-1-6.8-5.2c0-1.7,1.3-3.2,4.3-3.2
		c1.3,0,2.7,0.4,3.6,1l-0.5,1.3c-1-0.6-2.1-0.9-3.1-0.9c-1.9,0-2.7,0.8-2.7,1.8c0,2.7,6.8,1,6.8,5.1c0,1.7-1.4,3.2-4.3,3.2
		C28.7,547.4,27,546.8,26.1,546z"/>
	<path class="st34" d="M45.2,545.9v1.4h-8.1v-11.2H45v1.4h-6.3v3.4h5.6v1.4h-5.6v3.6L45.2,545.9L45.2,545.9z"/>
	<path class="st34" d="M54.9,544.5h-6l-1.2,2.8h-1.6l5.1-11.2h1.6l5.1,11.2h-1.7L54.9,544.5z M54.4,543.2l-2.4-5.5l-2.4,5.5H54.4z"
		/>
	<path class="st34" d="M67,547.3l-2.4-3.4c-0.2,0-0.5,0-0.7,0h-2.8v3.4h-1.6v-11.2h4.4c2.9,0,4.7,1.5,4.7,3.9c0,1.7-0.9,3-2.5,3.5
		l2.7,3.8H67z M66.9,540c0-1.6-1.1-2.5-3.1-2.5h-2.7v5h2.7C65.9,542.5,66.9,541.6,66.9,540z"/>
	<path class="st34" d="M70.2,541.7c0-3.3,2.5-5.7,5.9-5.7c1.7,0,3.2,0.6,4.3,1.7l-1,1c-0.9-0.9-1.9-1.3-3.2-1.3
		c-2.5,0-4.4,1.8-4.4,4.3s1.9,4.3,4.4,4.3c1.2,0,2.3-0.4,3.2-1.3l1,1c-1,1.2-2.5,1.8-4.3,1.8C72.7,547.4,70.2,545,70.2,541.7z"/>
	<path class="st34" d="M92.3,536.1v11.2h-1.6v-5h-6.4v5h-1.6v-11.2h1.6v4.8h6.4v-4.8H92.3z"/>
</g>
<g>
	<rect x="293.4" y="181.8" class="st2" width="237" height="51"/>
	<g>
		<path d="M407.6,206.7h4.3c2.4,0,3.7,1.3,3.7,3.3c0,1.6-0.7,3-2.6,3.4l0,0c1.8,0.1,2.4,1.1,2.5,3.1v1.4c0,0.7,0.1,1.4,0.6,2h-1.5
			c-0.3-0.5-0.4-1.2-0.4-1.9v-1.1c-0.1-2.3-0.5-3.1-2.9-3.1H409v6.1h-1.3v-13.2H407.6L407.6,206.7z M408.9,212.9h2.2
			c2,0,3.2-0.9,3.2-2.6c0-1.6-0.7-2.6-3.1-2.6h-2.4C408.9,207.7,408.9,212.9,408.9,212.9z"/>
		<path d="M419.8,206.7h7.1v1H421v4.8h5.5v1H421v5.4h6v1h-7.3L419.8,206.7L419.8,206.7z"/>
		<path d="M430.8,206.7h1.7l5.5,11.6l0,0v-11.6h1.3V220h-1.7l-5.5-11.6l0,0V220h-1.3V206.7L430.8,206.7z"/>
		<path d="M448,206.5c2.9,0,4.6,2.1,4.6,6.9c0,4.8-1.7,6.9-4.6,6.9s-4.6-2.1-4.6-6.9S445.1,206.5,448,206.5z M448,219.2
			c2.1,0,3.3-1.6,3.3-5.9c0-4.3-1.2-5.9-3.3-5.9s-3.3,1.6-3.3,5.9C444.8,217.6,446,219.2,448,219.2z"/>
		<path d="M455.8,206.7h1.4l3.2,12l0,0l3.2-12h1.4l-3.8,13.3h-1.6L455.8,206.7z"/>
		<path d="M470.5,206.7h1.6l4.3,13.3H475l-1.2-3.9h-5l-1.2,3.9h-1.4L470.5,206.7z M473.5,215.1l-2.2-7.5l0,0l-2.2,7.5H473.5z"/>
		<path d="M481,207.7h-3.7v-1h8.7v1h-3.7V220H481V207.7z"/>
		<path d="M489.4,206.7h1.3V220h-1.3V206.7z"/>
		<path d="M499.5,206.5c2.9,0,4.6,2.1,4.6,6.9c0,4.8-1.7,6.9-4.6,6.9s-4.6-2.1-4.6-6.9S496.6,206.5,499.5,206.5z M499.5,219.2
			c2.1,0,3.3-1.6,3.3-5.9c0-4.3-1.3-5.9-3.3-5.9c-2.1,0-3.3,1.6-3.3,5.9S497.5,219.2,499.5,219.2z"/>
		<path d="M508.3,206.7h1.7l5.5,11.6l0,0v-11.6h1.3V220h-1.7l-5.5-11.6l0,0V220h-1.3V206.7z"/>
		<path d="M527.5,210.1c0-1.6-0.8-2.6-2.6-2.6s-2.7,1.1-2.7,2.4c0,4,7,1.8,7,6.5c0,2.6-1.7,3.9-4.4,3.9s-4.2-1.3-4.2-3.9V216h1.3
			v0.5c0,1.7,1,2.8,2.9,2.8c1.8,0,3.1-0.8,3.1-2.7c0-3.9-7-1.7-7-6.5c0-2.1,1.5-3.5,4-3.5c2.7,0,3.9,1.3,3.9,3.6L527.5,210.1
			L527.5,210.1L527.5,210.1z"/>
	</g>
	<g>
		<path class="st12" d="M315.8,204.1c-0.4,0-0.6,0.3-0.6,0.6v3.5c0,0.4-0.3,0.6-0.6,0.6h-3.7c-0.4,0-0.6,0.3-0.6,0.6v0.3
			c0,0.4,0.3,0.6,0.6,0.6h5.4c0.4,0,0.6-0.3,0.6-0.6v-5.1c0-0.4-0.3-0.6-0.6-0.6L315.8,204.1L315.8,204.1z"/>
	</g>
	<g>
		<path class="st13" d="M319.5,204.1c0.4,0,0.6,0.3,0.6,0.6v3.5c0,0.4,0.3,0.6,0.6,0.6h3.7c0.4,0,0.6,0.3,0.6,0.6v0.3
			c0,0.4-0.3,0.6-0.6,0.6H319c-0.4,0-0.6-0.3-0.6-0.6v-5.1c0-0.4,0.3-0.6,0.6-0.6L319.5,204.1z"/>
	</g>
	<g>
		<path class="st14" d="M315.8,218.6c-0.4,0-0.6-0.3-0.6-0.6v-3.5c0-0.4-0.3-0.6-0.6-0.6h-3.7c-0.4,0-0.6-0.3-0.6-0.6V213
			c0-0.4,0.3-0.6,0.6-0.6h5.4c0.4,0,0.6,0.3,0.6,0.6v5.1c0,0.4-0.3,0.6-0.6,0.6L315.8,218.6L315.8,218.6z"/>
	</g>
	<g>
		<path class="st15" d="M319,219.4c-0.2-0.2-0.2-0.6,0-0.9l2.6-2.5c0.2-0.2,0.2-0.6,0-0.9l-2.6-2.5c-0.3-0.2-0.3-0.6,0-0.9l0.2-0.2
			c0.3-0.2,0.7-0.2,0.9,0l3.8,3.7c0.3,0.2,0.3,0.6,0,0.9l-3.8,3.7c-0.2,0.2-0.7,0.2-0.9,0L319,219.4z"/>
	</g>
	<g>
		<path class="st16" d="M337.1,220c-0.5,0-1.1-0.3-1.3-0.7l-2.7-4.3c-0.2-0.4-0.8-0.7-1.3-0.7c0,0-0.2,0-1.1-0.1v4.9
			c0,0.5-0.4,0.8-0.8,0.8h-0.1c-0.5,0-0.8-0.4-0.8-0.8v-11.6c0-0.5,0.2-0.9,0.5-0.9c0,0,0,0,0.9,0s1.5-0.1,1.9-0.1
			c3.2,0,4.8,1.3,4.8,3.8c0,0.8-0.3,1.6-0.8,2.3s-1.1,1.1-1.8,1.2l3.4,5.4c0.3,0.4,0.1,0.7-0.4,0.7L337.1,220L337.1,220z
			 M330.8,208.3v3.5c0,0.5,0.4,0.9,0.8,0.9c0,0,0,0,0.4,0c1.1,0,1.9-0.2,2.4-0.5c0.5-0.4,0.8-1,0.8-1.9c0-0.7-0.3-1.3-0.8-1.6
			s-1.4-0.5-2.5-0.5C331.6,208.2,331.3,208.3,330.8,208.3z"/>
		<path class="st16" d="M342.4,208.3c-0.5,0-0.8,0.4-0.8,0.8v2c0,0.5,0.4,0.8,0.8,0.8h2.7c0.5,0,0.8,0.3,0.8,0.8
			c0,0.4-0.4,0.8-0.8,0.8h-2.7c-0.5,0-0.8,0.4-0.8,0.8v3.1c0,0.5,0.4,0.8,0.8,0.8h4.4c0.5,0,0.8,0.4,0.8,0.8c0,0.4-0.4,0.8-0.8,0.8
			h-6.2c-0.5,0-0.8-0.4-0.8-0.8v-11.6c0-0.5,0.4-0.8,0.8-0.8h6.3c0.5,0,0.8,0.4,0.8,0.8c0,0.4-0.4,0.8-0.8,0.8L342.4,208.3
			L342.4,208.3z"/>
		<path class="st16" d="M352.4,208.3c-0.5,0-0.8,0.4-0.8,0.8v2c0,0.5,0.4,0.8,0.8,0.8h3c0.5,0,0.8,0.3,0.8,0.8
			c0,0.4-0.4,0.8-0.8,0.8h-3c-0.5,0-0.8,0.4-0.8,0.8v4.7c0,0.5-0.4,0.8-0.8,0.8h-0.1c-0.5,0-0.8-0.4-0.8-0.8v-11.6
			c0-0.5,0.4-0.8,0.8-0.8h6.6c0.5,0,0.8,0.4,0.8,0.8c0,0.4-0.4,0.8-0.8,0.8L352.4,208.3L352.4,208.3z"/>
		<path class="st16" d="M367.9,220c-0.5,0-1.1-0.3-1.3-0.7l-2.7-4.3c-0.2-0.4-0.8-0.7-1.3-0.7c0,0-0.2,0-1.1-0.1v4.9
			c0,0.5-0.4,0.8-0.8,0.8h-0.1c-0.5,0-0.8-0.4-0.8-0.8v-11.6c0-0.5,0.2-0.9,0.5-0.9c0,0,0,0,0.9,0s1.5-0.1,1.9-0.1
			c3.2,0,4.8,1.3,4.8,3.8c0,0.8-0.3,1.6-0.8,2.3s-1.1,1.1-1.8,1.2l3.4,5.4c0.3,0.4,0.1,0.7-0.4,0.7L367.9,220L367.9,220z
			 M361.4,208.3v3.5c0,0.5,0.4,0.9,0.8,0.9c0,0,0,0,0.4,0c1.1,0,1.9-0.2,2.4-0.5c0.5-0.4,0.8-1,0.8-1.9c0-0.7-0.3-1.3-0.8-1.6
			s-1.4-0.5-2.5-0.5C362.4,208.2,362,208.3,361.4,208.3z"/>
		<path class="st16" d="M373.1,208.3c-0.5,0-0.8,0.4-0.8,0.8v2c0,0.5,0.4,0.8,0.8,0.8h2.7c0.5,0,0.8,0.3,0.8,0.8
			c0,0.4-0.4,0.8-0.8,0.8h-2.7c-0.5,0-0.8,0.4-0.8,0.8v3.1c0,0.5,0.4,0.8,0.8,0.8h4.4c0.5,0,0.8,0.4,0.8,0.8c0,0.4-0.4,0.8-0.8,0.8
			h-6.2c-0.5,0-0.8-0.4-0.8-0.8v-11.6c0-0.5,0.4-0.8,0.8-0.8h6.3c0.5,0,0.8,0.4,0.8,0.8c0,0.4-0.4,0.8-0.8,0.8L373.1,208.3
			L373.1,208.3z"/>
		<path class="st16" d="M379.9,219.4l0.4-0.9c0.2-0.4,0.6-0.6,1-0.4c0,0,0,0,0.5,0.2s1,0.2,1.4,0.2c0.7,0,1.3-0.2,1.7-0.6
			c0.4-0.4,0.6-0.9,0.6-1.5c0-0.4-0.1-0.9-0.4-1.2c-0.2-0.4-0.8-0.8-1.8-1.3l-0.3-0.1c-0.4-0.2-1.1-0.6-1.5-0.8c0,0-0.8-0.5-1.2-1.1
			c-0.4-0.6-0.5-1.3-0.5-2.1c0-1,0.4-1.8,1.1-2.5s1.6-1,2.7-1c1.5,0,2.5,0.2,3.1,0.7l-0.3,0.8c-0.2,0.4-0.6,0.6-0.9,0.5
			c0,0,0,0-0.5-0.2s-1-0.2-1.4-0.2c-0.6,0-1.1,0.2-1.5,0.5c-0.4,0.4-0.5,0.8-0.5,1.3c0,0.3,0.1,0.6,0.2,0.9c0.1,0.3,0.3,0.5,0.5,0.7
			s0.7,0.4,1.4,0.8l0.3,0.2c0.4,0.2,1.1,0.6,1.5,0.8c0,0,0.8,0.5,1.2,1.1c0.4,0.6,0.6,1.4,0.6,2.3c0,1-0.4,1.8-1.2,2.5
			c-0.8,0.7-1.9,1-3.2,1C381.8,220.2,380.8,219.9,379.9,219.4z"/>
		<path class="st16" d="M398,220c-0.5,0-0.8-0.4-0.8-0.8v-4.7c0-0.5-0.4-0.8-0.8-0.8h-4.2c-0.5,0-0.8,0.4-0.8,0.8v4.7
			c0,0.5-0.4,0.8-0.8,0.8h-0.1c-0.5,0-0.8-0.4-0.8-0.8v-11.6c0-0.5,0.4-0.8,0.8-0.8h0.1c0.5,0,0.8,0.4,0.8,0.8v3.6
			c0,0.5,0.4,0.8,0.8,0.8h4.2c0.5,0,0.8-0.4,0.8-0.8v-3.6c0-0.5,0.4-0.8,0.8-0.8h0.1c0.5,0,0.8,0.4,0.8,0.8v11.6
			C398.9,219.7,398.5,220,398,220L398,220L398,220z"/>
	</g>
	<g>
		<path class="st16" d="M401.8,206.7c0.8,0,1.5,0.6,1.5,1.4c0,0.8-0.6,1.5-1.5,1.5s-1.5-0.6-1.5-1.5
			C400.3,207.3,400.9,206.7,401.8,206.7L401.8,206.7z M401.8,206.9c-0.7,0-1.2,0.5-1.2,1.2s0.5,1.2,1.2,1.2c0.6,0,1.1-0.5,1.1-1.2
			C402.9,207.5,402.4,206.9,401.8,206.9L401.8,206.9z M401.4,208.9h-0.3v-1.5c0.2,0,0.3,0,0.5,0c0.3,0,0.4,0,0.5,0.1
			s0.2,0.2,0.2,0.3c0,0.2-0.1,0.3-0.3,0.4l0,0c0.1,0.1,0.2,0.2,0.2,0.4s0.1,0.3,0.1,0.4H402c0-0.1-0.1-0.2-0.1-0.4s-0.1-0.2-0.3-0.2
			h-0.2V208.9L401.4,208.9z M401.4,208.1h0.2c0.2,0,0.4-0.1,0.4-0.2c0-0.1-0.1-0.3-0.4-0.3c-0.1,0-0.2,0-0.2,0V208.1L401.4,208.1z"
			/>
	</g>
</g>
<circle class="st2" cx="160.3" cy="579.2" r="14.9"/>
<g>
	<defs>
		<rect id="SVGID_3_" x="145" y="563.9" width="30.7" height="30.7"/>
	</defs>
	<clipPath id="SVGID_13_">
		<use xlink:href="#SVGID_3_"  style="overflow:visible;"/>
	</clipPath>
	<g class="st35">
		<path class="st36" d="M160.3,563.9c-8.5,0-15.3,6.9-15.3,15.3s6.9,15.3,15.3,15.3c8.5,0,15.3-6.9,15.3-15.3l0,0
			C175.6,570.7,168.8,563.9,160.3,563.9 M171.4,588.6v-1l-0.6-0.8v-1.2l-0.4-0.4v-0.5l0.6-1.1l-1-1.9l0.1-1.3l-0.9-0.1l-0.4-0.3H168
			l-0.3,0.3h-1.1l0,0.1h-0.7l-1.4-1.7v-1.3l0.2-0.1l0.1-0.5h-0.3l-0.1-0.5l1.7-1.2v-0.8l0.8-0.4l0.3,0h0.7l0.5-0.3l1.7-0.1v0.9
			l1.3,0.3l0.3,0.2h0.2v-0.5l0.8-0.1l0.7,0.5h1c1.4,4.7,0.4,9.8-2.8,13.6H171.4z M167.8,570.1l-0.3-0.2l-0.2-0.2v-0.2l0.1-0.2
			l0.4-0.1l0.1,0.6l0.3,0.4l0.2,0.2l0.3,0.1l-0.3,0.4l-0.6,0.1h-0.4l0.1-0.5l0.4-0.1V570.1z M167.4,570v0.3l-0.6,0.4h-0.3v-0.3l0,0
			l0.3-0.5l0.4-0.1L167.4,570z M174,573.8h-0.5l-0.4-0.4l-0.1-0.7l-0.4,0.2l-0.2,0.8l-0.6-0.6v-0.6l-0.6-0.5l-0.2-0.2h-0.7l0.2,0.6
			l0.8,0.4l0.1,0.1l-0.2,0.1v0.5l-0.4,0.2l-0.3-0.1l-0.2-0.3h0.5l0.1-0.2l-1.2-0.8l-0.1-0.3l-0.5,0.4l-0.5-0.1l-0.7,1l-0.1,0.4
			l-0.5,0h-0.7l-0.4-0.2l-0.1-0.8l0.2-0.4l0.7-0.1l0.8,0.2l0.1-0.4l-0.3-0.1l0.1-0.7l0.8-0.1l0.5-0.8l0.6-0.1l0.5,0.1h0.2l-0.1-0.7
			l-0.6,0.2l-0.2-0.5l-0.4-0.1l-0.1-0.4l0.3-0.3l0.7-0.3l0-0.1C171.7,569.7,173.1,571.7,174,573.8 M152,567.1h0.2l0.3,0.2l0.7,0.1
			l0.1,0.2l1,0l-0.1-0.3h-0.9l0.2-0.2l-0.1-0.2h-0.8l0.9-0.7h0.8l0.4,0.5l0.7,0l0.4-0.4l0.3,0.1l-0.6,0.5h-0.7
			c0,0.2,0.1,0.3,0.1,0.5h0.9l0.1-0.2l0.7,0l0.1-0.4l-0.4-0.1l0.1-0.3l0.3-0.1l1,0.1L157,567l0.1,0.4l0.6,0.1l0-0.7l0.5-0.3l1-0.1
			l1.4,0.7v0.5l0.4,0.1l-0.2,0.4h-0.7l-0.2,0.5l-1.5-0.3l1.1-0.6l-0.4-0.4l-1,0.1l-0.1,0.1l0,0l0,0l-0.3,0.3l-0.5,0l0,0.2l0.2,0.1
			v0.1l-0.4,0.1v0.2h-0.4l-0.1-0.4l-0.7,0.2l-1.4,0.8l0.1,0.6l0.4,0.2l0.7,0.1v0.8l0.3-0.1l0.3-0.7l0.8-0.3v-1l0.4-0.3l1.1,0.3
			l-0.1,0.7h0.3l0.8-0.4l0,0.9l0.6,0.3v0.5l-0.5,0.2l0,0.2l0.7,0.3v0.4h-0.2l0,0l-0.8-0.3l0-0.3l0,0l0.2-0.2v-0.2l-0.3-0.1l-0.1,0.2
			l-0.5,0.1h0l0,0H159l-0.1-0.3l-0.1-0.1h-0.3l-0.1,0.1v0.3l0.3,0.1l0.3,0h-0.1l-0.3,0.3l-0.1-0.1l-0.2-0.1l-0.7,0.7l0.1,0.1l-1,0.5
			l-1,1l-0.1,0.4l-0.9,0.6l-0.5,0.5l0.1,0.9l-0.7-0.3v-0.5h-1.7l-0.9,0.5l-0.4,0.7l-0.2,0.6l0.3,0.6l0.7,0.1l1.1-0.7l0.1,0.4
			l-0.4,0.7l0.9,0.1l0.1,1.3l1.2,0.2l0.8-0.9l0.9,0.2l0.3,0.4l0.9-0.1v-0.3l0.5,0.2l0.6,0.8h0.9l0.4,0.6l0.1,0.7l1,0.4h1.3l0.4,0.7
			l0.6,0.2l-0.1,0.5l-0.7,0.8l-0.2,1.8l-0.6,0.5h-0.9l-0.3,0.5l0.2,0.9l-0.9,1.2l-0.3,0.5l-0.9,0.4l-0.6,0.1v0.2l0.4,0.1l-0.1,0.3
			l-0.4,0.4l0.2,0.3h0.4v0.3l-0.1,0.3l0,0.3l0.7,0.6l-0.1,0.3H158l-0.9-0.8l-0.7-1.2l0.1-1.2l-0.5-0.7l0.2-1.2l-0.3-0.1v-2.6
			c0,0-0.9-0.7-0.9-0.7c0,0-0.5-0.1-0.5-0.1l-0.1-0.5l-1.1-1.4l0.1-0.5l0-0.8l0.8-0.5l-0.1-0.9l-1.1-0.1l-0.9-1l-0.7-0.2l-0.4-0.1
			l0.1-0.4l-0.5-0.1v0.2l-1.3-0.3l-0.5-0.8l0.2-0.4l-0.8-1.2l-0.1-0.9h-0.3l0.1,0.9l0.5,0.9l-0.1,0.4l-0.5-0.1l-0.6-1v-1.2l-0.6-0.3
			C147.5,571.3,149.5,568.8,152,567.1 M159.4,571.8l-0.1,0.2h-0.2l0,0.2l-0.2,0.1h-0.3c0-0.1,0-0.1,0-0.1h-0.1v-0.2h0.4l0.1-0.2h0.2
			L159.4,571.8z M158.2,572.1v0.2h-0.3v-0.2l0.1-0.2L158.2,572.1z"/>
	</g>
</g>
</svg>
