<?xml version="1.0" encoding="utf-8"?>
<!-- Generator: Adobe Illustrator 19.2.1, SVG Export Plug-In . SVG Version: 6.00 Build 0)  -->
<svg version="1.1" id="Layer_1" xmlns="http://www.w3.org/2000/svg" xmlns:xlink="http://www.w3.org/1999/xlink" x="0px" y="0px"
	 width="792px" height="612px" viewBox="0 0 792 612" style="enable-background:new 0 0 792 612;" xml:space="preserve">
<style type="text/css">
	.st0{fill:#FFFFFF;}
	.st1{fill:#3E8BC3;}
	.st2{fill:#666666;}
	.st3{fill:#333333;}
	.st4{fill:#0684C5;}
	.st5{fill:#E43238;}
	.st6{fill:#0078BB;}
	.st7{fill:#F08F00;}
	.st8{fill:#53AB40;}
	.st9{fill:#19161B;}
	.st10{fill:#E23338;}
	.st11{fill:#0078BA;}
	.st12{fill:#ED8800;}
	.st13{fill:#4FAA47;}
	.st14{fill:#1D1D1B;}
	.st15{fill:#FFFFFF;stroke:#FFFFFF;stroke-width:0.85;stroke-miterlimit:10;}
	.st16{fill:none;stroke:#676767;stroke-width:0.8075;stroke-miterlimit:10;}
</style>
<g>
	<path class="st0" d="M556.95,423.383c0-6.336,5.165-11.492,11.512-11.492c6.345,0,11.512,5.156,11.512,11.492
		s-5.165,11.481-11.512,11.481C562.115,434.866,556.95,429.719,556.95,423.383z M584.529,434.866h-8.442
		c3.728-2.469,6.188-6.69,6.188-11.481c0-7.605-6.199-13.794-13.814-13.794s-13.814,6.188-13.814,13.794
		c0,7.596,6.199,13.784,13.814,13.784h16.067c0.639,0,1.151-0.512,1.151-1.151C585.68,435.387,585.167,434.866,584.529,434.866z"/>
	<path class="st0" d="M568.462,415.049c-4.605,0-8.343,3.739-8.343,8.334c0,4.585,3.739,8.323,8.343,8.323s8.354-3.739,8.354-8.323
		C576.815,418.789,573.066,415.049,568.462,415.049z M568.462,434.009c-5.874,0-10.646-4.771-10.646-10.626
		c0-5.863,4.772-10.636,10.646-10.636s10.655,4.771,10.655,10.636C579.117,429.237,574.336,434.009,568.462,434.009z"/>
	<path class="st0" d="M568.462,418.209c-2.853,0-5.176,2.322-5.176,5.176c0,2.844,2.322,5.165,5.176,5.165
		c2.864,0,5.185-2.322,5.185-5.165C573.647,420.53,571.324,418.209,568.462,418.209z M568.462,430.851
		c-4.122,0-7.478-3.355-7.478-7.468c0-4.122,3.355-7.478,7.478-7.478c4.133,0,7.487,3.355,7.487,7.478
		C575.949,427.496,572.594,430.851,568.462,430.851z"/>
	<path class="st0" d="M606.637,433.666l-4.929-13.479c-0.117,0.365-0.285,0.727-0.502,1.072l-2.961,4.683l3.483,9.514
		c0.384,1.052,1.388,1.712,2.451,1.712c0.296,0,0.601-0.049,0.895-0.157C606.429,436.519,607.128,435.014,606.637,433.666z"/>
	<path class="st0" d="M595.872,396.15c0-2.902-2.351-5.224-5.244-5.224s-5.234,2.322-5.234,5.224s2.342,5.224,5.234,5.224
		C593.521,401.374,595.872,399.051,595.872,396.15z"/>
	<path class="st0" d="M595.105,426.945l6.415-10.026l-4.358-12.289c-0.493-1.397-2.608-2.095-5.362-1.545
		c-2.312,0.462-3.365,1.87-3.67,3.315c-0.079,0.226-0.009,6.868-0.009,6.868h-4.053c-1.18,0-2.135,0.944-2.135,2.126
		c0,1.171,0.955,2.126,2.135,2.126h7.852l1.132,2.893l-3.748,5.933l3.384,9.121c0.393,1.052,1.397,1.702,2.46,1.702
		c0.296,0,0.601-0.049,0.906-0.168c1.348-0.493,2.046-1.998,1.545-3.346L595.105,426.945z"/>
</g>
<g>
	<path class="st0" d="M145,5v62h62V5H145z M176,66.5c-16.845,0-30.5-13.655-30.5-30.5S159.155,5.5,176,5.5s30.5,13.655,30.5,30.5
		S192.845,66.5,176,66.5z"/>
</g>
<path class="st0" d="M173.838,20.834c-0.01-0.04-0.02-0.09-0.01-0.14c0.29-1.29,0.85-1.85,1.53-2.08c1.01-2.32,3.19-3.75,5.46-3.42
	c0.62,0.09,1.04,0.65,0.96,1.27c-0.09,0.61-0.65,1.05-1.27,0.95c-1.04-0.14-2.08,0.43-2.75,1.44c0.46,0.32,0.83,0.87,1.04,1.84
	c0.01,0.05,0.01,0.1-0.01,0.14c-0.01,0.03-0.04,0.06-0.06,0.06h-4.83C173.878,20.894,173.848,20.864,173.838,20.834z
	 M183.338,20.834c-0.02-0.04-0.02-0.09-0.01-0.14c0.41-1.85,1.38-2.22,2.48-2.22c1.11,0,2.08,0.37,2.49,2.22
	c0.01,0.05,0,0.1-0.01,0.14c-0.01,0.03-0.04,0.06-0.06,0.06h-4.83C183.378,20.894,183.348,20.864,183.338,20.834z M163.868,20.834
	c-0.02-0.04-0.02-0.09-0.01-0.14c0.41-1.85,1.38-2.22,2.48-2.22c1.1,0,2.08,0.37,2.49,2.22c0.01,0.05,0,0.1-0.01,0.14
	c-0.02,0.03-0.04,0.06-0.06,0.06h-4.83C163.898,20.894,163.878,20.864,163.868,20.834z M190.748,56.414c0,0.62-0.5,1.12-1.12,1.12
	h-27.11c-0.62,0-1.12-0.5-1.12-1.12s0.5-1.12,1.12-1.12h6.64c1.38-4.53,2.08-9.32,2.08-14.25c0-1.01-0.04-2.02-0.1-3.03
	c1.75,0.37,3.56,0.57,5.41,0.57c1.51,0,3-0.15,4.45-0.4c-0.05,0.95-0.08,1.91-0.08,2.86c0,4.93,0.7,9.72,2.08,14.25h6.63
	C190.248,55.294,190.748,55.794,190.748,56.414z M197.838,22.594c-0.12-0.17-0.32-0.28-0.54-0.28h-41.5c-0.22,0-0.42,0.11-0.54,0.28
	s-0.14,0.39-0.06,0.59c3.5,8.32,11.88,13.69,21.35,13.69s17.85-5.37,21.35-13.69C197.978,22.984,197.948,22.764,197.838,22.594z"/>
<g>
	<path class="st0" d="M5,5v62h62V5H5z M36,66.5C19.155,66.5,5.5,52.845,5.5,36S19.155,5.5,36,5.5S66.5,19.155,66.5,36
		S52.845,66.5,36,66.5z"/>
</g>
<g>
	<path class="st0" d="M75,5v62h62V5H75z M106,66.5c-16.845,0-30.5-13.655-30.5-30.5S89.155,5.5,106,5.5s30.5,13.655,30.5,30.5
		S122.845,66.5,106,66.5z"/>
</g>
<g>
	<path class="st0" d="M213,5v62h62V5H213z M244,66.5c-16.845,0-30.5-13.655-30.5-30.5S227.155,5.5,244,5.5s30.5,13.655,30.5,30.5
		S260.845,66.5,244,66.5z"/>
</g>
<g>
	<path class="st0" d="M283,5v62h62V5H283z M314,66.5c-16.845,0-30.5-13.655-30.5-30.5S297.155,5.5,314,5.5s30.5,13.655,30.5,30.5
		S330.845,66.5,314,66.5z"/>
</g>
<g>
	<path class="st0" d="M353,5v62h62V5H353z M384,66.5c-16.845,0-30.5-13.655-30.5-30.5S367.155,5.5,384,5.5s30.5,13.655,30.5,30.5
		S400.845,66.5,384,66.5z"/>
</g>
<g>
	<path class="st0" d="M423,5v62h62V5H423z M454,66.5c-16.845,0-30.5-13.655-30.5-30.5S437.155,5.5,454,5.5s30.5,13.655,30.5,30.5
		S470.845,66.5,454,66.5z"/>
</g>
<g>
	<path class="st0" d="M493,5v62h62V5H493z M524,66.5c-16.845,0-30.5-13.655-30.5-30.5S507.155,5.5,524,5.5
		c16.845,0,30.5,13.655,30.5,30.5S540.845,66.5,524,66.5z"/>
</g>
<g>
	<path class="st0" d="M563,5v62h62V5H563z M594,66.5c-16.845,0-30.5-13.655-30.5-30.5S577.155,5.5,594,5.5s30.5,13.655,30.5,30.5
		S610.845,66.5,594,66.5z"/>
</g>
<g>
	<path class="st0" d="M633,5v62h62V5H633z M664,66.5c-16.845,0-30.5-13.655-30.5-30.5S647.155,5.5,664,5.5s30.5,13.655,30.5,30.5
		S680.845,66.5,664,66.5z"/>
</g>
<polygon class="st0" points="52.907,27.15 52.907,18.73 46.127,18.73 46.127,20.71 "/>
<path class="st0" d="M53.937,49.32h-4.23v-1.23h4.23V49.32z M47.157,49.32h-4.23v-1.23h4.23V49.32z M41.947,35.1h-4.83v-5.23h4.83
	V35.1z M41.947,42.1h-4.83v-5.23h4.83V42.1z M40.367,49.32h-4.23v-1.23h4.23V49.32z M35.347,35.1h-4.83v-5.23h4.83V35.1z
	 M35.347,42.1h-4.83v-5.23h4.83V42.1z M33.577,49.32h-4.23v-1.23h4.23V49.32z M26.787,49.32h-4.23v-1.23h4.23V49.32z M19.997,49.32
	h-4.22v-1.23h4.22V49.32z M56.497,49.32v-1.23h0.23v-9.41l1.15,1.09l2.86-3.02l-24.5-23.26l-24.5,23.26l2.86,3.02l1.15-1.09v16.81
	h40.98v-6.17H56.497z"/>
<path class="st0" d="M120.183,47.853c0,3.86-3.14,7-7,7s-7.01-3.14-7.01-7c0-3.87,3.15-7.01,7.01-7.01
	S120.183,43.983,120.183,47.853z M102.393,39.933c1.4,1.4,3.67,1.4,5.07,0c0.49-0.49,0.8-1.1,0.95-1.73h-6.97
	C101.583,38.833,101.903,39.443,102.393,39.933z M107.463,34.863c-1.4-1.4-3.67-1.4-5.07,0c-0.49,0.5-0.81,1.1-0.95,1.74h6.97
	C108.263,35.963,107.953,35.363,107.463,34.863z M98.253,29.833c-0.27-0.27-0.72-0.27-0.99,0c-3.62,3.62-4.15,9.46-1.26,13.88
	c0.14,0.21,0.36,0.32,0.59,0.32c0.13,0,0.26-0.04,0.38-0.11c0.33-0.22,0.42-0.65,0.21-0.97c-2.54-3.87-2.08-8.97,1.07-12.13
	C98.523,30.553,98.523,30.103,98.253,29.833z M124.133,27.163c-1.12-1.12-2.95-1.12-4.08,0l-5.4,5.41l-4.89-4.9l5.4-5.4
	c1.13-1.13,1.13-2.95,0-4.08s-2.95-1.13-4.08,0l-5.41,5.4l-1.81-1.81c-1.29-1.29-3.55-1.29-4.85,0l-5.07,5.07
	c-2.87,2.88-4.45,6.7-4.45,10.77c0,4.06,1.58,7.88,4.45,10.76c2.88,2.87,6.7,4.46,10.76,4.46c0.39,0,0.7-0.32,0.7-0.7
	c0-0.39-0.31-0.7-0.7-0.7c-3.69,0-7.16-1.44-9.77-4.05s-4.04-6.08-4.04-9.77c0-3.7,1.43-7.17,4.04-9.78l5.07-5.07
	c0.79-0.79,2.08-0.79,2.87,0l16.68,16.68c0.62,0.62,0.77,1.61,0.35,2.39c-0.18,0.34-0.05,0.76,0.29,0.95
	c0.35,0.18,0.77,0.05,0.95-0.29c0.7-1.33,0.45-2.99-0.6-4.04l-1.81-1.81l5.4-5.41C125.263,30.123,125.263,28.293,124.133,27.163z
	 M95.083,50.773c0.28,0.27,0.28,0.72,0,0.99l-0.68,0.68c-0.3,0.31-0.71,0.47-1.14,0.47s-0.83-0.17-1.14-0.47l-2.57-2.57
	c-0.63-0.63-0.62-1.65,0-2.28l0.84-0.84c0.28-0.27,0.72-0.28,0.99,0c0.28,0.27,0.28,0.71,0,0.99l-0.84,0.84
	c-0.08,0.08-0.08,0.22,0,0.3l2.57,2.57c0.09,0.08,0.22,0.08,0.3,0l0.68-0.68C94.373,50.503,94.813,50.503,95.083,50.773z"/>
<path class="st0" d="M320.276,35.4l-2.93-2.45l11.4-13.58l2.92,2.46L320.276,35.4z M335.976,17.08l-3.31-2.78
	c-0.24-0.21-0.53-0.3-0.83-0.3c-0.38,0-0.75,0.16-1.02,0.47l-14.72,17.55l-2.07,7.29c-0.11,0.34-0.02,0.53,0.19,0.53
	c0.09,0,0.2-0.03,0.33-0.1l6.86-3.26l14.73-17.55C336.596,18.37,336.536,17.54,335.976,17.08z M324.596,46.31
	c-0.44-1.21-1.14-2.28-1.56-2.86c0.7-0.1,2.09-0.38,3.46-0.98L324.596,46.31z M327.866,30.89l-1.2,1.44l1.51,4.16
	c0.41,1.11,0.37,2.03-0.11,2.81c-1.14,1.8-4.47,2.49-5.65,2.6c-0.58,0.05-1.02,0.34-1.21,0.8c-0.19,0.45-0.08,0.97,0.29,1.41
	c0.64,0.8,2.23,3.19,1.81,4.74c-0.17,0.61-0.65,1.05-1.49,1.36l-23.83,8.67c-0.1,0.04-0.24,0-0.29-0.13l-10.23-28.12
	c-0.03-0.07-0.01-0.14,0.01-0.17c0.01-0.03,0.05-0.09,0.12-0.11l33.73-12.27c0.07,0,0.17,0.05,0.21,0.15l1.32,3.61l1.2-1.43l-1-2.73
	c-0.33-0.93-1.43-1.45-2.36-1.11l-33.65,12.25c-0.47,0.17-0.84,0.51-1.04,0.96c-0.21,0.44-0.23,0.95-0.07,1.41l10.24,28.11
	c0.26,0.73,0.96,1.22,1.73,1.22c0.22,0,0.43-0.04,0.63-0.11l23.84-8.68c1.01-0.37,1.62-0.9,2.01-1.44
	c0.19-0.2,5.12-10.26,5.12-10.26c0.69-1.19,0.76-2.56,0.2-4.1L327.866,30.89z M297.146,35.01l4.2-1.52
	c0.12,2.22-0.89,4.38-2.67,5.72L297.146,35.01z M302.456,33.08l12.33-4.48l-0.4-1.08l-12.12,4.41c-0.06-0.26-0.14-0.53-0.24-0.79
	l-0.19-0.54l-1.08,0.39l0.2,0.54c0.09,0.26,0.17,0.53,0.23,0.8l-4.43,1.61l-0.56-1.54l-1.07,0.39l0.56,1.54l-1.76,0.64l0.39,1.08
	l1.76-0.64l1.61,4.41c-0.25,0.13-0.49,0.24-0.76,0.34l-0.53,0.19l0.39,1.08l0.54-0.2c0.26-0.09,0.51-0.2,0.75-0.32l4.09,11.24
	l1.08-0.39l-4.17-11.44C301.426,38.7,302.726,35.92,302.456,33.08z"/>
<path class="st0" d="M359.163,34.269l8.3-1.46l3.23,18.37l-8.29,1.46L359.163,34.269z M365.603,22.289l1.47,8.3l-8.24,1.45
	C358.523,27.619,361.363,23.549,365.603,22.289z M372.923,50.779l-3.24-18.36l6.68-1.18l0.42-2.36l-7.49,1.32l-1.46-8.28
	c0.16-0.01,0.32-0.03,0.48-0.03c3.85,0,7.22,2.31,8.69,5.72l0.6-3.4c-2.16-2.8-5.54-4.57-9.29-4.57c-0.68,0-1.37,0.06-2.05,0.18
	c-6.39,1.12-10.66,7.23-9.54,13.62l3.65,20.7c0.05,0.3,0.22,0.56,0.47,0.73c0.19,0.14,0.41,0.21,0.64,0.21
	c0.07,0,0.13-0.01,0.2-0.02l10.82-1.91L372.923,50.779z M406.893,17.389l-25.13-4.43l-0.1-0.01c-0.26,0-0.5,0.2-0.55,0.47
	l-7.28,41.26c-0.05,0.31,0.15,0.6,0.46,0.66l25.13,4.43h0.09c0.27,0,0.51-0.19,0.56-0.46l7.28-41.27
	C407.403,17.739,407.193,17.439,406.893,17.389z"/>
<g>
	<g>
		<polygon class="st0" points="456.06,34.34 460.75,34.34 461.55,30.59 456.86,30.59 		"/>
		<g>
			<polygon class="st0" points="459.23,19.4 458.5,22.86 459.97,22.86 			"/>
		</g>
		<polygon class="st0" points="454.42,42.07 454.1,43.55 454.58,45.82 458.31,45.82 459.11,42.07 		"/>
	</g>
	<path class="st0" d="M445.58,41.25h-5.04l2.52-11.86l-2.24-10.52c-0.07-0.03-0.13-0.07-0.2-0.1l-8.12,38.22h4.69l2.39-11.23h6.96
		L445.58,41.25z"/>
	<path class="st0" d="M462.41,17.5l1.48,6.97h-15.52l-1.48-6.97H462.41z M466.33,35.95h-15.52l-1.48-6.97h15.52L466.33,35.95z
		 M467.29,40.46l1.48,6.97h-15.51l-1.49-6.97H467.29z M442.2,17.5l8.4,39.49h4.69l-1.07-5.05h15.51l1.08,5.05h4.69l-8.4-39.52
		c1.11-0.16,1.96-1.09,1.96-2.22c0-1.25-1.02-2.26-2.29-2.26H442.2c-1.27,0-2.3,1.01-2.3,2.26C439.9,16.49,440.93,17.5,442.2,17.5z"
		/>
</g>
<path class="st0" d="M517.924,38.11c-0.87,0-1.66-0.23-2.28-0.6v15c0,0.79,0.65,1.44,1.44,1.44h2.28c0.79,0,1.44-0.65,1.44-1.44
	V37.07C520.154,37.69,519.114,38.11,517.924,38.11z M511.234,58.2c0,0.45,0.37,0.82,0.81,0.82h25.83c0.45,0,0.82-0.37,0.82-0.82
	v-1.4c0-0.45-0.37-0.81-0.82-0.81h-25.83c-0.44,0-0.81,0.36-0.81,0.81V58.2L511.234,58.2z M524.014,50.76
	c0-0.34,0.27-0.61,0.61-0.61h13.46c0.33,0,0.61,0.27,0.61,0.61v1.81c0,0.33-0.28,0.61-0.61,0.61h-13.46c-0.34,0-0.61-0.28-0.61-0.61
	V50.76z M535.854,34.99c1.36,0.13,2.7,0.58,3.72,1.24c0.35,0,0.59-0.25,0.56-0.54l-0.6-7.24c-0.19-1.64-1.58-2.97-4.25-3.22
	c-0.18-0.02-0.37-0.03-0.55-0.03c-2.26,0-4.38,1.3-4.53,3.1v7.42c0,0.3,0.25,0.54,0.56,0.54c1.26-0.82,2.97-1.3,4.48-1.3
	C535.454,34.96,535.654,34.97,535.854,34.99z M539.224,24.34l-0.54-6.22c-0.17-1.49-1.45-2.7-3.88-2.93
	c-2.24-0.21-4.5,1.04-4.65,2.8v6.39c0.01,0.27,0.23,0.48,0.51,0.49c1.31-0.86,3.17-1.3,4.66-1.16c1.23,0.11,2.46,0.52,3.4,1.13
	C539.034,24.84,539.254,24.62,539.224,24.34z M528.734,35.72V28.3c-0.14-1.8-2.27-3.1-4.53-3.1c-0.18,0-0.36,0.01-0.55,0.03
	c-2.66,0.25-4.06,1.58-4.24,3.19l-0.61,7.27c-0.02,0.29,0.21,0.54,0.52,0.54c1.07-0.66,2.41-1.11,3.76-1.24
	c0.2-0.02,0.41-0.03,0.62-0.03c1.5,0,3.21,0.48,4.47,1.3C528.484,36.26,528.734,36.02,528.734,35.72z M520.184,24.84
	c0.97-0.61,2.2-1.02,3.44-1.13c1.48-0.14,3.34,0.3,4.65,1.16c0.28-0.01,0.51-0.22,0.51-0.49v-6.39c-0.14-1.76-2.41-3.01-4.64-2.8
	c-2.43,0.23-3.71,1.44-3.88,2.92l-0.55,6.23C519.694,24.62,519.904,24.84,520.184,24.84z M513.774,25.21c-0.15,0-0.29,0-0.44,0.01
	c-2.67,0.21-4.06,1.52-4.37,3.14l-1.18,7.29c-0.05,0.3,0.16,0.55,0.47,0.56c1.11-0.65,2.38-1.08,3.74-1.18
	c0.15-0.02,0.31-0.02,0.47-0.02c1.5,0,3.05,0.51,4.27,1.39c0.31,0,0.57-0.24,0.6-0.53l0.59-7.47
	C517.924,26.57,516.034,25.21,513.774,25.21z M509.584,24.26l1.07-6.24c0.29-1.5,1.56-2.69,3.99-2.87c2.24-0.18,4.18,1.12,4.18,2.89
	l-0.53,6.43c-0.03,0.27-0.27,0.48-0.55,0.48c-1.23-0.89-2.83-1.37-4.32-1.25c-1.24,0.09-2.39,0.48-3.37,1.07
	C509.734,24.77,509.544,24.54,509.584,24.26z"/>
<g>
	<path class="st0" d="M569.048,41.98c0-6.44,5.25-11.68,11.7-11.68s11.7,5.24,11.7,11.68s-5.25,11.67-11.7,11.67
		S569.048,48.42,569.048,41.98z M597.078,53.65h-8.58c3.79-2.51,6.29-6.8,6.29-11.67c0-7.73-6.3-14.02-14.04-14.02
		s-14.04,6.29-14.04,14.02c0,7.72,6.3,14.01,14.04,14.01h16.33c0.65,0,1.17-0.52,1.17-1.17
		C598.248,54.18,597.728,53.65,597.078,53.65z"/>
	<path class="st0" d="M580.748,33.51c-4.68,0-8.48,3.8-8.48,8.47c0,4.66,3.8,8.46,8.48,8.46s8.49-3.8,8.49-8.46
		C589.238,37.31,585.428,33.51,580.748,33.51z M580.748,52.78c-5.97,0-10.82-4.85-10.82-10.8c0-5.96,4.85-10.81,10.82-10.81
		c5.97,0,10.83,4.85,10.83,10.81C591.578,47.93,586.718,52.78,580.748,52.78z"/>
	<path class="st0" d="M580.748,36.72c-2.9,0-5.26,2.36-5.26,5.26c0,2.89,2.36,5.25,5.26,5.25c2.91,0,5.27-2.36,5.27-5.25
		C586.018,39.08,583.658,36.72,580.748,36.72z M580.748,49.57c-4.19,0-7.6-3.41-7.6-7.59c0-4.19,3.41-7.6,7.6-7.6
		c4.2,0,7.61,3.41,7.61,7.6C588.358,46.16,584.948,49.57,580.748,49.57z"/>
	<path class="st0" d="M619.548,52.43l-5.01-13.7c-0.12,0.37-0.29,0.74-0.51,1.09l-3.01,4.76l3.54,9.67
		c0.39,1.07,1.41,1.74,2.49,1.74c0.3,0,0.61-0.05,0.91-0.16C619.338,55.33,620.048,53.8,619.548,52.43z"/>
	<path class="st0" d="M608.608,14.3c0-2.95-2.39-5.31-5.33-5.31s-5.32,2.36-5.32,5.31s2.38,5.31,5.32,5.31
		S608.608,17.25,608.608,14.3z"/>
	<path class="st0" d="M607.828,45.6l6.52-10.19l-4.43-12.49c-0.5-1.42-2.65-2.13-5.45-1.57c-2.35,0.47-3.42,1.9-3.73,3.37
		c-0.08,0.23-0.01,6.98-0.01,6.98h-4.12c-1.2,0-2.17,0.96-2.17,2.16c0,1.19,0.97,2.16,2.17,2.16h7.98l1.15,2.94l-3.81,6.03
		l3.44,9.27c0.4,1.07,1.42,1.73,2.5,1.73c0.3,0,0.61-0.05,0.92-0.17c1.37-0.5,2.08-2.03,1.57-3.4L607.828,45.6z"/>
</g>
<path class="st0" d="M680.382,19.073c-6.49,8.52-7.63,15.65-7.64,15.72c-0.03,0.2-0.2,0.35-0.4,0.35h-6.14
	c-0.08-0.44-0.36-1-0.8-1.56c-0.04-0.06-0.25-0.35-0.59-0.78c1.48-3.03,5.5-9.28,15.06-14.34c0.06-0.03,0.12-0.05,0.19-0.05
	c0.11,0,0.23,0.05,0.31,0.15C680.502,18.703,680.502,18.923,680.382,19.073z M660.692,28.783c0.3-2.71,0.56-6,0.54-9.13
	c0-0.19,0.11-0.35,0.29-0.4c0.04-0.01,0.08-0.02,0.12-0.02c0.13,0,0.26,0.07,0.34,0.18c1.62,2.37,3.18,5.73,4.41,8.69
	c-1.09,1.45-1.85,2.74-2.39,3.77C663.232,31.013,662.122,29.923,660.692,28.783z M664.762,34.933c-0.07,0.14-0.21,0.22-0.35,0.22
	h-9.57c-0.12,0-0.23-0.05-0.3-0.15c-0.06-0.08-5.73-7.48-10.8-10.65c-0.15-0.1-0.22-0.28-0.18-0.46c0.05-0.18,0.2-0.31,0.38-0.31
	c13.84,0.76,20.71,10.81,20.78,10.92C664.812,34.623,664.822,34.793,664.762,34.933z M681.652,39.153c0,0.53-0.44,0.96-0.96,0.96
	h-34.53c-0.52,0-0.96-0.43-0.96-0.96v-1.37c0-0.53,0.44-0.96,0.96-0.96h34.53c0.52,0,0.96,0.43,0.96,0.96L681.652,39.153
	L681.652,39.153z M648.212,45.483c-0.12-0.51,0.19-1.03,0.71-1.15c0.52-0.13,1.04,0.19,1.16,0.71c0.97,4.06,3.09,6.06,6.48,8.73
	C652.732,52.713,649.142,49.373,648.212,45.483z M681.092,41.853h-35.22c-0.43,0-0.78,0.35-0.78,0.78c0,8.8,7.39,14.72,18.39,14.72
	s18.39-5.92,18.39-14.72C681.872,42.203,681.522,41.853,681.092,41.853z"/>
<g>
	<path class="st0" d="M5,73v62h62V73H5z M36,134.5c-16.845,0-30.5-13.655-30.5-30.5S19.155,73.5,36,73.5S66.5,87.155,66.5,104
		S52.845,134.5,36,134.5z"/>
</g>
<g>
	<path class="st0" d="M75,73v62h62V73H75z M106,134.5c-16.845,0-30.5-13.655-30.5-30.5S89.155,73.5,106,73.5s30.5,13.655,30.5,30.5
		S122.845,134.5,106,134.5z"/>
</g>
<g>
	<path class="st0" d="M23.831,116.7V91.3c0-1.97,0.75-3.54,2.05-4.3c1.31-0.77,3.02-0.64,4.7,0.34l21.61,12.7
		c1.68,0.98,2.64,2.43,2.64,3.96s-0.96,2.98-2.64,3.96l-21.61,12.7c-1.68,0.98-3.39,1.11-4.7,0.34
		C24.581,120.24,23.831,118.67,23.831,116.7z"/>
</g>
<g>
	<path class="st0" d="M112.34,122.43l5.35,3.57l5.57-6.94c1.78-2.34-1.83-5.11-3.6-2.77l-2.89,3.8l-1.68-1.29
		C112.76,117.02,110.01,120.65,112.34,122.43z"/>
	<path class="st0" d="M101.44,98.7c-2.93,0-2.93,4.56,0,4.56h11.87c2.93,0,2.93-4.56,0-4.56H101.44z"/>
	<path class="st0" d="M113.31,106.75h-11.87c-2.93,0-2.93,4.56,0,4.56h11.87C116.24,111.31,116.24,106.75,113.31,106.75z"/>
	<path class="st0" d="M112.92,86.56l6.54,6.16v18.64H124V90.65L114.42,82H92.27C91.03,82,90,83.04,90,84.28v39.14
		c0,1.24,1.03,2.28,2.27,2.28h15.48v-4.56H94.54V86.56H112.92z"/>
</g>
<g>
	<path class="st0" d="M269.92,35.22l-0.77-1.34c-0.26-0.44-0.77-0.63-1.25-0.51c-0.1,0.01-0.2,0.04-0.29,0.09l-7.53,4.34
		c-0.34,0.2-0.46,0.64-0.26,0.99c0.13,0.23,0.37,0.36,0.62,0.36c0.13,0,0.25-0.03,0.36-0.1l6.55-3.77l0.62,1.07
		c0.21,0.36,0.59,0.56,0.98,0.56c0.19,0,0.38-0.05,0.56-0.15C270.05,36.45,270.23,35.76,269.92,35.22z"/>
	<path class="st0" d="M253.48,29.78c-4.14-7.17-13.31-9.63-20.48-5.49s-9.62,13.31-5.48,20.48c0.85,1.48,1.91,2.72,3.11,3.75
		c0,0,2.79,2.62,4.23,3.85c2.14,1.81,5.13,1.83,7.68,0.36l16.26-9.39c0.99-0.57,1.41-1.9,0.84-2.89L253.48,29.78z M243.58,42.57
		c-0.89,0.51-1.89,0.78-2.9,0.78c-2.08,0-4.01-1.12-5.04-2.91c-0.78-1.34-0.99-2.91-0.58-4.41c0.4-1.5,1.36-2.75,2.7-3.53
		c0.89-0.51,1.89-0.78,2.9-0.78c2.08,0,4.01,1.11,5.04,2.91C247.31,37.4,246.35,40.97,243.58,42.57z"/>
</g>
<g>
	<rect x="5" y="141" class="st1" width="6" height="6"/>
	<rect x="5" y="148" class="st1" width="6" height="6"/>
	<rect x="5" y="155" class="st1" width="6" height="6"/>
	<rect x="12" y="141" class="st1" width="6" height="6"/>
	<rect x="12" y="148" class="st1" width="6" height="6"/>
	<rect x="12" y="155" class="st1" width="6" height="6"/>
	<rect x="19" y="141" class="st1" width="6" height="6"/>
	<rect x="19" y="148" class="st1" width="6" height="6"/>
	<rect x="19" y="155" class="st1" width="6" height="6"/>
</g>
<g>
	<rect x="67" y="141" class="st2" width="6" height="6"/>
	<rect x="67" y="148" class="st2" width="6" height="6"/>
	<rect x="67" y="155" class="st2" width="6" height="6"/>
	<rect x="74" y="141" class="st2" width="6" height="6"/>
	<rect x="74" y="148" class="st2" width="6" height="6"/>
	<rect x="74" y="155" class="st2" width="6" height="6"/>
	<rect x="81" y="141" class="st2" width="6" height="6"/>
	<rect x="81" y="148" class="st2" width="6" height="6"/>
	<rect x="81" y="155" class="st2" width="6" height="6"/>
</g>
<g>
	<rect x="98" y="141" class="st2" width="19" height="6"/>
	<rect x="98" y="148" class="st2" width="19" height="6"/>
	<rect x="98" y="155" class="st2" width="19" height="6"/>
</g>
<g>
	<path class="st3" d="M133.648,148.388c0.465-0.039,0.922,0.118,1.243,0.44c0.322,0.322,0.483,0.776,0.441,1.245
		c-0.046,0.52,0.338,0.98,0.858,1.026c0.028,0.002,0.057,0.004,0.085,0.004c0.485,0,0.897-0.37,0.941-0.862
		c0.091-1.028-0.269-2.03-0.988-2.75c-0.719-0.719-1.726-1.079-2.75-0.987c-0.52,0.047-0.905,0.506-0.858,1.027
		C132.668,148.051,133.134,148.429,133.648,148.388z"/>
	<path class="st3" d="M138.513,145.207c-1.249-1.249-2.911-1.944-4.68-1.956c-0.002,0-0.004,0-0.006,0
		c-0.52,0-0.942,0.419-0.946,0.94c-0.004,0.522,0.417,0.948,0.94,0.952c1.268,0.009,2.46,0.506,3.355,1.402
		c0.895,0.895,1.394,2.087,1.403,3.356c0.004,0.52,0.427,0.939,0.946,0.939c0.002,0,0.004,0,0.007,0
		c0.522-0.004,0.943-0.431,0.939-0.953C140.457,148.117,139.762,146.455,138.513,145.207z"/>
	<path class="st3" d="M139.434,155.049c-1.025-0.67-2.017-1.397-2.968-2.163c-0.313-0.254-0.718-0.244-1.028,0.009
		c-0.365,0.297-0.58,0.785-0.937,1.163c-0.288,0.304-1.371,0.333-3.293-1.548c-1.881-1.921-1.852-3.005-1.547-3.292
		c0.377-0.357,0.865-0.572,1.163-0.937c0.252-0.31,0.262-0.716,0.008-1.028c-0.766-0.951-1.492-1.942-2.162-2.967
		c-0.223-0.338-0.62-0.509-1.011-0.394c-0.381,0.113-1.322,0.708-1.636,1.047c-1.104,1.195-0.556,4.791,3.705,9.052
		s7.857,4.809,9.052,3.705c0.339-0.313,0.935-1.254,1.046-1.636C139.943,155.669,139.771,155.272,139.434,155.049z"/>
</g>
<g>
	<path class="st4" d="M154.195,148.528c0.465-0.039,0.922,0.118,1.243,0.44c0.322,0.322,0.483,0.776,0.441,1.245
		c-0.046,0.52,0.338,0.98,0.858,1.026c0.028,0.002,0.057,0.004,0.085,0.004c0.485,0,0.897-0.37,0.941-0.862
		c0.091-1.028-0.269-2.03-0.988-2.75c-0.719-0.719-1.726-1.079-2.75-0.987c-0.52,0.047-0.905,0.506-0.858,1.027
		C153.215,148.191,153.68,148.569,154.195,148.528z"/>
	<path class="st4" d="M159.059,145.347c-1.249-1.249-2.911-1.944-4.68-1.956c-0.002,0-0.004,0-0.006,0
		c-0.52,0-0.942,0.419-0.946,0.94c-0.004,0.522,0.417,0.948,0.94,0.952c1.268,0.009,2.46,0.506,3.355,1.402
		c0.895,0.895,1.394,2.087,1.403,3.356c0.004,0.52,0.427,0.939,0.946,0.939c0.002,0,0.004,0,0.007,0
		c0.522-0.004,0.943-0.431,0.939-0.953C161.003,148.257,160.309,146.595,159.059,145.347z"/>
	<path class="st4" d="M159.981,155.189c-1.025-0.67-2.017-1.397-2.968-2.163c-0.313-0.254-0.718-0.244-1.028,0.009
		c-0.365,0.297-0.58,0.785-0.937,1.163c-0.288,0.304-1.371,0.333-3.293-1.548c-1.881-1.921-1.852-3.005-1.547-3.292
		c0.377-0.357,0.865-0.572,1.163-0.937c0.253-0.31,0.262-0.716,0.008-1.028c-0.766-0.951-1.492-1.942-2.162-2.967
		c-0.223-0.338-0.62-0.509-1.011-0.394c-0.381,0.113-1.322,0.708-1.636,1.047c-1.104,1.195-0.556,4.791,3.706,9.052
		c4.261,4.261,7.857,4.809,9.052,3.705c0.339-0.313,0.935-1.254,1.046-1.636C160.489,155.809,160.318,155.412,159.981,155.189z"/>
</g>
<g>
	<rect x="40" y="141" class="st1" width="19" height="6"/>
	<rect x="40" y="148" class="st1" width="19" height="6"/>
	<rect x="40" y="155" class="st1" width="19" height="6"/>
</g>
<path d="M237.5,155.71h2.83c2.61,0,4.13-1.09,4.13-3.31c0-2.06-0.95-3.32-3.95-3.32h-3.01L237.5,155.71L237.5,155.71z M235.85,147.8
	h5.49c3.07,0,4.77,1.61,4.77,4.24c0,2.04-0.88,3.86-3.33,4.29v0.05c2.3,0.19,3.07,1.39,3.15,4l0.05,1.85
	c0.03,0.92,0.13,1.82,0.78,2.49h-1.94c-0.39-0.6-0.46-1.47-0.49-2.37l-0.05-1.42c-0.1-2.99-0.7-3.94-3.66-3.94h-3.12v7.73h-1.65
	V147.8z"/>
<polygon points="251.32,147.8 260.45,147.8 260.45,149.08 252.97,149.08 252.97,155.24 259.96,155.24 259.96,156.52 252.97,156.52 
	252.97,163.44 260.68,163.44 260.68,164.72 251.32,164.72 "/>
<polygon points="265.35,147.8 267.57,147.8 274.61,162.54 274.66,162.54 274.66,147.8 276.31,147.8 276.31,164.72 274.1,164.72 
	267.05,149.98 267,149.98 267,164.72 265.35,164.72 "/>
<path d="M287.51,163.72c2.63,0,4.23-1.99,4.23-7.46s-1.6-7.46-4.23-7.46s-4.23,1.99-4.23,7.46S284.88,163.72,287.51,163.72z
	 M287.51,147.52c3.76,0,5.88,2.67,5.88,8.74c0,6.06-2.12,8.74-5.88,8.74c-3.77,0-5.88-2.68-5.88-8.74
	C281.63,150.19,283.74,147.52,287.51,147.52z"/>
<polygon points="297.34,147.8 299.09,147.8 303.19,163.1 303.24,163.1 307.34,147.8 309.1,147.8 304.25,164.72 302.18,164.72 "/>
<path d="M320.11,158.51l-2.83-9.52h-0.06l-2.83,9.52H320.11z M316.22,147.8h2.06l5.44,16.92h-1.75l-1.5-4.93h-6.44l-1.5,4.93h-1.75
	L316.22,147.8z"/>
<polygon points="329.76,149.08 325.02,149.08 325.02,147.8 336.16,147.8 336.16,149.08 331.41,149.08 331.41,164.72 329.76,164.72 
	"/>
<rect x="340.44" y="147.8" width="1.65" height="16.92"/>
<path d="M353.39,163.72c2.63,0,4.23-1.99,4.23-7.46s-1.6-7.46-4.23-7.46s-4.23,1.99-4.23,7.46S350.76,163.72,353.39,163.72z
	 M353.39,147.52c3.76,0,5.88,2.67,5.88,8.74c0,6.06-2.12,8.74-5.88,8.74c-3.77,0-5.88-2.68-5.88-8.74
	C347.51,150.19,349.62,147.52,353.39,147.52z"/>
<polygon points="364.58,147.8 366.8,147.8 373.84,162.54 373.89,162.54 373.89,147.8 375.54,147.8 375.54,164.72 373.33,164.72 
	366.28,149.98 366.23,149.98 366.23,164.72 364.58,164.72 "/>
<path d="M389.08,152.14c0-2.09-1.05-3.34-3.3-3.34c-2.24,0-3.48,1.35-3.48,3.03c0,5.04,8.93,2.27,8.93,8.22
	c0,3.27-2.22,4.95-5.58,4.95c-3.45,0-5.36-1.71-5.36-5.02v-0.5h1.65v0.64c0,2.16,1.24,3.6,3.66,3.6c2.32,0,3.97-1.07,3.97-3.43
	c0-5.03-8.92-2.16-8.92-8.3c0-2.65,1.88-4.47,5.08-4.47c3.43,0,5.01,1.61,5.01,4.62H389.08z"/>
<path class="st5" d="M194.31,79.01c-1.39,0-2.53,1.13-2.53,2.52v13.23c0,1.38-1.13,2.52-2.53,2.52h-14.11
	c-1.39,0-2.53,1.14-2.53,2.53v1.22c0,1.39,1.14,2.52,2.53,2.52l20.56-0.01c1.39,0,2.53-1.13,2.53-2.52l-0.01-19.49
	c0-1.39-1.14-2.53-2.54-2.53L194.31,79.01z"/>
<path class="st6" d="M208.56,79c1.4,0,2.54,1.13,2.54,2.52v13.23c0,1.38,1.14,2.52,2.54,2.52l14.11-0.01c1.39,0,2.53,1.14,2.53,2.52
	v1.23c0,1.38-1.14,2.52-2.53,2.52l-20.55,0.01c-1.39,0-2.53-1.14-2.53-2.52l-0.01-19.5c0-1.38,1.14-2.52,2.53-2.52H208.56z"/>
<path class="st7" d="M194.33,134.08c-1.39,0-2.53-1.13-2.53-2.52l-0.01-13.36c0-1.39-1.14-2.52-2.53-2.52l-14.11,0.01
	c-1.39,0-2.53-1.14-2.53-2.52l-0.01-1.1c0-1.38,1.14-2.52,2.54-2.52l20.55-0.01c1.39,0,2.53,1.14,2.53,2.53l0.01,19.49
	c0,1.38-1.14,2.52-2.53,2.52C195.71,134.08,194.33,134.08,194.33,134.08z"/>
<path class="st8" d="M206.34,137.31c-0.99-0.97-0.98-2.55,0.03-3.51l9.91-9.45c1.01-0.96,1.01-2.53,0-3.49l-9.92-9.44
	c-1.01-0.96-1.01-2.53,0-3.49l0.82-0.78c1-0.96,2.65-0.96,3.66-0.01l14.54,13.72c1.01,0.96,1.01,2.52,0,3.48l-14.53,13.86
	c-1.01,0.96-2.64,0.95-3.63-0.03L206.34,137.31z"/>
<path class="st9" d="M239.12,111.24v7.72c0,1.04,0.85,1.98,1.89,2.09l0.97,0.01c2.46,0,4.25-0.39,5.37-1.17
	c1.12-0.79,1.68-2.18,1.68-4.19c0-1.65-0.6-2.84-1.8-3.57c-1.21-0.73-3.1-1.09-5.7-1.09C241.12,111.04,240.32,111.11,239.12,111.24z
	 M253.36,137.19c-1.04,0-2.35-0.72-2.91-1.6l-5.98-9.5c-0.56-0.88-1.87-1.62-2.91-1.65c0,0-0.46-0.02-2.44-0.15v11.01
	c0,1.04-0.86,1.89-1.9,1.89h-0.3c-1.04,0-1.9-0.85-1.9-1.89v-25.8c0-1.04,0.55-1.92,1.22-1.95l1.97-0.1
	c1.97-0.1,3.41-0.15,4.31-0.15c7.2,0,10.81,2.83,10.81,8.48c0,1.86-0.59,3.54-1.74,5.02c-1.16,1.49-2.54,2.42-4.14,2.78l7.68,12.02
	c0.56,0.88,0.17,1.59-0.88,1.59L253.36,137.19L253.36,137.19z"/>
<path class="st9" d="M265.21,111.24c-1.04,0-1.89,0.85-1.89,1.89v4.44c0,1.04,0.85,1.89,1.89,1.89h6.11c1.05,0,1.9,0.77,1.9,1.72
	c0,0.94-0.85,1.71-1.9,1.71h-6.11c-1.04,0-1.89,0.86-1.89,1.9v6.88c0,1.04,0.85,1.89,1.89,1.89h9.8c1.04,0,1.9,0.82,1.9,1.82
	s-0.86,1.81-1.9,1.81h-13.89c-1.04,0-1.9-0.85-1.9-1.89v-25.8c0-1.04,0.86-1.9,1.9-1.9h14.11c1.05,0,1.9,0.82,1.9,1.82
	s-0.85,1.82-1.9,1.82H265.21z"/>
<path class="st9" d="M287.67,111.24c-1.04,0-1.9,0.85-1.9,1.89v4.44c0,1.04,0.86,1.89,1.9,1.89h6.75c1.04,0,1.89,0.77,1.89,1.72
	c0,0.94-0.85,1.71-1.89,1.71h-6.75c-1.04,0-1.9,0.86-1.9,1.9v10.51c0,1.04-0.85,1.89-1.9,1.89h-0.29c-1.05,0-1.9-0.85-1.9-1.89
	v-25.8c0-1.04,0.85-1.9,1.9-1.9h14.73c1.04,0,1.89,0.82,1.89,1.82s-0.85,1.82-1.89,1.82H287.67z"/>
<path class="st9" d="M307.98,111.24v7.72c0,1.04,0.85,1.98,1.89,2.09l0.98,0.01c2.45,0,4.24-0.39,5.36-1.17
	c1.12-0.79,1.68-2.18,1.68-4.19c0-1.65-0.6-2.84-1.8-3.57c-1.2-0.73-3.1-1.09-5.69-1.09C309.99,111.04,309.18,111.11,307.98,111.24z
	 M322.23,137.19c-1.05,0-2.36-0.72-2.91-1.6l-5.99-9.5c-0.55-0.88-1.86-1.62-2.91-1.65c0,0-0.46-0.02-2.44-0.15v11.01
	c0,1.04-0.85,1.89-1.9,1.89h-0.29c-1.05,0-1.9-0.85-1.9-1.89v-25.8c0-1.04,0.54-1.92,1.21-1.95l1.97-0.1
	c1.97-0.1,3.41-0.15,4.31-0.15c7.21,0,10.81,2.83,10.81,8.48c0,1.86-0.58,3.54-1.74,5.02c-1.16,1.49-2.54,2.42-4.14,2.78l7.68,12.02
	c0.57,0.88,0.17,1.59-0.87,1.59L322.23,137.19L322.23,137.19z"/>
<path class="st9" d="M334.08,111.24c-1.04,0-1.9,0.85-1.9,1.89v4.44c0,1.04,0.86,1.89,1.9,1.89h6.11c1.04,0,1.9,0.77,1.9,1.72
	c0,0.94-0.86,1.71-1.9,1.71h-6.11c-1.04,0-1.9,0.86-1.9,1.9v6.88c0,1.04,0.86,1.89,1.9,1.89h9.79c1.05,0,1.9,0.82,1.9,1.82
	s-0.85,1.81-1.9,1.81h-13.89c-1.04,0-1.89-0.85-1.89-1.89v-25.8c0-1.04,0.85-1.9,1.89-1.9h14.12c1.04,0,1.9,0.82,1.9,1.82
	s-0.86,1.82-1.9,1.82H334.08z"/>
<path class="st9" d="M349.19,135.84l0.79-1.96c0.39-0.97,1.44-1.32,2.34-0.79c0,0,0.08,0.05,1.22,0.42s2.16,0.55,3.06,0.55
	c1.6,0,2.88-0.43,3.85-1.29s1.46-1.96,1.46-3.29c0-1-0.28-1.92-0.81-2.78c-0.54-0.85-1.9-1.79-4.07-2.8l-0.69-0.31
	c-0.95-0.44-2.46-1.23-3.35-1.76c0,0-1.85-1.1-2.66-2.39s-1.22-2.85-1.22-4.67c0-2.2,0.79-4.04,2.37-5.49
	c1.59-1.45,3.62-2.18,6.1-2.18c3.32,0,5.63,0.53,6.93,1.6l-0.6,1.72c-0.34,0.98-1.23,1.44-1.99,1.02l-1.12-0.36
	c-1.12-0.37-2.16-0.55-3.11-0.55c-1.39,0-2.49,0.39-3.29,1.17c-0.8,0.79-1.2,1.79-1.2,3.01c0,0.76,0.15,1.45,0.43,2.06
	c0.29,0.62,0.69,1.14,1.2,1.56s1.56,1,3.14,1.76l0.74,0.34c0.95,0.45,2.45,1.25,3.35,1.79c0,0,1.85,1.12,2.68,2.44
	c0.83,1.33,1.24,3.02,1.24,5.06c0,2.22-0.91,4.11-2.71,5.66c-1.81,1.55-4.23,2.32-7.26,2.32
	C353.35,137.7,351.08,137.08,349.19,135.84z"/>
<path class="st9" d="M389.8,137.19c-1.04,0-1.9-0.85-1.9-1.89v-10.51c0-1.04-0.85-1.9-1.9-1.9h-9.3c-1.04,0-1.9,0.86-1.9,1.9v10.51
	c0,1.04-0.85,1.89-1.9,1.89h-0.29c-1.05,0-1.9-0.85-1.9-1.89v-25.8c0-1.04,0.85-1.9,1.9-1.9h0.29c1.05,0,1.9,0.86,1.9,1.9v8.07
	c0,1.04,0.86,1.89,1.9,1.89h9.3c1.05,0,1.9-0.85,1.9-1.89v-8.07c0-1.04,0.86-1.9,1.9-1.9h0.3c1.04,0,1.9,0.86,1.9,1.9v25.8
	c0,1.04-0.86,1.89-1.9,1.89H389.8z"/>
<path class="st9" d="M397.53,110.66h0.43c0.45,0,0.87-0.14,0.87-0.52c0-0.33-0.22-0.57-0.81-0.57c-0.25,0-0.39,0.02-0.49,0.04
	V110.66L397.53,110.66z M397.53,112.57h-0.63v-3.38c0.35-0.06,0.71-0.11,1.18-0.11c0.57,0,0.85,0.11,1.06,0.27
	c0.2,0.14,0.34,0.4,0.34,0.73c0,0.4-0.3,0.66-0.65,0.79v0.04c0.29,0.12,0.45,0.38,0.55,0.83c0.1,0.5,0.18,0.7,0.26,0.83h-0.65
	c-0.1-0.13-0.18-0.43-0.28-0.87c-0.08-0.39-0.3-0.55-0.77-0.55h-0.41V112.57L397.53,112.57z M398.1,108.13
	c-1.46,0-2.58,1.2-2.58,2.65c0,1.5,1.12,2.68,2.62,2.68c1.44,0.02,2.54-1.18,2.54-2.65c0-1.48-1.1-2.68-2.56-2.68
	C398.12,108.13,398.1,108.13,398.1,108.13z M398.14,107.57c1.83,0,3.25,1.41,3.25,3.21c0,1.85-1.42,3.26-3.27,3.26
	s-3.31-1.41-3.31-3.26c0-1.8,1.46-3.21,3.31-3.21H398.14z"/>
<g>
	<rect x="11" y="181" class="st0" width="237" height="51"/>
	<g>
		<g>
			<path d="M125.238,205.891h4.294c2.399,0,3.729,1.264,3.729,3.328c0,1.599-0.686,3.03-2.601,3.365v0.037
				c1.794,0.149,2.399,1.097,2.459,3.142l0.04,1.45c0.02,0.725,0.101,1.432,0.605,1.953h-1.512
				c-0.302-0.465-0.363-1.152-0.383-1.859l-0.041-1.115c-0.081-2.343-0.545-3.087-2.863-3.087h-2.439v6.061h-1.29v-13.275
				L125.238,205.891L125.238,205.891z M126.528,212.101h2.217c2.036,0,3.226-0.855,3.226-2.603c0-1.618-0.746-2.603-3.084-2.603
				h-2.359C126.528,206.895,126.528,212.101,126.528,212.101z"/>
			<path d="M137.333,205.891h7.136v1.005h-5.846v4.834h5.463v1.003h-5.463v5.43h6.027v1.004h-7.317V205.891L137.333,205.891z"/>
			<path d="M148.3,205.891h1.734l5.503,11.565h0.04v-11.565h1.29v13.275h-1.734l-5.503-11.565h-0.041v11.565h-1.29v-13.275H148.3z"
				/>
			<path d="M165.617,205.668c2.943,0,4.596,2.101,4.596,6.86c0,4.76-1.653,6.86-4.596,6.86s-4.597-2.101-4.597-6.86
				S162.673,205.668,165.617,205.668z M165.617,218.386c2.057,0,3.306-1.561,3.306-5.857c0-4.295-1.249-5.856-3.306-5.856
				s-3.306,1.561-3.306,5.856C162.31,216.824,163.56,218.386,165.617,218.386z"/>
			<path d="M173.297,205.891h1.371l3.205,12.011h0.04l3.205-12.011h1.37l-3.79,13.275h-1.613L173.297,205.891z"/>
			<path d="M188.056,205.891h1.613l4.254,13.275h-1.372l-1.169-3.867h-5.039l-1.17,3.867h-1.37L188.056,205.891z M191.1,214.295
				l-2.217-7.473h-0.04l-2.217,7.473H191.1z"/>
			<path d="M198.642,206.895h-3.709v-1.005h8.708v1.005h-3.709v12.271h-1.29V206.895z"/>
			<path d="M206.987,205.891h1.29v13.275h-1.29V205.891z"/>
			<path d="M217.107,205.668c2.943,0,4.596,2.101,4.596,6.86c0,4.76-1.653,6.86-4.596,6.86s-4.596-2.101-4.596-6.86
				S214.164,205.668,217.107,205.668z M217.107,218.386c2.056,0,3.306-1.561,3.306-5.857c0-4.295-1.25-5.856-3.306-5.856
				c-2.057,0-3.306,1.561-3.306,5.856S215.051,218.386,217.107,218.386z"/>
			<path d="M225.856,205.891h1.733l5.504,11.565h0.04v-11.565h1.29v13.275h-1.733l-5.504-11.565h-0.04v11.565h-1.29V205.891z"/>
			<path d="M245.007,209.293c0-1.636-0.826-2.621-2.581-2.621c-1.754,0-2.721,1.06-2.721,2.38c0,3.96,6.975,1.784,6.975,6.452
				c0,2.566-1.733,3.886-4.354,3.886c-2.701,0-4.193-1.338-4.193-3.941v-0.391h1.29v0.502c0,1.693,0.968,2.827,2.863,2.827
				c1.814,0,3.104-0.837,3.104-2.696c0-3.941-6.975-1.692-6.975-6.507c0-2.082,1.471-3.514,3.972-3.514
				c2.68,0,3.91,1.264,3.91,3.626h-1.29L245.007,209.293L245.007,209.293z"/>
		</g>
		<g>
			<path class="st10" d="M28.281,193.07c-0.622,0.001-1.131,0.51-1.13,1.132l0.002,5.931c0.001,0.622-0.508,1.131-1.13,1.132
				l-6.301,0.002c-0.622,0-1.13,0.509-1.13,1.131v0.549c0,0.622,0.509,1.131,1.132,1.13l9.178-0.004
				c0.622-0.001,1.13-0.51,1.13-1.131l-0.003-8.741c-0.001-0.622-0.51-1.13-1.132-1.13h-0.616
				C28.281,193.071,28.281,193.07,28.281,193.07z"/>
		</g>
		<g>
			<path class="st11" d="M34.647,193.068c0.622,0,1.132,0.508,1.132,1.13l0.002,5.93c0,0.622,0.509,1.13,1.131,1.13l6.302-0.002
				c0.622,0,1.131,0.508,1.131,1.13l0.001,0.549c0,0.622-0.508,1.132-1.13,1.132l-9.178,0.004c-0.622,0-1.131-0.508-1.132-1.13
				l-0.003-8.741c-0.001-0.622,0.508-1.131,1.13-1.131L34.647,193.068z"/>
		</g>
		<g>
			<path class="st12" d="M28.292,217.767c-0.622,0-1.131-0.508-1.131-1.131l-0.002-5.99c0-0.622-0.509-1.13-1.131-1.13l-6.303,0.003
				c-0.622,0.001-1.131-0.508-1.131-1.13l-0.001-0.489c0-0.622,0.508-1.131,1.13-1.131l9.179-0.004c0.622,0,1.131,0.508,1.131,1.13
				l0.003,8.74c0.001,0.622-0.508,1.131-1.13,1.132L28.292,217.767L28.292,217.767z"/>
		</g>
		<g>
			<path class="st13" d="M33.655,219.216c-0.443-0.436-0.438-1.146,0.011-1.575l4.428-4.239c0.449-0.431,0.449-1.134-0.001-1.564
				l-4.43-4.235c-0.45-0.43-0.45-1.133-0.001-1.563l0.365-0.349c0.45-0.43,1.187-0.432,1.638-0.004l6.489,6.154
				c0.452,0.428,0.453,1.13,0.004,1.56l-6.49,6.212c-0.449,0.43-1.179,0.425-1.622-0.011L33.655,219.216z"/>
		</g>
		<g>
			<path class="st14" d="M54.652,219.163c-0.466,0-1.051-0.323-1.299-0.718l-2.672-4.26c-0.248-0.395-0.832-0.73-1.298-0.742
				c0,0-0.207-0.006-1.09-0.066v4.939c0,0.466-0.382,0.848-0.848,0.848H47.31c-0.467,0-0.848-0.382-0.848-0.848v-11.573
				c0-0.467,0.244-0.858,0.541-0.87c0,0,0,0,0.881-0.045s1.522-0.068,1.924-0.068c3.218,0,4.828,1.268,4.828,3.804
				c0,0.834-0.259,1.584-0.777,2.251s-1.133,1.082-1.846,1.245l3.429,5.389c0.251,0.394,0.074,0.715-0.393,0.715L54.652,219.163
				L54.652,219.163z M48.291,207.525v3.463c0,0.467,0.38,0.889,0.843,0.936c0,0,0.022,0.002,0.436,0.002
				c1.097,0,1.896-0.175,2.395-0.525c0.499-0.35,0.75-0.975,0.75-1.875c0-0.742-0.268-1.277-0.804-1.603
				c-0.537-0.326-1.384-0.489-2.542-0.489C49.187,207.434,48.827,207.464,48.291,207.525z"/>
			<path class="st14" d="M59.944,207.525c-0.467,0-0.848,0.382-0.848,0.849v1.989c0,0.467,0.381,0.849,0.848,0.849h2.728
				c0.467,0,0.848,0.346,0.848,0.77c0,0.423-0.382,0.77-0.848,0.77h-2.728c-0.467,0-0.848,0.381-0.848,0.848v3.086
				c0,0.467,0.381,0.849,0.848,0.849h4.374c0.467,0,0.849,0.366,0.849,0.815c0,0.448-0.382,0.815-0.849,0.815h-6.202
				c-0.467,0-0.848-0.382-0.848-0.848v-11.573c0-0.467,0.381-0.848,0.848-0.848h6.303c0.467,0,0.849,0.367,0.849,0.815
				c0,0.449-0.382,0.815-0.849,0.815L59.944,207.525L59.944,207.525z"/>
			<path class="st14" d="M69.973,207.525c-0.467,0-0.849,0.382-0.849,0.849v1.989c0,0.467,0.382,0.849,0.849,0.849h3.012
				c0.466,0,0.848,0.346,0.848,0.77c0,0.423-0.382,0.77-0.848,0.77h-3.012c-0.467,0-0.849,0.381-0.849,0.848v4.716
				c0,0.466-0.381,0.848-0.848,0.848h-0.132c-0.467,0-0.848-0.382-0.848-0.848v-11.573c0-0.467,0.382-0.848,0.848-0.848h6.577
				c0.466,0,0.848,0.367,0.848,0.815c0,0.449-0.382,0.815-0.848,0.815L69.973,207.525L69.973,207.525z"/>
			<path class="st14" d="M85.404,219.163c-0.467,0-1.051-0.323-1.299-0.718l-2.672-4.26c-0.248-0.395-0.832-0.73-1.299-0.742
				c0,0-0.207-0.006-1.09-0.066v4.939c0,0.466-0.382,0.848-0.848,0.848h-0.132c-0.466,0-0.848-0.382-0.848-0.848v-11.573
				c0-0.467,0.243-0.858,0.541-0.87c0,0,0,0,0.881-0.045s1.522-0.068,1.925-0.068c3.217,0,4.826,1.268,4.826,3.804
				c0,0.834-0.259,1.584-0.777,2.251s-1.134,1.082-1.847,1.245l3.429,5.389c0.251,0.394,0.074,0.715-0.393,0.715L85.404,219.163
				L85.404,219.163z M79.043,207.525v3.463c0,0.467,0.38,0.889,0.844,0.936c0,0,0.022,0.002,0.436,0.002
				c1.097,0,1.895-0.175,2.394-0.525c0.499-0.35,0.75-0.975,0.75-1.875c0-0.742-0.268-1.277-0.804-1.603s-1.384-0.489-2.542-0.489
				C79.939,207.434,79.579,207.464,79.043,207.525z"/>
			<path class="st14" d="M90.696,207.525c-0.466,0-0.848,0.382-0.848,0.849v1.989c0,0.467,0.382,0.849,0.848,0.849h2.728
				c0.467,0,0.849,0.346,0.849,0.77c0,0.423-0.382,0.77-0.849,0.77h-2.728c-0.466,0-0.848,0.381-0.848,0.848v3.086
				c0,0.467,0.382,0.849,0.848,0.849h4.374c0.467,0,0.849,0.366,0.849,0.815c0,0.448-0.382,0.815-0.849,0.815h-6.202
				c-0.466,0-0.848-0.382-0.848-0.848v-11.573c0-0.467,0.382-0.848,0.848-0.848h6.303c0.467,0,0.849,0.367,0.849,0.815
				c0,0.449-0.382,0.815-0.849,0.815L90.696,207.525L90.696,207.525z"/>
			<path class="st14" d="M97.445,218.556l0.352-0.879c0.173-0.433,0.644-0.593,1.045-0.355c0,0,0.037,0.022,0.545,0.188
				c0.509,0.166,0.965,0.249,1.367,0.249c0.713,0,1.286-0.193,1.719-0.58c0.432-0.386,0.649-0.878,0.649-1.476
				c0-0.447-0.121-0.862-0.361-1.245c-0.241-0.383-0.846-0.802-1.815-1.254l-0.308-0.143c-0.423-0.196-1.098-0.551-1.499-0.789
				c0,0-0.823-0.49-1.187-1.07c-0.362-0.58-0.544-1.277-0.544-2.092c0-0.99,0.354-1.811,1.06-2.463
				c0.707-0.652,1.615-0.978,2.724-0.978c1.481,0,2.51,0.238,3.09,0.716l-0.265,0.773c-0.151,0.441-0.552,0.647-0.89,0.459
				c0,0,0,0-0.499-0.163s-0.963-0.245-1.389-0.245c-0.622,0-1.111,0.175-1.467,0.525c-0.357,0.35-0.534,0.8-0.534,1.349
				c0,0.339,0.064,0.646,0.192,0.924c0.128,0.277,0.306,0.51,0.534,0.698c0.229,0.187,0.696,0.45,1.404,0.788l0.329,0.155
				c0.423,0.199,1.094,0.559,1.493,0.8c0,0,0.83,0.502,1.199,1.097c0.369,0.595,0.553,1.351,0.553,2.269
				c0,0.996-0.404,1.842-1.211,2.536c-0.808,0.695-1.888,1.042-3.241,1.042C99.301,219.389,98.286,219.112,97.445,218.556z"/>
			<path class="st14" d="M115.58,219.163c-0.466,0-0.848-0.382-0.848-0.848v-4.716c0-0.467-0.382-0.848-0.849-0.848h-4.154
				c-0.467,0-0.849,0.381-0.849,0.848v4.716c0,0.466-0.382,0.848-0.848,0.848H107.9c-0.467,0-0.849-0.382-0.849-0.848v-11.573
				c0-0.467,0.382-0.848,0.849-0.848h0.132c0.466,0,0.848,0.382,0.848,0.848v3.62c0,0.467,0.382,0.849,0.849,0.849h4.154
				c0.467,0,0.849-0.382,0.849-0.849v-3.62c0-0.467,0.382-0.848,0.848-0.848h0.132c0.467,0,0.849,0.382,0.849,0.848v11.572
				c0,0.466-0.382,0.848-0.849,0.848L115.58,219.163L115.58,219.163z"/>
		</g>
		<g>
			<path class="st14" d="M119.303,205.877c0.817,0,1.451,0.635,1.451,1.443c0,0.826-0.635,1.461-1.461,1.461
				s-1.479-0.635-1.479-1.461c0-0.808,0.653-1.443,1.479-1.443C119.294,205.877,119.303,205.877,119.303,205.877z M119.285,206.132
				c-0.653,0-1.152,0.536-1.152,1.188c0,0.671,0.499,1.198,1.171,1.198c0.644,0.009,1.134-0.527,1.134-1.188
				c0-0.663-0.49-1.198-1.144-1.198H119.285z M119.031,208.12h-0.282v-1.515c0.154-0.027,0.317-0.045,0.526-0.045
				c0.255,0,0.381,0.045,0.472,0.118c0.091,0.063,0.154,0.181,0.154,0.327c0,0.181-0.137,0.299-0.29,0.354v0.018
				c0.127,0.054,0.199,0.172,0.245,0.372c0.045,0.227,0.082,0.318,0.118,0.372h-0.291c-0.045-0.055-0.082-0.19-0.128-0.391
				c-0.036-0.173-0.135-0.245-0.345-0.245h-0.181L119.031,208.12L119.031,208.12z M119.031,207.266h0.19
				c0.2,0,0.391-0.063,0.391-0.236c0-0.145-0.1-0.254-0.363-0.254c-0.109,0-0.173,0.009-0.218,0.018V207.266L119.031,207.266z"/>
		</g>
	</g>
</g>
<g>
	<path class="st3" d="M144,243v61h61v-61H144L144,243z M174.5,303.509c-16.573,0-30.009-13.435-30.009-30.009
		s13.435-30.009,30.009-30.009s30.009,13.435,30.009,30.009S191.073,303.509,174.5,303.509z"/>
</g>
<path class="st3" d="M172.373,258.579c-0.009-0.04-0.02-0.088-0.009-0.137c0.285-1.269,0.836-1.821,1.505-2.046
	c0.994-2.283,3.138-3.689,5.372-3.366c0.61,0.088,1.023,0.639,0.944,1.249c-0.088,0.601-0.639,1.032-1.249,0.935
	c-1.023-0.137-2.046,0.422-2.705,1.417c0.453,0.314,0.817,0.855,1.023,1.81c0.009,0.049,0.009,0.099-0.009,0.137
	c-0.009,0.029-0.04,0.059-0.059,0.059h-4.752C172.412,258.638,172.383,258.608,172.373,258.579z M181.719,258.579
	c-0.02-0.04-0.02-0.088-0.009-0.137c0.404-1.821,1.357-2.184,2.44-2.184c1.092,0,2.046,0.364,2.451,2.184
	c0.009,0.049,0,0.099-0.009,0.137c-0.009,0.029-0.04,0.059-0.059,0.059h-4.752C181.759,258.638,181.73,258.608,181.719,258.579z
	 M162.563,258.579c-0.02-0.04-0.02-0.088-0.009-0.137c0.404-1.821,1.357-2.184,2.44-2.184s2.046,0.364,2.451,2.184
	c0.009,0.049,0,0.099-0.009,0.137c-0.02,0.029-0.04,0.059-0.059,0.059h-4.752C162.593,258.638,162.574,258.608,162.563,258.579z
	 M189.01,293.585c0,0.61-0.493,1.103-1.103,1.103h-26.672c-0.61,0-1.103-0.493-1.103-1.103s0.493-1.103,1.103-1.103h6.533
	c1.357-4.457,2.046-9.169,2.046-14.02c0-0.994-0.04-1.987-0.099-2.981c1.722,0.365,3.503,0.561,5.324,0.561
	c1.485,0,2.952-0.148,4.378-0.393c-0.049,0.935-0.079,1.879-0.079,2.813c0,4.851,0.689,9.563,2.046,14.02h6.524
	C188.519,292.482,189.01,292.975,189.01,293.585z M195.986,260.309c-0.117-0.168-0.314-0.276-0.531-0.276h-40.831
	c-0.217,0-0.413,0.108-0.531,0.276c-0.117,0.168-0.137,0.384-0.059,0.581c3.443,8.186,11.689,13.47,21.006,13.47
	s17.563-5.284,21.006-13.47C196.123,260.694,196.094,260.477,195.986,260.309z"/>
<g>
	<path class="st3" d="M74,243v61h61v-61H74L74,243z M104.5,303.509c-16.573,0-30.009-13.435-30.009-30.009
		s13.435-30.009,30.009-30.009s30.009,13.435,30.009,30.009S121.073,303.509,104.5,303.509z"/>
</g>
<g>
	<path class="st3" d="M209,243v61h61v-61H209L209,243z M239.5,303.509c-16.573,0-30.009-13.435-30.009-30.009
		s13.435-30.009,30.009-30.009s30.009,13.435,30.009,30.009S256.073,303.509,239.5,303.509z"/>
</g>
<g>
	<path class="st3" d="M279,243v61h61v-61H279L279,243z M309.5,303.509c-16.573,0-30.009-13.435-30.009-30.009
		s13.435-30.009,30.009-30.009s30.009,13.435,30.009,30.009S326.073,303.509,309.5,303.509z"/>
</g>
<g>
	<path class="st3" d="M344,243v61h61v-61H344L344,243z M374.5,303.509c-16.573,0-30.009-13.435-30.009-30.009
		s13.435-30.009,30.009-30.009s30.009,13.435,30.009,30.009S391.073,303.509,374.5,303.509z"/>
</g>
<g>
	<path class="st3" d="M414,243v61h61v-61H414L414,243z M444.5,303.509c-16.573,0-30.009-13.435-30.009-30.009
		s13.435-30.009,30.009-30.009s30.009,13.435,30.009,30.009S461.073,303.509,444.5,303.509z"/>
</g>
<g>
	<path class="st3" d="M479,243v61h61v-61H479L479,243z M509.5,303.509c-16.573,0-30.009-13.435-30.009-30.009
		s13.435-30.009,30.009-30.009c16.573,0,30.009,13.435,30.009,30.009S526.073,303.509,509.5,303.509z"/>
</g>
<g>
	<path class="st3" d="M549,243v61h61v-61H549L549,243z M579.5,303.509c-16.573,0-30.009-13.435-30.009-30.009
		s13.435-30.009,30.009-30.009s30.009,13.435,30.009,30.009S596.073,303.509,579.5,303.509z"/>
</g>
<g>
	<path class="st3" d="M621,243v61h61v-61H621L621,243z M651.5,303.509c-16.573,0-30.009-13.435-30.009-30.009
		s13.435-30.009,30.009-30.009s30.009,13.435,30.009,30.009S668.073,303.509,651.5,303.509z"/>
</g>
<path class="st3" d="M118.455,285.163c0,3.797-3.089,6.887-6.887,6.887c-3.797,0-6.897-3.09-6.897-6.887
	c0-3.808,3.099-6.897,6.897-6.897C115.365,278.265,118.455,281.355,118.455,285.163z M100.952,277.37
	c1.377,1.377,3.611,1.377,4.988,0c0.482-0.482,0.787-1.083,0.935-1.702h-6.858C100.154,276.288,100.47,276.887,100.952,277.37z
	 M105.94,272.381c-1.377-1.377-3.611-1.377-4.988,0c-0.482,0.493-0.798,1.083-0.935,1.712h6.858
	C106.726,273.463,106.421,272.873,105.94,272.381z M96.879,267.432c-0.265-0.265-0.709-0.265-0.974,0
	c-3.562,3.562-4.084,9.308-1.24,13.656c0.137,0.206,0.354,0.314,0.581,0.314c0.128,0,0.256-0.04,0.374-0.108
	c0.325-0.217,0.413-0.639,0.206-0.955c-2.499-3.808-2.046-8.825,1.052-11.934C97.144,268.141,97.144,267.698,96.879,267.432z
	 M122.34,264.805c-1.103-1.103-2.902-1.103-4.014,0l-5.313,5.323l-4.811-4.82l5.313-5.313c1.112-1.112,1.112-2.902,0-4.014
	s-2.902-1.112-4.014,0l-5.323,5.313l-1.781-1.781c-1.269-1.269-3.492-1.269-4.771,0l-4.988,4.988
	c-2.824,2.833-4.378,6.592-4.378,10.597c0,3.995,1.554,7.753,4.378,10.586c2.833,2.824,6.592,4.389,10.586,4.389
	c0.384,0,0.689-0.314,0.689-0.689c0-0.384-0.305-0.689-0.689-0.689c-3.631,0-7.045-1.417-9.613-3.985s-3.975-5.982-3.975-9.613
	c0-3.64,1.408-7.054,3.975-9.622l4.988-4.988c0.778-0.778,2.046-0.778,2.824,0l16.411,16.411c0.61,0.61,0.758,1.584,0.345,2.351
	c-0.177,0.334-0.049,0.747,0.285,0.935c0.345,0.177,0.758,0.049,0.935-0.285c0.689-1.308,0.442-2.942-0.59-3.975l-1.781-1.781
	l5.313-5.323C123.452,267.717,123.452,265.917,122.34,264.805z M93.759,288.036c0.276,0.265,0.276,0.709,0,0.974l-0.669,0.669
	c-0.296,0.305-0.698,0.462-1.122,0.462s-0.817-0.168-1.122-0.462l-2.528-2.528c-0.619-0.619-0.61-1.624,0-2.243l0.827-0.826
	c0.276-0.265,0.709-0.276,0.974,0c0.276,0.265,0.276,0.698,0,0.974l-0.827,0.827c-0.079,0.079-0.079,0.217,0,0.296l2.528,2.528
	c0.088,0.079,0.217,0.079,0.296,0l0.669-0.669C93.06,287.769,93.493,287.769,93.759,288.036z"/>
<path class="st3" d="M315.674,272.91l-2.882-2.411l11.216-13.361l2.873,2.42L315.674,272.91z M331.122,254.885l-3.257-2.736
	c-0.236-0.206-0.522-0.296-0.816-0.296c-0.374,0-0.738,0.157-1.003,0.462l-14.482,17.267l-2.037,7.173
	c-0.108,0.334-0.02,0.522,0.188,0.522c0.088,0,0.197-0.029,0.325-0.099l6.749-3.207l14.493-17.267
	C331.732,256.154,331.672,255.338,331.122,254.885z M319.926,283.644c-0.433-1.191-1.122-2.243-1.536-2.813
	c0.689-0.099,2.056-0.374,3.404-0.964L319.926,283.644z M323.142,268.472l-1.18,1.417l1.485,4.093
	c0.404,1.092,0.364,1.998-0.108,2.765c-1.122,1.77-4.398,2.451-5.558,2.559c-0.57,0.049-1.003,0.334-1.191,0.787
	c-0.188,0.442-0.079,0.955,0.285,1.388c0.63,0.787,2.194,3.138,1.781,4.663c-0.168,0.601-0.639,1.032-1.465,1.337l-23.446,8.53
	c-0.099,0.04-0.236,0-0.285-0.128l-10.064-27.667c-0.029-0.069-0.009-0.137,0.009-0.168c0.009-0.029,0.049-0.088,0.117-0.108
	l33.187-12.073c0.069,0,0.168,0.049,0.206,0.148l1.299,3.552l1.18-1.408l-0.984-2.685c-0.325-0.915-1.408-1.427-2.322-1.092
	l-33.108,12.053c-0.462,0.168-0.827,0.502-1.023,0.944c-0.206,0.433-0.226,0.935-0.069,1.388l10.075,27.657
	c0.256,0.718,0.944,1.2,1.702,1.2c0.217,0,0.422-0.04,0.619-0.108l23.456-8.54c0.994-0.364,1.594-0.886,1.978-1.417
	c0.188-0.197,5.037-10.095,5.037-10.095c0.679-1.171,0.747-2.519,0.197-4.033L323.142,268.472z M292.918,272.526l4.133-1.496
	c0.117,2.184-0.875,4.309-2.627,5.628L292.918,272.526z M298.142,270.627l12.131-4.409l-0.393-1.063l-11.925,4.338
	c-0.059-0.256-0.137-0.522-0.236-0.778l-0.188-0.531l-1.063,0.384l0.197,0.531c0.088,0.256,0.168,0.522,0.226,0.787l-4.358,1.584
	l-0.55-1.516l-1.052,0.384l0.55,1.516l-1.732,0.63l0.384,1.063l1.732-0.63l1.584,4.338c-0.246,0.128-0.482,0.236-0.747,0.334
	l-0.522,0.188l0.384,1.063l0.531-0.197c0.256-0.088,0.502-0.197,0.738-0.314l4.024,11.059l1.063-0.384l-4.104-11.255
	C297.128,276.156,298.408,273.421,298.142,270.627z"/>
<path class="st3" d="M350.063,271.797l8.166-1.436l3.178,18.073l-8.157,1.436L350.063,271.797z M356.399,260.01l1.446,8.166
	l-8.106,1.427C349.434,265.255,352.229,261.25,356.399,260.01z M363.602,288.04l-3.187-18.064l6.572-1.16l0.413-2.322l-7.37,1.299
	l-1.436-8.146c0.157-0.009,0.314-0.029,0.473-0.029c3.788,0,7.103,2.272,8.55,5.628l0.59-3.346c-2.126-2.756-5.45-4.497-9.14-4.497
	c-0.669,0-1.348,0.059-2.017,0.177c-6.287,1.103-10.488,7.114-9.386,13.401l3.591,20.367c0.049,0.296,0.217,0.551,0.462,0.718
	c0.188,0.137,0.404,0.206,0.63,0.206c0.069,0,0.128-0.009,0.197-0.02l10.645-1.879L363.602,288.04z M397.025,255.189l-24.725-4.358
	l-0.099-0.009c-0.256,0-0.493,0.197-0.541,0.462l-7.163,40.595c-0.049,0.305,0.148,0.59,0.453,0.65l24.725,4.358h0.088
	c0.265,0,0.502-0.188,0.551-0.453l7.163-40.604C397.526,255.533,397.319,255.238,397.025,255.189z"/>
<g>
	<g>
		<polygon class="st3" points="446.527,271.867 451.141,271.867 451.928,268.176 447.313,268.176 		"/>
		<g>
			<polygon class="st3" points="449.645,257.168 448.927,260.572 450.374,260.572 			"/>
		</g>
		<polygon class="st3" points="444.913,279.472 444.599,280.928 445.07,283.162 448.741,283.162 449.528,279.472 		"/>
	</g>
	<path class="st3" d="M436.215,278.665h-4.959l2.48-11.669l-2.204-10.351c-0.069-0.029-0.128-0.069-0.197-0.099l-7.989,37.605h4.614
		l2.351-11.05h6.848L436.215,278.665z"/>
	<path class="st3" d="M452.774,255.299l1.456,6.858h-15.269l-1.456-6.858L452.774,255.299L452.774,255.299z M456.631,273.451H441.36
		l-1.456-6.858h15.271L456.631,273.451z M457.576,277.889l1.456,6.858h-15.26l-1.465-6.858H457.576z M432.891,255.299l8.265,38.853
		h4.614l-1.052-4.968h15.26l1.063,4.968h4.614l-8.265-38.882c1.092-0.157,1.929-1.072,1.929-2.184c0-1.229-1.003-2.223-2.254-2.223
		H432.89c-1.249,0-2.263,0.994-2.263,2.223C430.628,254.304,431.64,255.299,432.891,255.299z"/>
</g>
<path class="st3" d="M503.522,275.575c-0.855,0-1.633-0.226-2.243-0.59v14.758c0,0.778,0.639,1.417,1.417,1.417h2.243
	c0.778,0,1.417-0.639,1.417-1.417v-15.191C505.717,275.162,504.694,275.575,503.522,275.575z M496.939,295.341
	c0,0.442,0.365,0.807,0.798,0.807h25.414c0.442,0,0.807-0.364,0.807-0.807v-1.377c0-0.442-0.364-0.798-0.807-0.798h-25.414
	c-0.433,0-0.798,0.354-0.798,0.798V295.341L496.939,295.341z M509.514,288.022c0-0.334,0.265-0.601,0.601-0.601h13.242
	c0.325,0,0.601,0.265,0.601,0.601v1.781c0,0.325-0.276,0.601-0.601,0.601h-13.242c-0.334,0-0.601-0.276-0.601-0.601L509.514,288.022
	L509.514,288.022z M521.163,272.506c1.339,0.128,2.656,0.57,3.66,1.22c0.345,0,0.581-0.246,0.551-0.531l-0.59-7.123
	c-0.188-1.613-1.554-2.922-4.181-3.169c-0.177-0.02-0.364-0.029-0.541-0.029c-2.223,0-4.309,1.279-4.457,3.05v7.3
	c0,0.296,0.246,0.531,0.551,0.531c1.24-0.807,2.922-1.279,4.407-1.279C520.769,272.477,520.966,272.486,521.163,272.506z
	 M524.479,262.028l-0.531-6.12c-0.168-1.465-1.427-2.656-3.817-2.882c-2.204-0.206-4.427,1.023-4.575,2.756v6.287
	c0.009,0.265,0.226,0.473,0.502,0.482c1.289-0.846,3.118-1.279,4.586-1.141c1.211,0.108,2.42,0.512,3.346,1.112
	C524.292,262.521,524.508,262.304,524.479,262.028z M514.157,273.224v-7.3c-0.137-1.77-2.234-3.05-4.457-3.05
	c-0.177,0-0.354,0.009-0.541,0.029c-2.617,0.246-3.995,1.554-4.172,3.138l-0.601,7.153c-0.02,0.285,0.207,0.531,0.512,0.531
	c1.052-0.65,2.371-1.092,3.699-1.22c0.197-0.02,0.404-0.029,0.61-0.029c1.476,0,3.158,0.473,4.398,1.279
	C513.912,273.756,514.157,273.52,514.157,273.224z M505.746,262.521c0.955-0.601,2.164-1.003,3.385-1.112
	c1.456-0.137,3.286,0.296,4.575,1.141c0.276-0.009,0.502-0.217,0.502-0.482v-6.287c-0.137-1.732-2.371-2.961-4.566-2.756
	c-2.391,0.226-3.651,1.417-3.817,2.873l-0.541,6.13C505.264,262.304,505.47,262.521,505.746,262.521z M499.439,262.883
	c-0.148,0-0.285,0-0.433,0.009c-2.627,0.206-3.995,1.496-4.3,3.089l-1.16,7.172c-0.049,0.296,0.157,0.541,0.462,0.551
	c1.092-0.639,2.342-1.063,3.68-1.16c0.148-0.02,0.305-0.02,0.462-0.02c1.476,0,3.001,0.502,4.201,1.368
	c0.305,0,0.561-0.236,0.59-0.522l0.581-7.35C503.522,264.222,501.662,262.883,499.439,262.883z M495.317,261.949l1.052-6.139
	c0.285-1.476,1.536-2.647,3.925-2.824c2.204-0.177,4.113,1.103,4.113,2.844l-0.521,6.327c-0.029,0.265-0.265,0.473-0.541,0.473
	c-1.211-0.875-2.784-1.348-4.25-1.231c-1.22,0.088-2.351,0.473-3.315,1.052C495.465,262.45,495.277,262.225,495.317,261.949z"/>
<g>
	<path class="st3" d="M554.95,279.383c0-6.336,5.165-11.492,11.512-11.492c6.345,0,11.512,5.156,11.512,11.492
		s-5.165,11.481-11.512,11.481C560.115,290.866,554.95,285.719,554.95,279.383z M582.528,290.866h-8.442
		c3.728-2.469,6.188-6.69,6.188-11.481c0-7.605-6.199-13.794-13.814-13.794s-13.814,6.188-13.814,13.794
		c0,7.596,6.199,13.784,13.814,13.784h16.067c0.639,0,1.151-0.512,1.151-1.151C583.68,291.387,583.167,290.866,582.528,290.866z"/>
	<path class="st3" d="M566.462,271.049c-4.605,0-8.343,3.739-8.343,8.334c0,4.585,3.739,8.323,8.343,8.323s8.354-3.739,8.354-8.323
		C574.815,274.789,571.066,271.049,566.462,271.049z M566.462,290.009c-5.874,0-10.646-4.771-10.646-10.626
		c0-5.863,4.772-10.636,10.646-10.636s10.655,4.771,10.655,10.636C577.116,285.237,572.336,290.009,566.462,290.009z"/>
	<path class="st3" d="M566.462,274.209c-2.853,0-5.176,2.322-5.176,5.176c0,2.844,2.322,5.165,5.176,5.165
		c2.864,0,5.185-2.322,5.185-5.165C571.646,276.53,569.324,274.209,566.462,274.209z M566.462,286.851
		c-4.122,0-7.478-3.355-7.478-7.468c0-4.122,3.355-7.478,7.478-7.478c4.133,0,7.487,3.355,7.487,7.478
		C573.949,283.496,570.594,286.851,566.462,286.851z"/>
	<path class="st3" d="M604.637,289.666l-4.929-13.479c-0.117,0.365-0.285,0.727-0.502,1.072l-2.961,4.683l3.483,9.514
		c0.384,1.052,1.388,1.712,2.451,1.712c0.296,0,0.601-0.049,0.895-0.157C604.429,292.519,605.128,291.014,604.637,289.666z"/>
	<path class="st3" d="M593.872,252.15c0-2.902-2.351-5.224-5.244-5.224s-5.234,2.322-5.234,5.224s2.342,5.224,5.234,5.224
		C591.521,257.374,593.872,255.051,593.872,252.15z"/>
	<path class="st3" d="M593.105,282.945l6.415-10.026l-4.358-12.289c-0.493-1.397-2.608-2.095-5.362-1.545
		c-2.312,0.462-3.365,1.87-3.67,3.315c-0.079,0.226-0.009,6.868-0.009,6.868h-4.053c-1.18,0-2.135,0.944-2.135,2.126
		c0,1.171,0.955,2.126,2.135,2.126h7.852l1.131,2.893l-3.748,5.933l3.384,9.121c0.393,1.052,1.397,1.702,2.46,1.702
		c0.296,0,0.601-0.049,0.906-0.168c1.348-0.493,2.046-1.998,1.545-3.346L593.105,282.945z"/>
</g>
<path class="st3" d="M667.618,256.846c-6.385,8.383-7.507,15.397-7.516,15.467c-0.029,0.197-0.197,0.345-0.393,0.345h-6.042
	c-0.079-0.433-0.354-0.984-0.787-1.536c-0.04-0.059-0.246-0.345-0.581-0.767c1.456-2.981,5.412-9.13,14.818-14.109
	c0.059-0.029,0.117-0.049,0.188-0.049c0.108,0,0.226,0.049,0.305,0.148C667.736,256.482,667.736,256.698,667.618,256.846z
	 M648.246,266.4c0.296-2.667,0.551-5.903,0.531-8.983c0-0.188,0.108-0.345,0.285-0.393c0.04-0.009,0.079-0.02,0.117-0.02
	c0.128,0,0.256,0.069,0.334,0.177c1.594,2.332,3.129,5.638,4.338,8.55c-1.072,1.427-1.821,2.696-2.351,3.709
	C650.744,268.593,649.652,267.521,648.246,266.4z M652.25,272.451c-0.069,0.137-0.206,0.217-0.345,0.217h-9.416
	c-0.117,0-0.226-0.049-0.296-0.148c-0.06-0.079-5.638-7.359-10.626-10.478c-0.148-0.099-0.217-0.276-0.177-0.453
	c0.049-0.177,0.197-0.305,0.374-0.305c13.618,0.747,20.376,10.636,20.445,10.745C652.299,272.146,652.308,272.312,652.25,272.451z
	 M668.867,276.602c0,0.522-0.433,0.944-0.944,0.944H633.95c-0.512,0-0.944-0.422-0.944-0.944v-1.348
	c0-0.522,0.433-0.944,0.944-0.944h33.974c0.512,0,0.944,0.422,0.944,0.944L668.867,276.602L668.867,276.602z M635.967,282.829
	c-0.117-0.502,0.188-1.014,0.698-1.132c0.512-0.128,1.023,0.188,1.141,0.698c0.955,3.995,3.041,5.962,6.376,8.59
	C640.414,289.943,636.882,286.657,635.967,282.829z M668.317,279.258h-34.652c-0.422,0-0.767,0.345-0.767,0.767
	c0,8.659,7.271,14.482,18.093,14.482s18.093-5.825,18.093-14.482C669.084,279.603,668.739,279.258,668.317,279.258z"/>
<g>
	<path class="st3" d="M2,308v61h61v-61H2L2,308z M32.5,368.509c-16.573,0-30.009-13.435-30.009-30.009s13.435-30.009,30.009-30.009
		s30.009,13.435,30.009,30.009C62.509,355.074,49.073,368.509,32.5,368.509z"/>
</g>
<g>
	<path class="st3" d="M74,308v61h61v-61H74L74,308z M104.5,368.509c-16.573,0-30.009-13.435-30.009-30.009
		s13.435-30.009,30.009-30.009s30.009,13.435,30.009,30.009S121.073,368.509,104.5,368.509z"/>
</g>
<g>
	<path class="st3" d="M20.528,350.995v-24.99c0-1.938,0.738-3.483,2.017-4.23c1.289-0.758,2.972-0.63,4.624,0.334l21.262,12.495
		c1.653,0.964,2.597,2.391,2.597,3.896s-0.944,2.932-2.597,3.896l-21.262,12.495c-1.653,0.964-3.335,1.092-4.624,0.334
		C21.264,354.478,20.528,352.933,20.528,350.995z"/>
</g>
<g>
	<path class="st3" d="M110.739,356.633l5.264,3.512l5.481-6.829c1.751-2.303-1.801-5.028-3.542-2.725l-2.844,3.739l-1.653-1.269
		C111.152,351.311,108.445,354.882,110.739,356.633z"/>
	<path class="st3" d="M100.014,333.285c-2.882,0-2.882,4.486,0,4.486h11.679c2.882,0,2.882-4.486,0-4.486H100.014z"/>
	<path class="st3" d="M111.692,341.205h-11.679c-2.882,0-2.882,4.486,0,4.486h11.679
		C114.575,345.692,114.575,341.205,111.692,341.205z"/>
	<path class="st3" d="M111.309,321.342l6.435,6.06v18.34h4.466v-20.376l-9.426-8.511H90.991c-1.22,0-2.234,1.023-2.234,2.243v38.509
		c0,1.22,1.014,2.243,2.234,2.243h15.231v-4.486H93.225v-34.022L111.309,321.342L111.309,321.342z"/>
</g>
<g>
	<path class="st3" d="M265.003,272.733l-0.758-1.319c-0.256-0.433-0.758-0.619-1.231-0.502c-0.099,0.009-0.197,0.04-0.285,0.088
		l-7.408,4.27c-0.334,0.197-0.453,0.63-0.256,0.974c0.128,0.226,0.364,0.354,0.61,0.354c0.128,0,0.246-0.029,0.354-0.099
		l6.444-3.709l0.61,1.052c0.206,0.354,0.581,0.55,0.964,0.55c0.188,0,0.374-0.049,0.55-0.148
		C265.129,273.942,265.308,273.264,265.003,272.733z"/>
	<path class="st3" d="M248.828,267.38c-4.073-7.054-13.096-9.474-20.15-5.401s-9.465,13.096-5.392,20.15
		c0.836,1.456,1.879,2.676,3.061,3.689c0,0,2.745,2.577,4.162,3.788c2.106,1.781,5.047,1.801,7.556,0.354l15.998-9.238
		c0.974-0.561,1.388-1.87,0.827-2.844L248.828,267.38z M239.087,279.964c-0.875,0.502-1.859,0.767-2.853,0.767
		c-2.046,0-3.945-1.103-4.959-2.864c-0.767-1.319-0.974-2.864-0.57-4.338c0.393-1.476,1.337-2.705,2.656-3.474
		c0.875-0.502,1.859-0.767,2.853-0.767c2.046,0,3.945,1.092,4.959,2.864C242.757,274.877,241.812,278.39,239.087,279.964z"/>
</g>
<g>
	<path class="st3" d="M2,243v61h61v-61H2L2,243z M32.5,303.509c-16.573,0-30.009-13.435-30.009-30.009s13.435-30.009,30.009-30.009
		s30.009,13.435,30.009,30.009S49.073,303.509,32.5,303.509z"/>
</g>
<polygon class="st3" points="49.134,264.793 49.134,256.508 42.464,256.508 42.464,258.457 "/>
<path class="st3" d="M50.148,286.605h-4.162v-1.211h4.162V286.605z M43.476,286.605h-4.162v-1.211h4.162V286.605z M38.351,272.614
	H33.6v-5.145h4.752L38.351,272.614L38.351,272.614z M38.351,279.502H33.6v-5.145h4.752L38.351,279.502L38.351,279.502z
	 M36.797,286.605h-4.162v-1.211h4.162V286.605z M31.858,272.614h-4.752v-5.145h4.752C31.858,267.469,31.858,272.614,31.858,272.614z
	 M31.858,279.502h-4.752v-5.145h4.752C31.858,274.357,31.858,279.502,31.858,279.502z M30.117,286.605h-4.162v-1.211h4.162V286.605z
	 M23.436,286.605h-4.162v-1.211h4.162V286.605z M16.755,286.605h-4.152v-1.211h4.152V286.605z M52.667,286.605v-1.211h0.226v-9.258
	l1.131,1.072l2.813-2.972l-24.104-22.884L8.629,274.236l2.813,2.972l1.131-1.072v16.539h40.319v-6.071h-0.225V286.605z"/>
<g>
	<path class="st3" d="M146,387v61h61v-61H146L146,387z M176.5,447.509c-16.573,0-30.009-13.435-30.009-30.009
		s13.435-30.009,30.009-30.009s30.009,13.435,30.009,30.009S193.073,447.509,176.5,447.509z"/>
</g>
<path class="st0" d="M174.373,402.579c-0.009-0.04-0.02-0.088-0.009-0.137c0.285-1.269,0.836-1.821,1.505-2.046
	c0.994-2.283,3.138-3.689,5.372-3.366c0.61,0.088,1.023,0.639,0.944,1.249c-0.088,0.601-0.639,1.032-1.249,0.935
	c-1.023-0.137-2.046,0.422-2.705,1.417c0.453,0.314,0.817,0.855,1.023,1.81c0.009,0.049,0.009,0.099-0.009,0.137
	c-0.009,0.029-0.04,0.059-0.059,0.059h-4.752C174.412,402.638,174.383,402.608,174.373,402.579z M183.719,402.579
	c-0.02-0.04-0.02-0.088-0.009-0.137c0.404-1.821,1.357-2.184,2.44-2.184c1.092,0,2.046,0.364,2.451,2.184
	c0.009,0.049,0,0.099-0.009,0.137c-0.009,0.029-0.04,0.059-0.059,0.059h-4.752C183.759,402.638,183.73,402.608,183.719,402.579z
	 M164.563,402.579c-0.02-0.04-0.02-0.088-0.009-0.137c0.404-1.821,1.357-2.184,2.44-2.184s2.046,0.364,2.451,2.184
	c0.009,0.049,0,0.099-0.009,0.137c-0.02,0.029-0.04,0.059-0.059,0.059h-4.752C164.593,402.638,164.574,402.608,164.563,402.579z
	 M191.01,437.585c0,0.61-0.493,1.103-1.103,1.103h-26.672c-0.61,0-1.103-0.493-1.103-1.103s0.493-1.103,1.103-1.103h6.533
	c1.357-4.457,2.046-9.169,2.046-14.02c0-0.994-0.04-1.987-0.099-2.981c1.722,0.365,3.503,0.561,5.323,0.561
	c1.485,0,2.952-0.148,4.378-0.393c-0.049,0.935-0.079,1.879-0.079,2.813c0,4.851,0.689,9.563,2.046,14.02h6.524
	C190.519,436.482,191.01,436.975,191.01,437.585z M197.986,404.309c-0.117-0.168-0.314-0.276-0.531-0.276h-40.831
	c-0.217,0-0.413,0.108-0.531,0.276c-0.117,0.168-0.137,0.384-0.059,0.581c3.443,8.186,11.688,13.47,21.006,13.47
	s17.563-5.284,21.006-13.47C198.123,404.694,198.094,404.477,197.986,404.309z"/>
<g>
	<path class="st3" d="M76,387v61h61v-61H76L76,387z M106.5,447.509c-16.573,0-30.009-13.435-30.009-30.009
		s13.435-30.009,30.009-30.009s30.009,13.435,30.009,30.009S123.073,447.509,106.5,447.509z"/>
</g>
<g>
	<path class="st3" d="M211,387v61h61v-61H211L211,387z M241.5,447.509c-16.573,0-30.009-13.435-30.009-30.009
		s13.435-30.009,30.009-30.009s30.009,13.435,30.009,30.009S258.073,447.509,241.5,447.509z"/>
</g>
<g>
	<path class="st3" d="M281,387v61h61v-61H281L281,387z M311.5,447.509c-16.573,0-30.009-13.435-30.009-30.009
		s13.435-30.009,30.009-30.009s30.009,13.435,30.009,30.009S328.073,447.509,311.5,447.509z"/>
</g>
<g>
	<path class="st3" d="M346,387v61h61v-61H346L346,387z M376.5,447.509c-16.573,0-30.009-13.435-30.009-30.009
		s13.435-30.009,30.009-30.009s30.009,13.435,30.009,30.009S393.073,447.509,376.5,447.509z"/>
</g>
<g>
	<path class="st3" d="M416,387v61h61v-61H416L416,387z M446.5,447.509c-16.573,0-30.009-13.435-30.009-30.009
		s13.435-30.009,30.009-30.009s30.009,13.435,30.009,30.009S463.073,447.509,446.5,447.509z"/>
</g>
<g>
	<path class="st3" d="M481,387v61h61v-61H481L481,387z M511.5,447.509c-16.573,0-30.009-13.435-30.009-30.009
		s13.435-30.009,30.009-30.009c16.573,0,30.009,13.435,30.009,30.009S528.073,447.509,511.5,447.509z"/>
</g>
<g>
	<path class="st3" d="M551,387v61h61v-61H551L551,387z M581.5,447.509c-16.573,0-30.009-13.435-30.009-30.009
		s13.435-30.009,30.009-30.009s30.009,13.435,30.009,30.009S598.073,447.509,581.5,447.509z"/>
</g>
<g>
	<path class="st3" d="M623,387v61h61v-61H623L623,387z M653.5,447.509c-16.573,0-30.009-13.435-30.009-30.009
		s13.435-30.009,30.009-30.009s30.009,13.435,30.009,30.009S670.073,447.509,653.5,447.509z"/>
</g>
<path class="st0" d="M120.455,429.163c0,3.797-3.089,6.887-6.887,6.887c-3.797,0-6.897-3.09-6.897-6.887
	c0-3.808,3.099-6.897,6.897-6.897C117.365,422.265,120.455,425.355,120.455,429.163z M102.952,421.37
	c1.377,1.377,3.611,1.377,4.988,0c0.482-0.482,0.787-1.083,0.935-1.702h-6.858C102.154,420.288,102.47,420.887,102.952,421.37z
	 M107.94,416.381c-1.377-1.377-3.611-1.377-4.988,0c-0.482,0.493-0.798,1.083-0.935,1.712h6.858
	C108.727,417.463,108.422,416.873,107.94,416.381z M98.879,411.432c-0.265-0.265-0.709-0.265-0.974,0
	c-3.562,3.562-4.084,9.308-1.24,13.656c0.137,0.206,0.354,0.314,0.581,0.314c0.128,0,0.256-0.04,0.374-0.108
	c0.325-0.217,0.413-0.639,0.206-0.955c-2.499-3.808-2.046-8.825,1.052-11.934C99.144,412.141,99.144,411.698,98.879,411.432z
	 M124.34,408.805c-1.103-1.103-2.902-1.103-4.014,0l-5.313,5.323l-4.811-4.82l5.313-5.313c1.112-1.112,1.112-2.902,0-4.014
	s-2.902-1.112-4.014,0l-5.323,5.313l-1.781-1.781c-1.269-1.269-3.492-1.269-4.771,0l-4.988,4.988
	c-2.824,2.833-4.378,6.592-4.378,10.597c0,3.995,1.554,7.753,4.378,10.586c2.833,2.824,6.592,4.389,10.586,4.389
	c0.384,0,0.689-0.314,0.689-0.689c0-0.384-0.305-0.689-0.689-0.689c-3.631,0-7.045-1.417-9.613-3.985s-3.975-5.982-3.975-9.613
	c0-3.64,1.408-7.054,3.975-9.622l4.988-4.988c0.778-0.778,2.046-0.778,2.824,0l16.411,16.411c0.61,0.61,0.758,1.584,0.345,2.351
	c-0.177,0.334-0.049,0.747,0.285,0.935c0.345,0.177,0.758,0.049,0.935-0.285c0.689-1.308,0.442-2.942-0.59-3.975l-1.781-1.781
	l5.313-5.323C125.452,411.717,125.452,409.917,124.34,408.805z M95.759,432.036c0.276,0.265,0.276,0.709,0,0.974l-0.669,0.669
	c-0.296,0.305-0.698,0.462-1.122,0.462s-0.817-0.168-1.122-0.462l-2.528-2.528c-0.619-0.619-0.61-1.624,0-2.243l0.827-0.826
	c0.276-0.265,0.709-0.276,0.974,0c0.276,0.265,0.276,0.698,0,0.974l-0.826,0.827c-0.079,0.079-0.079,0.217,0,0.296l2.528,2.528
	c0.088,0.079,0.217,0.079,0.296,0l0.669-0.669C95.06,431.769,95.493,431.769,95.759,432.036z"/>
<path class="st0" d="M317.674,416.91l-2.882-2.411l11.216-13.361l2.873,2.42L317.674,416.91z M333.122,398.885l-3.257-2.736
	c-0.236-0.206-0.522-0.296-0.816-0.296c-0.374,0-0.738,0.157-1.003,0.462l-14.482,17.267l-2.037,7.173
	c-0.108,0.334-0.02,0.522,0.188,0.522c0.088,0,0.197-0.029,0.325-0.099l6.749-3.207l14.493-17.267
	C333.732,400.154,333.672,399.338,333.122,398.885z M321.926,427.644c-0.433-1.191-1.122-2.243-1.536-2.813
	c0.689-0.099,2.056-0.374,3.404-0.964L321.926,427.644z M325.142,412.472l-1.18,1.417l1.485,4.093
	c0.404,1.092,0.364,1.998-0.108,2.765c-1.122,1.77-4.398,2.451-5.558,2.559c-0.57,0.049-1.003,0.334-1.191,0.787
	c-0.188,0.442-0.079,0.955,0.285,1.388c0.63,0.787,2.194,3.138,1.781,4.663c-0.168,0.601-0.639,1.032-1.465,1.337l-23.446,8.53
	c-0.099,0.04-0.236,0-0.285-0.128l-10.064-27.667c-0.029-0.069-0.009-0.137,0.009-0.168c0.009-0.029,0.049-0.088,0.117-0.108
	l33.187-12.073c0.069,0,0.168,0.049,0.206,0.148l1.299,3.552l1.18-1.408l-0.984-2.685c-0.325-0.915-1.408-1.427-2.322-1.092
	l-33.108,12.053c-0.462,0.168-0.827,0.502-1.023,0.944c-0.206,0.433-0.226,0.935-0.069,1.388l10.075,27.657
	c0.256,0.718,0.944,1.2,1.702,1.2c0.217,0,0.422-0.04,0.619-0.108l23.456-8.54c0.994-0.364,1.594-0.886,1.978-1.417
	c0.188-0.197,5.037-10.095,5.037-10.095c0.679-1.171,0.747-2.519,0.197-4.033L325.142,412.472z M294.918,416.526l4.133-1.496
	c0.117,2.184-0.875,4.309-2.627,5.628L294.918,416.526z M300.142,414.627l12.131-4.409l-0.393-1.063l-11.925,4.338
	c-0.059-0.256-0.137-0.522-0.236-0.778l-0.188-0.531l-1.063,0.384l0.197,0.531c0.088,0.256,0.168,0.522,0.226,0.787l-4.358,1.584
	l-0.551-1.516l-1.052,0.384l0.55,1.516l-1.732,0.63l0.384,1.063l1.732-0.63l1.584,4.338c-0.246,0.128-0.482,0.236-0.747,0.334
	l-0.522,0.188l0.384,1.063l0.531-0.197c0.256-0.088,0.502-0.197,0.738-0.314l4.024,11.059l1.063-0.384l-4.104-11.255
	C299.128,420.156,300.408,417.421,300.142,414.627z"/>
<path class="st0" d="M352.063,415.797l8.166-1.436l3.178,18.073l-8.157,1.436L352.063,415.797z M358.399,404.01l1.446,8.166
	l-8.106,1.427C351.434,409.255,354.229,405.25,358.399,404.01z M365.602,432.04l-3.187-18.064l6.572-1.16l0.413-2.322l-7.37,1.299
	l-1.436-8.146c0.157-0.009,0.314-0.029,0.473-0.029c3.788,0,7.103,2.272,8.55,5.629l0.59-3.346c-2.126-2.756-5.45-4.497-9.14-4.497
	c-0.669,0-1.348,0.059-2.017,0.177c-6.287,1.103-10.488,7.114-9.386,13.401l3.591,20.367c0.049,0.296,0.217,0.551,0.462,0.718
	c0.188,0.137,0.404,0.206,0.63,0.206c0.069,0,0.128-0.009,0.197-0.02l10.645-1.879L365.602,432.04z M399.025,399.189l-24.725-4.358
	l-0.099-0.009c-0.256,0-0.493,0.197-0.541,0.462l-7.163,40.595c-0.049,0.305,0.148,0.59,0.453,0.65l24.725,4.358h0.088
	c0.265,0,0.502-0.188,0.551-0.453l7.163-40.604C399.527,399.533,399.319,399.237,399.025,399.189z"/>
<g>
	<g>
		<polygon class="st0" points="448.527,415.867 453.141,415.867 453.928,412.176 449.314,412.176 		"/>
		<g>
			<polygon class="st0" points="451.645,401.168 450.927,404.572 452.374,404.572 			"/>
		</g>
		<polygon class="st0" points="446.913,423.472 446.599,424.928 447.07,427.162 450.741,427.162 451.528,423.472 		"/>
	</g>
	<path class="st0" d="M438.215,422.665h-4.959l2.48-11.669l-2.204-10.351c-0.069-0.029-0.128-0.069-0.197-0.099l-7.989,37.605h4.614
		l2.351-11.05h6.848L438.215,422.665z"/>
	<path class="st0" d="M454.774,399.298l1.456,6.858h-15.269l-1.456-6.858H454.774z M458.631,417.451H443.36l-1.456-6.858h15.271
		L458.631,417.451z M459.576,421.889l1.456,6.858h-15.26l-1.465-6.858H459.576z M434.891,399.298l8.265,38.853h4.614l-1.052-4.968
		h15.26l1.063,4.968h4.614l-8.265-38.882c1.092-0.157,1.929-1.072,1.929-2.184c0-1.229-1.003-2.223-2.254-2.223H434.89
		c-1.249,0-2.263,0.994-2.263,2.223C432.628,398.304,433.64,399.298,434.891,399.298z"/>
</g>
<path class="st0" d="M505.523,419.575c-0.855,0-1.633-0.226-2.243-0.59v14.758c0,0.778,0.639,1.417,1.417,1.417h2.243
	c0.778,0,1.417-0.639,1.417-1.417v-15.191C507.717,419.162,506.694,419.575,505.523,419.575z M498.939,439.341
	c0,0.442,0.364,0.807,0.798,0.807h25.414c0.442,0,0.807-0.364,0.807-0.807v-1.377c0-0.442-0.364-0.798-0.807-0.798h-25.414
	c-0.433,0-0.798,0.354-0.798,0.798V439.341L498.939,439.341z M511.514,432.022c0-0.334,0.265-0.601,0.601-0.601h13.242
	c0.325,0,0.601,0.265,0.601,0.601v1.781c0,0.325-0.276,0.601-0.601,0.601h-13.242c-0.334,0-0.601-0.276-0.601-0.601L511.514,432.022
	L511.514,432.022z M523.163,416.506c1.339,0.128,2.656,0.57,3.66,1.22c0.345,0,0.581-0.246,0.551-0.531l-0.59-7.123
	c-0.188-1.613-1.554-2.922-4.181-3.169c-0.177-0.02-0.364-0.029-0.541-0.029c-2.223,0-4.309,1.279-4.457,3.05v7.3
	c0,0.296,0.246,0.531,0.551,0.531c1.24-0.807,2.922-1.279,4.407-1.279C522.769,416.477,522.966,416.486,523.163,416.506z
	 M526.48,406.028l-0.531-6.12c-0.168-1.465-1.427-2.656-3.817-2.882c-2.203-0.206-4.427,1.023-4.575,2.756v6.287
	c0.009,0.265,0.226,0.473,0.502,0.482c1.289-0.846,3.118-1.279,4.586-1.141c1.211,0.108,2.42,0.512,3.346,1.112
	C526.292,406.521,526.508,406.304,526.48,406.028z M516.157,417.224v-7.3c-0.137-1.77-2.234-3.05-4.457-3.05
	c-0.177,0-0.354,0.009-0.541,0.029c-2.617,0.246-3.995,1.554-4.172,3.138l-0.601,7.153c-0.02,0.285,0.207,0.531,0.512,0.531
	c1.052-0.65,2.371-1.092,3.699-1.22c0.197-0.02,0.404-0.029,0.61-0.029c1.476,0,3.158,0.473,4.398,1.279
	C515.912,417.756,516.157,417.52,516.157,417.224z M507.746,406.521c0.955-0.601,2.164-1.003,3.385-1.112
	c1.456-0.137,3.286,0.296,4.575,1.141c0.276-0.009,0.502-0.217,0.502-0.482v-6.287c-0.137-1.732-2.371-2.961-4.566-2.756
	c-2.391,0.226-3.651,1.417-3.817,2.873l-0.541,6.13C507.264,406.304,507.47,406.521,507.746,406.521z M501.439,406.883
	c-0.148,0-0.285,0-0.433,0.009c-2.627,0.206-3.995,1.496-4.3,3.089l-1.16,7.172c-0.049,0.296,0.157,0.541,0.462,0.551
	c1.092-0.639,2.342-1.063,3.68-1.16c0.148-0.02,0.305-0.02,0.462-0.02c1.476,0,3.001,0.502,4.201,1.368
	c0.305,0,0.561-0.236,0.59-0.522l0.581-7.35C505.523,408.222,503.662,406.883,501.439,406.883z M497.317,405.949l1.052-6.139
	c0.285-1.476,1.536-2.647,3.925-2.824c2.204-0.177,4.113,1.103,4.113,2.844l-0.521,6.327c-0.029,0.265-0.265,0.473-0.541,0.473
	c-1.211-0.875-2.784-1.348-4.25-1.231c-1.22,0.088-2.351,0.473-3.315,1.052C497.465,406.45,497.277,406.225,497.317,405.949z"/>
<path class="st0" d="M669.618,400.846c-6.385,8.383-7.507,15.397-7.516,15.467c-0.029,0.197-0.197,0.345-0.393,0.345h-6.042
	c-0.079-0.433-0.354-0.984-0.787-1.536c-0.04-0.059-0.246-0.345-0.581-0.767c1.456-2.981,5.412-9.13,14.818-14.109
	c0.06-0.029,0.117-0.049,0.188-0.049c0.108,0,0.226,0.049,0.305,0.148C669.736,400.482,669.736,400.698,669.618,400.846z
	 M650.246,410.4c0.296-2.667,0.55-5.903,0.531-8.983c0-0.188,0.108-0.345,0.285-0.393c0.04-0.009,0.079-0.02,0.117-0.02
	c0.128,0,0.256,0.069,0.334,0.177c1.594,2.332,3.129,5.638,4.338,8.55c-1.072,1.427-1.821,2.696-2.351,3.709
	C652.744,412.593,651.652,411.521,650.246,410.4z M654.25,416.451c-0.069,0.137-0.206,0.217-0.345,0.217h-9.416
	c-0.117,0-0.226-0.049-0.296-0.148c-0.059-0.079-5.638-7.359-10.626-10.478c-0.148-0.099-0.217-0.276-0.177-0.453
	c0.049-0.177,0.197-0.305,0.374-0.305c13.618,0.747,20.376,10.636,20.445,10.745C654.299,416.146,654.308,416.312,654.25,416.451z
	 M670.867,420.602c0,0.522-0.433,0.944-0.944,0.944H635.95c-0.512,0-0.944-0.422-0.944-0.944v-1.348
	c0-0.522,0.433-0.944,0.944-0.944h33.974c0.512,0,0.944,0.422,0.944,0.944L670.867,420.602L670.867,420.602z M637.967,426.829
	c-0.117-0.502,0.188-1.014,0.698-1.132c0.512-0.128,1.023,0.188,1.141,0.698c0.955,3.995,3.041,5.962,6.376,8.59
	C642.414,433.943,638.882,430.657,637.967,426.829z M670.317,423.258h-34.652c-0.422,0-0.767,0.345-0.767,0.767
	c0,8.659,7.271,14.482,18.093,14.482s18.093-5.825,18.093-14.482C671.084,423.603,670.739,423.258,670.317,423.258z"/>
<g>
	<path class="st3" d="M4,452v61h61v-61H4L4,452z M34.5,512.509c-16.573,0-30.009-13.435-30.009-30.009s13.435-30.009,30.009-30.009
		s30.009,13.435,30.009,30.009C64.509,499.074,51.073,512.509,34.5,512.509z"/>
</g>
<g>
	<path class="st3" d="M76,452v61h61v-61H76L76,452z M106.5,512.509c-16.573,0-30.009-13.435-30.009-30.009
		s13.435-30.009,30.009-30.009s30.009,13.435,30.009,30.009C136.509,499.074,123.073,512.509,106.5,512.509z"/>
</g>
<g>
	<path class="st0" d="M22.528,494.995v-24.99c0-1.938,0.738-3.483,2.017-4.23c1.289-0.758,2.972-0.63,4.624,0.334l21.262,12.495
		c1.653,0.964,2.597,2.391,2.597,3.896s-0.944,2.932-2.597,3.896l-21.262,12.495c-1.653,0.964-3.335,1.092-4.624,0.334
		C23.265,498.478,22.528,496.933,22.528,494.995z"/>
</g>
<g>
	<path class="st0" d="M112.739,500.633l5.264,3.512l5.481-6.829c1.751-2.303-1.801-5.028-3.542-2.725l-2.844,3.739l-1.653-1.269
		C113.152,495.311,110.445,498.882,112.739,500.633z"/>
	<path class="st0" d="M102.014,477.285c-2.882,0-2.882,4.486,0,4.486h11.679c2.882,0,2.882-4.486,0-4.486H102.014z"/>
	<path class="st0" d="M113.692,485.205h-11.679c-2.882,0-2.882,4.486,0,4.486h11.679
		C116.575,489.692,116.575,485.205,113.692,485.205z"/>
	<path class="st0" d="M113.309,465.342l6.435,6.06v18.34h4.466v-20.376l-9.426-8.511H92.991c-1.22,0-2.234,1.023-2.234,2.243v38.509
		c0,1.22,1.014,2.243,2.234,2.243h15.231v-4.486H95.225v-34.022L113.309,465.342L113.309,465.342z"/>
</g>
<g>
	<path class="st0" d="M267.003,416.733l-0.758-1.319c-0.256-0.433-0.758-0.619-1.231-0.502c-0.099,0.009-0.197,0.04-0.285,0.088
		l-7.408,4.27c-0.334,0.197-0.453,0.63-0.256,0.974c0.128,0.226,0.364,0.354,0.61,0.354c0.128,0,0.245-0.029,0.354-0.099
		l6.444-3.709l0.61,1.052c0.206,0.354,0.581,0.55,0.964,0.55c0.188,0,0.374-0.049,0.55-0.148
		C267.13,417.942,267.308,417.264,267.003,416.733z"/>
	<path class="st0" d="M250.828,411.38c-4.073-7.054-13.096-9.474-20.15-5.401s-9.465,13.096-5.392,20.15
		c0.836,1.456,1.879,2.676,3.061,3.689c0,0,2.745,2.577,4.161,3.788c2.106,1.781,5.047,1.801,7.556,0.354l15.998-9.238
		c0.974-0.561,1.388-1.87,0.827-2.844L250.828,411.38z M241.087,423.964c-0.875,0.502-1.859,0.767-2.853,0.767
		c-2.046,0-3.945-1.103-4.959-2.864c-0.767-1.319-0.974-2.864-0.57-4.338c0.393-1.476,1.337-2.705,2.656-3.474
		c0.875-0.502,1.859-0.767,2.853-0.767c2.046,0,3.945,1.092,4.959,2.864C244.757,418.877,243.812,422.39,241.087,423.964z"/>
</g>
<g>
	<path class="st3" d="M4,387v61h61v-61H4L4,387z M34.5,447.509c-16.573,0-30.009-13.435-30.009-30.009s13.435-30.009,30.009-30.009
		s30.009,13.435,30.009,30.009S51.073,447.509,34.5,447.509z"/>
</g>
<polygon class="st0" points="51.134,408.793 51.134,400.508 44.464,400.508 44.464,402.457 "/>
<path class="st0" d="M52.148,430.605h-4.162v-1.211h4.162V430.605z M45.477,430.605h-4.162v-1.211h4.162V430.605z M40.351,416.614
	H35.6v-5.145h4.752L40.351,416.614L40.351,416.614z M40.351,423.502H35.6v-5.145h4.752L40.351,423.502L40.351,423.502z
	 M38.797,430.605h-4.162v-1.211h4.162V430.605z M33.858,416.614h-4.752v-5.145h4.752V416.614z M33.858,423.502h-4.752v-5.145h4.752
	V423.502z M32.117,430.605h-4.162v-1.211h4.162V430.605z M25.436,430.605h-4.162v-1.211h4.162V430.605z M18.755,430.605h-4.152
	v-1.211h4.152V430.605z M54.667,430.605v-1.211h0.226v-9.258l1.131,1.072l2.813-2.972l-24.104-22.884l-24.104,22.884l2.813,2.972
	l1.131-1.072v16.539h40.319v-6.071h-0.225C54.667,430.604,54.667,430.605,54.667,430.605z"/>
<g>
	<rect x="261" y="181" class="st15" width="36" height="51"/>
</g>
<path class="st16" d="M281.127,214.055c-1.156,0-2.21,0.432-3.012,1.143l-7.664-4.561c0.049-0.269,0.076-0.545,0.076-0.828
	c0-0.379-0.047-0.748-0.135-1.1l7.722-4.596c0.802,0.711,1.856,1.143,3.012,1.143c2.508,0,4.542-2.033,4.542-4.542
	s-2.033-4.542-4.542-4.542c-2.508,0-4.542,2.033-4.542,4.542c0,0.229,0.017,0.454,0.05,0.674l-7.978,4.748
	c-0.75-0.546-1.673-0.869-2.671-0.869c-2.508,0-4.542,2.033-4.542,4.542c0,2.508,2.033,4.542,4.542,4.542
	c1.1,0,2.11-0.391,2.896-1.043l7.754,4.615c-0.033,0.22-0.05,0.445-0.05,0.674c0,2.508,2.033,4.542,4.542,4.542
	c2.508,0,4.542-2.033,4.542-4.542S283.636,214.055,281.127,214.055z"/>
<path d="M436.627,109.709h1.319c1.216,0,1.925-0.508,1.925-1.542c0-0.96-0.443-1.547-1.841-1.547h-1.403L436.627,109.709
	L436.627,109.709z M435.858,106.023h2.558c1.431,0,2.223,0.75,2.223,1.976c0,0.951-0.41,1.799-1.552,1.999v0.023
	c1.072,0.089,1.431,0.648,1.468,1.864l0.023,0.862c0.014,0.429,0.061,0.848,0.363,1.16h-0.904c-0.182-0.28-0.214-0.685-0.228-1.104
	l-0.023-0.662c-0.047-1.393-0.326-1.836-1.706-1.836h-1.454v3.602h-0.769v-7.884H435.858z"/>
<polygon points="443.067,106.023 447.322,106.023 447.322,106.619 443.836,106.619 443.836,109.49 447.094,109.49 447.094,110.086 
	443.836,110.086 443.836,113.311 447.429,113.311 447.429,113.908 443.067,113.908 "/>
<polygon points="449.605,106.023 450.64,106.023 453.921,112.892 453.944,112.892 453.944,106.023 454.713,106.023 454.713,113.908 
	453.683,113.908 450.398,107.039 450.374,107.039 450.374,113.908 449.605,113.908 "/>
<path d="M459.932,113.442c1.226,0,1.971-0.927,1.971-3.476c0-2.549-0.746-3.476-1.971-3.476s-1.971,0.927-1.971,3.476
	C457.961,112.514,458.706,113.442,459.932,113.442z M459.932,105.892c1.752,0,2.74,1.244,2.74,4.073c0,2.824-0.988,4.073-2.74,4.073
	c-1.757,0-2.74-1.249-2.74-4.073C457.192,107.137,458.175,105.892,459.932,105.892z"/>
<polygon points="464.513,106.023 465.328,106.023 467.239,113.153 467.262,113.153 469.173,106.023 469.993,106.023 
	467.733,113.908 466.768,113.908 "/>
<path d="M475.124,111.014l-1.319-4.436h-0.028l-1.319,4.436H475.124z M473.311,106.023h0.96l2.535,7.885h-0.816l-0.699-2.297h-3.001
	l-0.699,2.297h-0.816L473.311,106.023z"/>
<polygon points="479.62,106.619 477.412,106.619 477.412,106.023 482.603,106.023 482.603,106.619 480.389,106.619 480.389,113.908 
	479.62,113.908 "/>
<rect x="484.597" y="106.023" width="0.769" height="7.885"/>
<path d="M490.632,113.442c1.226,0,1.971-0.927,1.971-3.476c0-2.549-0.746-3.476-1.971-3.476s-1.971,0.927-1.971,3.476
	C488.661,112.514,489.406,113.442,490.632,113.442z M490.632,105.892c1.752,0,2.74,1.244,2.74,4.073c0,2.824-0.988,4.073-2.74,4.073
	c-1.757,0-2.74-1.249-2.74-4.073C487.892,107.137,488.875,105.892,490.632,105.892z"/>
<polygon points="495.847,106.023 496.881,106.023 500.162,112.892 500.185,112.892 500.185,106.023 500.954,106.023 
	500.954,113.908 499.924,113.908 496.639,107.039 496.615,107.039 496.615,113.908 495.847,113.908 "/>
<path d="M507.264,108.045c0-0.974-0.489-1.556-1.538-1.556c-1.044,0-1.622,0.629-1.622,1.412c0,2.349,4.161,1.058,4.161,3.831
	c0,1.524-1.035,2.307-2.6,2.307c-1.608,0-2.498-0.797-2.498-2.339v-0.233h0.769v0.298c0,1.007,0.578,1.678,1.706,1.678
	c1.081,0,1.85-0.499,1.85-1.598c0-2.344-4.157-1.007-4.157-3.868c0-1.235,0.876-2.083,2.367-2.083c1.598,0,2.335,0.75,2.335,2.153
	h-0.773V108.045z"/>
<path class="st5" d="M416.501,73.967c-0.648,0-1.179,0.527-1.179,1.174v6.165c0,0.643-0.527,1.174-1.179,1.174h-6.575
	c-0.648,0-1.179,0.531-1.179,1.179v0.569c0,0.648,0.531,1.174,1.179,1.174l9.581-0.005c0.648,0,1.179-0.527,1.179-1.174
	l-0.005-9.082c0-0.648-0.531-1.179-1.184-1.179L416.501,73.967z"/>
<path class="st6" d="M423.141,73.962c0.652,0,1.184,0.527,1.184,1.174v6.165c0,0.643,0.531,1.174,1.184,1.174l6.575-0.005
	c0.648,0,1.179,0.531,1.179,1.174v0.573c0,0.643-0.531,1.174-1.179,1.174l-9.576,0.005c-0.648,0-1.179-0.531-1.179-1.174
	l-0.005-9.087c0-0.643,0.531-1.174,1.179-1.174L423.141,73.962L423.141,73.962z"/>
<path class="st7" d="M416.51,99.629c-0.648,0-1.179-0.527-1.179-1.174l-0.005-6.226c0-0.648-0.531-1.174-1.179-1.174l-6.575,0.005
	c-0.648,0-1.179-0.531-1.179-1.174l-0.005-0.513c0-0.643,0.531-1.174,1.184-1.174l9.576-0.005c0.648,0,1.179,0.531,1.179,1.179
	l0.005,9.082c0,0.643-0.531,1.174-1.179,1.174C417.153,99.629,416.51,99.629,416.51,99.629z"/>
<path class="st8" d="M422.107,101.134c-0.461-0.452-0.457-1.188,0.014-1.636l4.618-4.404c0.471-0.447,0.471-1.179,0-1.626
	l-4.623-4.399c-0.471-0.447-0.471-1.179,0-1.626l0.382-0.363c0.466-0.447,1.235-0.447,1.706-0.005l6.776,6.394
	c0.471,0.447,0.471,1.174,0,1.622l-6.771,6.459c-0.471,0.447-1.23,0.443-1.692-0.014L422.107,101.134z"/>
<path class="st9" d="M437.382,88.986v3.598c0,0.485,0.396,0.923,0.881,0.974l0.452,0.005c1.146,0,1.98-0.182,2.502-0.545
	c0.522-0.368,0.783-1.016,0.783-1.953c0-0.769-0.28-1.323-0.839-1.664c-0.564-0.34-1.445-0.508-2.656-0.508
	C438.314,88.893,437.941,88.925,437.382,88.986z M444.018,101.079c-0.485,0-1.095-0.336-1.356-0.746l-2.787-4.427
	c-0.261-0.41-0.871-0.755-1.356-0.769c0,0-0.214-0.009-1.137-0.07v5.131c0,0.485-0.401,0.881-0.885,0.881h-0.14
	c-0.485,0-0.885-0.396-0.885-0.881V88.175c0-0.485,0.256-0.895,0.569-0.909l0.918-0.047c0.918-0.047,1.589-0.07,2.008-0.07
	c3.355,0,5.037,1.319,5.037,3.952c0,0.867-0.275,1.65-0.811,2.339c-0.541,0.694-1.184,1.128-1.929,1.295l3.579,5.601
	c0.261,0.41,0.079,0.741-0.41,0.741L444.018,101.079L444.018,101.079z"/>
<path class="st9" d="M449.54,88.986c-0.485,0-0.881,0.396-0.881,0.881v2.069c0,0.485,0.396,0.881,0.881,0.881h2.847
	c0.489,0,0.885,0.359,0.885,0.802c0,0.438-0.396,0.797-0.885,0.797h-2.847c-0.485,0-0.881,0.401-0.881,0.885v3.206
	c0,0.485,0.396,0.881,0.881,0.881h4.567c0.485,0,0.885,0.382,0.885,0.848s-0.401,0.843-0.885,0.843h-6.473
	c-0.485,0-0.885-0.396-0.885-0.881V88.175c0-0.485,0.401-0.885,0.885-0.885h6.575c0.489,0,0.885,0.382,0.885,0.848
	c0,0.466-0.396,0.848-0.885,0.848H449.54z"/>
<path class="st9" d="M460.006,88.986c-0.485,0-0.885,0.396-0.885,0.881v2.069c0,0.485,0.401,0.881,0.885,0.881h3.146
	c0.485,0,0.881,0.359,0.881,0.802c0,0.438-0.396,0.797-0.881,0.797h-3.146c-0.485,0-0.885,0.401-0.885,0.885v4.898
	c0,0.485-0.396,0.881-0.885,0.881h-0.135c-0.489,0-0.885-0.396-0.885-0.881V88.175c0-0.485,0.396-0.885,0.885-0.885h6.864
	c0.485,0,0.881,0.382,0.881,0.848c0,0.466-0.396,0.848-0.881,0.848H460.006z"/>
<path class="st9" d="M469.471,88.986v3.598c0,0.485,0.396,0.923,0.881,0.974l0.457,0.005c1.142,0,1.976-0.182,2.498-0.545
	c0.522-0.368,0.783-1.016,0.783-1.953c0-0.769-0.28-1.323-0.839-1.664c-0.559-0.34-1.445-0.508-2.652-0.508
	C470.408,88.893,470.03,88.925,469.471,88.986z M476.111,101.079c-0.489,0-1.1-0.336-1.356-0.746l-2.791-4.427
	c-0.256-0.41-0.867-0.755-1.356-0.769c0,0-0.214-0.009-1.137-0.07v5.131c0,0.485-0.396,0.881-0.885,0.881h-0.135
	c-0.489,0-0.885-0.396-0.885-0.881V88.175c0-0.485,0.252-0.895,0.564-0.909l0.918-0.047c0.918-0.047,1.589-0.07,2.008-0.07
	c3.36,0,5.037,1.319,5.037,3.952c0,0.867-0.27,1.65-0.811,2.339c-0.541,0.694-1.184,1.128-1.929,1.295l3.579,5.601
	c0.266,0.41,0.079,0.741-0.405,0.741L476.111,101.079L476.111,101.079z"/>
<path class="st9" d="M481.634,88.986c-0.485,0-0.885,0.396-0.885,0.881v2.069c0,0.485,0.401,0.881,0.885,0.881h2.847
	c0.485,0,0.885,0.359,0.885,0.802c0,0.438-0.401,0.797-0.885,0.797h-2.847c-0.485,0-0.885,0.401-0.885,0.885v3.206
	c0,0.485,0.401,0.881,0.885,0.881h4.562c0.489,0,0.885,0.382,0.885,0.848s-0.396,0.843-0.885,0.843h-6.473
	c-0.485,0-0.881-0.396-0.881-0.881V88.175c0-0.485,0.396-0.885,0.881-0.885h6.58c0.485,0,0.885,0.382,0.885,0.848
	c0,0.466-0.401,0.848-0.885,0.848H481.634z"/>
<path class="st9" d="M488.675,100.449l0.368-0.913c0.182-0.452,0.671-0.615,1.09-0.368c0,0,0.037,0.023,0.569,0.196
	c0.531,0.172,1.007,0.256,1.426,0.256c0.746,0,1.342-0.2,1.794-0.601s0.68-0.913,0.68-1.533c0-0.466-0.13-0.895-0.377-1.295
	c-0.252-0.396-0.885-0.834-1.897-1.305l-0.322-0.144c-0.443-0.205-1.146-0.573-1.561-0.82c0,0-0.862-0.513-1.24-1.114
	c-0.377-0.601-0.569-1.328-0.569-2.176c0-1.025,0.368-1.883,1.104-2.558c0.741-0.676,1.687-1.016,2.843-1.016
	c1.547,0,2.624,0.247,3.229,0.746l-0.28,0.802c-0.158,0.457-0.573,0.671-0.927,0.475l-0.522-0.168
	c-0.522-0.172-1.007-0.256-1.449-0.256c-0.648,0-1.16,0.182-1.533,0.545c-0.373,0.368-0.559,0.834-0.559,1.403
	c0,0.354,0.07,0.676,0.2,0.96c0.135,0.289,0.322,0.531,0.559,0.727c0.238,0.196,0.727,0.466,1.463,0.82l0.345,0.158
	c0.443,0.21,1.142,0.583,1.561,0.834c0,0,0.862,0.522,1.249,1.137c0.387,0.62,0.578,1.407,0.578,2.358
	c0,1.035-0.424,1.915-1.263,2.638c-0.843,0.722-1.971,1.081-3.383,1.081C490.613,101.316,489.556,101.027,488.675,100.449z"/>
<path class="st9" d="M507.599,101.079c-0.485,0-0.885-0.396-0.885-0.881V95.3c0-0.485-0.396-0.885-0.885-0.885h-4.334
	c-0.485,0-0.885,0.401-0.885,0.885v4.898c0,0.485-0.396,0.881-0.885,0.881h-0.135c-0.489,0-0.885-0.396-0.885-0.881V88.175
	c0-0.485,0.396-0.885,0.885-0.885h0.135c0.489,0,0.885,0.401,0.885,0.885v3.761c0,0.485,0.401,0.881,0.885,0.881h4.334
	c0.489,0,0.885-0.396,0.885-0.881v-3.761c0-0.485,0.401-0.885,0.885-0.885h0.14c0.485,0,0.885,0.401,0.885,0.885v12.023
	c0,0.485-0.401,0.881-0.885,0.881H507.599z"/>
<path class="st9" d="M511.201,88.716h0.2c0.21,0,0.405-0.065,0.405-0.242c0-0.154-0.103-0.266-0.377-0.266
	c-0.116,0-0.182,0.009-0.228,0.019V88.716L511.201,88.716z M511.201,89.606h-0.294v-1.575c0.163-0.028,0.331-0.051,0.55-0.051
	c0.266,0,0.396,0.051,0.494,0.126c0.093,0.065,0.158,0.186,0.158,0.34c0,0.186-0.14,0.308-0.303,0.368v0.019
	c0.135,0.056,0.21,0.177,0.256,0.387c0.047,0.233,0.084,0.326,0.121,0.387h-0.303c-0.047-0.061-0.084-0.2-0.13-0.405
	c-0.037-0.182-0.14-0.256-0.359-0.256H511.2v0.66H511.201z M511.467,87.537c-0.68,0-1.202,0.559-1.202,1.235
	c0,0.699,0.522,1.249,1.221,1.249c0.671,0.009,1.184-0.55,1.184-1.235c0-0.69-0.513-1.249-1.193-1.249
	C511.476,87.537,511.467,87.537,511.467,87.537z M511.486,87.276c0.853,0,1.514,0.657,1.514,1.496c0,0.862-0.662,1.519-1.524,1.519
	s-1.542-0.657-1.542-1.519c0-0.839,0.68-1.496,1.542-1.496H511.486z"/>
<g>
	<path class="st0" d="M166.82,484.076c0.319,0,0.588-0.126,0.797-0.364c0.327-0.372,0.471-0.983,0.386-1.632
		c-0.153-1.16-0.98-2.124-1.846-2.15l-0.035-0.001c-0.306,0-0.579,0.125-0.788,0.363c-0.323,0.368-0.459,0.95-0.373,1.597
		c0.152,1.159,0.997,2.16,1.844,2.186h0.015V484.076z"/>
	<path class="st0" d="M167.764,487.571c-0.085-0.058-0.174-0.118-0.264-0.18c-0.267-0.082-0.55-0.125-0.84-0.128h-0.036
		c-1.332,0-2.502,0.807-2.502,1.729c0,1.001,1.001,1.785,2.28,1.785c1.686,0,2.541-0.581,2.541-1.728
		c0-0.109-0.013-0.221-0.039-0.333C168.789,488.27,168.381,487.992,167.764,487.571z"/>
	<path class="st0" d="M169.147,472.501c-6.903,0-12.5,5.595-12.5,12.499c0,6.903,5.596,12.5,12.5,12.5
		c6.903,0,12.499-5.596,12.499-12.5C181.646,478.097,176.05,472.501,169.147,472.501z M168.01,491.801
		c-0.498,0.144-1.036,0.217-1.601,0.217c-0.628,0-1.233-0.072-1.796-0.215c-1.092-0.275-1.899-0.798-2.275-1.47
		c-0.162-0.291-0.245-0.601-0.245-0.922c0-0.331,0.08-0.666,0.235-0.998c0.598-1.274,2.174-2.131,3.92-2.131
		c0.018,0,0.034,0,0.051,0c-0.142-0.249-0.211-0.508-0.211-0.78c0-0.136,0.018-0.274,0.053-0.414
		c-1.831-0.043-3.201-1.383-3.201-3.151c0-1.249,0.998-2.464,2.425-2.956c0.427-0.147,0.863-0.223,1.291-0.223h3.915
		c0.133,0,0.251,0.086,0.292,0.213c0.042,0.127-0.004,0.266-0.113,0.345l-0.875,0.633c-0.053,0.038-0.116,0.058-0.181,0.058h-0.313
		c0.405,0.485,0.642,1.176,0.642,1.954c0,0.858-0.434,1.669-1.223,2.287c-0.61,0.475-0.635,0.605-0.635,0.877
		c0.008,0.149,0.433,0.636,0.901,0.967c1.093,0.773,1.499,1.53,1.499,2.795C170.565,490.208,169.562,491.35,168.01,491.801z
		 M176.854,485.085c0,0.17-0.139,0.308-0.308,0.308h-2.225v2.226c0,0.17-0.138,0.308-0.308,0.308h-0.633
		c-0.171,0-0.308-0.138-0.308-0.308v-2.226h-2.226c-0.169,0-0.307-0.138-0.307-0.308v-0.634c0-0.17,0.138-0.308,0.307-0.308h2.226
		v-2.225c0-0.171,0.138-0.308,0.308-0.308h0.633c0.17,0,0.308,0.138,0.308,0.308v2.225h2.225c0.17,0,0.308,0.139,0.308,0.308
		V485.085z"/>
</g>
<path class="st0" d="M203.147,472.501c-6.903,0-12.5,5.597-12.5,12.5s5.596,12.499,12.5,12.499c6.903,0,12.5-5.595,12.5-12.499
	C215.647,478.099,210.051,472.501,203.147,472.501z M206.456,484.948h-2.164c0,3.459,0,7.719,0,7.719h-3.209c0,0,0-4.216,0-7.719
	h-1.525v-2.725h1.525v-1.766c0-1.264,0.6-3.237,3.238-3.237l2.375,0.009v2.647c0,0-1.444,0-1.725,0s-0.68,0.141-0.68,0.742v1.605
	h2.445L206.456,484.948z"/>
<path class="st0" d="M240.147,472.501c-6.903,0-12.5,5.597-12.5,12.5s5.596,12.499,12.5,12.499c6.903,0,12.499-5.595,12.499-12.499
	C252.646,478.099,247.05,472.501,240.147,472.501z M246.444,482.481c0.006,0.135,0.009,0.271,0.009,0.407
	c0,4.163-3.168,8.963-8.962,8.963c-1.779,0-3.435-0.522-4.829-1.415c0.247,0.029,0.497,0.044,0.751,0.044
	c1.476,0,2.834-0.504,3.912-1.348c-1.378-0.026-2.542-0.936-2.942-2.188c0.192,0.037,0.389,0.056,0.593,0.056
	c0.288,0,0.566-0.038,0.83-0.111c-1.441-0.29-2.527-1.563-2.527-3.088c0-0.014,0-0.027,0.001-0.04
	c0.425,0.236,0.91,0.378,1.427,0.395c-0.845-0.566-1.402-1.529-1.402-2.622c0-0.577,0.155-1.119,0.427-1.584
	c1.554,1.906,3.875,3.16,6.493,3.291c-0.054-0.23-0.082-0.471-0.082-0.718c0-1.739,1.411-3.15,3.15-3.15
	c0.906,0,1.725,0.383,2.299,0.994c0.718-0.141,1.392-0.404,2.001-0.764c-0.235,0.736-0.735,1.353-1.385,1.743
	c0.638-0.076,1.245-0.246,1.81-0.496C247.594,481.481,247.059,482.036,246.444,482.481z"/>
<g>
	<path class="st0" d="M273.147,472.502c-6.903,0-12.5,5.596-12.5,12.5s5.596,12.5,12.5,12.5c6.903,0,12.499-5.595,12.499-12.5
		C285.646,478.098,280.05,472.502,273.147,472.502z M280.109,491.073c0,0.556-0.461,1.006-1.031,1.006h-11.886
		c-0.57,0-1.031-0.45-1.031-1.006v-12.025c0-0.555,0.461-1.006,1.031-1.006h11.886c0.57,0,1.031,0.451,1.031,1.006V491.073z"/>
	<path class="st0" d="M275.56,483.306c-1.118,0-1.618,0.614-1.899,1.046v0.021h-0.014c0.005-0.006,0.01-0.014,0.014-0.021v-0.897
		h-2.106c0.027,0.594,0,6.337,0,6.337h2.106v-3.539c0-0.19,0.014-0.378,0.069-0.514c0.153-0.378,0.5-0.771,1.081-0.771
		c0.763,0,1.067,0.582,1.067,1.434v3.391h2.107v-3.634C277.985,484.211,276.946,483.306,275.56,483.306z"/>
	<path class="st0" d="M269.349,480.398c-0.72,0-1.192,0.474-1.192,1.096c0,0.608,0.457,1.095,1.164,1.095h0.014
		c0.735,0,1.192-0.488,1.192-1.095C270.513,480.872,270.07,480.398,269.349,480.398z"/>
	<rect x="268.282" y="483.455" class="st0" width="2.107" height="6.337"/>
</g>
<g>
	<path class="st0" d="M305.146,472.501c-6.903,0-12.499,5.595-12.499,12.499c0,5.118,3.078,9.515,7.482,11.448
		c-0.035-0.873-0.006-1.92,0.218-2.87c0.24-1.015,1.608-6.81,1.608-6.81s-0.4-0.798-0.4-1.978c0-1.852,1.074-3.235,2.411-3.235
		c1.137,0,1.686,0.854,1.686,1.876c0,1.143-0.729,2.852-1.104,4.436c-0.313,1.326,0.665,2.408,1.973,2.408
		c2.368,0,3.963-3.042,3.963-6.645c0-2.739-1.845-4.79-5.201-4.79c-3.792,0-6.154,2.827-6.154,5.986c0,1.09,0.321,1.857,0.824,2.452
		c0.231,0.273,0.263,0.383,0.179,0.696c-0.06,0.23-0.198,0.784-0.255,1.003c-0.083,0.317-0.34,0.43-0.626,0.313
		c-1.746-0.713-2.56-2.626-2.56-4.776c0-3.55,2.995-7.808,8.933-7.808c4.772,0,7.913,3.454,7.913,7.16
		c0,4.903-2.726,8.566-6.744,8.566c-1.35,0-2.619-0.73-3.054-1.558c0,0-0.726,2.88-0.879,3.436
		c-0.265,0.964-0.784,1.927-1.258,2.678c1.124,0.332,2.312,0.513,3.543,0.513c6.902,0,12.498-5.596,12.498-12.499
		C317.645,478.097,312.048,472.501,305.146,472.501z"/>
</g>
<g>
	<path class="st0" d="M173.119,150.137c0.465-0.039,0.922,0.118,1.243,0.44c0.322,0.322,0.483,0.776,0.441,1.245
		c-0.046,0.52,0.338,0.98,0.858,1.026c0.028,0.002,0.057,0.004,0.085,0.004c0.485,0,0.897-0.37,0.941-0.862
		c0.091-1.028-0.269-2.03-0.988-2.75c-0.719-0.719-1.726-1.079-2.75-0.987c-0.52,0.047-0.905,0.506-0.858,1.027
		C172.139,149.8,172.604,150.178,173.119,150.137z"/>
	<path class="st0" d="M177.983,146.956c-1.249-1.249-2.911-1.944-4.68-1.956c-0.002,0-0.004,0-0.006,0
		c-0.52,0-0.942,0.419-0.946,0.94c-0.004,0.522,0.417,0.948,0.94,0.952c1.268,0.009,2.46,0.506,3.355,1.402
		c0.895,0.895,1.394,2.087,1.403,3.356c0.004,0.52,0.427,0.939,0.946,0.939c0.002,0,0.004,0,0.007,0
		c0.522-0.004,0.943-0.431,0.939-0.953C179.927,149.866,179.233,148.204,177.983,146.956z"/>
	<path class="st0" d="M178.905,156.798c-1.025-0.67-2.017-1.397-2.968-2.163c-0.313-0.254-0.718-0.244-1.028,0.009
		c-0.365,0.297-0.58,0.785-0.937,1.163c-0.288,0.304-1.371,0.333-3.293-1.548c-1.881-1.921-1.852-3.005-1.547-3.292
		c0.377-0.357,0.865-0.572,1.163-0.937c0.253-0.31,0.262-0.716,0.008-1.028c-0.766-0.951-1.492-1.942-2.162-2.967
		c-0.223-0.338-0.62-0.509-1.011-0.394c-0.381,0.113-1.322,0.708-1.636,1.047c-1.104,1.195-0.556,4.791,3.706,9.052
		c4.261,4.261,7.857,4.809,9.052,3.705c0.339-0.313,0.935-1.254,1.046-1.636C179.413,157.418,179.242,157.021,178.905,156.798z"/>
</g>
</svg>
