<svg id="Layer_1" data-name="Layer 1" xmlns="http://www.w3.org/2000/svg" viewBox="0 0 165.05 35.22"><defs><style>.cls-1{fill:#fff;}.cls-2{fill:#00973a;}.cls-2,.cls-5{opacity:0.7;}.cls-3{fill:#422918;opacity:0.4;}.cls-4{fill:#93c01f;opacity:0.6;}.cls-5{fill:#bd1622;}.cls-6{fill:#063;}</style></defs><title>zones-scroll</title><path class="cls-1" d="M70.23,30.81c0-6.59-5.18-15.76-11.46-11.93-4.11,2.52-8.6,4.3-10.52,7.91-2.66,1.4-4.75,3.15-5,6.52-.33,3.69,1.68,6,4.41,8A4.73,4.73,0,0,0,46,43.6c-1.25,3.53,1.37,6,3.89,8.56,2,2.06,5.18.85,7.15-1.84,3.18,2.64,8.43-.38,10.47-5.39a12.61,12.61,0,0,0,.71-6.28A15.91,15.91,0,0,0,70.23,30.81Z" transform="translate(-43.16 -17.98)"/><path class="cls-2" d="M67.49,44.93c-2.15,5.29-7.89,8.37-11,4.89s-6.26-6.74-4.45-11.18,6.44-4.14,11-4.88C68.32,32.89,69.3,40.49,67.49,44.93Z" transform="translate(-43.16 -17.98)"/><path class="cls-3" d="M70.23,30.81c0,7.86-5.71,14.75-11.46,11.93S47.3,37.4,47.3,30.81s6.06-8.62,11.47-11.93C65.05,15.05,70.23,24.22,70.23,30.81Z" transform="translate(-43.16 -17.98)"/><path class="cls-4" d="M62.12,35c-.58,6.49-5.8,11.75-10.34,9s-9.07-5.25-8.58-10.68,5.64-6.67,10.34-9C59,21.61,62.61,29.56,62.12,35Z" transform="translate(-43.16 -17.98)"/><path class="cls-5" d="M58.27,47.94c-1.48,4.21-5.85,6.82-8.4,4.22s-5.14-5-3.89-8.56,4.88-3.48,8.4-4.23C58.47,38.51,59.52,44.41,58.27,47.94Z" transform="translate(-43.16 -17.98)"/><path class="cls-6" d="M79.88,47.8a8.08,8.08,0,0,1,1.66-4l6.65-8.5c.91-1.17,2.44-3,3.4-4.17,0,0,.76-.89,2.12-2.42h0a17.4,17.4,0,0,0-2.68-.1H83.55a2.67,2.67,0,1,1,0-5.34H99.19c1.48,0,2.69.92,2.69,2a8.22,8.22,0,0,1-1.65,4.17l-6.39,8.22c-.91,1.17-2.42,3.06-3.36,4.2,0,0-.85,1-2.21,2.44h0A16.7,16.7,0,0,0,91,44.4h8.56a2.67,2.67,0,1,1,0,5.34h-17C81.09,49.74,79.88,48.87,79.88,47.8Z" transform="translate(-43.16 -17.98)"/><path class="cls-6" d="M134.49,31.11c0-3-.11-5.6-.21-7.89h3.13c1.48,0,2.77.89,2.86,2a13.56,13.56,0,0,0,.24,2c.05,0,.89-.9,1.87-2a9.32,9.32,0,0,1,6.71-2.57c4.62,0,9.42,3,9.42,11.38v13a2.7,2.7,0,0,1-2.69,2.69H154.5a2.7,2.7,0,0,1-2.69-2.69v-9.6a30.69,30.69,0,0,0-.56-5.32s-.86-4.06-4.5-4.06A5.62,5.62,0,0,0,141.52,32a6.13,6.13,0,0,0-.33,2.12V47.05a2.7,2.7,0,0,1-2.69,2.69h-1.32a2.7,2.7,0,0,1-2.69-2.69Z" transform="translate(-43.16 -17.98)"/><path class="cls-6" d="M169,38.36c.16,4.79,3.92,6.86,8.17,6.86a21.32,21.32,0,0,0,7.35-1.2L185,46a3,3,0,0,1-2,3.43,25,25,0,0,1-6.69.89c-8.6,0-13.66-5.28-13.66-13.39,0-7.35,4.46-14.27,13-14.27S187,29.7,187,35.52v1.26c-.12.87-1.43,1.58-2.91,1.58Zm11.65-4.69c.06-2.45-1-6.48-5.49-6.48a5.75,5.75,0,0,0-5.36,3.92,1.86,1.86,0,0,0,1.89,2.56Z" transform="translate(-43.16 -17.98)"/><path class="cls-6" d="M190.74,43.53a14.56,14.56,0,0,0,6.75,2c2.94,0,4.24-1.25,4.24-3s-1.09-2.66-4.35-3.86c-5.17-1.74-7.3-4.58-7.3-7.73,0-4.69,3.87-8.28,10-8.28a15.32,15.32,0,0,1,7.08,1.58l-.61,2.1a2.25,2.25,0,0,1-3.19,1.45,8.46,8.46,0,0,0-3.17-.39c-2.4,0-3.7,1.2-3.7,2.83s1.25,2.45,4.62,3.7c4.85,1.69,7,4.14,7.08,8.06,0,4.85-3.75,8.33-10.78,8.33a17,17,0,0,1-5.54-.89,3,3,0,0,1-1.8-3.55Z" transform="translate(-43.16 -17.98)"/><path class="cls-6" d="M117.61,50.33c-7.46,0-13.29-5.11-13.29-13.66,0-8.71,5.72-14,13.72-14s13.18,5.55,13.18,13.61c0,9.75-6.86,14.1-13.56,14.1Zm.21-4.84c3.82,0,6.48-3.7,6.48-9.09,0-4.14-1.85-8.93-6.42-8.93-4.74,0-6.64,4.62-6.64,9,0,5.12,2.56,9,6.53,9Z" transform="translate(-43.16 -17.98)"/></svg>