<?xml version="1.0" encoding="utf-8"?>
<!-- Generator: Adobe Illustrator 18.1.1, SVG Export Plug-In . SVG Version: 6.00 Build 0)  -->
<svg version="1.1" id="Layer_1" xmlns="http://www.w3.org/2000/svg" xmlns:xlink="http://www.w3.org/1999/xlink" x="0px" y="0px"
	 viewBox="-278 370 54 54" width="54px" height="54px" style="enable-background:new -278 370 54 54;" xml:space="preserve">
<circle style="fill:none;stroke:#00632E;stroke-width:2.5562;stroke-miterlimit:10;" cx="-251" cy="397" r="25"/>
<path style="fill:#00632E;" d="M-266.561,402.61l-2.339-7.619h-0.06c0.084,1.55,0.126,2.584,0.126,3.102v4.518h-1.84v-9.712h2.803
	l2.298,7.427h0.04l2.438-7.427h2.803v9.712h-1.92v-4.597c0-0.217,0.003-0.467,0.01-0.751c0.007-0.283,0.037-1.036,0.09-2.259h-0.06
	l-2.505,7.606H-266.561z"/>
<path style="fill:#00632E;" d="M-252.252,402.61h-5.593v-9.712h5.593v1.688h-3.534v2.132h3.289v1.688h-3.289v2.504h3.534V402.61z"/>
<path style="fill:#00632E;" d="M-241.61,402.61h-2.618l-4.225-7.347h-0.06c0.084,1.298,0.126,2.223,0.126,2.777v4.57h-1.84v-9.712
	h2.597l4.219,7.274h0.047c-0.067-1.262-0.1-2.154-0.1-2.677v-4.597h1.854V402.61z"/>
<path style="fill:#00632E;" d="M-231.261,392.898v6.285c0,0.717-0.161,1.346-0.482,1.887c-0.32,0.54-0.785,0.954-1.391,1.242
	c-0.607,0.288-1.325,0.432-2.153,0.432c-1.249,0-2.218-0.32-2.909-0.96c-0.691-0.64-1.037-1.516-1.037-2.627v-6.258h2.053v5.946
	c0,0.748,0.151,1.298,0.452,1.648s0.8,0.525,1.494,0.525c0.673,0,1.162-0.176,1.465-0.528c0.303-0.352,0.454-0.905,0.454-1.658
	v-5.933L-231.261,392.898L-231.261,392.898z"/>
</svg>
