<?xml version="1.0" encoding="utf-8"?>
<!-- Generator: Adobe Illustrator 17.1.0, SVG Export Plug-In . SVG Version: 6.00 Build 0)  -->
<!DOCTYPE svg PUBLIC "-//W3C//DTD SVG 1.1//EN" "http://www.w3.org/Graphics/SVG/1.1/DTD/svg11.dtd">
<svg version="1.1" id="Layer_1" xmlns="http://www.w3.org/2000/svg" xmlns:xlink="http://www.w3.org/1999/xlink" x="0px" y="0px"
	 viewBox="0 0 63 63" width="63px" height="63px" style="enable-background:new 0 0 63 63;" xml:space="preserve">
<circle style="fill:none;stroke:#00632E;stroke-width:3;stroke-miterlimit:10;" cx="31.34" cy="31.34" r="29.34"/>
<g>
	<path style="fill:#00632E;" d="M13.077,37.924l-2.744-8.942h-0.07c0.099,1.819,0.147,3.033,0.147,3.641v5.302H8.251V26.526h3.29
		l2.697,8.716h0.047l2.861-8.716h3.29v11.398h-2.253v-5.395c0-0.255,0.004-0.548,0.012-0.881s0.043-1.216,0.105-2.651h-0.07
		l-2.939,8.927C15.291,37.924,13.077,37.924,13.077,37.924z"/>
	<path style="fill:#00632E;" d="M29.87,37.924h-6.564V26.526h6.564v1.98h-4.147v2.502h3.859v1.98h-3.859v2.939h4.147
		C29.87,35.927,29.87,37.924,29.87,37.924z"/>
	<path style="fill:#00632E;" d="M42.36,37.924h-3.072l-4.958-8.623h-0.07c0.099,1.523,0.147,2.609,0.147,3.259v5.364h-2.159V26.526
		h3.048l4.951,8.537h0.055c-0.078-1.481-0.117-2.528-0.117-3.142v-5.395h2.176L42.36,37.924L42.36,37.924z"/>
	<path style="fill:#00632E;" d="M54.506,26.526v7.375c0,0.842-0.188,1.58-0.565,2.214c-0.376,0.634-0.921,1.12-1.633,1.458
		c-0.712,0.338-1.555,0.507-2.526,0.507c-1.466,0-2.604-0.375-3.414-1.126c-0.812-0.751-1.217-1.779-1.217-3.083v-7.344h2.409v6.978
		c0,0.878,0.177,1.523,0.53,1.934s0.938,0.616,1.754,0.616c0.79,0,1.363-0.207,1.72-0.62c0.355-0.414,0.533-1.062,0.533-1.945
		v-6.962h2.409V26.526z"/>
</g>
</svg>
