<?xml version="1.0" encoding="utf-8"?>
<!-- Generator: Adobe Illustrator 17.1.0, SVG Export Plug-In . SVG Version: 6.00 Build 0)  -->
<!DOCTYPE svg PUBLIC "-//W3C//DTD SVG 1.1//EN" "http://www.w3.org/Graphics/SVG/1.1/DTD/svg11.dtd">
<svg version="1.1" id="Layer_1" xmlns="http://www.w3.org/2000/svg" xmlns:xlink="http://www.w3.org/1999/xlink" x="0px" y="0px"
	 viewBox="0 0 612 216" width="612px" height="216px" style="enable-background:new 0 0 612 216;" xml:space="preserve">
<circle style="fill:none;stroke:#00632E;stroke-width:3;stroke-miterlimit:10;" cx="289.34" cy="37.34" r="29.34"/>
<g>
	<path style="fill:#00632E;" d="M271.077,43.924l-2.744-8.942h-0.07c0.099,1.819,0.147,3.033,0.147,3.641v5.302h-2.159V32.526h3.29
		l2.697,8.716h0.047l2.861-8.716h3.29v11.398h-2.253v-5.395c0-0.255,0.004-0.548,0.012-0.881s0.043-1.216,0.105-2.651h-0.07
		l-2.939,8.927C273.291,43.924,271.077,43.924,271.077,43.924z"/>
	<path style="fill:#00632E;" d="M287.87,43.924h-6.564V32.526h6.564v1.98h-4.147v2.502h3.859v1.98h-3.859v2.939h4.147V43.924z"/>
	<path style="fill:#00632E;" d="M300.36,43.924h-3.072l-4.958-8.623h-0.07c0.099,1.523,0.147,2.609,0.147,3.259v5.364h-2.159V32.526
		h3.048l4.951,8.537h0.055c-0.078-1.481-0.117-2.528-0.117-3.142v-5.395h2.176L300.36,43.924L300.36,43.924z"/>
	<path style="fill:#00632E;" d="M312.506,32.526v7.375c0,0.842-0.188,1.58-0.565,2.214c-0.376,0.634-0.921,1.12-1.633,1.458
		s-1.555,0.507-2.526,0.507c-1.466,0-2.604-0.375-3.414-1.126c-0.812-0.751-1.217-1.779-1.217-3.083v-7.344h2.409v6.978
		c0,0.878,0.177,1.523,0.53,1.934c0.353,0.411,0.938,0.616,1.754,0.616c0.79,0,1.363-0.207,1.72-0.62
		c0.355-0.414,0.533-1.062,0.533-1.945v-6.962h2.409L312.506,32.526L312.506,32.526z"/>
</g>
<g>
	<circle style="fill:none;stroke:#00632E;stroke-width:3;stroke-miterlimit:10;" cx="359.34" cy="37.34" r="29.34"/>
	<g>
		
			<line style="fill:none;stroke:#00632E;stroke-width:3;stroke-miterlimit:10;" x1="344.917" y1="26.443" x2="373.763" y2="26.443"/>
		<line style="fill:none;stroke:#00632E;stroke-width:3;stroke-miterlimit:10;" x1="344.917" y1="37.34" x2="373.763" y2="37.34"/>
		
			<line style="fill:none;stroke:#00632E;stroke-width:3;stroke-miterlimit:10;" x1="344.917" y1="48.237" x2="373.763" y2="48.237"/>
	</g>
</g>
<g>
	<circle style="fill:none;stroke:#00632E;stroke-width:3;stroke-miterlimit:10;" cx="429.34" cy="37.34" r="29.34"/>
	<line style="fill:none;stroke:#00632E;stroke-width:3;stroke-miterlimit:10;" x1="414.588" y1="22.588" x2="444.091" y2="52.092"/>
	<line style="fill:none;stroke:#00632E;stroke-width:3;stroke-miterlimit:10;" x1="414.588" y1="52.093" x2="444.091" y2="22.59"/>
</g>
<circle style="fill:none;stroke:#00632E;stroke-width:2.5562;stroke-miterlimit:10;" cx="288" cy="141" r="25"/>
<path style="fill:#00632E;" d="M272.439,146.61l-2.338-7.62h-0.06c0.084,1.55,0.126,2.584,0.126,3.102v4.518h-1.84v-9.712h2.803
	l2.298,7.427h0.04l2.438-7.427h2.803v9.712h-1.92v-4.597c0-0.217,0.003-0.467,0.01-0.751c0.007-0.283,0.037-1.036,0.09-2.259h-0.06
	l-2.505,7.606L272.439,146.61L272.439,146.61z"/>
<path style="fill:#00632E;" d="M286.748,146.61h-5.593v-9.712h5.593v1.688h-3.534v2.132h3.289v1.688h-3.289v2.504h3.534V146.61z"/>
<path style="fill:#00632E;" d="M297.39,146.61h-2.618l-4.225-7.347h-0.06c0.084,1.298,0.126,2.223,0.126,2.777v4.57h-1.84v-9.712
	h2.597l4.219,7.274h0.047c-0.067-1.262-0.1-2.154-0.1-2.677v-4.597h1.854L297.39,146.61L297.39,146.61z"/>
<path style="fill:#00632E;" d="M307.739,136.898v6.285c0,0.717-0.161,1.346-0.482,1.887c-0.32,0.54-0.785,0.954-1.391,1.242
	c-0.607,0.288-1.325,0.432-2.153,0.432c-1.249,0-2.218-0.32-2.909-0.96s-1.037-1.516-1.037-2.627v-6.258h2.053v5.946
	c0,0.748,0.151,1.298,0.452,1.648s0.8,0.525,1.494,0.525c0.673,0,1.162-0.176,1.465-0.528s0.454-0.905,0.454-1.658v-5.933
	L307.739,136.898L307.739,136.898z"/>
<g>
	<circle style="fill:none;stroke:#00632E;stroke-width:2.5562;stroke-miterlimit:10;" cx="347.646" cy="141" r="25"/>
	<g>
		
			<line style="fill:none;stroke:#00632E;stroke-width:2.5562;stroke-miterlimit:10;" x1="335.356" y1="131.715" x2="359.936" y2="131.715"/>
		<line style="fill:none;stroke:#00632E;stroke-width:2.5562;stroke-miterlimit:10;" x1="335.356" y1="141" x2="359.936" y2="141"/>
		
			<line style="fill:none;stroke:#00632E;stroke-width:2.5562;stroke-miterlimit:10;" x1="335.356" y1="150.285" x2="359.936" y2="150.285"/>
	</g>
</g>
<g>
	<circle style="fill:none;stroke:#00632E;stroke-width:2.5562;stroke-miterlimit:10;" cx="407.292" cy="141" r="25"/>
	
		<line style="fill:none;stroke:#00632E;stroke-width:2.5562;stroke-miterlimit:10;" x1="394.722" y1="128.43" x2="419.861" y2="153.57"/>
	
		<line style="fill:none;stroke:#00632E;stroke-width:2.5562;stroke-miterlimit:10;" x1="394.722" y1="153.571" x2="419.861" y2="128.432"/>
</g>
<g>
	<path style="fill:#FFFFFF;" d="M80.225,45.288c0-17.086-13.459-40.887-29.744-30.938c-10.663,6.515-22.308,11.139-27.274,20.498
		c-6.91,3.632-12.334,8.181-13.115,16.908c-0.858,9.58,4.358,15.68,11.438,20.823c-1.816,1.368-3.282,3.223-4.217,5.874
		c-3.233,9.159,3.555,15.541,10.09,22.211c5.246,5.354,13.446,2.198,18.543-4.785c8.262,6.864,21.874-0.969,27.164-13.97
		c1.928-4.738,2.628-10.866,1.832-16.282C78.217,59.938,80.225,52.786,80.225,45.288z"/>
	<path style="opacity:0.7;fill:#009330;enable-background:new    ;" d="M73.11,81.909c-5.588,13.731-20.462,21.709-28.508,12.682
		c-7.947-8.915-16.233-17.479-11.551-28.985C37.733,54.1,49.772,54.849,61.559,52.924C75.252,50.687,77.792,70.403,73.11,81.909z"/>
	<path style="opacity:0.4;fill:#41281B;enable-background:new    ;" d="M80.225,45.288c0,20.391-14.813,38.266-29.744,30.938
		c-14.746-7.238-29.744-13.851-29.744-30.938S36.463,22.915,50.481,14.35C66.766,4.401,80.225,28.202,80.225,45.288z"/>
	<path style="opacity:0.6;fill:#96BD0D;enable-background:new    ;" d="M59.177,56.151c-1.506,16.825-15.049,30.48-26.828,23.331
		C20.716,72.42,8.83,65.856,10.092,51.757S24.721,34.458,36.92,28.426C51.092,21.419,60.439,42.052,59.177,56.151z"/>
	<path style="opacity:0.7;fill:#BD0926;enable-background:new    ;" d="M49.199,89.708c-3.858,10.93-15.18,17.709-21.797,10.956
		c-6.535-6.67-13.323-13.052-10.09-22.211s12.663-9.017,21.797-10.956C49.721,65.245,52.432,80.549,49.199,89.708z"/>
	<g>
		<path style="fill:#00632E;" d="M91.82,60.267c0-1.277,0.895-3.467,1.99-4.867l7.992-10.22c1.094-1.399,2.932-3.651,4.084-5.003
			c0,0,0.915-1.074,2.549-2.906l0,0c0-0.072-1.453-0.131-3.23-0.131h-8.979c-1.776,0-3.23-1.442-3.23-3.205s1.453-3.205,3.23-3.205
			h18.793c1.776,0,3.23,1.104,3.23,2.453s-0.892,3.601-1.982,5.003l-7.681,9.881c-1.09,1.403-2.907,3.671-4.038,5.042
			c0,0-1.02,1.237-2.655,2.938l0,0c0,0.072,1.453,0.131,3.23,0.131h10.288c1.776,0,3.23,1.442,3.23,3.205s-1.453,3.205-3.23,3.205
			H95.05C93.273,62.589,91.82,61.544,91.82,60.267z"/>
	</g>
	<g>
		<path style="fill:#00632E;" d="M157.431,40.216c0-3.664-0.131-6.738-0.261-9.486h3.77c1.776,0,3.318,1.074,3.427,2.388
			s0.241,2.388,0.295,2.388s1.066-1.084,2.249-2.409c0,0,2.755-3.085,8.055-3.085c5.561,0,11.317,3.598,11.317,13.673v15.676
			c0,1.776-1.453,3.23-3.23,3.23h-1.587c-1.776,0-3.23-1.453-3.23-3.23V47.83c0-1.776-0.3-4.652-0.668-6.39
			c0,0-1.033-4.886-5.415-4.886c-3.206,0-5.43,2.29-6.28,4.711c-0.263,0.654-0.393,1.636-0.393,2.551v15.546
			c0,1.776-1.453,3.23-3.23,3.23h-1.587c-1.776,0-3.23-1.453-3.23-3.23V40.216H157.431z"/>
	</g>
	<g>
		<path style="fill:#00632E;" d="M198.906,48.917c0.196,5.757,4.711,8.242,9.813,8.242c3.73,0,6.346-0.588,8.832-1.439l0.501,2.337
			c0.372,1.737-0.711,3.589-2.408,4.115c0,0-3.458,1.072-8.036,1.072c-10.337,0-16.421-6.346-16.421-16.093
			c0-8.832,5.365-17.14,15.57-17.14c10.337,0,13.739,8.504,13.739,15.504c0,1.504,0,1.504,0,1.504
			c-0.144,1.044-1.715,1.898-3.491,1.898H198.906z M212.905,43.291c0.065-2.944-1.243-7.785-6.607-7.785
			c-4.972,0-6.434,4.701-6.434,4.701c-0.528,1.696,0.494,3.084,2.271,3.084H212.905z"/>
	</g>
	<g>
		<path style="fill:#00632E;" d="M225.006,55.132c1.767,1.112,5.233,2.355,8.113,2.355c3.533,0,5.102-1.504,5.102-3.598
			c0-2.159-1.309-3.205-5.234-4.645c-6.214-2.093-8.765-5.495-8.765-9.29c0-5.626,4.645-9.943,12.037-9.943
			c3.533,0,6.608,0.85,8.504,1.897l-0.734,2.524c-0.496,1.706-2.219,2.487-3.828,1.736c0,0-0.999-0.466-3.812-0.466
			c-2.878,0-4.448,1.439-4.448,3.402c0,2.027,1.504,2.944,5.561,4.448c5.822,2.028,8.439,4.973,8.504,9.682
			c0,5.823-4.513,10.009-12.952,10.009c-3.86,0-6.665-1.071-6.665-1.071c-1.66-0.634-2.628-2.553-2.153-4.265L225.006,55.132z"/>
	</g>
	<path style="fill:#00632E;" d="M137.142,62.589c-8.961,0-15.961-6.15-15.961-16.42c0-10.467,6.868-16.878,16.485-16.878
		c9.487,0,15.832,6.673,15.832,16.355c0,11.71-8.243,16.943-16.289,16.943H137.142z M137.405,56.767
		c4.579,0,7.785-4.448,7.785-10.925c0-4.972-2.224-10.729-7.719-10.729c-5.691,0-7.982,5.561-7.982,10.86
		c0,6.15,3.076,10.794,7.852,10.794H137.405z"/>
	<g>
		<g>
			<path style="fill:#1A171B;" d="M93.268,72.926h1.258v10.125h-1.258V72.926z"/>
			<path style="fill:#1A171B;" d="M101.189,83.051l-0.1-0.87h-0.043c-0.386,0.542-1.13,1.027-2.117,1.027
				c-1.401,0-2.116-0.984-2.116-1.982c0-1.669,1.487-2.581,4.161-2.567v-0.143c0-0.57-0.157-1.597-1.573-1.597
				c-0.644,0-1.316,0.2-1.802,0.514l-0.286-0.827c0.572-0.371,1.401-0.614,2.274-0.614c2.117,0,2.631,1.441,2.631,2.824v2.581
				c0,0.599,0.029,1.183,0.115,1.654L101.189,83.051L101.189,83.051z M101.003,79.528c-1.373-0.028-2.931,0.214-2.931,1.555
				c0,0.813,0.543,1.198,1.187,1.198c0.9,0,1.473-0.57,1.673-1.155c0.043-0.128,0.071-0.271,0.071-0.399
				C101.003,80.727,101.003,79.528,101.003,79.528z"/>
			<path style="fill:#1A171B;" d="M104.961,78.017c0-0.713-0.015-1.298-0.057-1.868h1.116l0.072,1.141h0.028
				c0.343-0.656,1.144-1.298,2.288-1.298c0.958,0,2.445,0.57,2.445,2.938v4.121h-1.259v-3.979c0-1.112-0.414-2.039-1.602-2.039
				c-0.829,0-1.473,0.585-1.687,1.283c-0.057,0.157-0.086,0.371-0.086,0.585v4.15h-1.258V78.017z"/>
			<path style="fill:#1A171B;" d="M119.585,72.926v8.342c0,0.614,0.014,1.312,0.057,1.783h-1.13l-0.057-1.198h-0.028
				c-0.386,0.77-1.23,1.354-2.36,1.354c-1.673,0-2.96-1.412-2.96-3.508c-0.014-2.296,1.416-3.708,3.103-3.708
				c1.058,0,1.773,0.499,2.088,1.055h0.029v-4.121h1.258V72.926z M118.327,78.958c0-0.157-0.015-0.371-0.057-0.527
				c-0.186-0.799-0.873-1.455-1.816-1.455c-1.301,0-2.073,1.141-2.073,2.666c0,1.397,0.686,2.552,2.045,2.552
				c0.844,0,1.616-0.556,1.845-1.497c0.043-0.171,0.057-0.342,0.057-0.541L118.327,78.958L118.327,78.958z"/>
			<path style="fill:#1A171B;" d="M122.212,81.767c0.372,0.242,1.03,0.499,1.659,0.499c0.915,0,1.344-0.456,1.344-1.027
				c0-0.599-0.358-0.927-1.287-1.269c-1.244-0.442-1.83-1.127-1.83-1.954c0-1.112,0.901-2.025,2.388-2.025
				c0.701,0,1.316,0.2,1.702,0.428l-0.315,0.913c-0.271-0.171-0.772-0.4-1.415-0.4c-0.744,0-1.158,0.428-1.158,0.942
				c0,0.57,0.414,0.827,1.315,1.169c1.201,0.456,1.816,1.055,1.816,2.082c0,1.212-0.944,2.068-2.588,2.068
				c-0.758,0-1.459-0.185-1.945-0.47L122.212,81.767z"/>
			<path style="fill:#1A171B;" d="M133.692,82.794c-0.329,0.171-1.058,0.399-1.988,0.399c-2.088,0-3.446-1.412-3.446-3.522
				c0-2.124,1.459-3.665,3.718-3.665c0.744,0,1.401,0.186,1.745,0.356l-0.286,0.97c-0.3-0.171-0.772-0.328-1.459-0.328
				c-1.587,0-2.445,1.169-2.445,2.61c0,1.597,1.029,2.581,2.402,2.581c0.715,0,1.187-0.185,1.545-0.342L133.692,82.794z"/>
			<path style="fill:#1A171B;" d="M139.709,83.051l-0.1-0.87h-0.043c-0.386,0.542-1.13,1.027-2.117,1.027
				c-1.401,0-2.116-0.984-2.116-1.982c0-1.669,1.487-2.581,4.161-2.567v-0.143c0-0.57-0.157-1.597-1.573-1.597
				c-0.643,0-1.315,0.2-1.801,0.514l-0.286-0.827c0.572-0.371,1.402-0.614,2.274-0.614c2.116,0,2.632,1.441,2.632,2.824v2.581
				c0,0.599,0.028,1.183,0.113,1.654L139.709,83.051L139.709,83.051z M139.524,79.528c-1.373-0.028-2.932,0.214-2.932,1.555
				c0,0.813,0.543,1.198,1.187,1.198c0.9,0,1.473-0.57,1.673-1.155c0.043-0.128,0.072-0.271,0.072-0.399V79.528z"/>
			<path style="fill:#1A171B;" d="M143.481,78.402c0-0.884-0.028-1.597-0.058-2.253h1.131l0.057,1.183h0.028
				c0.516-0.842,1.33-1.341,2.461-1.341c1.673,0,2.931,1.412,2.931,3.508c0,2.481-1.516,3.707-3.147,3.707
				c-0.915,0-1.716-0.399-2.131-1.083h-0.028v3.751h-1.244V78.402z M144.725,80.241c0,0.186,0.028,0.356,0.057,0.514
				c0.229,0.87,0.987,1.469,1.888,1.469c1.329,0,2.102-1.084,2.102-2.667c0-1.383-0.73-2.567-2.06-2.567
				c-0.859,0-1.659,0.613-1.901,1.554c-0.044,0.157-0.086,0.343-0.086,0.514L144.725,80.241L144.725,80.241z"/>
			<path style="fill:#1A171B;" d="M153.729,74.209c0.014,0.428-0.3,0.77-0.801,0.77c-0.443,0-0.758-0.342-0.758-0.77
				c0-0.442,0.329-0.784,0.786-0.784C153.429,73.425,153.729,73.767,153.729,74.209z M152.328,83.051v-6.902h1.258v6.902H152.328z"
				/>
			<path style="fill:#1A171B;" d="M156.389,78.017c0-0.713-0.014-1.298-0.058-1.868h1.116l0.071,1.141h0.028
				c0.344-0.656,1.145-1.298,2.288-1.298c0.959,0,2.445,0.57,2.445,2.938v4.121h-1.258v-3.979c0-1.112-0.414-2.039-1.601-2.039
				c-0.83,0-1.473,0.585-1.687,1.283c-0.058,0.157-0.086,0.371-0.086,0.585v4.15h-1.258L156.389,78.017L156.389,78.017z"/>
			<path style="fill:#1A171B;" d="M170.999,76.149c-0.028,0.499-0.057,1.055-0.057,1.896v4.007c0,1.583-0.316,2.553-0.987,3.152
				c-0.672,0.627-1.645,0.827-2.516,0.827c-0.83,0-1.745-0.2-2.304-0.57l0.316-0.955c0.458,0.285,1.172,0.542,2.03,0.542
				c1.286,0,2.23-0.67,2.23-2.411v-0.77h-0.028c-0.385,0.641-1.129,1.155-2.202,1.155c-1.716,0-2.946-1.455-2.946-3.366
				c0-2.338,1.53-3.665,3.117-3.665c1.201,0,1.859,0.628,2.159,1.198h0.028l0.058-1.041h1.102V76.149z M169.697,78.872
				c0-0.213-0.014-0.399-0.071-0.57c-0.229-0.727-0.844-1.326-1.76-1.326c-1.2,0-2.059,1.013-2.059,2.61
				c0,1.355,0.686,2.481,2.044,2.481c0.772,0,1.473-0.485,1.745-1.283c0.071-0.214,0.099-0.456,0.099-0.67v-1.242H169.697z"/>
			<path style="fill:#1A171B;" d="M177.314,81.767c0.371,0.242,1.029,0.499,1.659,0.499c0.915,0,1.343-0.456,1.343-1.027
				c0-0.599-0.357-0.927-1.286-1.269c-1.244-0.442-1.83-1.127-1.83-1.954c0-1.112,0.901-2.025,2.389-2.025
				c0.7,0,1.315,0.2,1.702,0.428l-0.315,0.913c-0.272-0.171-0.772-0.4-1.417-0.4c-0.742,0-1.158,0.428-1.158,0.942
				c0,0.57,0.415,0.827,1.315,1.169c1.201,0.456,1.816,1.055,1.816,2.082c0,1.212-0.944,2.068-2.588,2.068
				c-0.758,0-1.458-0.185-1.944-0.47L177.314,81.767z"/>
			<path style="fill:#1A171B;" d="M183.86,78.402c0-0.884-0.028-1.597-0.058-2.253h1.13l0.057,1.183h0.028
				c0.516-0.842,1.33-1.341,2.461-1.341c1.673,0,2.931,1.412,2.931,3.508c0,2.481-1.516,3.707-3.147,3.707
				c-0.915,0-1.716-0.399-2.131-1.083h-0.028v3.751h-1.244L183.86,78.402L183.86,78.402z M185.104,80.241
				c0,0.186,0.028,0.356,0.057,0.514c0.229,0.87,0.987,1.469,1.888,1.469c1.329,0,2.102-1.084,2.102-2.667
				c0-1.383-0.73-2.567-2.06-2.567c-0.859,0-1.659,0.613-1.901,1.554c-0.044,0.157-0.086,0.343-0.086,0.514L185.104,80.241
				L185.104,80.241z"/>
			<path style="fill:#1A171B;" d="M193.408,79.828c0.03,1.697,1.116,2.396,2.374,2.396c0.901,0,1.444-0.157,1.917-0.356l0.214,0.898
				c-0.443,0.199-1.201,0.427-2.302,0.427c-2.131,0-3.403-1.397-3.403-3.479s1.23-3.722,3.246-3.722c2.26,0,2.86,1.983,2.86,3.252
				c0,0.257-0.03,0.456-0.044,0.585h-4.862V79.828z M197.098,78.929c0.014-0.799-0.33-2.039-1.745-2.039
				c-1.272,0-1.83,1.169-1.93,2.039H197.098z"/>
			<path style="fill:#1A171B;" d="M205.516,82.794c-0.329,0.171-1.058,0.399-1.988,0.399c-2.088,0-3.446-1.412-3.446-3.522
				c0-2.124,1.458-3.665,3.718-3.665c0.744,0,1.401,0.186,1.744,0.356l-0.286,0.97c-0.299-0.171-0.772-0.328-1.458-0.328
				c-1.587,0-2.445,1.169-2.445,2.61c0,1.597,1.03,2.581,2.403,2.581c0.714,0,1.186-0.185,1.544-0.342L205.516,82.794z"/>
			<path style="fill:#1A171B;" d="M209.103,74.209c0.014,0.428-0.3,0.77-0.801,0.77c-0.443,0-0.758-0.342-0.758-0.77
				c0-0.442,0.329-0.784,0.786-0.784C208.803,73.425,209.103,73.767,209.103,74.209z M207.702,83.051v-6.902h1.258v6.902H207.702z"
				/>
			<path style="fill:#1A171B;" d="M215.594,83.051l-0.101-0.87h-0.043c-0.385,0.542-1.129,1.027-2.117,1.027
				c-1.401,0-2.117-0.984-2.117-1.982c0-1.669,1.488-2.581,4.162-2.567v-0.143c0-0.57-0.157-1.597-1.574-1.597
				c-0.643,0-1.315,0.2-1.802,0.514l-0.285-0.827c0.571-0.371,1.401-0.614,2.273-0.614c2.117,0,2.632,1.441,2.632,2.824v2.581
				c0,0.599,0.028,1.183,0.113,1.654L215.594,83.051L215.594,83.051z M215.408,79.528c-1.373-0.028-2.931,0.214-2.931,1.555
				c0,0.813,0.543,1.198,1.186,1.198c0.901,0,1.473-0.57,1.673-1.155c0.044-0.128,0.072-0.271,0.072-0.399L215.408,79.528
				L215.408,79.528z"/>
			<path style="fill:#1A171B;" d="M219.364,72.926h1.258v10.125h-1.258V72.926z"/>
			<path style="fill:#1A171B;" d="M224.855,74.209c0.014,0.428-0.3,0.77-0.801,0.77c-0.443,0-0.758-0.342-0.758-0.77
				c0-0.442,0.329-0.784,0.786-0.784C224.554,73.425,224.855,73.767,224.855,74.209z M223.453,83.051v-6.902h1.258v6.902H223.453z"
				/>
			<path style="fill:#1A171B;" d="M227.341,81.767c0.371,0.242,1.029,0.499,1.659,0.499c0.915,0,1.343-0.456,1.343-1.027
				c0-0.599-0.357-0.927-1.286-1.269c-1.244-0.442-1.83-1.127-1.83-1.954c0-1.112,0.901-2.025,2.389-2.025
				c0.7,0,1.315,0.2,1.702,0.428l-0.315,0.913c-0.272-0.171-0.772-0.4-1.417-0.4c-0.743,0-1.158,0.428-1.158,0.942
				c0,0.57,0.415,0.827,1.315,1.169c1.201,0.456,1.816,1.055,1.816,2.082c0,1.212-0.944,2.068-2.588,2.068
				c-0.758,0-1.458-0.185-1.944-0.47L227.341,81.767z"/>
			<path style="fill:#1A171B;" d="M235.404,74.166v1.983h1.802v0.955h-1.802v3.721c0,0.856,0.242,1.341,0.944,1.341
				c0.329,0,0.572-0.043,0.73-0.085l0.057,0.941c-0.242,0.1-0.629,0.171-1.115,0.171c-0.587,0-1.058-0.185-1.359-0.527
				c-0.357-0.371-0.486-0.984-0.486-1.797v-3.765h-1.072v-0.955h1.072v-1.655L235.404,74.166z"/>
			<path style="fill:#1A171B;" d="M239.162,81.767c0.371,0.242,1.029,0.499,1.659,0.499c0.915,0,1.343-0.456,1.343-1.027
				c0-0.599-0.357-0.927-1.286-1.269c-1.244-0.442-1.83-1.127-1.83-1.954c0-1.112,0.901-2.025,2.389-2.025
				c0.7,0,1.315,0.2,1.702,0.428l-0.315,0.913c-0.272-0.171-0.772-0.4-1.417-0.4c-0.742,0-1.158,0.428-1.158,0.942
				c0,0.57,0.415,0.827,1.315,1.169c1.201,0.456,1.816,1.055,1.816,2.082c0,1.212-0.944,2.068-2.588,2.068
				c-0.758,0-1.458-0.185-1.944-0.47L239.162,81.767z"/>
		</g>
	</g>
</g>
</svg>
