<?xml version="1.0" encoding="utf-8"?>
<!-- Generator: Adobe Illustrator 23.0.1, SVG Export Plug-In . SVG Version: 6.00 Build 0)  -->
<svg version="1.1" id="Layer_1" xmlns="http://www.w3.org/2000/svg" xmlns:xlink="http://www.w3.org/1999/xlink" x="0px" y="0px"
	 width="110px" height="110px" viewBox="0 0 110 110" style="enable-background:new 0 0 110 110;" xml:space="preserve">
<style type="text/css">
	.st0{fill:#077B3A;}
	.st1{fill:#FFFFFF;stroke:#FFFFFF;stroke-width:1.7008;stroke-linecap:round;stroke-linejoin:round;stroke-miterlimit:10;}
	.st2{fill:#077B3A;stroke:#FFFFFF;stroke-width:1.7008;stroke-linecap:round;stroke-linejoin:round;stroke-miterlimit:10;}
	.st3{fill:none;stroke:#FFFFFF;stroke-width:1.7008;stroke-linecap:round;stroke-linejoin:round;stroke-miterlimit:10;}
	.st4{fill:#FFFFFF;stroke:#FFFFFF;stroke-width:1.4173;stroke-linecap:round;stroke-linejoin:round;stroke-miterlimit:10;}
	.st5{fill:#FFFFFF;stroke:#FFFFFF;stroke-miterlimit:10;}
	.st6{fill:#FFFFFF;}
</style>
<g>
	<rect class="st0" width="110" height="110"/>
</g>
<g>
	<g>
		<path class="st1" d="M60.6,88.1c0,2.5-2.1,4.5-4.6,4.5s-4.5-2.1-4.5-4.6"/>
		<path class="st2" d="M69.1,77.8l0.1-7l0,0c0-2.9,1.2-4.1,5.2-9.8l0,0c3.8-5.3,5.4-11.8,5.4-16.6c0.1-12.9-10.1-23.4-23-23.6l0,0
			c0,0,0,0-0.1,0c0,0,0,0-0.1,0l0,0C43.9,20.7,33.4,31,33.3,43.9c-0.1,4.9,1.4,11.4,5.1,16.8l0,0c3.9,5.8,5,7.2,5,9.9l-0.1,7"/>
		<path class="st2" d="M69,85.6c0,1.4-1.2,2.6-2.6,2.6L45.7,88c-1.4,0-2.6-1.2-2.6-2.6l0.1-9.1c0-1.4,1.2-2.6,2.6-2.6l20.6,0.2
			c1.4,0,2.6,1.2,2.6,2.6V85.6z"/>
		<line class="st3" x1="43.2" y1="80.8" x2="69" y2="81.1"/>
		<path class="st4" d="M55.4,57.6c0-1.2,0.1-2.2,0.3-3c0.2-0.9,0.5-1.7,0.8-2.4s0.7-1.3,1.2-1.9c0.5-0.6,1-1.1,1.5-1.6s1-1,1.6-1.5
			c0.5-0.5,1-1.1,1.4-1.7c0.4-0.6,0.7-1.2,1-1.9c0.2-0.7,0.4-1.4,0.4-2.1c0-1.1-0.2-2-0.6-2.7c-0.4-0.8-0.9-1.4-1.6-1.9
			S60,36,59.1,35.8c-0.8-0.2-1.7-0.3-2.6-0.3c-1.3,0-2.4,0.2-3.4,0.6c-1,0.4-1.8,1-2.4,1.8s-1.1,1.7-1.5,2.7
			c-0.3,1.1-0.5,2.2-0.5,3.4h-1.6c0-1.5,0.2-2.9,0.6-4.2c0.4-1.3,1-2.4,1.8-3.3s1.8-1.6,3-2.1s2.6-0.7,4.1-0.7
			c1.2,0,2.2,0.2,3.3,0.5c1,0.3,1.9,0.8,2.7,1.4c0.8,0.6,1.4,1.4,1.8,2.4c0.4,1,0.7,2.1,0.7,3.4c0,0.9-0.1,1.7-0.3,2.4
			c-0.2,0.7-0.5,1.3-0.9,1.9c-0.4,0.6-0.8,1.1-1.2,1.6s-0.9,0.9-1.4,1.4c-0.5,0.4-1,0.9-1.5,1.4s-1,1-1.4,1.7s-0.7,1.4-1,2.4
			s-0.4,2-0.4,3.3L55.4,57.6L55.4,57.6z"/>
		<g>
			<path class="st5" d="M23.5,45.1c0-0.9-0.7-1.6-1.6-1.6h-6.3c-0.9,0-1.6,0.7-1.6,1.6c0,0.9,0.7,1.6,1.6,1.6h6.3
				C22.8,46.6,23.5,45.9,23.5,45.1z"/>
			<path class="st5" d="M30.4,22.9c0.3,0.3,0.7,0.5,1.1,0.5s0.8-0.2,1.1-0.5c0.6-0.6,0.6-1.6,0-2.2l-2.2-2.2c-0.6-0.6-1.6-0.6-2.2,0
				s-0.6,1.6,0,2.2L30.4,22.9z"/>
			<path class="st5" d="M20.1,26.9l5.4,3.1c0.2,0.1,0.5,0.2,0.8,0.2c0.5,0,1.1-0.3,1.4-0.8c0.4-0.8,0.2-1.7-0.6-2.1l-5.4-3.1
				C21,23.8,20,24,19.6,24.8C19.1,25.5,19.4,26.4,20.1,26.9z"/>
			<path class="st5" d="M27.7,60.7c-0.4-0.7-1.4-1-2.1-0.6l-5.4,3.1c-0.7,0.4-1,1.4-0.6,2.1c0.3,0.5,0.8,0.8,1.4,0.8
				c0.3,0,0.5-0.1,0.8-0.2l5.4-3.1C27.9,62.4,28.1,61.5,27.7,60.7z"/>
			<path class="st5" d="M30.4,67.2l-2.2,2.2c-0.6,0.6-0.6,1.6,0,2.2c0.3,0.3,0.7,0.5,1.1,0.5s0.8-0.2,1.1-0.5l2.2-2.2
				c0.6-0.6,0.6-1.6,0-2.2S31,66.6,30.4,67.2z"/>
			<path class="st5" d="M20.4,55.9l3-0.8c0.8-0.2,1.3-1.1,1.1-1.9c-0.2-0.8-1.1-1.3-1.9-1.1l-3,0.8c-0.8,0.2-1.3,1.1-1.1,1.9
				c0.2,0.7,0.8,1.2,1.5,1.2C20.1,56,20.3,55.9,20.4,55.9z"/>
			<path class="st5" d="M19.6,37.3l3,0.8c0.1,0,0.3,0.1,0.4,0.1c0.7,0,1.3-0.5,1.5-1.2c0.2-0.8-0.3-1.7-1.1-1.9l-3-0.8
				c-0.8-0.2-1.7,0.3-1.9,1.1C18.3,36.2,18.8,37,19.6,37.3z"/>
		</g>
		<g>
			<path class="st6" d="M90,46.6h6.3c0.9,0,1.6-0.7,1.6-1.6c0-0.9-0.7-1.6-1.6-1.6H90c-0.9,0-1.6,0.7-1.6,1.6
				C88.4,45.9,89.1,46.6,90,46.6z"/>
			<path class="st6" d="M83.7,20.7c0.6-0.6,0.6-1.6,0-2.2s-1.6-0.6-2.2,0l-2.2,2.2c-0.6,0.6-0.6,1.6,0,2.2c0.3,0.3,0.7,0.5,1.1,0.5
				s0.8-0.2,1.1-0.5L83.7,20.7z"/>
			<path class="st6" d="M92.4,24.7c-0.4-0.8-1.4-1-2.1-0.6l-5.4,3.1c-0.7,0.4-1,1.4-0.6,2.1c0.3,0.5,0.8,0.8,1.4,0.8
				c0.3,0,0.5-0.1,0.8-0.2l5.4-3.1C92.5,26.4,92.8,25.5,92.4,24.7z"/>
			<path class="st6" d="M84.8,62.9l5.4,3.1c0.2,0.1,0.5,0.2,0.8,0.2c0.5,0,1.1-0.3,1.4-0.8c0.4-0.7,0.2-1.7-0.6-2.1l-5.4-3.1
				c-0.7-0.4-1.7-0.2-2.1,0.6C83.8,61.5,84.1,62.4,84.8,62.9z"/>
			<path class="st6" d="M79.3,67.2c-0.6,0.6-0.6,1.6,0,2.2l2.2,2.2c0.3,0.3,0.7,0.5,1.1,0.5s0.8-0.2,1.1-0.5c0.6-0.6,0.6-1.6,0-2.2
				l-2.2-2.2C80.9,66.6,79.9,66.6,79.3,67.2z"/>
			<path class="st6" d="M91.9,56c0.7,0,1.3-0.5,1.5-1.2c0.2-0.8-0.3-1.7-1.1-1.9l-3-0.8c-0.8-0.2-1.7,0.3-1.9,1.1
				c-0.2,0.8,0.3,1.7,1.1,1.9l3,0.8C91.6,55.9,91.8,56,91.9,56z"/>
			<path class="st6" d="M93.4,35.4c-0.2-0.8-1.1-1.3-1.9-1.1l-3,0.8c-0.8,0.2-1.3,1.1-1.1,1.9c0.2,0.7,0.8,1.2,1.5,1.2
				c0.1,0,0.3,0,0.4-0.1l3-0.8C93.1,37,93.6,36.2,93.4,35.4z"/>
		</g>
		<circle class="st6" cx="56.5" cy="63.1" r="2.1"/>
	</g>
</g>
</svg>
