<?xml version="1.0" encoding="utf-8"?>
<!-- Generator: Adobe Illustrator 23.0.1, SVG Export Plug-In . SVG Version: 6.00 Build 0)  -->
<svg version="1.1" id="Layer_1" xmlns="http://www.w3.org/2000/svg" xmlns:xlink="http://www.w3.org/1999/xlink" x="0px" y="0px"
	 width="110px" height="110px" viewBox="0 0 110 110" style="enable-background:new 0 0 110 110;" xml:space="preserve">
<style type="text/css">
	.st0{display:none;}
	.st1{display:inline;fill:#FFFFFF;}
	.st2{fill:none;stroke:#077B3A;stroke-width:1.7008;stroke-miterlimit:10;}
</style>
<g id="Layer_1_1_">
	<g class="st0">
		<polyline class="st1" points="12,24.1 12,88.8 15,89.6 35,89.6 35.8,24.1 12.8,23.3 12,23.3 		"/>
		<polyline class="st1" points="39.7,24.1 39.7,88.8 41.1,89.6 62.7,89.6 63.5,88.8 63.5,24.1 62.7,23.3 40.5,23.3 39.7,24.1 		"/>
		<polyline class="st1" points="65.8,25.5 76.9,89.2 77.8,89.9 99.7,86.1 100.4,85.2 89.3,21.5 88.4,20.8 66.5,24.6 65.8,25.5 		"/>
	</g>
	<g>
		<path class="st2" d="M35,89.6H12.8c-0.4,0-0.8-0.4-0.8-0.8V24.1c0-0.4,0.4-0.8,0.8-0.8H35c0.4,0,0.8,0.4,0.8,0.8v64.7
			C35.8,89.2,35.4,89.6,35,89.6z"/>
		<path class="st2" d="M30.5,53.4H17.3c-0.4,0-0.8-0.4-0.8-0.8V29.4c0-0.4,0.4-0.8,0.8-0.8h13.2c0.4,0,0.8,0.4,0.8,0.8v23.3
			C31.3,53.1,30.9,53.4,30.5,53.4z"/>
		<line class="st2" x1="19.6" y1="33.3" x2="28.1" y2="33.3"/>
		<line class="st2" x1="19.6" y1="37.4" x2="28.1" y2="37.4"/>
		<line class="st2" x1="19.6" y1="41.5" x2="28.1" y2="41.5"/>
		<circle class="st2" cx="23.9" cy="69.3" r="3.5"/>
	</g>
	<g>
		<path class="st2" d="M62.7,89.6H40.5c-0.4,0-0.8-0.4-0.8-0.8V24.1c0-0.4,0.4-0.8,0.8-0.8h22.2c0.4,0,0.8,0.4,0.8,0.8v64.7
			C63.5,89.2,63.2,89.6,62.7,89.6z"/>
		<path class="st2" d="M58.2,53.4H45c-0.4,0-0.8-0.4-0.8-0.8V29.4c0-0.4,0.4-0.8,0.8-0.8h13.2c0.4,0,0.8,0.4,0.8,0.8v23.3
			C59,53.1,58.7,53.4,58.2,53.4z"/>
		<line class="st2" x1="47.4" y1="33.3" x2="55.9" y2="33.3"/>
		<line class="st2" x1="47.4" y1="37.4" x2="55.9" y2="37.4"/>
		<line class="st2" x1="47.4" y1="41.5" x2="55.9" y2="41.5"/>
		<circle class="st2" cx="51.6" cy="69.3" r="3.5"/>
	</g>
	<g>
		<path class="st2" d="M99.7,86.1l-21.9,3.8c-0.4,0.1-0.8-0.2-0.9-0.7L65.8,25.5c-0.1-0.4,0.2-0.8,0.7-0.9l21.9-3.8
			c0.4-0.1,0.8,0.2,0.9,0.7l11.1,63.7C100.4,85.6,100.1,86,99.7,86.1z"/>
		<path class="st2" d="M89.1,51.2l-13,2.3c-0.4,0.1-0.8-0.2-0.9-0.7l-4-22.9c-0.1-0.4,0.2-0.8,0.7-0.9l13-2.3
			c0.4-0.1,0.8,0.2,0.9,0.7l4,22.9C89.8,50.7,89.5,51.1,89.1,51.2z"/>
		<line class="st2" x1="74.9" y1="33.2" x2="83.3" y2="31.8"/>
		<line class="st2" x1="75.6" y1="37.3" x2="84" y2="35.8"/>
		<line class="st2" x1="76.3" y1="41.3" x2="84.7" y2="39.8"/>
		<ellipse class="st2" cx="85.3" cy="68" rx="3.5" ry="3.5"/>
	</g>
</g>
</svg>
