<?xml version="1.0" encoding="utf-8"?>
<!-- Generator: Adobe Illustrator 23.0.1, SVG Export Plug-In . SVG Version: 6.00 Build 0)  -->
<svg version="1.1" id="Layer_1" xmlns="http://www.w3.org/2000/svg" xmlns:xlink="http://www.w3.org/1999/xlink" x="0px" y="0px"
	 width="110px" height="110px" viewBox="0 0 110 110" style="enable-background:new 0 0 110 110;" xml:space="preserve">
<style type="text/css">
	.st0{fill:#F6F6F6;}
	.st1{display:none;fill:#F6F6F6;}
	.st2{display:none;}
	.st3{display:none;fill:#FFFFFF;}
	.st4{fill:#FFFFFF;stroke:#077B3A;stroke-width:1.7008;stroke-linejoin:round;}
</style>
<g id="Layer_2_1_">
	<rect class="st0" width="110" height="110"/>
</g>
<g>
	<g>
		<rect class="st1" width="110" height="110"/>
		<g id="Layer_3" class="st2">
		</g>
	</g>
	<g id="Layer_1_1_">
		<g id="Layer_4">
		</g>
		<g>
			<rect x="-10.9" y="-10.2" class="st3" width="131.2" height="131.2"/>
		</g>
	</g>
	<g>
		<polyline class="st4" points="8.2,33.8 8.2,92.8 42.8,92.8 46.9,96.8 63.1,96.8 67.2,92.8 101.8,92.8 101.8,33.8 		"/>
		<path class="st4" d="M24.5,27.7h-8.1v56.9h26.4c3.9,0,6.6,2,8.1,4.1H55V39.9c0-6.6-4-12.2-12.2-12.2h-6.1"/>
		<path class="st4" d="M87.5,27.7h6.1v56.9H67.2c-3.9,0-6.6,1.1-8.1,4.1H55V39.9c0-5.4,2.7-10.1,8.1-11.7"/>
		<polygon class="st4" points="24.5,48 30.6,44 36.7,48 36.7,23.6 24.5,23.6 		"/>
		<path class="st4" d="M75.3,58.2c-3.4,0-6.1,2.7-6.1,6.1s2.7,6.1,6.1,6.1s6.1-2.7,6.1-6.1S78.7,58.2,75.3,58.2z"/>
		<path class="st4" d="M75.3,13.4c-3.4,0-6.1,2.6-6.1,6.3c0,6.4,1.5,24.4,2,26.2c0.5,1.8,1.9,4.1,4.1,4.1s3.6-2.2,4.1-4.1
			c0.5-1.8,2-19.8,2-26.2C81.4,16.1,78.7,13.4,75.3,13.4z"/>
	</g>
</g>
</svg>
