<?xml version="1.0" encoding="utf-8"?>
<!-- Generator: Adobe Illustrator 23.0.1, SVG Export Plug-In . SVG Version: 6.00 Build 0)  -->
<svg version="1.1" id="Layer_1" xmlns="http://www.w3.org/2000/svg" xmlns:xlink="http://www.w3.org/1999/xlink" x="0px" y="0px"
	 width="110px" height="110px" viewBox="0 0 110 110" style="enable-background:new 0 0 110 110;" xml:space="preserve">
<style type="text/css">
	.st0{display:none;fill:#F6F6F6;}
	.st1{display:none;}
	.st2{fill:#FFFFFF;}
	.st3{display:none;fill:#FFFFFF;}
	.st4{fill:none;stroke:#077B3A;stroke-width:1.7008;stroke-linejoin:round;}
	.st5{fill:none;stroke:#077B3A;stroke-width:1.7008;stroke-linecap:round;stroke-linejoin:round;}
	.st6{fill:none;stroke:#077B3A;stroke-width:0.8504;stroke-linejoin:round;}
	.st7{fill:none;stroke:#077B3A;stroke-width:0.8504;stroke-miterlimit:10;}
	.st8{fill:none;stroke:#077B3A;stroke-width:0.8504;stroke-linecap:round;stroke-linejoin:round;}
	.st9{fill:#1B75BB;}
</style>
<g>
	<rect class="st0" width="110" height="110"/>
	<g id="Layer_3" class="st1">
	</g>
</g>
<g>
	<polygon class="st2" points="8.5,20 8.5,37 8.5,62.3 8.5,77.4 10.7,81.8 15.9,83 45.9,83 45.9,90.5 35.4,97.5 74.4,98 64.6,90.5 
		64.6,83 95.4,83 99.9,81.8 101.6,79.4 101.6,20.4 99.6,16.7 92.4,15.7 13.5,15.8 	"/>
	<g id="Layer_4">
	</g>
	<g>
		<rect x="-10.9" y="-10.2" class="st3" width="131.2" height="131.2"/>
		<g>
			<line class="st4" x1="8.5" y1="68" x2="102" y2="68"/>
			<polyline class="st4" points="64.6,83 64.6,90.5 75.8,98 34.7,98 45.9,90.5 45.9,83 			"/>
			<line class="st5" x1="51.5" y1="75.5" x2="59" y2="75.5"/>
			<path class="st4" d="M102,21.3c0-3.1-2.5-5.6-5.6-5.6H14.1c-1.5,0-3,0.6-4,1.6s-1.6,2.4-1.6,4v56.1c0,3.1,2.5,5.6,5.6,5.6h82.3
				c3.1,0,5.6-2.5,5.6-5.6V21.3z"/>
		</g>
		<g>
			<g>
				<path class="st6" d="M80.4,27.5c0-1.7-1.3-3-3-3H33.2c-1.7,0-3,1.3-3,3v30.1c0,1.7,1.3,3,3,3h44.2c1.7,0,3-1.3,3-3V27.5z"/>
				<line class="st6" x1="30.2" y1="30.5" x2="80.4" y2="30.5"/>
				<circle class="st7" cx="35.4" cy="27.8" r="1.1"/>
				<circle class="st7" cx="38.8" cy="27.8" r="1.1"/>
			</g>
			<rect x="50.7" y="34.7" class="st6" width="9.6" height="21.4"/>
			<rect x="36.7" y="34.7" class="st6" width="9.6" height="21.4"/>
			<rect x="64.8" y="34.7" class="st6" width="9.6" height="21.4"/>
			<line class="st8" x1="38.8" y1="39" x2="42.5" y2="39"/>
			<line class="st8" x1="38.8" y1="41.6" x2="44.5" y2="41.6"/>
			<line class="st8" x1="38.8" y1="44.1" x2="41.5" y2="44.1"/>
			<line class="st8" x1="38.8" y1="46.7" x2="43.4" y2="46.7"/>
			<line class="st8" x1="38.8" y1="49.3" x2="42.1" y2="49.3"/>
			<line class="st8" x1="38.8" y1="51.8" x2="41.3" y2="51.8"/>
			<line class="st8" x1="52.5" y1="39" x2="58.6" y2="39"/>
			<line class="st8" x1="52.5" y1="41.6" x2="56.8" y2="41.6"/>
			<line class="st8" x1="52.5" y1="44.1" x2="55.6" y2="44.1"/>
			<line class="st8" x1="52.5" y1="46.7" x2="55.6" y2="46.7"/>
			<line class="st8" x1="52.5" y1="49.3" x2="55" y2="49.3"/>
			<line class="st8" x1="52.5" y1="51.8" x2="55.6" y2="51.8"/>
			<line class="st8" x1="66.7" y1="39" x2="70.4" y2="39"/>
			<line class="st8" x1="66.7" y1="41.2" x2="70.4" y2="41.2"/>
			<line class="st8" x1="66.7" y1="43.3" x2="72.7" y2="43.3"/>
			<line class="st8" x1="66.7" y1="45.4" x2="69.7" y2="45.4"/>
			<line class="st8" x1="66.7" y1="47.6" x2="70.3" y2="47.6"/>
			<line class="st8" x1="66.7" y1="49.7" x2="69.7" y2="49.7"/>
			<line class="st8" x1="66.7" y1="51.8" x2="68.5" y2="51.8"/>
		</g>
	</g>
	<path class="st9" d="M10.2,17.3"/>
</g>
</svg>
