<?xml version="1.0" encoding="utf-8"?>
<!-- Generator: Adobe Illustrator 23.0.1, SVG Export Plug-In . SVG Version: 6.00 Build 0)  -->
<svg version="1.1" id="Layer_1" xmlns="http://www.w3.org/2000/svg" xmlns:xlink="http://www.w3.org/1999/xlink" x="0px" y="0px"
	 width="110px" height="110px" viewBox="0 0 110 110" style="enable-background:new 0 0 110 110;" xml:space="preserve">
<style type="text/css">
	.st0{fill:none;stroke:#077B3A;stroke-width:1.7008;stroke-linejoin:round;}
	.st1{fill:none;stroke:#077B3A;stroke-width:1.6747;stroke-linecap:round;stroke-linejoin:round;stroke-miterlimit:10;}
	.st2{fill:none;stroke:#077B3A;stroke-width:1.7041;stroke-linecap:round;stroke-linejoin:round;stroke-miterlimit:10;}
	.st3{fill:none;stroke:#077B3A;stroke-width:1.4669;stroke-linecap:round;stroke-linejoin:round;stroke-miterlimit:10;}
	.st4{fill:#FFFFFF;stroke:#077B3A;stroke-width:1.7041;stroke-linecap:round;stroke-linejoin:round;}
</style>
<g id="Layer_1_1_">
	<g>
		<g>
			<polyline class="st0" points="64.8,84.3 64.8,92.2 76.7,100.1 33.3,100.1 45.1,92.2 45.1,84.3 			"/>
			<path class="st0" d="M104.2,19.3c0-3.3-2.6-5.9-5.9-5.9H11.6c-3.3,0-5.9,2.6-5.9,5.9v59.1c0,3.3,2.6,5.9,5.9,5.9h86.7
				c3.3,0,5.9-2.6,5.9-5.9V19.3z"/>
			<line class="st0" x1="5.7" y1="68.5" x2="104.2" y2="68.5"/>
			<line class="st0" x1="51" y1="76.4" x2="58.9" y2="76.4"/>
		</g>
		<path class="st1" d="M80.9,61.3H29.1c-0.3,0-0.6-0.3-0.6-0.6V23c0-0.3,0.3-0.6,0.6-0.6h51.8c0.3,0,0.6,0.3,0.6,0.6v37.7
			C81.4,61.1,81.2,61.3,80.9,61.3z"/>
		<line class="st2" x1="28.5" y1="54.6" x2="81.4" y2="54.6"/>
		<line class="st2" x1="37" y1="58" x2="78.6" y2="58"/>
		<line class="st3" x1="32.1" y1="56.7" x2="32.1" y2="59.2"/>
		<line class="st3" x1="33.9" y1="56.7" x2="33.9" y2="59.2"/>
		<polygon class="st4" points="50.2,38.7 50.2,29.2 58.4,34 66.6,38.7 58.4,43.5 50.2,48.2 		"/>
	</g>
</g>
</svg>
